G04 #@! TF.GenerationSoftware,KiCad,Pcbnew,7.0.8*
G04 #@! TF.CreationDate,2024-03-21T14:37:43-03:00*
G04 #@! TF.ProjectId,Demo PPI NB V2,44656d6f-2050-4504-9920-4e422056322e,rev?*
G04 #@! TF.SameCoordinates,PX25ab8e0PY6dc4960*
G04 #@! TF.FileFunction,Legend,Top*
G04 #@! TF.FilePolarity,Positive*
%FSLAX46Y46*%
G04 Gerber Fmt 4.6, Leading zero omitted, Abs format (unit mm)*
G04 Created by KiCad (PCBNEW 7.0.8) date 2024-03-21 14:37:43*
%MOMM*%
%LPD*%
G01*
G04 APERTURE LIST*
G04 Aperture macros list*
%AMRoundRect*
0 Rectangle with rounded corners*
0 $1 Rounding radius*
0 $2 $3 $4 $5 $6 $7 $8 $9 X,Y pos of 4 corners*
0 Add a 4 corners polygon primitive as box body*
4,1,4,$2,$3,$4,$5,$6,$7,$8,$9,$2,$3,0*
0 Add four circle primitives for the rounded corners*
1,1,$1+$1,$2,$3*
1,1,$1+$1,$4,$5*
1,1,$1+$1,$6,$7*
1,1,$1+$1,$8,$9*
0 Add four rect primitives between the rounded corners*
20,1,$1+$1,$2,$3,$4,$5,0*
20,1,$1+$1,$4,$5,$6,$7,0*
20,1,$1+$1,$6,$7,$8,$9,0*
20,1,$1+$1,$8,$9,$2,$3,0*%
%AMFreePoly0*
4,1,6,1.250000,-1.250000,-1.250000,-1.250000,-1.250000,0.500000,-0.500000,1.250000,1.250000,1.250000,1.250000,-1.250000,1.250000,-1.250000,$1*%
G04 Aperture macros list end*
%ADD10C,0.150000*%
%ADD11C,0.100000*%
%ADD12C,0.120000*%
%ADD13C,0.127000*%
%ADD14C,0.200000*%
%ADD15C,0.250000*%
%ADD16R,1.700000X1.700000*%
%ADD17O,1.700000X1.700000*%
%ADD18R,1.150000X0.650000*%
%ADD19R,1.300000X0.450000*%
%ADD20R,1.700000X1.400000*%
%ADD21R,0.800000X0.540000*%
%ADD22RoundRect,0.135000X-0.135000X-0.185000X0.135000X-0.185000X0.135000X0.185000X-0.135000X0.185000X0*%
%ADD23RoundRect,0.135000X0.135000X0.185000X-0.135000X0.185000X-0.135000X-0.185000X0.135000X-0.185000X0*%
%ADD24RoundRect,0.250000X1.000000X0.900000X-1.000000X0.900000X-1.000000X-0.900000X1.000000X-0.900000X0*%
%ADD25RoundRect,0.225000X0.250000X-0.225000X0.250000X0.225000X-0.250000X0.225000X-0.250000X-0.225000X0*%
%ADD26RoundRect,0.225000X0.225000X0.250000X-0.225000X0.250000X-0.225000X-0.250000X0.225000X-0.250000X0*%
%ADD27RoundRect,0.140000X0.140000X0.170000X-0.140000X0.170000X-0.140000X-0.170000X0.140000X-0.170000X0*%
%ADD28RoundRect,0.100000X0.100000X-0.130000X0.100000X0.130000X-0.100000X0.130000X-0.100000X-0.130000X0*%
%ADD29RoundRect,0.135000X-0.185000X0.135000X-0.185000X-0.135000X0.185000X-0.135000X0.185000X0.135000X0*%
%ADD30RoundRect,0.140000X-0.170000X0.140000X-0.170000X-0.140000X0.170000X-0.140000X0.170000X0.140000X0*%
%ADD31R,1.600000X1.400000*%
%ADD32RoundRect,0.135000X0.185000X-0.135000X0.185000X0.135000X-0.185000X0.135000X-0.185000X-0.135000X0*%
%ADD33RoundRect,0.140000X0.170000X-0.140000X0.170000X0.140000X-0.170000X0.140000X-0.170000X-0.140000X0*%
%ADD34R,3.600000X1.270000*%
%ADD35R,4.200000X1.750000*%
%ADD36RoundRect,0.218750X0.256250X-0.218750X0.256250X0.218750X-0.256250X0.218750X-0.256250X-0.218750X0*%
%ADD37R,1.400000X1.600000*%
%ADD38RoundRect,0.250000X-0.262500X-0.450000X0.262500X-0.450000X0.262500X0.450000X-0.262500X0.450000X0*%
%ADD39C,3.300000*%
%ADD40C,2.500000*%
%ADD41C,3.500000*%
%ADD42RoundRect,0.250000X-0.475000X0.250000X-0.475000X-0.250000X0.475000X-0.250000X0.475000X0.250000X0*%
%ADD43R,2.400000X0.750000*%
%ADD44R,0.750000X2.400000*%
%ADD45FreePoly0,180.000000*%
%ADD46R,2.500000X2.500000*%
%ADD47RoundRect,0.200000X-0.200000X-0.275000X0.200000X-0.275000X0.200000X0.275000X-0.200000X0.275000X0*%
%ADD48RoundRect,0.150000X0.150000X-0.587500X0.150000X0.587500X-0.150000X0.587500X-0.150000X-0.587500X0*%
%ADD49RoundRect,0.200000X0.275000X-0.200000X0.275000X0.200000X-0.275000X0.200000X-0.275000X-0.200000X0*%
%ADD50RoundRect,0.140000X-0.140000X-0.170000X0.140000X-0.170000X0.140000X0.170000X-0.140000X0.170000X0*%
%ADD51RoundRect,0.200000X0.200000X0.275000X-0.200000X0.275000X-0.200000X-0.275000X0.200000X-0.275000X0*%
%ADD52R,0.850000X0.250000*%
%ADD53R,1.650000X2.550000*%
%ADD54R,0.650000X0.400000*%
%ADD55R,1.903000X2.790000*%
%ADD56RoundRect,0.150000X-0.150000X0.587500X-0.150000X-0.587500X0.150000X-0.587500X0.150000X0.587500X0*%
%ADD57RoundRect,0.250000X-1.075000X0.312500X-1.075000X-0.312500X1.075000X-0.312500X1.075000X0.312500X0*%
%ADD58RoundRect,0.225000X-0.250000X0.225000X-0.250000X-0.225000X0.250000X-0.225000X0.250000X0.225000X0*%
%ADD59C,0.001000*%
%ADD60R,0.300000X1.150000*%
%ADD61R,2.180000X2.000000*%
%ADD62C,0.230000*%
G04 APERTURE END LIST*
D10*
X66174104Y65009161D02*
X66174104Y65485351D01*
X66459819Y64913923D02*
X65459819Y65247256D01*
X65459819Y65247256D02*
X66459819Y65580589D01*
X65459819Y66104399D02*
X65459819Y66294875D01*
X65459819Y66294875D02*
X65507438Y66390113D01*
X65507438Y66390113D02*
X65602676Y66485351D01*
X65602676Y66485351D02*
X65793152Y66532970D01*
X65793152Y66532970D02*
X66126485Y66532970D01*
X66126485Y66532970D02*
X66316961Y66485351D01*
X66316961Y66485351D02*
X66412200Y66390113D01*
X66412200Y66390113D02*
X66459819Y66294875D01*
X66459819Y66294875D02*
X66459819Y66104399D01*
X66459819Y66104399D02*
X66412200Y66009161D01*
X66412200Y66009161D02*
X66316961Y65913923D01*
X66316961Y65913923D02*
X66126485Y65866304D01*
X66126485Y65866304D02*
X65793152Y65866304D01*
X65793152Y65866304D02*
X65602676Y65913923D01*
X65602676Y65913923D02*
X65507438Y66009161D01*
X65507438Y66009161D02*
X65459819Y66104399D01*
X66459819Y66961542D02*
X65459819Y66961542D01*
X65459819Y66961542D02*
X66459819Y67532970D01*
X66459819Y67532970D02*
X65459819Y67532970D01*
X66459819Y68532970D02*
X66459819Y67961542D01*
X66459819Y68247256D02*
X65459819Y68247256D01*
X65459819Y68247256D02*
X65602676Y68152018D01*
X65602676Y68152018D02*
X65697914Y68056780D01*
X65697914Y68056780D02*
X65745533Y67961542D01*
X21636779Y67940181D02*
X21636779Y68940181D01*
X21636779Y68940181D02*
X22017731Y68940181D01*
X22017731Y68940181D02*
X22112969Y68892562D01*
X22112969Y68892562D02*
X22160588Y68844943D01*
X22160588Y68844943D02*
X22208207Y68749705D01*
X22208207Y68749705D02*
X22208207Y68606848D01*
X22208207Y68606848D02*
X22160588Y68511610D01*
X22160588Y68511610D02*
X22112969Y68463991D01*
X22112969Y68463991D02*
X22017731Y68416372D01*
X22017731Y68416372D02*
X21636779Y68416372D01*
X22636779Y67940181D02*
X22636779Y68940181D01*
X22636779Y68940181D02*
X23017731Y68940181D01*
X23017731Y68940181D02*
X23112969Y68892562D01*
X23112969Y68892562D02*
X23160588Y68844943D01*
X23160588Y68844943D02*
X23208207Y68749705D01*
X23208207Y68749705D02*
X23208207Y68606848D01*
X23208207Y68606848D02*
X23160588Y68511610D01*
X23160588Y68511610D02*
X23112969Y68463991D01*
X23112969Y68463991D02*
X23017731Y68416372D01*
X23017731Y68416372D02*
X22636779Y68416372D01*
X23636779Y67940181D02*
X23636779Y68940181D01*
X24874874Y67940181D02*
X24874874Y68940181D01*
X24874874Y68940181D02*
X25446302Y67940181D01*
X25446302Y67940181D02*
X25446302Y68940181D01*
X26255826Y68463991D02*
X26398683Y68416372D01*
X26398683Y68416372D02*
X26446302Y68368753D01*
X26446302Y68368753D02*
X26493921Y68273515D01*
X26493921Y68273515D02*
X26493921Y68130658D01*
X26493921Y68130658D02*
X26446302Y68035420D01*
X26446302Y68035420D02*
X26398683Y67987800D01*
X26398683Y67987800D02*
X26303445Y67940181D01*
X26303445Y67940181D02*
X25922493Y67940181D01*
X25922493Y67940181D02*
X25922493Y68940181D01*
X25922493Y68940181D02*
X26255826Y68940181D01*
X26255826Y68940181D02*
X26351064Y68892562D01*
X26351064Y68892562D02*
X26398683Y68844943D01*
X26398683Y68844943D02*
X26446302Y68749705D01*
X26446302Y68749705D02*
X26446302Y68654467D01*
X26446302Y68654467D02*
X26398683Y68559229D01*
X26398683Y68559229D02*
X26351064Y68511610D01*
X26351064Y68511610D02*
X26255826Y68463991D01*
X26255826Y68463991D02*
X25922493Y68463991D01*
X27541541Y68940181D02*
X27874874Y67940181D01*
X27874874Y67940181D02*
X28208207Y68940181D01*
X29065350Y67940181D02*
X28493922Y67940181D01*
X28779636Y67940181D02*
X28779636Y68940181D01*
X28779636Y68940181D02*
X28684398Y68797324D01*
X28684398Y68797324D02*
X28589160Y68702086D01*
X28589160Y68702086D02*
X28493922Y68654467D01*
X29493922Y68035420D02*
X29541541Y67987800D01*
X29541541Y67987800D02*
X29493922Y67940181D01*
X29493922Y67940181D02*
X29446303Y67987800D01*
X29446303Y67987800D02*
X29493922Y68035420D01*
X29493922Y68035420D02*
X29493922Y67940181D01*
X30493921Y67940181D02*
X29922493Y67940181D01*
X30208207Y67940181D02*
X30208207Y68940181D01*
X30208207Y68940181D02*
X30112969Y68797324D01*
X30112969Y68797324D02*
X30017731Y68702086D01*
X30017731Y68702086D02*
X29922493Y68654467D01*
X22208207Y66425420D02*
X22160588Y66377800D01*
X22160588Y66377800D02*
X22017731Y66330181D01*
X22017731Y66330181D02*
X21922493Y66330181D01*
X21922493Y66330181D02*
X21779636Y66377800D01*
X21779636Y66377800D02*
X21684398Y66473039D01*
X21684398Y66473039D02*
X21636779Y66568277D01*
X21636779Y66568277D02*
X21589160Y66758753D01*
X21589160Y66758753D02*
X21589160Y66901610D01*
X21589160Y66901610D02*
X21636779Y67092086D01*
X21636779Y67092086D02*
X21684398Y67187324D01*
X21684398Y67187324D02*
X21779636Y67282562D01*
X21779636Y67282562D02*
X21922493Y67330181D01*
X21922493Y67330181D02*
X22017731Y67330181D01*
X22017731Y67330181D02*
X22160588Y67282562D01*
X22160588Y67282562D02*
X22208207Y67234943D01*
X22636779Y66425420D02*
X22684398Y66377800D01*
X22684398Y66377800D02*
X22636779Y66330181D01*
X22636779Y66330181D02*
X22589160Y66377800D01*
X22589160Y66377800D02*
X22636779Y66425420D01*
X22636779Y66425420D02*
X22636779Y66330181D01*
X23684397Y66425420D02*
X23636778Y66377800D01*
X23636778Y66377800D02*
X23493921Y66330181D01*
X23493921Y66330181D02*
X23398683Y66330181D01*
X23398683Y66330181D02*
X23255826Y66377800D01*
X23255826Y66377800D02*
X23160588Y66473039D01*
X23160588Y66473039D02*
X23112969Y66568277D01*
X23112969Y66568277D02*
X23065350Y66758753D01*
X23065350Y66758753D02*
X23065350Y66901610D01*
X23065350Y66901610D02*
X23112969Y67092086D01*
X23112969Y67092086D02*
X23160588Y67187324D01*
X23160588Y67187324D02*
X23255826Y67282562D01*
X23255826Y67282562D02*
X23398683Y67330181D01*
X23398683Y67330181D02*
X23493921Y67330181D01*
X23493921Y67330181D02*
X23636778Y67282562D01*
X23636778Y67282562D02*
X23684397Y67234943D01*
X24112969Y66425420D02*
X24160588Y66377800D01*
X24160588Y66377800D02*
X24112969Y66330181D01*
X24112969Y66330181D02*
X24065350Y66377800D01*
X24065350Y66377800D02*
X24112969Y66425420D01*
X24112969Y66425420D02*
X24112969Y66330181D01*
X24589159Y66330181D02*
X24589159Y67330181D01*
X24589159Y66853991D02*
X25160587Y66853991D01*
X25160587Y66330181D02*
X25160587Y67330181D01*
X64417438Y10470589D02*
X64369819Y10375351D01*
X64369819Y10375351D02*
X64369819Y10232494D01*
X64369819Y10232494D02*
X64417438Y10089637D01*
X64417438Y10089637D02*
X64512676Y9994399D01*
X64512676Y9994399D02*
X64607914Y9946780D01*
X64607914Y9946780D02*
X64798390Y9899161D01*
X64798390Y9899161D02*
X64941247Y9899161D01*
X64941247Y9899161D02*
X65131723Y9946780D01*
X65131723Y9946780D02*
X65226961Y9994399D01*
X65226961Y9994399D02*
X65322200Y10089637D01*
X65322200Y10089637D02*
X65369819Y10232494D01*
X65369819Y10232494D02*
X65369819Y10327732D01*
X65369819Y10327732D02*
X65322200Y10470589D01*
X65322200Y10470589D02*
X65274580Y10518208D01*
X65274580Y10518208D02*
X64941247Y10518208D01*
X64941247Y10518208D02*
X64941247Y10327732D01*
X65369819Y10946780D02*
X64369819Y10946780D01*
X64369819Y10946780D02*
X65369819Y11518208D01*
X65369819Y11518208D02*
X64369819Y11518208D01*
X65369819Y11994399D02*
X64369819Y11994399D01*
X64369819Y11994399D02*
X64369819Y12232494D01*
X64369819Y12232494D02*
X64417438Y12375351D01*
X64417438Y12375351D02*
X64512676Y12470589D01*
X64512676Y12470589D02*
X64607914Y12518208D01*
X64607914Y12518208D02*
X64798390Y12565827D01*
X64798390Y12565827D02*
X64941247Y12565827D01*
X64941247Y12565827D02*
X65131723Y12518208D01*
X65131723Y12518208D02*
X65226961Y12470589D01*
X65226961Y12470589D02*
X65322200Y12375351D01*
X65322200Y12375351D02*
X65369819Y12232494D01*
X65369819Y12232494D02*
X65369819Y11994399D01*
X87079819Y64883923D02*
X87079819Y65455351D01*
X88079819Y65169637D02*
X87079819Y65169637D01*
X87079819Y65693447D02*
X88079819Y66360113D01*
X87079819Y66360113D02*
X88079819Y65693447D01*
X87175057Y66693447D02*
X87127438Y66741066D01*
X87127438Y66741066D02*
X87079819Y66836304D01*
X87079819Y66836304D02*
X87079819Y67074399D01*
X87079819Y67074399D02*
X87127438Y67169637D01*
X87127438Y67169637D02*
X87175057Y67217256D01*
X87175057Y67217256D02*
X87270295Y67264875D01*
X87270295Y67264875D02*
X87365533Y67264875D01*
X87365533Y67264875D02*
X87508390Y67217256D01*
X87508390Y67217256D02*
X88079819Y66645828D01*
X88079819Y66645828D02*
X88079819Y67264875D01*
X55269819Y8646780D02*
X54269819Y8646780D01*
X54269819Y9313446D02*
X54269819Y9503922D01*
X54269819Y9503922D02*
X54317438Y9599160D01*
X54317438Y9599160D02*
X54412676Y9694398D01*
X54412676Y9694398D02*
X54603152Y9742017D01*
X54603152Y9742017D02*
X54936485Y9742017D01*
X54936485Y9742017D02*
X55126961Y9694398D01*
X55126961Y9694398D02*
X55222200Y9599160D01*
X55222200Y9599160D02*
X55269819Y9503922D01*
X55269819Y9503922D02*
X55269819Y9313446D01*
X55269819Y9313446D02*
X55222200Y9218208D01*
X55222200Y9218208D02*
X55126961Y9122970D01*
X55126961Y9122970D02*
X54936485Y9075351D01*
X54936485Y9075351D02*
X54603152Y9075351D01*
X54603152Y9075351D02*
X54412676Y9122970D01*
X54412676Y9122970D02*
X54317438Y9218208D01*
X54317438Y9218208D02*
X54269819Y9313446D01*
X55269819Y10742017D02*
X54793628Y10408684D01*
X55269819Y10170589D02*
X54269819Y10170589D01*
X54269819Y10170589D02*
X54269819Y10551541D01*
X54269819Y10551541D02*
X54317438Y10646779D01*
X54317438Y10646779D02*
X54365057Y10694398D01*
X54365057Y10694398D02*
X54460295Y10742017D01*
X54460295Y10742017D02*
X54603152Y10742017D01*
X54603152Y10742017D02*
X54698390Y10694398D01*
X54698390Y10694398D02*
X54746009Y10646779D01*
X54746009Y10646779D02*
X54793628Y10551541D01*
X54793628Y10551541D02*
X54793628Y10170589D01*
X54746009Y11170589D02*
X54746009Y11503922D01*
X55269819Y11646779D02*
X55269819Y11170589D01*
X55269819Y11170589D02*
X54269819Y11170589D01*
X54269819Y11170589D02*
X54269819Y11646779D01*
X54746009Y12408684D02*
X54746009Y12075351D01*
X55269819Y12075351D02*
X54269819Y12075351D01*
X54269819Y12075351D02*
X54269819Y12551541D01*
X63007438Y65480589D02*
X62959819Y65385351D01*
X62959819Y65385351D02*
X62959819Y65242494D01*
X62959819Y65242494D02*
X63007438Y65099637D01*
X63007438Y65099637D02*
X63102676Y65004399D01*
X63102676Y65004399D02*
X63197914Y64956780D01*
X63197914Y64956780D02*
X63388390Y64909161D01*
X63388390Y64909161D02*
X63531247Y64909161D01*
X63531247Y64909161D02*
X63721723Y64956780D01*
X63721723Y64956780D02*
X63816961Y65004399D01*
X63816961Y65004399D02*
X63912200Y65099637D01*
X63912200Y65099637D02*
X63959819Y65242494D01*
X63959819Y65242494D02*
X63959819Y65337732D01*
X63959819Y65337732D02*
X63912200Y65480589D01*
X63912200Y65480589D02*
X63864580Y65528208D01*
X63864580Y65528208D02*
X63531247Y65528208D01*
X63531247Y65528208D02*
X63531247Y65337732D01*
X63959819Y65956780D02*
X62959819Y65956780D01*
X62959819Y65956780D02*
X62959819Y66337732D01*
X62959819Y66337732D02*
X63007438Y66432970D01*
X63007438Y66432970D02*
X63055057Y66480589D01*
X63055057Y66480589D02*
X63150295Y66528208D01*
X63150295Y66528208D02*
X63293152Y66528208D01*
X63293152Y66528208D02*
X63388390Y66480589D01*
X63388390Y66480589D02*
X63436009Y66432970D01*
X63436009Y66432970D02*
X63483628Y66337732D01*
X63483628Y66337732D02*
X63483628Y65956780D01*
X63959819Y66956780D02*
X62959819Y66956780D01*
X62959819Y67623446D02*
X62959819Y67813922D01*
X62959819Y67813922D02*
X63007438Y67909160D01*
X63007438Y67909160D02*
X63102676Y68004398D01*
X63102676Y68004398D02*
X63293152Y68052017D01*
X63293152Y68052017D02*
X63626485Y68052017D01*
X63626485Y68052017D02*
X63816961Y68004398D01*
X63816961Y68004398D02*
X63912200Y67909160D01*
X63912200Y67909160D02*
X63959819Y67813922D01*
X63959819Y67813922D02*
X63959819Y67623446D01*
X63959819Y67623446D02*
X63912200Y67528208D01*
X63912200Y67528208D02*
X63816961Y67432970D01*
X63816961Y67432970D02*
X63626485Y67385351D01*
X63626485Y67385351D02*
X63293152Y67385351D01*
X63293152Y67385351D02*
X63102676Y67432970D01*
X63102676Y67432970D02*
X63007438Y67528208D01*
X63007438Y67528208D02*
X62959819Y67623446D01*
X62959819Y68385351D02*
X62959819Y69052017D01*
X62959819Y69052017D02*
X63959819Y68623446D01*
X70469819Y48812970D02*
X70469819Y48336780D01*
X70469819Y48336780D02*
X69469819Y48336780D01*
X69946009Y49146304D02*
X69946009Y49479637D01*
X70469819Y49622494D02*
X70469819Y49146304D01*
X70469819Y49146304D02*
X69469819Y49146304D01*
X69469819Y49146304D02*
X69469819Y49622494D01*
X70469819Y50051066D02*
X69469819Y50051066D01*
X69469819Y50051066D02*
X69469819Y50289161D01*
X69469819Y50289161D02*
X69517438Y50432018D01*
X69517438Y50432018D02*
X69612676Y50527256D01*
X69612676Y50527256D02*
X69707914Y50574875D01*
X69707914Y50574875D02*
X69898390Y50622494D01*
X69898390Y50622494D02*
X70041247Y50622494D01*
X70041247Y50622494D02*
X70231723Y50574875D01*
X70231723Y50574875D02*
X70326961Y50527256D01*
X70326961Y50527256D02*
X70422200Y50432018D01*
X70422200Y50432018D02*
X70469819Y50289161D01*
X70469819Y50289161D02*
X70469819Y50051066D01*
X79146009Y49570113D02*
X79193628Y49712970D01*
X79193628Y49712970D02*
X79241247Y49760589D01*
X79241247Y49760589D02*
X79336485Y49808208D01*
X79336485Y49808208D02*
X79479342Y49808208D01*
X79479342Y49808208D02*
X79574580Y49760589D01*
X79574580Y49760589D02*
X79622200Y49712970D01*
X79622200Y49712970D02*
X79669819Y49617732D01*
X79669819Y49617732D02*
X79669819Y49236780D01*
X79669819Y49236780D02*
X78669819Y49236780D01*
X78669819Y49236780D02*
X78669819Y49570113D01*
X78669819Y49570113D02*
X78717438Y49665351D01*
X78717438Y49665351D02*
X78765057Y49712970D01*
X78765057Y49712970D02*
X78860295Y49760589D01*
X78860295Y49760589D02*
X78955533Y49760589D01*
X78955533Y49760589D02*
X79050771Y49712970D01*
X79050771Y49712970D02*
X79098390Y49665351D01*
X79098390Y49665351D02*
X79146009Y49570113D01*
X79146009Y49570113D02*
X79146009Y49236780D01*
X78669819Y50093923D02*
X78669819Y50665351D01*
X79669819Y50379637D02*
X78669819Y50379637D01*
X65869819Y48812970D02*
X65869819Y48336780D01*
X65869819Y48336780D02*
X64869819Y48336780D01*
X65346009Y49146304D02*
X65346009Y49479637D01*
X65869819Y49622494D02*
X65869819Y49146304D01*
X65869819Y49146304D02*
X64869819Y49146304D01*
X64869819Y49146304D02*
X64869819Y49622494D01*
X65869819Y50051066D02*
X64869819Y50051066D01*
X64869819Y50051066D02*
X64869819Y50289161D01*
X64869819Y50289161D02*
X64917438Y50432018D01*
X64917438Y50432018D02*
X65012676Y50527256D01*
X65012676Y50527256D02*
X65107914Y50574875D01*
X65107914Y50574875D02*
X65298390Y50622494D01*
X65298390Y50622494D02*
X65441247Y50622494D01*
X65441247Y50622494D02*
X65631723Y50574875D01*
X65631723Y50574875D02*
X65726961Y50527256D01*
X65726961Y50527256D02*
X65822200Y50432018D01*
X65822200Y50432018D02*
X65869819Y50289161D01*
X65869819Y50289161D02*
X65869819Y50051066D01*
X67017438Y10470589D02*
X66969819Y10375351D01*
X66969819Y10375351D02*
X66969819Y10232494D01*
X66969819Y10232494D02*
X67017438Y10089637D01*
X67017438Y10089637D02*
X67112676Y9994399D01*
X67112676Y9994399D02*
X67207914Y9946780D01*
X67207914Y9946780D02*
X67398390Y9899161D01*
X67398390Y9899161D02*
X67541247Y9899161D01*
X67541247Y9899161D02*
X67731723Y9946780D01*
X67731723Y9946780D02*
X67826961Y9994399D01*
X67826961Y9994399D02*
X67922200Y10089637D01*
X67922200Y10089637D02*
X67969819Y10232494D01*
X67969819Y10232494D02*
X67969819Y10327732D01*
X67969819Y10327732D02*
X67922200Y10470589D01*
X67922200Y10470589D02*
X67874580Y10518208D01*
X67874580Y10518208D02*
X67541247Y10518208D01*
X67541247Y10518208D02*
X67541247Y10327732D01*
X67969819Y10946780D02*
X66969819Y10946780D01*
X66969819Y10946780D02*
X67969819Y11518208D01*
X67969819Y11518208D02*
X66969819Y11518208D01*
X67969819Y11994399D02*
X66969819Y11994399D01*
X66969819Y11994399D02*
X66969819Y12232494D01*
X66969819Y12232494D02*
X67017438Y12375351D01*
X67017438Y12375351D02*
X67112676Y12470589D01*
X67112676Y12470589D02*
X67207914Y12518208D01*
X67207914Y12518208D02*
X67398390Y12565827D01*
X67398390Y12565827D02*
X67541247Y12565827D01*
X67541247Y12565827D02*
X67731723Y12518208D01*
X67731723Y12518208D02*
X67826961Y12470589D01*
X67826961Y12470589D02*
X67922200Y12375351D01*
X67922200Y12375351D02*
X67969819Y12232494D01*
X67969819Y12232494D02*
X67969819Y11994399D01*
X90679819Y65398208D02*
X90203628Y65064875D01*
X90679819Y64826780D02*
X89679819Y64826780D01*
X89679819Y64826780D02*
X89679819Y65207732D01*
X89679819Y65207732D02*
X89727438Y65302970D01*
X89727438Y65302970D02*
X89775057Y65350589D01*
X89775057Y65350589D02*
X89870295Y65398208D01*
X89870295Y65398208D02*
X90013152Y65398208D01*
X90013152Y65398208D02*
X90108390Y65350589D01*
X90108390Y65350589D02*
X90156009Y65302970D01*
X90156009Y65302970D02*
X90203628Y65207732D01*
X90203628Y65207732D02*
X90203628Y64826780D01*
X89679819Y65731542D02*
X90679819Y66398208D01*
X89679819Y66398208D02*
X90679819Y65731542D01*
X89775057Y66731542D02*
X89727438Y66779161D01*
X89727438Y66779161D02*
X89679819Y66874399D01*
X89679819Y66874399D02*
X89679819Y67112494D01*
X89679819Y67112494D02*
X89727438Y67207732D01*
X89727438Y67207732D02*
X89775057Y67255351D01*
X89775057Y67255351D02*
X89870295Y67302970D01*
X89870295Y67302970D02*
X89965533Y67302970D01*
X89965533Y67302970D02*
X90108390Y67255351D01*
X90108390Y67255351D02*
X90679819Y66683923D01*
X90679819Y66683923D02*
X90679819Y67302970D01*
X77874104Y9309161D02*
X77874104Y9785351D01*
X78159819Y9213923D02*
X77159819Y9547256D01*
X77159819Y9547256D02*
X78159819Y9880589D01*
X78159819Y10213923D02*
X77159819Y10213923D01*
X77159819Y10880589D02*
X77159819Y11071065D01*
X77159819Y11071065D02*
X77207438Y11166303D01*
X77207438Y11166303D02*
X77302676Y11261541D01*
X77302676Y11261541D02*
X77493152Y11309160D01*
X77493152Y11309160D02*
X77826485Y11309160D01*
X77826485Y11309160D02*
X78016961Y11261541D01*
X78016961Y11261541D02*
X78112200Y11166303D01*
X78112200Y11166303D02*
X78159819Y11071065D01*
X78159819Y11071065D02*
X78159819Y10880589D01*
X78159819Y10880589D02*
X78112200Y10785351D01*
X78112200Y10785351D02*
X78016961Y10690113D01*
X78016961Y10690113D02*
X77826485Y10642494D01*
X77826485Y10642494D02*
X77493152Y10642494D01*
X77493152Y10642494D02*
X77302676Y10690113D01*
X77302676Y10690113D02*
X77207438Y10785351D01*
X77207438Y10785351D02*
X77159819Y10880589D01*
X77493152Y12166303D02*
X78159819Y12166303D01*
X77112200Y11928208D02*
X77826485Y11690113D01*
X77826485Y11690113D02*
X77826485Y12309160D01*
X42707438Y65480589D02*
X42659819Y65385351D01*
X42659819Y65385351D02*
X42659819Y65242494D01*
X42659819Y65242494D02*
X42707438Y65099637D01*
X42707438Y65099637D02*
X42802676Y65004399D01*
X42802676Y65004399D02*
X42897914Y64956780D01*
X42897914Y64956780D02*
X43088390Y64909161D01*
X43088390Y64909161D02*
X43231247Y64909161D01*
X43231247Y64909161D02*
X43421723Y64956780D01*
X43421723Y64956780D02*
X43516961Y65004399D01*
X43516961Y65004399D02*
X43612200Y65099637D01*
X43612200Y65099637D02*
X43659819Y65242494D01*
X43659819Y65242494D02*
X43659819Y65337732D01*
X43659819Y65337732D02*
X43612200Y65480589D01*
X43612200Y65480589D02*
X43564580Y65528208D01*
X43564580Y65528208D02*
X43231247Y65528208D01*
X43231247Y65528208D02*
X43231247Y65337732D01*
X43659819Y65956780D02*
X42659819Y65956780D01*
X42659819Y65956780D02*
X42659819Y66337732D01*
X42659819Y66337732D02*
X42707438Y66432970D01*
X42707438Y66432970D02*
X42755057Y66480589D01*
X42755057Y66480589D02*
X42850295Y66528208D01*
X42850295Y66528208D02*
X42993152Y66528208D01*
X42993152Y66528208D02*
X43088390Y66480589D01*
X43088390Y66480589D02*
X43136009Y66432970D01*
X43136009Y66432970D02*
X43183628Y66337732D01*
X43183628Y66337732D02*
X43183628Y65956780D01*
X43659819Y66956780D02*
X42659819Y66956780D01*
X42659819Y67623446D02*
X42659819Y67813922D01*
X42659819Y67813922D02*
X42707438Y67909160D01*
X42707438Y67909160D02*
X42802676Y68004398D01*
X42802676Y68004398D02*
X42993152Y68052017D01*
X42993152Y68052017D02*
X43326485Y68052017D01*
X43326485Y68052017D02*
X43516961Y68004398D01*
X43516961Y68004398D02*
X43612200Y67909160D01*
X43612200Y67909160D02*
X43659819Y67813922D01*
X43659819Y67813922D02*
X43659819Y67623446D01*
X43659819Y67623446D02*
X43612200Y67528208D01*
X43612200Y67528208D02*
X43516961Y67432970D01*
X43516961Y67432970D02*
X43326485Y67385351D01*
X43326485Y67385351D02*
X42993152Y67385351D01*
X42993152Y67385351D02*
X42802676Y67432970D01*
X42802676Y67432970D02*
X42707438Y67528208D01*
X42707438Y67528208D02*
X42659819Y67623446D01*
X43659819Y69004398D02*
X43659819Y68432970D01*
X43659819Y68718684D02*
X42659819Y68718684D01*
X42659819Y68718684D02*
X42802676Y68623446D01*
X42802676Y68623446D02*
X42897914Y68528208D01*
X42897914Y68528208D02*
X42945533Y68432970D01*
X42659819Y69623446D02*
X42659819Y69718684D01*
X42659819Y69718684D02*
X42707438Y69813922D01*
X42707438Y69813922D02*
X42755057Y69861541D01*
X42755057Y69861541D02*
X42850295Y69909160D01*
X42850295Y69909160D02*
X43040771Y69956779D01*
X43040771Y69956779D02*
X43278866Y69956779D01*
X43278866Y69956779D02*
X43469342Y69909160D01*
X43469342Y69909160D02*
X43564580Y69861541D01*
X43564580Y69861541D02*
X43612200Y69813922D01*
X43612200Y69813922D02*
X43659819Y69718684D01*
X43659819Y69718684D02*
X43659819Y69623446D01*
X43659819Y69623446D02*
X43612200Y69528208D01*
X43612200Y69528208D02*
X43564580Y69480589D01*
X43564580Y69480589D02*
X43469342Y69432970D01*
X43469342Y69432970D02*
X43278866Y69385351D01*
X43278866Y69385351D02*
X43040771Y69385351D01*
X43040771Y69385351D02*
X42850295Y69432970D01*
X42850295Y69432970D02*
X42755057Y69480589D01*
X42755057Y69480589D02*
X42707438Y69528208D01*
X42707438Y69528208D02*
X42659819Y69623446D01*
X55407438Y65480589D02*
X55359819Y65385351D01*
X55359819Y65385351D02*
X55359819Y65242494D01*
X55359819Y65242494D02*
X55407438Y65099637D01*
X55407438Y65099637D02*
X55502676Y65004399D01*
X55502676Y65004399D02*
X55597914Y64956780D01*
X55597914Y64956780D02*
X55788390Y64909161D01*
X55788390Y64909161D02*
X55931247Y64909161D01*
X55931247Y64909161D02*
X56121723Y64956780D01*
X56121723Y64956780D02*
X56216961Y65004399D01*
X56216961Y65004399D02*
X56312200Y65099637D01*
X56312200Y65099637D02*
X56359819Y65242494D01*
X56359819Y65242494D02*
X56359819Y65337732D01*
X56359819Y65337732D02*
X56312200Y65480589D01*
X56312200Y65480589D02*
X56264580Y65528208D01*
X56264580Y65528208D02*
X55931247Y65528208D01*
X55931247Y65528208D02*
X55931247Y65337732D01*
X56359819Y65956780D02*
X55359819Y65956780D01*
X55359819Y65956780D02*
X55359819Y66337732D01*
X55359819Y66337732D02*
X55407438Y66432970D01*
X55407438Y66432970D02*
X55455057Y66480589D01*
X55455057Y66480589D02*
X55550295Y66528208D01*
X55550295Y66528208D02*
X55693152Y66528208D01*
X55693152Y66528208D02*
X55788390Y66480589D01*
X55788390Y66480589D02*
X55836009Y66432970D01*
X55836009Y66432970D02*
X55883628Y66337732D01*
X55883628Y66337732D02*
X55883628Y65956780D01*
X56359819Y66956780D02*
X55359819Y66956780D01*
X55359819Y67623446D02*
X55359819Y67813922D01*
X55359819Y67813922D02*
X55407438Y67909160D01*
X55407438Y67909160D02*
X55502676Y68004398D01*
X55502676Y68004398D02*
X55693152Y68052017D01*
X55693152Y68052017D02*
X56026485Y68052017D01*
X56026485Y68052017D02*
X56216961Y68004398D01*
X56216961Y68004398D02*
X56312200Y67909160D01*
X56312200Y67909160D02*
X56359819Y67813922D01*
X56359819Y67813922D02*
X56359819Y67623446D01*
X56359819Y67623446D02*
X56312200Y67528208D01*
X56312200Y67528208D02*
X56216961Y67432970D01*
X56216961Y67432970D02*
X56026485Y67385351D01*
X56026485Y67385351D02*
X55693152Y67385351D01*
X55693152Y67385351D02*
X55502676Y67432970D01*
X55502676Y67432970D02*
X55407438Y67528208D01*
X55407438Y67528208D02*
X55359819Y67623446D01*
X55693152Y68909160D02*
X56359819Y68909160D01*
X55312200Y68671065D02*
X56026485Y68432970D01*
X56026485Y68432970D02*
X56026485Y69052017D01*
X69609819Y9823923D02*
X70609819Y10157256D01*
X70609819Y10157256D02*
X69609819Y10490589D01*
X70609819Y10823923D02*
X69609819Y10823923D01*
X70609819Y11300113D02*
X69609819Y11300113D01*
X69609819Y11300113D02*
X70609819Y11871541D01*
X70609819Y11871541D02*
X69609819Y11871541D01*
X50307438Y65480589D02*
X50259819Y65385351D01*
X50259819Y65385351D02*
X50259819Y65242494D01*
X50259819Y65242494D02*
X50307438Y65099637D01*
X50307438Y65099637D02*
X50402676Y65004399D01*
X50402676Y65004399D02*
X50497914Y64956780D01*
X50497914Y64956780D02*
X50688390Y64909161D01*
X50688390Y64909161D02*
X50831247Y64909161D01*
X50831247Y64909161D02*
X51021723Y64956780D01*
X51021723Y64956780D02*
X51116961Y65004399D01*
X51116961Y65004399D02*
X51212200Y65099637D01*
X51212200Y65099637D02*
X51259819Y65242494D01*
X51259819Y65242494D02*
X51259819Y65337732D01*
X51259819Y65337732D02*
X51212200Y65480589D01*
X51212200Y65480589D02*
X51164580Y65528208D01*
X51164580Y65528208D02*
X50831247Y65528208D01*
X50831247Y65528208D02*
X50831247Y65337732D01*
X51259819Y65956780D02*
X50259819Y65956780D01*
X50259819Y65956780D02*
X51259819Y66528208D01*
X51259819Y66528208D02*
X50259819Y66528208D01*
X51259819Y67004399D02*
X50259819Y67004399D01*
X50259819Y67004399D02*
X50259819Y67242494D01*
X50259819Y67242494D02*
X50307438Y67385351D01*
X50307438Y67385351D02*
X50402676Y67480589D01*
X50402676Y67480589D02*
X50497914Y67528208D01*
X50497914Y67528208D02*
X50688390Y67575827D01*
X50688390Y67575827D02*
X50831247Y67575827D01*
X50831247Y67575827D02*
X51021723Y67528208D01*
X51021723Y67528208D02*
X51116961Y67480589D01*
X51116961Y67480589D02*
X51212200Y67385351D01*
X51212200Y67385351D02*
X51259819Y67242494D01*
X51259819Y67242494D02*
X51259819Y67004399D01*
X83946009Y49570113D02*
X83993628Y49712970D01*
X83993628Y49712970D02*
X84041247Y49760589D01*
X84041247Y49760589D02*
X84136485Y49808208D01*
X84136485Y49808208D02*
X84279342Y49808208D01*
X84279342Y49808208D02*
X84374580Y49760589D01*
X84374580Y49760589D02*
X84422200Y49712970D01*
X84422200Y49712970D02*
X84469819Y49617732D01*
X84469819Y49617732D02*
X84469819Y49236780D01*
X84469819Y49236780D02*
X83469819Y49236780D01*
X83469819Y49236780D02*
X83469819Y49570113D01*
X83469819Y49570113D02*
X83517438Y49665351D01*
X83517438Y49665351D02*
X83565057Y49712970D01*
X83565057Y49712970D02*
X83660295Y49760589D01*
X83660295Y49760589D02*
X83755533Y49760589D01*
X83755533Y49760589D02*
X83850771Y49712970D01*
X83850771Y49712970D02*
X83898390Y49665351D01*
X83898390Y49665351D02*
X83946009Y49570113D01*
X83946009Y49570113D02*
X83946009Y49236780D01*
X83469819Y50093923D02*
X83469819Y50665351D01*
X84469819Y50379637D02*
X83469819Y50379637D01*
X52807438Y65480589D02*
X52759819Y65385351D01*
X52759819Y65385351D02*
X52759819Y65242494D01*
X52759819Y65242494D02*
X52807438Y65099637D01*
X52807438Y65099637D02*
X52902676Y65004399D01*
X52902676Y65004399D02*
X52997914Y64956780D01*
X52997914Y64956780D02*
X53188390Y64909161D01*
X53188390Y64909161D02*
X53331247Y64909161D01*
X53331247Y64909161D02*
X53521723Y64956780D01*
X53521723Y64956780D02*
X53616961Y65004399D01*
X53616961Y65004399D02*
X53712200Y65099637D01*
X53712200Y65099637D02*
X53759819Y65242494D01*
X53759819Y65242494D02*
X53759819Y65337732D01*
X53759819Y65337732D02*
X53712200Y65480589D01*
X53712200Y65480589D02*
X53664580Y65528208D01*
X53664580Y65528208D02*
X53331247Y65528208D01*
X53331247Y65528208D02*
X53331247Y65337732D01*
X53759819Y65956780D02*
X52759819Y65956780D01*
X52759819Y65956780D02*
X52759819Y66337732D01*
X52759819Y66337732D02*
X52807438Y66432970D01*
X52807438Y66432970D02*
X52855057Y66480589D01*
X52855057Y66480589D02*
X52950295Y66528208D01*
X52950295Y66528208D02*
X53093152Y66528208D01*
X53093152Y66528208D02*
X53188390Y66480589D01*
X53188390Y66480589D02*
X53236009Y66432970D01*
X53236009Y66432970D02*
X53283628Y66337732D01*
X53283628Y66337732D02*
X53283628Y65956780D01*
X53759819Y66956780D02*
X52759819Y66956780D01*
X52759819Y67623446D02*
X52759819Y67813922D01*
X52759819Y67813922D02*
X52807438Y67909160D01*
X52807438Y67909160D02*
X52902676Y68004398D01*
X52902676Y68004398D02*
X53093152Y68052017D01*
X53093152Y68052017D02*
X53426485Y68052017D01*
X53426485Y68052017D02*
X53616961Y68004398D01*
X53616961Y68004398D02*
X53712200Y67909160D01*
X53712200Y67909160D02*
X53759819Y67813922D01*
X53759819Y67813922D02*
X53759819Y67623446D01*
X53759819Y67623446D02*
X53712200Y67528208D01*
X53712200Y67528208D02*
X53616961Y67432970D01*
X53616961Y67432970D02*
X53426485Y67385351D01*
X53426485Y67385351D02*
X53093152Y67385351D01*
X53093152Y67385351D02*
X52902676Y67432970D01*
X52902676Y67432970D02*
X52807438Y67528208D01*
X52807438Y67528208D02*
X52759819Y67623446D01*
X52759819Y68956779D02*
X52759819Y68480589D01*
X52759819Y68480589D02*
X53236009Y68432970D01*
X53236009Y68432970D02*
X53188390Y68480589D01*
X53188390Y68480589D02*
X53140771Y68575827D01*
X53140771Y68575827D02*
X53140771Y68813922D01*
X53140771Y68813922D02*
X53188390Y68909160D01*
X53188390Y68909160D02*
X53236009Y68956779D01*
X53236009Y68956779D02*
X53331247Y69004398D01*
X53331247Y69004398D02*
X53569342Y69004398D01*
X53569342Y69004398D02*
X53664580Y68956779D01*
X53664580Y68956779D02*
X53712200Y68909160D01*
X53712200Y68909160D02*
X53759819Y68813922D01*
X53759819Y68813922D02*
X53759819Y68575827D01*
X53759819Y68575827D02*
X53712200Y68480589D01*
X53712200Y68480589D02*
X53664580Y68432970D01*
X75374104Y9309161D02*
X75374104Y9785351D01*
X75659819Y9213923D02*
X74659819Y9547256D01*
X74659819Y9547256D02*
X75659819Y9880589D01*
X75659819Y10213923D02*
X74659819Y10213923D01*
X74659819Y10880589D02*
X74659819Y11071065D01*
X74659819Y11071065D02*
X74707438Y11166303D01*
X74707438Y11166303D02*
X74802676Y11261541D01*
X74802676Y11261541D02*
X74993152Y11309160D01*
X74993152Y11309160D02*
X75326485Y11309160D01*
X75326485Y11309160D02*
X75516961Y11261541D01*
X75516961Y11261541D02*
X75612200Y11166303D01*
X75612200Y11166303D02*
X75659819Y11071065D01*
X75659819Y11071065D02*
X75659819Y10880589D01*
X75659819Y10880589D02*
X75612200Y10785351D01*
X75612200Y10785351D02*
X75516961Y10690113D01*
X75516961Y10690113D02*
X75326485Y10642494D01*
X75326485Y10642494D02*
X74993152Y10642494D01*
X74993152Y10642494D02*
X74802676Y10690113D01*
X74802676Y10690113D02*
X74707438Y10785351D01*
X74707438Y10785351D02*
X74659819Y10880589D01*
X74755057Y11690113D02*
X74707438Y11737732D01*
X74707438Y11737732D02*
X74659819Y11832970D01*
X74659819Y11832970D02*
X74659819Y12071065D01*
X74659819Y12071065D02*
X74707438Y12166303D01*
X74707438Y12166303D02*
X74755057Y12213922D01*
X74755057Y12213922D02*
X74850295Y12261541D01*
X74850295Y12261541D02*
X74945533Y12261541D01*
X74945533Y12261541D02*
X75088390Y12213922D01*
X75088390Y12213922D02*
X75659819Y11642494D01*
X75659819Y11642494D02*
X75659819Y12261541D01*
X57869819Y8918208D02*
X57393628Y8584875D01*
X57869819Y8346780D02*
X56869819Y8346780D01*
X56869819Y8346780D02*
X56869819Y8727732D01*
X56869819Y8727732D02*
X56917438Y8822970D01*
X56917438Y8822970D02*
X56965057Y8870589D01*
X56965057Y8870589D02*
X57060295Y8918208D01*
X57060295Y8918208D02*
X57203152Y8918208D01*
X57203152Y8918208D02*
X57298390Y8870589D01*
X57298390Y8870589D02*
X57346009Y8822970D01*
X57346009Y8822970D02*
X57393628Y8727732D01*
X57393628Y8727732D02*
X57393628Y8346780D01*
X57346009Y9346780D02*
X57346009Y9680113D01*
X57869819Y9822970D02*
X57869819Y9346780D01*
X57869819Y9346780D02*
X56869819Y9346780D01*
X56869819Y9346780D02*
X56869819Y9822970D01*
X57822200Y10203923D02*
X57869819Y10346780D01*
X57869819Y10346780D02*
X57869819Y10584875D01*
X57869819Y10584875D02*
X57822200Y10680113D01*
X57822200Y10680113D02*
X57774580Y10727732D01*
X57774580Y10727732D02*
X57679342Y10775351D01*
X57679342Y10775351D02*
X57584104Y10775351D01*
X57584104Y10775351D02*
X57488866Y10727732D01*
X57488866Y10727732D02*
X57441247Y10680113D01*
X57441247Y10680113D02*
X57393628Y10584875D01*
X57393628Y10584875D02*
X57346009Y10394399D01*
X57346009Y10394399D02*
X57298390Y10299161D01*
X57298390Y10299161D02*
X57250771Y10251542D01*
X57250771Y10251542D02*
X57155533Y10203923D01*
X57155533Y10203923D02*
X57060295Y10203923D01*
X57060295Y10203923D02*
X56965057Y10251542D01*
X56965057Y10251542D02*
X56917438Y10299161D01*
X56917438Y10299161D02*
X56869819Y10394399D01*
X56869819Y10394399D02*
X56869819Y10632494D01*
X56869819Y10632494D02*
X56917438Y10775351D01*
X57346009Y11203923D02*
X57346009Y11537256D01*
X57869819Y11680113D02*
X57869819Y11203923D01*
X57869819Y11203923D02*
X56869819Y11203923D01*
X56869819Y11203923D02*
X56869819Y11680113D01*
X56869819Y11965828D02*
X56869819Y12537256D01*
X57869819Y12251542D02*
X56869819Y12251542D01*
X61869819Y11522970D02*
X61869819Y11046780D01*
X61869819Y11046780D02*
X62346009Y10999161D01*
X62346009Y10999161D02*
X62298390Y11046780D01*
X62298390Y11046780D02*
X62250771Y11142018D01*
X62250771Y11142018D02*
X62250771Y11380113D01*
X62250771Y11380113D02*
X62298390Y11475351D01*
X62298390Y11475351D02*
X62346009Y11522970D01*
X62346009Y11522970D02*
X62441247Y11570589D01*
X62441247Y11570589D02*
X62679342Y11570589D01*
X62679342Y11570589D02*
X62774580Y11522970D01*
X62774580Y11522970D02*
X62822200Y11475351D01*
X62822200Y11475351D02*
X62869819Y11380113D01*
X62869819Y11380113D02*
X62869819Y11142018D01*
X62869819Y11142018D02*
X62822200Y11046780D01*
X62822200Y11046780D02*
X62774580Y10999161D01*
X61869819Y11856304D02*
X62869819Y12189637D01*
X62869819Y12189637D02*
X61869819Y12522970D01*
X60507438Y65480589D02*
X60459819Y65385351D01*
X60459819Y65385351D02*
X60459819Y65242494D01*
X60459819Y65242494D02*
X60507438Y65099637D01*
X60507438Y65099637D02*
X60602676Y65004399D01*
X60602676Y65004399D02*
X60697914Y64956780D01*
X60697914Y64956780D02*
X60888390Y64909161D01*
X60888390Y64909161D02*
X61031247Y64909161D01*
X61031247Y64909161D02*
X61221723Y64956780D01*
X61221723Y64956780D02*
X61316961Y65004399D01*
X61316961Y65004399D02*
X61412200Y65099637D01*
X61412200Y65099637D02*
X61459819Y65242494D01*
X61459819Y65242494D02*
X61459819Y65337732D01*
X61459819Y65337732D02*
X61412200Y65480589D01*
X61412200Y65480589D02*
X61364580Y65528208D01*
X61364580Y65528208D02*
X61031247Y65528208D01*
X61031247Y65528208D02*
X61031247Y65337732D01*
X61459819Y65956780D02*
X60459819Y65956780D01*
X60459819Y65956780D02*
X60459819Y66337732D01*
X60459819Y66337732D02*
X60507438Y66432970D01*
X60507438Y66432970D02*
X60555057Y66480589D01*
X60555057Y66480589D02*
X60650295Y66528208D01*
X60650295Y66528208D02*
X60793152Y66528208D01*
X60793152Y66528208D02*
X60888390Y66480589D01*
X60888390Y66480589D02*
X60936009Y66432970D01*
X60936009Y66432970D02*
X60983628Y66337732D01*
X60983628Y66337732D02*
X60983628Y65956780D01*
X61459819Y66956780D02*
X60459819Y66956780D01*
X60459819Y67623446D02*
X60459819Y67813922D01*
X60459819Y67813922D02*
X60507438Y67909160D01*
X60507438Y67909160D02*
X60602676Y68004398D01*
X60602676Y68004398D02*
X60793152Y68052017D01*
X60793152Y68052017D02*
X61126485Y68052017D01*
X61126485Y68052017D02*
X61316961Y68004398D01*
X61316961Y68004398D02*
X61412200Y67909160D01*
X61412200Y67909160D02*
X61459819Y67813922D01*
X61459819Y67813922D02*
X61459819Y67623446D01*
X61459819Y67623446D02*
X61412200Y67528208D01*
X61412200Y67528208D02*
X61316961Y67432970D01*
X61316961Y67432970D02*
X61126485Y67385351D01*
X61126485Y67385351D02*
X60793152Y67385351D01*
X60793152Y67385351D02*
X60602676Y67432970D01*
X60602676Y67432970D02*
X60507438Y67528208D01*
X60507438Y67528208D02*
X60459819Y67623446D01*
X60555057Y68432970D02*
X60507438Y68480589D01*
X60507438Y68480589D02*
X60459819Y68575827D01*
X60459819Y68575827D02*
X60459819Y68813922D01*
X60459819Y68813922D02*
X60507438Y68909160D01*
X60507438Y68909160D02*
X60555057Y68956779D01*
X60555057Y68956779D02*
X60650295Y69004398D01*
X60650295Y69004398D02*
X60745533Y69004398D01*
X60745533Y69004398D02*
X60888390Y68956779D01*
X60888390Y68956779D02*
X61459819Y68385351D01*
X61459819Y68385351D02*
X61459819Y69004398D01*
X75069819Y48812970D02*
X75069819Y48336780D01*
X75069819Y48336780D02*
X74069819Y48336780D01*
X74546009Y49146304D02*
X74546009Y49479637D01*
X75069819Y49622494D02*
X75069819Y49146304D01*
X75069819Y49146304D02*
X74069819Y49146304D01*
X74069819Y49146304D02*
X74069819Y49622494D01*
X75069819Y50051066D02*
X74069819Y50051066D01*
X74069819Y50051066D02*
X74069819Y50289161D01*
X74069819Y50289161D02*
X74117438Y50432018D01*
X74117438Y50432018D02*
X74212676Y50527256D01*
X74212676Y50527256D02*
X74307914Y50574875D01*
X74307914Y50574875D02*
X74498390Y50622494D01*
X74498390Y50622494D02*
X74641247Y50622494D01*
X74641247Y50622494D02*
X74831723Y50574875D01*
X74831723Y50574875D02*
X74926961Y50527256D01*
X74926961Y50527256D02*
X75022200Y50432018D01*
X75022200Y50432018D02*
X75069819Y50289161D01*
X75069819Y50289161D02*
X75069819Y50051066D01*
X61741541Y21430181D02*
X61979636Y20430181D01*
X61979636Y20430181D02*
X62170112Y21144467D01*
X62170112Y21144467D02*
X62360588Y20430181D01*
X62360588Y20430181D02*
X62598684Y21430181D01*
X62979636Y20430181D02*
X62979636Y21430181D01*
X63551064Y20430181D02*
X63122493Y21001610D01*
X63551064Y21430181D02*
X62979636Y20858753D01*
X63979636Y20430181D02*
X63979636Y21430181D01*
X63979636Y21430181D02*
X64360588Y21430181D01*
X64360588Y21430181D02*
X64455826Y21382562D01*
X64455826Y21382562D02*
X64503445Y21334943D01*
X64503445Y21334943D02*
X64551064Y21239705D01*
X64551064Y21239705D02*
X64551064Y21096848D01*
X64551064Y21096848D02*
X64503445Y21001610D01*
X64503445Y21001610D02*
X64455826Y20953991D01*
X64455826Y20953991D02*
X64360588Y20906372D01*
X64360588Y20906372D02*
X63979636Y20906372D01*
X65170112Y21430181D02*
X65265350Y21430181D01*
X65265350Y21430181D02*
X65360588Y21382562D01*
X65360588Y21382562D02*
X65408207Y21334943D01*
X65408207Y21334943D02*
X65455826Y21239705D01*
X65455826Y21239705D02*
X65503445Y21049229D01*
X65503445Y21049229D02*
X65503445Y20811134D01*
X65503445Y20811134D02*
X65455826Y20620658D01*
X65455826Y20620658D02*
X65408207Y20525420D01*
X65408207Y20525420D02*
X65360588Y20477800D01*
X65360588Y20477800D02*
X65265350Y20430181D01*
X65265350Y20430181D02*
X65170112Y20430181D01*
X65170112Y20430181D02*
X65074874Y20477800D01*
X65074874Y20477800D02*
X65027255Y20525420D01*
X65027255Y20525420D02*
X64979636Y20620658D01*
X64979636Y20620658D02*
X64932017Y20811134D01*
X64932017Y20811134D02*
X64932017Y21049229D01*
X64932017Y21049229D02*
X64979636Y21239705D01*
X64979636Y21239705D02*
X65027255Y21334943D01*
X65027255Y21334943D02*
X65074874Y21382562D01*
X65074874Y21382562D02*
X65170112Y21430181D01*
X59269819Y9551542D02*
X59269819Y10170589D01*
X59269819Y10170589D02*
X59650771Y9837256D01*
X59650771Y9837256D02*
X59650771Y9980113D01*
X59650771Y9980113D02*
X59698390Y10075351D01*
X59698390Y10075351D02*
X59746009Y10122970D01*
X59746009Y10122970D02*
X59841247Y10170589D01*
X59841247Y10170589D02*
X60079342Y10170589D01*
X60079342Y10170589D02*
X60174580Y10122970D01*
X60174580Y10122970D02*
X60222200Y10075351D01*
X60222200Y10075351D02*
X60269819Y9980113D01*
X60269819Y9980113D02*
X60269819Y9694399D01*
X60269819Y9694399D02*
X60222200Y9599161D01*
X60222200Y9599161D02*
X60174580Y9551542D01*
X60174580Y10599161D02*
X60222200Y10646780D01*
X60222200Y10646780D02*
X60269819Y10599161D01*
X60269819Y10599161D02*
X60222200Y10551542D01*
X60222200Y10551542D02*
X60174580Y10599161D01*
X60174580Y10599161D02*
X60269819Y10599161D01*
X59269819Y10980113D02*
X59269819Y11599160D01*
X59269819Y11599160D02*
X59650771Y11265827D01*
X59650771Y11265827D02*
X59650771Y11408684D01*
X59650771Y11408684D02*
X59698390Y11503922D01*
X59698390Y11503922D02*
X59746009Y11551541D01*
X59746009Y11551541D02*
X59841247Y11599160D01*
X59841247Y11599160D02*
X60079342Y11599160D01*
X60079342Y11599160D02*
X60174580Y11551541D01*
X60174580Y11551541D02*
X60222200Y11503922D01*
X60222200Y11503922D02*
X60269819Y11408684D01*
X60269819Y11408684D02*
X60269819Y11122970D01*
X60269819Y11122970D02*
X60222200Y11027732D01*
X60222200Y11027732D02*
X60174580Y10980113D01*
X59269819Y11884875D02*
X60269819Y12218208D01*
X60269819Y12218208D02*
X59269819Y12551541D01*
X72608207Y20725420D02*
X72560588Y20677800D01*
X72560588Y20677800D02*
X72417731Y20630181D01*
X72417731Y20630181D02*
X72322493Y20630181D01*
X72322493Y20630181D02*
X72179636Y20677800D01*
X72179636Y20677800D02*
X72084398Y20773039D01*
X72084398Y20773039D02*
X72036779Y20868277D01*
X72036779Y20868277D02*
X71989160Y21058753D01*
X71989160Y21058753D02*
X71989160Y21201610D01*
X71989160Y21201610D02*
X72036779Y21392086D01*
X72036779Y21392086D02*
X72084398Y21487324D01*
X72084398Y21487324D02*
X72179636Y21582562D01*
X72179636Y21582562D02*
X72322493Y21630181D01*
X72322493Y21630181D02*
X72417731Y21630181D01*
X72417731Y21630181D02*
X72560588Y21582562D01*
X72560588Y21582562D02*
X72608207Y21534943D01*
X73512969Y20630181D02*
X73036779Y20630181D01*
X73036779Y20630181D02*
X73036779Y21630181D01*
X73846303Y20630181D02*
X73846303Y21630181D01*
X74417731Y20630181D02*
X73989160Y21201610D01*
X74417731Y21630181D02*
X73846303Y21058753D01*
X45207438Y65480589D02*
X45159819Y65385351D01*
X45159819Y65385351D02*
X45159819Y65242494D01*
X45159819Y65242494D02*
X45207438Y65099637D01*
X45207438Y65099637D02*
X45302676Y65004399D01*
X45302676Y65004399D02*
X45397914Y64956780D01*
X45397914Y64956780D02*
X45588390Y64909161D01*
X45588390Y64909161D02*
X45731247Y64909161D01*
X45731247Y64909161D02*
X45921723Y64956780D01*
X45921723Y64956780D02*
X46016961Y65004399D01*
X46016961Y65004399D02*
X46112200Y65099637D01*
X46112200Y65099637D02*
X46159819Y65242494D01*
X46159819Y65242494D02*
X46159819Y65337732D01*
X46159819Y65337732D02*
X46112200Y65480589D01*
X46112200Y65480589D02*
X46064580Y65528208D01*
X46064580Y65528208D02*
X45731247Y65528208D01*
X45731247Y65528208D02*
X45731247Y65337732D01*
X46159819Y65956780D02*
X45159819Y65956780D01*
X45159819Y65956780D02*
X45159819Y66337732D01*
X45159819Y66337732D02*
X45207438Y66432970D01*
X45207438Y66432970D02*
X45255057Y66480589D01*
X45255057Y66480589D02*
X45350295Y66528208D01*
X45350295Y66528208D02*
X45493152Y66528208D01*
X45493152Y66528208D02*
X45588390Y66480589D01*
X45588390Y66480589D02*
X45636009Y66432970D01*
X45636009Y66432970D02*
X45683628Y66337732D01*
X45683628Y66337732D02*
X45683628Y65956780D01*
X46159819Y66956780D02*
X45159819Y66956780D01*
X45159819Y67623446D02*
X45159819Y67813922D01*
X45159819Y67813922D02*
X45207438Y67909160D01*
X45207438Y67909160D02*
X45302676Y68004398D01*
X45302676Y68004398D02*
X45493152Y68052017D01*
X45493152Y68052017D02*
X45826485Y68052017D01*
X45826485Y68052017D02*
X46016961Y68004398D01*
X46016961Y68004398D02*
X46112200Y67909160D01*
X46112200Y67909160D02*
X46159819Y67813922D01*
X46159819Y67813922D02*
X46159819Y67623446D01*
X46159819Y67623446D02*
X46112200Y67528208D01*
X46112200Y67528208D02*
X46016961Y67432970D01*
X46016961Y67432970D02*
X45826485Y67385351D01*
X45826485Y67385351D02*
X45493152Y67385351D01*
X45493152Y67385351D02*
X45302676Y67432970D01*
X45302676Y67432970D02*
X45207438Y67528208D01*
X45207438Y67528208D02*
X45159819Y67623446D01*
X45159819Y68909160D02*
X45159819Y68718684D01*
X45159819Y68718684D02*
X45207438Y68623446D01*
X45207438Y68623446D02*
X45255057Y68575827D01*
X45255057Y68575827D02*
X45397914Y68480589D01*
X45397914Y68480589D02*
X45588390Y68432970D01*
X45588390Y68432970D02*
X45969342Y68432970D01*
X45969342Y68432970D02*
X46064580Y68480589D01*
X46064580Y68480589D02*
X46112200Y68528208D01*
X46112200Y68528208D02*
X46159819Y68623446D01*
X46159819Y68623446D02*
X46159819Y68813922D01*
X46159819Y68813922D02*
X46112200Y68909160D01*
X46112200Y68909160D02*
X46064580Y68956779D01*
X46064580Y68956779D02*
X45969342Y69004398D01*
X45969342Y69004398D02*
X45731247Y69004398D01*
X45731247Y69004398D02*
X45636009Y68956779D01*
X45636009Y68956779D02*
X45588390Y68909160D01*
X45588390Y68909160D02*
X45540771Y68813922D01*
X45540771Y68813922D02*
X45540771Y68623446D01*
X45540771Y68623446D02*
X45588390Y68528208D01*
X45588390Y68528208D02*
X45636009Y68480589D01*
X45636009Y68480589D02*
X45731247Y68432970D01*
X57907438Y65480589D02*
X57859819Y65385351D01*
X57859819Y65385351D02*
X57859819Y65242494D01*
X57859819Y65242494D02*
X57907438Y65099637D01*
X57907438Y65099637D02*
X58002676Y65004399D01*
X58002676Y65004399D02*
X58097914Y64956780D01*
X58097914Y64956780D02*
X58288390Y64909161D01*
X58288390Y64909161D02*
X58431247Y64909161D01*
X58431247Y64909161D02*
X58621723Y64956780D01*
X58621723Y64956780D02*
X58716961Y65004399D01*
X58716961Y65004399D02*
X58812200Y65099637D01*
X58812200Y65099637D02*
X58859819Y65242494D01*
X58859819Y65242494D02*
X58859819Y65337732D01*
X58859819Y65337732D02*
X58812200Y65480589D01*
X58812200Y65480589D02*
X58764580Y65528208D01*
X58764580Y65528208D02*
X58431247Y65528208D01*
X58431247Y65528208D02*
X58431247Y65337732D01*
X58859819Y65956780D02*
X57859819Y65956780D01*
X57859819Y65956780D02*
X57859819Y66337732D01*
X57859819Y66337732D02*
X57907438Y66432970D01*
X57907438Y66432970D02*
X57955057Y66480589D01*
X57955057Y66480589D02*
X58050295Y66528208D01*
X58050295Y66528208D02*
X58193152Y66528208D01*
X58193152Y66528208D02*
X58288390Y66480589D01*
X58288390Y66480589D02*
X58336009Y66432970D01*
X58336009Y66432970D02*
X58383628Y66337732D01*
X58383628Y66337732D02*
X58383628Y65956780D01*
X58859819Y66956780D02*
X57859819Y66956780D01*
X57859819Y67623446D02*
X57859819Y67813922D01*
X57859819Y67813922D02*
X57907438Y67909160D01*
X57907438Y67909160D02*
X58002676Y68004398D01*
X58002676Y68004398D02*
X58193152Y68052017D01*
X58193152Y68052017D02*
X58526485Y68052017D01*
X58526485Y68052017D02*
X58716961Y68004398D01*
X58716961Y68004398D02*
X58812200Y67909160D01*
X58812200Y67909160D02*
X58859819Y67813922D01*
X58859819Y67813922D02*
X58859819Y67623446D01*
X58859819Y67623446D02*
X58812200Y67528208D01*
X58812200Y67528208D02*
X58716961Y67432970D01*
X58716961Y67432970D02*
X58526485Y67385351D01*
X58526485Y67385351D02*
X58193152Y67385351D01*
X58193152Y67385351D02*
X58002676Y67432970D01*
X58002676Y67432970D02*
X57907438Y67528208D01*
X57907438Y67528208D02*
X57859819Y67623446D01*
X57859819Y68385351D02*
X57859819Y69004398D01*
X57859819Y69004398D02*
X58240771Y68671065D01*
X58240771Y68671065D02*
X58240771Y68813922D01*
X58240771Y68813922D02*
X58288390Y68909160D01*
X58288390Y68909160D02*
X58336009Y68956779D01*
X58336009Y68956779D02*
X58431247Y69004398D01*
X58431247Y69004398D02*
X58669342Y69004398D01*
X58669342Y69004398D02*
X58764580Y68956779D01*
X58764580Y68956779D02*
X58812200Y68909160D01*
X58812200Y68909160D02*
X58859819Y68813922D01*
X58859819Y68813922D02*
X58859819Y68528208D01*
X58859819Y68528208D02*
X58812200Y68432970D01*
X58812200Y68432970D02*
X58764580Y68385351D01*
X40224819Y62466667D02*
X40939104Y62466667D01*
X40939104Y62466667D02*
X41081961Y62419048D01*
X41081961Y62419048D02*
X41177200Y62323810D01*
X41177200Y62323810D02*
X41224819Y62180953D01*
X41224819Y62180953D02*
X41224819Y62085715D01*
X40224819Y63419048D02*
X40224819Y62942858D01*
X40224819Y62942858D02*
X40701009Y62895239D01*
X40701009Y62895239D02*
X40653390Y62942858D01*
X40653390Y62942858D02*
X40605771Y63038096D01*
X40605771Y63038096D02*
X40605771Y63276191D01*
X40605771Y63276191D02*
X40653390Y63371429D01*
X40653390Y63371429D02*
X40701009Y63419048D01*
X40701009Y63419048D02*
X40796247Y63466667D01*
X40796247Y63466667D02*
X41034342Y63466667D01*
X41034342Y63466667D02*
X41129580Y63419048D01*
X41129580Y63419048D02*
X41177200Y63371429D01*
X41177200Y63371429D02*
X41224819Y63276191D01*
X41224819Y63276191D02*
X41224819Y63038096D01*
X41224819Y63038096D02*
X41177200Y62942858D01*
X41177200Y62942858D02*
X41129580Y62895239D01*
X88669580Y40549524D02*
X88717200Y40501905D01*
X88717200Y40501905D02*
X88764819Y40359048D01*
X88764819Y40359048D02*
X88764819Y40263810D01*
X88764819Y40263810D02*
X88717200Y40120953D01*
X88717200Y40120953D02*
X88621961Y40025715D01*
X88621961Y40025715D02*
X88526723Y39978096D01*
X88526723Y39978096D02*
X88336247Y39930477D01*
X88336247Y39930477D02*
X88193390Y39930477D01*
X88193390Y39930477D02*
X88002914Y39978096D01*
X88002914Y39978096D02*
X87907676Y40025715D01*
X87907676Y40025715D02*
X87812438Y40120953D01*
X87812438Y40120953D02*
X87764819Y40263810D01*
X87764819Y40263810D02*
X87764819Y40359048D01*
X87764819Y40359048D02*
X87812438Y40501905D01*
X87812438Y40501905D02*
X87860057Y40549524D01*
X88764819Y40978096D02*
X87764819Y40978096D01*
X87764819Y40978096D02*
X88764819Y41549524D01*
X88764819Y41549524D02*
X87764819Y41549524D01*
X87860057Y41978096D02*
X87812438Y42025715D01*
X87812438Y42025715D02*
X87764819Y42120953D01*
X87764819Y42120953D02*
X87764819Y42359048D01*
X87764819Y42359048D02*
X87812438Y42454286D01*
X87812438Y42454286D02*
X87860057Y42501905D01*
X87860057Y42501905D02*
X87955295Y42549524D01*
X87955295Y42549524D02*
X88050533Y42549524D01*
X88050533Y42549524D02*
X88193390Y42501905D01*
X88193390Y42501905D02*
X88764819Y41930477D01*
X88764819Y41930477D02*
X88764819Y42549524D01*
X33132333Y21396420D02*
X33084714Y21348800D01*
X33084714Y21348800D02*
X32941857Y21301181D01*
X32941857Y21301181D02*
X32846619Y21301181D01*
X32846619Y21301181D02*
X32703762Y21348800D01*
X32703762Y21348800D02*
X32608524Y21444039D01*
X32608524Y21444039D02*
X32560905Y21539277D01*
X32560905Y21539277D02*
X32513286Y21729753D01*
X32513286Y21729753D02*
X32513286Y21872610D01*
X32513286Y21872610D02*
X32560905Y22063086D01*
X32560905Y22063086D02*
X32608524Y22158324D01*
X32608524Y22158324D02*
X32703762Y22253562D01*
X32703762Y22253562D02*
X32846619Y22301181D01*
X32846619Y22301181D02*
X32941857Y22301181D01*
X32941857Y22301181D02*
X33084714Y22253562D01*
X33084714Y22253562D02*
X33132333Y22205943D01*
X34037095Y22301181D02*
X33560905Y22301181D01*
X33560905Y22301181D02*
X33513286Y21824991D01*
X33513286Y21824991D02*
X33560905Y21872610D01*
X33560905Y21872610D02*
X33656143Y21920229D01*
X33656143Y21920229D02*
X33894238Y21920229D01*
X33894238Y21920229D02*
X33989476Y21872610D01*
X33989476Y21872610D02*
X34037095Y21824991D01*
X34037095Y21824991D02*
X34084714Y21729753D01*
X34084714Y21729753D02*
X34084714Y21491658D01*
X34084714Y21491658D02*
X34037095Y21396420D01*
X34037095Y21396420D02*
X33989476Y21348800D01*
X33989476Y21348800D02*
X33894238Y21301181D01*
X33894238Y21301181D02*
X33656143Y21301181D01*
X33656143Y21301181D02*
X33560905Y21348800D01*
X33560905Y21348800D02*
X33513286Y21396420D01*
X46607142Y41745181D02*
X46273809Y42221372D01*
X46035714Y41745181D02*
X46035714Y42745181D01*
X46035714Y42745181D02*
X46416666Y42745181D01*
X46416666Y42745181D02*
X46511904Y42697562D01*
X46511904Y42697562D02*
X46559523Y42649943D01*
X46559523Y42649943D02*
X46607142Y42554705D01*
X46607142Y42554705D02*
X46607142Y42411848D01*
X46607142Y42411848D02*
X46559523Y42316610D01*
X46559523Y42316610D02*
X46511904Y42268991D01*
X46511904Y42268991D02*
X46416666Y42221372D01*
X46416666Y42221372D02*
X46035714Y42221372D01*
X47559523Y41745181D02*
X46988095Y41745181D01*
X47273809Y41745181D02*
X47273809Y42745181D01*
X47273809Y42745181D02*
X47178571Y42602324D01*
X47178571Y42602324D02*
X47083333Y42507086D01*
X47083333Y42507086D02*
X46988095Y42459467D01*
X47892857Y42745181D02*
X48511904Y42745181D01*
X48511904Y42745181D02*
X48178571Y42364229D01*
X48178571Y42364229D02*
X48321428Y42364229D01*
X48321428Y42364229D02*
X48416666Y42316610D01*
X48416666Y42316610D02*
X48464285Y42268991D01*
X48464285Y42268991D02*
X48511904Y42173753D01*
X48511904Y42173753D02*
X48511904Y41935658D01*
X48511904Y41935658D02*
X48464285Y41840420D01*
X48464285Y41840420D02*
X48416666Y41792800D01*
X48416666Y41792800D02*
X48321428Y41745181D01*
X48321428Y41745181D02*
X48035714Y41745181D01*
X48035714Y41745181D02*
X47940476Y41792800D01*
X47940476Y41792800D02*
X47892857Y41840420D01*
X46607142Y34545181D02*
X46273809Y35021372D01*
X46035714Y34545181D02*
X46035714Y35545181D01*
X46035714Y35545181D02*
X46416666Y35545181D01*
X46416666Y35545181D02*
X46511904Y35497562D01*
X46511904Y35497562D02*
X46559523Y35449943D01*
X46559523Y35449943D02*
X46607142Y35354705D01*
X46607142Y35354705D02*
X46607142Y35211848D01*
X46607142Y35211848D02*
X46559523Y35116610D01*
X46559523Y35116610D02*
X46511904Y35068991D01*
X46511904Y35068991D02*
X46416666Y35021372D01*
X46416666Y35021372D02*
X46035714Y35021372D01*
X47559523Y34545181D02*
X46988095Y34545181D01*
X47273809Y34545181D02*
X47273809Y35545181D01*
X47273809Y35545181D02*
X47178571Y35402324D01*
X47178571Y35402324D02*
X47083333Y35307086D01*
X47083333Y35307086D02*
X46988095Y35259467D01*
X47892857Y35545181D02*
X48559523Y35545181D01*
X48559523Y35545181D02*
X48130952Y34545181D01*
X26706819Y57084906D02*
X25706819Y57084906D01*
X25706819Y57084906D02*
X25706819Y57323001D01*
X25706819Y57323001D02*
X25754438Y57465858D01*
X25754438Y57465858D02*
X25849676Y57561096D01*
X25849676Y57561096D02*
X25944914Y57608715D01*
X25944914Y57608715D02*
X26135390Y57656334D01*
X26135390Y57656334D02*
X26278247Y57656334D01*
X26278247Y57656334D02*
X26468723Y57608715D01*
X26468723Y57608715D02*
X26563961Y57561096D01*
X26563961Y57561096D02*
X26659200Y57465858D01*
X26659200Y57465858D02*
X26706819Y57323001D01*
X26706819Y57323001D02*
X26706819Y57084906D01*
X26706819Y58608715D02*
X26706819Y58037287D01*
X26706819Y58323001D02*
X25706819Y58323001D01*
X25706819Y58323001D02*
X25849676Y58227763D01*
X25849676Y58227763D02*
X25944914Y58132525D01*
X25944914Y58132525D02*
X25992533Y58037287D01*
X49368819Y14206667D02*
X50083104Y14206667D01*
X50083104Y14206667D02*
X50225961Y14159048D01*
X50225961Y14159048D02*
X50321200Y14063810D01*
X50321200Y14063810D02*
X50368819Y13920953D01*
X50368819Y13920953D02*
X50368819Y13825715D01*
X50368819Y15206667D02*
X50368819Y14635239D01*
X50368819Y14920953D02*
X49368819Y14920953D01*
X49368819Y14920953D02*
X49511676Y14825715D01*
X49511676Y14825715D02*
X49606914Y14730477D01*
X49606914Y14730477D02*
X49654533Y14635239D01*
X59309580Y36997143D02*
X59357200Y36949524D01*
X59357200Y36949524D02*
X59404819Y36806667D01*
X59404819Y36806667D02*
X59404819Y36711429D01*
X59404819Y36711429D02*
X59357200Y36568572D01*
X59357200Y36568572D02*
X59261961Y36473334D01*
X59261961Y36473334D02*
X59166723Y36425715D01*
X59166723Y36425715D02*
X58976247Y36378096D01*
X58976247Y36378096D02*
X58833390Y36378096D01*
X58833390Y36378096D02*
X58642914Y36425715D01*
X58642914Y36425715D02*
X58547676Y36473334D01*
X58547676Y36473334D02*
X58452438Y36568572D01*
X58452438Y36568572D02*
X58404819Y36711429D01*
X58404819Y36711429D02*
X58404819Y36806667D01*
X58404819Y36806667D02*
X58452438Y36949524D01*
X58452438Y36949524D02*
X58500057Y36997143D01*
X59404819Y37949524D02*
X59404819Y37378096D01*
X59404819Y37663810D02*
X58404819Y37663810D01*
X58404819Y37663810D02*
X58547676Y37568572D01*
X58547676Y37568572D02*
X58642914Y37473334D01*
X58642914Y37473334D02*
X58690533Y37378096D01*
X58404819Y38282858D02*
X58404819Y38901905D01*
X58404819Y38901905D02*
X58785771Y38568572D01*
X58785771Y38568572D02*
X58785771Y38711429D01*
X58785771Y38711429D02*
X58833390Y38806667D01*
X58833390Y38806667D02*
X58881009Y38854286D01*
X58881009Y38854286D02*
X58976247Y38901905D01*
X58976247Y38901905D02*
X59214342Y38901905D01*
X59214342Y38901905D02*
X59309580Y38854286D01*
X59309580Y38854286D02*
X59357200Y38806667D01*
X59357200Y38806667D02*
X59404819Y38711429D01*
X59404819Y38711429D02*
X59404819Y38425715D01*
X59404819Y38425715D02*
X59357200Y38330477D01*
X59357200Y38330477D02*
X59309580Y38282858D01*
X69666666Y60545181D02*
X69666666Y59830896D01*
X69666666Y59830896D02*
X69619047Y59688039D01*
X69619047Y59688039D02*
X69523809Y59592800D01*
X69523809Y59592800D02*
X69380952Y59545181D01*
X69380952Y59545181D02*
X69285714Y59545181D01*
X70047619Y60545181D02*
X70714285Y60545181D01*
X70714285Y60545181D02*
X70285714Y59545181D01*
X50457142Y16940420D02*
X50409523Y16892800D01*
X50409523Y16892800D02*
X50266666Y16845181D01*
X50266666Y16845181D02*
X50171428Y16845181D01*
X50171428Y16845181D02*
X50028571Y16892800D01*
X50028571Y16892800D02*
X49933333Y16988039D01*
X49933333Y16988039D02*
X49885714Y17083277D01*
X49885714Y17083277D02*
X49838095Y17273753D01*
X49838095Y17273753D02*
X49838095Y17416610D01*
X49838095Y17416610D02*
X49885714Y17607086D01*
X49885714Y17607086D02*
X49933333Y17702324D01*
X49933333Y17702324D02*
X50028571Y17797562D01*
X50028571Y17797562D02*
X50171428Y17845181D01*
X50171428Y17845181D02*
X50266666Y17845181D01*
X50266666Y17845181D02*
X50409523Y17797562D01*
X50409523Y17797562D02*
X50457142Y17749943D01*
X51409523Y16845181D02*
X50838095Y16845181D01*
X51123809Y16845181D02*
X51123809Y17845181D01*
X51123809Y17845181D02*
X51028571Y17702324D01*
X51028571Y17702324D02*
X50933333Y17607086D01*
X50933333Y17607086D02*
X50838095Y17559467D01*
X51742857Y17845181D02*
X52409523Y17845181D01*
X52409523Y17845181D02*
X51980952Y16845181D01*
X46657142Y43040420D02*
X46609523Y42992800D01*
X46609523Y42992800D02*
X46466666Y42945181D01*
X46466666Y42945181D02*
X46371428Y42945181D01*
X46371428Y42945181D02*
X46228571Y42992800D01*
X46228571Y42992800D02*
X46133333Y43088039D01*
X46133333Y43088039D02*
X46085714Y43183277D01*
X46085714Y43183277D02*
X46038095Y43373753D01*
X46038095Y43373753D02*
X46038095Y43516610D01*
X46038095Y43516610D02*
X46085714Y43707086D01*
X46085714Y43707086D02*
X46133333Y43802324D01*
X46133333Y43802324D02*
X46228571Y43897562D01*
X46228571Y43897562D02*
X46371428Y43945181D01*
X46371428Y43945181D02*
X46466666Y43945181D01*
X46466666Y43945181D02*
X46609523Y43897562D01*
X46609523Y43897562D02*
X46657142Y43849943D01*
X47609523Y42945181D02*
X47038095Y42945181D01*
X47323809Y42945181D02*
X47323809Y43945181D01*
X47323809Y43945181D02*
X47228571Y43802324D01*
X47228571Y43802324D02*
X47133333Y43707086D01*
X47133333Y43707086D02*
X47038095Y43659467D01*
X48514285Y43945181D02*
X48038095Y43945181D01*
X48038095Y43945181D02*
X47990476Y43468991D01*
X47990476Y43468991D02*
X48038095Y43516610D01*
X48038095Y43516610D02*
X48133333Y43564229D01*
X48133333Y43564229D02*
X48371428Y43564229D01*
X48371428Y43564229D02*
X48466666Y43516610D01*
X48466666Y43516610D02*
X48514285Y43468991D01*
X48514285Y43468991D02*
X48561904Y43373753D01*
X48561904Y43373753D02*
X48561904Y43135658D01*
X48561904Y43135658D02*
X48514285Y43040420D01*
X48514285Y43040420D02*
X48466666Y42992800D01*
X48466666Y42992800D02*
X48371428Y42945181D01*
X48371428Y42945181D02*
X48133333Y42945181D01*
X48133333Y42945181D02*
X48038095Y42992800D01*
X48038095Y42992800D02*
X47990476Y43040420D01*
X50457142Y18440420D02*
X50409523Y18392800D01*
X50409523Y18392800D02*
X50266666Y18345181D01*
X50266666Y18345181D02*
X50171428Y18345181D01*
X50171428Y18345181D02*
X50028571Y18392800D01*
X50028571Y18392800D02*
X49933333Y18488039D01*
X49933333Y18488039D02*
X49885714Y18583277D01*
X49885714Y18583277D02*
X49838095Y18773753D01*
X49838095Y18773753D02*
X49838095Y18916610D01*
X49838095Y18916610D02*
X49885714Y19107086D01*
X49885714Y19107086D02*
X49933333Y19202324D01*
X49933333Y19202324D02*
X50028571Y19297562D01*
X50028571Y19297562D02*
X50171428Y19345181D01*
X50171428Y19345181D02*
X50266666Y19345181D01*
X50266666Y19345181D02*
X50409523Y19297562D01*
X50409523Y19297562D02*
X50457142Y19249943D01*
X51409523Y18345181D02*
X50838095Y18345181D01*
X51123809Y18345181D02*
X51123809Y19345181D01*
X51123809Y19345181D02*
X51028571Y19202324D01*
X51028571Y19202324D02*
X50933333Y19107086D01*
X50933333Y19107086D02*
X50838095Y19059467D01*
X52361904Y18345181D02*
X51790476Y18345181D01*
X52076190Y18345181D02*
X52076190Y19345181D01*
X52076190Y19345181D02*
X51980952Y19202324D01*
X51980952Y19202324D02*
X51885714Y19107086D01*
X51885714Y19107086D02*
X51790476Y19059467D01*
X80809580Y45877143D02*
X80857200Y45829524D01*
X80857200Y45829524D02*
X80904819Y45686667D01*
X80904819Y45686667D02*
X80904819Y45591429D01*
X80904819Y45591429D02*
X80857200Y45448572D01*
X80857200Y45448572D02*
X80761961Y45353334D01*
X80761961Y45353334D02*
X80666723Y45305715D01*
X80666723Y45305715D02*
X80476247Y45258096D01*
X80476247Y45258096D02*
X80333390Y45258096D01*
X80333390Y45258096D02*
X80142914Y45305715D01*
X80142914Y45305715D02*
X80047676Y45353334D01*
X80047676Y45353334D02*
X79952438Y45448572D01*
X79952438Y45448572D02*
X79904819Y45591429D01*
X79904819Y45591429D02*
X79904819Y45686667D01*
X79904819Y45686667D02*
X79952438Y45829524D01*
X79952438Y45829524D02*
X80000057Y45877143D01*
X80904819Y46829524D02*
X80904819Y46258096D01*
X80904819Y46543810D02*
X79904819Y46543810D01*
X79904819Y46543810D02*
X80047676Y46448572D01*
X80047676Y46448572D02*
X80142914Y46353334D01*
X80142914Y46353334D02*
X80190533Y46258096D01*
X80000057Y47210477D02*
X79952438Y47258096D01*
X79952438Y47258096D02*
X79904819Y47353334D01*
X79904819Y47353334D02*
X79904819Y47591429D01*
X79904819Y47591429D02*
X79952438Y47686667D01*
X79952438Y47686667D02*
X80000057Y47734286D01*
X80000057Y47734286D02*
X80095295Y47781905D01*
X80095295Y47781905D02*
X80190533Y47781905D01*
X80190533Y47781905D02*
X80333390Y47734286D01*
X80333390Y47734286D02*
X80904819Y47162858D01*
X80904819Y47162858D02*
X80904819Y47781905D01*
X70911819Y29462334D02*
X70435628Y29129001D01*
X70911819Y28890906D02*
X69911819Y28890906D01*
X69911819Y28890906D02*
X69911819Y29271858D01*
X69911819Y29271858D02*
X69959438Y29367096D01*
X69959438Y29367096D02*
X70007057Y29414715D01*
X70007057Y29414715D02*
X70102295Y29462334D01*
X70102295Y29462334D02*
X70245152Y29462334D01*
X70245152Y29462334D02*
X70340390Y29414715D01*
X70340390Y29414715D02*
X70388009Y29367096D01*
X70388009Y29367096D02*
X70435628Y29271858D01*
X70435628Y29271858D02*
X70435628Y28890906D01*
X69911819Y29795668D02*
X69911819Y30462334D01*
X69911819Y30462334D02*
X70911819Y30033763D01*
X95339819Y30382143D02*
X94863628Y30048810D01*
X95339819Y29810715D02*
X94339819Y29810715D01*
X94339819Y29810715D02*
X94339819Y30191667D01*
X94339819Y30191667D02*
X94387438Y30286905D01*
X94387438Y30286905D02*
X94435057Y30334524D01*
X94435057Y30334524D02*
X94530295Y30382143D01*
X94530295Y30382143D02*
X94673152Y30382143D01*
X94673152Y30382143D02*
X94768390Y30334524D01*
X94768390Y30334524D02*
X94816009Y30286905D01*
X94816009Y30286905D02*
X94863628Y30191667D01*
X94863628Y30191667D02*
X94863628Y29810715D01*
X94435057Y30763096D02*
X94387438Y30810715D01*
X94387438Y30810715D02*
X94339819Y30905953D01*
X94339819Y30905953D02*
X94339819Y31144048D01*
X94339819Y31144048D02*
X94387438Y31239286D01*
X94387438Y31239286D02*
X94435057Y31286905D01*
X94435057Y31286905D02*
X94530295Y31334524D01*
X94530295Y31334524D02*
X94625533Y31334524D01*
X94625533Y31334524D02*
X94768390Y31286905D01*
X94768390Y31286905D02*
X95339819Y30715477D01*
X95339819Y30715477D02*
X95339819Y31334524D01*
X94435057Y31715477D02*
X94387438Y31763096D01*
X94387438Y31763096D02*
X94339819Y31858334D01*
X94339819Y31858334D02*
X94339819Y32096429D01*
X94339819Y32096429D02*
X94387438Y32191667D01*
X94387438Y32191667D02*
X94435057Y32239286D01*
X94435057Y32239286D02*
X94530295Y32286905D01*
X94530295Y32286905D02*
X94625533Y32286905D01*
X94625533Y32286905D02*
X94768390Y32239286D01*
X94768390Y32239286D02*
X95339819Y31667858D01*
X95339819Y31667858D02*
X95339819Y32286905D01*
X34158580Y24984334D02*
X34206200Y24936715D01*
X34206200Y24936715D02*
X34253819Y24793858D01*
X34253819Y24793858D02*
X34253819Y24698620D01*
X34253819Y24698620D02*
X34206200Y24555763D01*
X34206200Y24555763D02*
X34110961Y24460525D01*
X34110961Y24460525D02*
X34015723Y24412906D01*
X34015723Y24412906D02*
X33825247Y24365287D01*
X33825247Y24365287D02*
X33682390Y24365287D01*
X33682390Y24365287D02*
X33491914Y24412906D01*
X33491914Y24412906D02*
X33396676Y24460525D01*
X33396676Y24460525D02*
X33301438Y24555763D01*
X33301438Y24555763D02*
X33253819Y24698620D01*
X33253819Y24698620D02*
X33253819Y24793858D01*
X33253819Y24793858D02*
X33301438Y24936715D01*
X33301438Y24936715D02*
X33349057Y24984334D01*
X33682390Y25555763D02*
X33634771Y25460525D01*
X33634771Y25460525D02*
X33587152Y25412906D01*
X33587152Y25412906D02*
X33491914Y25365287D01*
X33491914Y25365287D02*
X33444295Y25365287D01*
X33444295Y25365287D02*
X33349057Y25412906D01*
X33349057Y25412906D02*
X33301438Y25460525D01*
X33301438Y25460525D02*
X33253819Y25555763D01*
X33253819Y25555763D02*
X33253819Y25746239D01*
X33253819Y25746239D02*
X33301438Y25841477D01*
X33301438Y25841477D02*
X33349057Y25889096D01*
X33349057Y25889096D02*
X33444295Y25936715D01*
X33444295Y25936715D02*
X33491914Y25936715D01*
X33491914Y25936715D02*
X33587152Y25889096D01*
X33587152Y25889096D02*
X33634771Y25841477D01*
X33634771Y25841477D02*
X33682390Y25746239D01*
X33682390Y25746239D02*
X33682390Y25555763D01*
X33682390Y25555763D02*
X33730009Y25460525D01*
X33730009Y25460525D02*
X33777628Y25412906D01*
X33777628Y25412906D02*
X33872866Y25365287D01*
X33872866Y25365287D02*
X34063342Y25365287D01*
X34063342Y25365287D02*
X34158580Y25412906D01*
X34158580Y25412906D02*
X34206200Y25460525D01*
X34206200Y25460525D02*
X34253819Y25555763D01*
X34253819Y25555763D02*
X34253819Y25746239D01*
X34253819Y25746239D02*
X34206200Y25841477D01*
X34206200Y25841477D02*
X34158580Y25889096D01*
X34158580Y25889096D02*
X34063342Y25936715D01*
X34063342Y25936715D02*
X33872866Y25936715D01*
X33872866Y25936715D02*
X33777628Y25889096D01*
X33777628Y25889096D02*
X33730009Y25841477D01*
X33730009Y25841477D02*
X33682390Y25746239D01*
X83359580Y44647143D02*
X83407200Y44599524D01*
X83407200Y44599524D02*
X83454819Y44456667D01*
X83454819Y44456667D02*
X83454819Y44361429D01*
X83454819Y44361429D02*
X83407200Y44218572D01*
X83407200Y44218572D02*
X83311961Y44123334D01*
X83311961Y44123334D02*
X83216723Y44075715D01*
X83216723Y44075715D02*
X83026247Y44028096D01*
X83026247Y44028096D02*
X82883390Y44028096D01*
X82883390Y44028096D02*
X82692914Y44075715D01*
X82692914Y44075715D02*
X82597676Y44123334D01*
X82597676Y44123334D02*
X82502438Y44218572D01*
X82502438Y44218572D02*
X82454819Y44361429D01*
X82454819Y44361429D02*
X82454819Y44456667D01*
X82454819Y44456667D02*
X82502438Y44599524D01*
X82502438Y44599524D02*
X82550057Y44647143D01*
X83454819Y45599524D02*
X83454819Y45028096D01*
X83454819Y45313810D02*
X82454819Y45313810D01*
X82454819Y45313810D02*
X82597676Y45218572D01*
X82597676Y45218572D02*
X82692914Y45123334D01*
X82692914Y45123334D02*
X82740533Y45028096D01*
X82883390Y46170953D02*
X82835771Y46075715D01*
X82835771Y46075715D02*
X82788152Y46028096D01*
X82788152Y46028096D02*
X82692914Y45980477D01*
X82692914Y45980477D02*
X82645295Y45980477D01*
X82645295Y45980477D02*
X82550057Y46028096D01*
X82550057Y46028096D02*
X82502438Y46075715D01*
X82502438Y46075715D02*
X82454819Y46170953D01*
X82454819Y46170953D02*
X82454819Y46361429D01*
X82454819Y46361429D02*
X82502438Y46456667D01*
X82502438Y46456667D02*
X82550057Y46504286D01*
X82550057Y46504286D02*
X82645295Y46551905D01*
X82645295Y46551905D02*
X82692914Y46551905D01*
X82692914Y46551905D02*
X82788152Y46504286D01*
X82788152Y46504286D02*
X82835771Y46456667D01*
X82835771Y46456667D02*
X82883390Y46361429D01*
X82883390Y46361429D02*
X82883390Y46170953D01*
X82883390Y46170953D02*
X82931009Y46075715D01*
X82931009Y46075715D02*
X82978628Y46028096D01*
X82978628Y46028096D02*
X83073866Y45980477D01*
X83073866Y45980477D02*
X83264342Y45980477D01*
X83264342Y45980477D02*
X83359580Y46028096D01*
X83359580Y46028096D02*
X83407200Y46075715D01*
X83407200Y46075715D02*
X83454819Y46170953D01*
X83454819Y46170953D02*
X83454819Y46361429D01*
X83454819Y46361429D02*
X83407200Y46456667D01*
X83407200Y46456667D02*
X83359580Y46504286D01*
X83359580Y46504286D02*
X83264342Y46551905D01*
X83264342Y46551905D02*
X83073866Y46551905D01*
X83073866Y46551905D02*
X82978628Y46504286D01*
X82978628Y46504286D02*
X82931009Y46456667D01*
X82931009Y46456667D02*
X82883390Y46361429D01*
X98466667Y16642800D02*
X98609524Y16595181D01*
X98609524Y16595181D02*
X98847619Y16595181D01*
X98847619Y16595181D02*
X98942857Y16642800D01*
X98942857Y16642800D02*
X98990476Y16690420D01*
X98990476Y16690420D02*
X99038095Y16785658D01*
X99038095Y16785658D02*
X99038095Y16880896D01*
X99038095Y16880896D02*
X98990476Y16976134D01*
X98990476Y16976134D02*
X98942857Y17023753D01*
X98942857Y17023753D02*
X98847619Y17071372D01*
X98847619Y17071372D02*
X98657143Y17118991D01*
X98657143Y17118991D02*
X98561905Y17166610D01*
X98561905Y17166610D02*
X98514286Y17214229D01*
X98514286Y17214229D02*
X98466667Y17309467D01*
X98466667Y17309467D02*
X98466667Y17404705D01*
X98466667Y17404705D02*
X98514286Y17499943D01*
X98514286Y17499943D02*
X98561905Y17547562D01*
X98561905Y17547562D02*
X98657143Y17595181D01*
X98657143Y17595181D02*
X98895238Y17595181D01*
X98895238Y17595181D02*
X99038095Y17547562D01*
X99371429Y17595181D02*
X99609524Y16595181D01*
X99609524Y16595181D02*
X99800000Y17309467D01*
X99800000Y17309467D02*
X99990476Y16595181D01*
X99990476Y16595181D02*
X100228572Y17595181D01*
X100561905Y17499943D02*
X100609524Y17547562D01*
X100609524Y17547562D02*
X100704762Y17595181D01*
X100704762Y17595181D02*
X100942857Y17595181D01*
X100942857Y17595181D02*
X101038095Y17547562D01*
X101038095Y17547562D02*
X101085714Y17499943D01*
X101085714Y17499943D02*
X101133333Y17404705D01*
X101133333Y17404705D02*
X101133333Y17309467D01*
X101133333Y17309467D02*
X101085714Y17166610D01*
X101085714Y17166610D02*
X100514286Y16595181D01*
X100514286Y16595181D02*
X101133333Y16595181D01*
X83584819Y15364643D02*
X83108628Y15031310D01*
X83584819Y14793215D02*
X82584819Y14793215D01*
X82584819Y14793215D02*
X82584819Y15174167D01*
X82584819Y15174167D02*
X82632438Y15269405D01*
X82632438Y15269405D02*
X82680057Y15317024D01*
X82680057Y15317024D02*
X82775295Y15364643D01*
X82775295Y15364643D02*
X82918152Y15364643D01*
X82918152Y15364643D02*
X83013390Y15317024D01*
X83013390Y15317024D02*
X83061009Y15269405D01*
X83061009Y15269405D02*
X83108628Y15174167D01*
X83108628Y15174167D02*
X83108628Y14793215D01*
X83584819Y16317024D02*
X83584819Y15745596D01*
X83584819Y16031310D02*
X82584819Y16031310D01*
X82584819Y16031310D02*
X82727676Y15936072D01*
X82727676Y15936072D02*
X82822914Y15840834D01*
X82822914Y15840834D02*
X82870533Y15745596D01*
X83013390Y16888453D02*
X82965771Y16793215D01*
X82965771Y16793215D02*
X82918152Y16745596D01*
X82918152Y16745596D02*
X82822914Y16697977D01*
X82822914Y16697977D02*
X82775295Y16697977D01*
X82775295Y16697977D02*
X82680057Y16745596D01*
X82680057Y16745596D02*
X82632438Y16793215D01*
X82632438Y16793215D02*
X82584819Y16888453D01*
X82584819Y16888453D02*
X82584819Y17078929D01*
X82584819Y17078929D02*
X82632438Y17174167D01*
X82632438Y17174167D02*
X82680057Y17221786D01*
X82680057Y17221786D02*
X82775295Y17269405D01*
X82775295Y17269405D02*
X82822914Y17269405D01*
X82822914Y17269405D02*
X82918152Y17221786D01*
X82918152Y17221786D02*
X82965771Y17174167D01*
X82965771Y17174167D02*
X83013390Y17078929D01*
X83013390Y17078929D02*
X83013390Y16888453D01*
X83013390Y16888453D02*
X83061009Y16793215D01*
X83061009Y16793215D02*
X83108628Y16745596D01*
X83108628Y16745596D02*
X83203866Y16697977D01*
X83203866Y16697977D02*
X83394342Y16697977D01*
X83394342Y16697977D02*
X83489580Y16745596D01*
X83489580Y16745596D02*
X83537200Y16793215D01*
X83537200Y16793215D02*
X83584819Y16888453D01*
X83584819Y16888453D02*
X83584819Y17078929D01*
X83584819Y17078929D02*
X83537200Y17174167D01*
X83537200Y17174167D02*
X83489580Y17221786D01*
X83489580Y17221786D02*
X83394342Y17269405D01*
X83394342Y17269405D02*
X83203866Y17269405D01*
X83203866Y17269405D02*
X83108628Y17221786D01*
X83108628Y17221786D02*
X83061009Y17174167D01*
X83061009Y17174167D02*
X83013390Y17078929D01*
X43758580Y25113143D02*
X43806200Y25065524D01*
X43806200Y25065524D02*
X43853819Y24922667D01*
X43853819Y24922667D02*
X43853819Y24827429D01*
X43853819Y24827429D02*
X43806200Y24684572D01*
X43806200Y24684572D02*
X43710961Y24589334D01*
X43710961Y24589334D02*
X43615723Y24541715D01*
X43615723Y24541715D02*
X43425247Y24494096D01*
X43425247Y24494096D02*
X43282390Y24494096D01*
X43282390Y24494096D02*
X43091914Y24541715D01*
X43091914Y24541715D02*
X42996676Y24589334D01*
X42996676Y24589334D02*
X42901438Y24684572D01*
X42901438Y24684572D02*
X42853819Y24827429D01*
X42853819Y24827429D02*
X42853819Y24922667D01*
X42853819Y24922667D02*
X42901438Y25065524D01*
X42901438Y25065524D02*
X42949057Y25113143D01*
X42949057Y25494096D02*
X42901438Y25541715D01*
X42901438Y25541715D02*
X42853819Y25636953D01*
X42853819Y25636953D02*
X42853819Y25875048D01*
X42853819Y25875048D02*
X42901438Y25970286D01*
X42901438Y25970286D02*
X42949057Y26017905D01*
X42949057Y26017905D02*
X43044295Y26065524D01*
X43044295Y26065524D02*
X43139533Y26065524D01*
X43139533Y26065524D02*
X43282390Y26017905D01*
X43282390Y26017905D02*
X43853819Y25446477D01*
X43853819Y25446477D02*
X43853819Y26065524D01*
X43853819Y27017905D02*
X43853819Y26446477D01*
X43853819Y26732191D02*
X42853819Y26732191D01*
X42853819Y26732191D02*
X42996676Y26636953D01*
X42996676Y26636953D02*
X43091914Y26541715D01*
X43091914Y26541715D02*
X43139533Y26446477D01*
X67539580Y36158334D02*
X67587200Y36110715D01*
X67587200Y36110715D02*
X67634819Y35967858D01*
X67634819Y35967858D02*
X67634819Y35872620D01*
X67634819Y35872620D02*
X67587200Y35729763D01*
X67587200Y35729763D02*
X67491961Y35634525D01*
X67491961Y35634525D02*
X67396723Y35586906D01*
X67396723Y35586906D02*
X67206247Y35539287D01*
X67206247Y35539287D02*
X67063390Y35539287D01*
X67063390Y35539287D02*
X66872914Y35586906D01*
X66872914Y35586906D02*
X66777676Y35634525D01*
X66777676Y35634525D02*
X66682438Y35729763D01*
X66682438Y35729763D02*
X66634819Y35872620D01*
X66634819Y35872620D02*
X66634819Y35967858D01*
X66634819Y35967858D02*
X66682438Y36110715D01*
X66682438Y36110715D02*
X66730057Y36158334D01*
X66634819Y36491668D02*
X66634819Y37110715D01*
X66634819Y37110715D02*
X67015771Y36777382D01*
X67015771Y36777382D02*
X67015771Y36920239D01*
X67015771Y36920239D02*
X67063390Y37015477D01*
X67063390Y37015477D02*
X67111009Y37063096D01*
X67111009Y37063096D02*
X67206247Y37110715D01*
X67206247Y37110715D02*
X67444342Y37110715D01*
X67444342Y37110715D02*
X67539580Y37063096D01*
X67539580Y37063096D02*
X67587200Y37015477D01*
X67587200Y37015477D02*
X67634819Y36920239D01*
X67634819Y36920239D02*
X67634819Y36634525D01*
X67634819Y36634525D02*
X67587200Y36539287D01*
X67587200Y36539287D02*
X67539580Y36491668D01*
X66359580Y36132143D02*
X66407200Y36084524D01*
X66407200Y36084524D02*
X66454819Y35941667D01*
X66454819Y35941667D02*
X66454819Y35846429D01*
X66454819Y35846429D02*
X66407200Y35703572D01*
X66407200Y35703572D02*
X66311961Y35608334D01*
X66311961Y35608334D02*
X66216723Y35560715D01*
X66216723Y35560715D02*
X66026247Y35513096D01*
X66026247Y35513096D02*
X65883390Y35513096D01*
X65883390Y35513096D02*
X65692914Y35560715D01*
X65692914Y35560715D02*
X65597676Y35608334D01*
X65597676Y35608334D02*
X65502438Y35703572D01*
X65502438Y35703572D02*
X65454819Y35846429D01*
X65454819Y35846429D02*
X65454819Y35941667D01*
X65454819Y35941667D02*
X65502438Y36084524D01*
X65502438Y36084524D02*
X65550057Y36132143D01*
X66454819Y37084524D02*
X66454819Y36513096D01*
X66454819Y36798810D02*
X65454819Y36798810D01*
X65454819Y36798810D02*
X65597676Y36703572D01*
X65597676Y36703572D02*
X65692914Y36608334D01*
X65692914Y36608334D02*
X65740533Y36513096D01*
X65454819Y37941667D02*
X65454819Y37751191D01*
X65454819Y37751191D02*
X65502438Y37655953D01*
X65502438Y37655953D02*
X65550057Y37608334D01*
X65550057Y37608334D02*
X65692914Y37513096D01*
X65692914Y37513096D02*
X65883390Y37465477D01*
X65883390Y37465477D02*
X66264342Y37465477D01*
X66264342Y37465477D02*
X66359580Y37513096D01*
X66359580Y37513096D02*
X66407200Y37560715D01*
X66407200Y37560715D02*
X66454819Y37655953D01*
X66454819Y37655953D02*
X66454819Y37846429D01*
X66454819Y37846429D02*
X66407200Y37941667D01*
X66407200Y37941667D02*
X66359580Y37989286D01*
X66359580Y37989286D02*
X66264342Y38036905D01*
X66264342Y38036905D02*
X66026247Y38036905D01*
X66026247Y38036905D02*
X65931009Y37989286D01*
X65931009Y37989286D02*
X65883390Y37941667D01*
X65883390Y37941667D02*
X65835771Y37846429D01*
X65835771Y37846429D02*
X65835771Y37655953D01*
X65835771Y37655953D02*
X65883390Y37560715D01*
X65883390Y37560715D02*
X65931009Y37513096D01*
X65931009Y37513096D02*
X66026247Y37465477D01*
X86409580Y48837143D02*
X86457200Y48789524D01*
X86457200Y48789524D02*
X86504819Y48646667D01*
X86504819Y48646667D02*
X86504819Y48551429D01*
X86504819Y48551429D02*
X86457200Y48408572D01*
X86457200Y48408572D02*
X86361961Y48313334D01*
X86361961Y48313334D02*
X86266723Y48265715D01*
X86266723Y48265715D02*
X86076247Y48218096D01*
X86076247Y48218096D02*
X85933390Y48218096D01*
X85933390Y48218096D02*
X85742914Y48265715D01*
X85742914Y48265715D02*
X85647676Y48313334D01*
X85647676Y48313334D02*
X85552438Y48408572D01*
X85552438Y48408572D02*
X85504819Y48551429D01*
X85504819Y48551429D02*
X85504819Y48646667D01*
X85504819Y48646667D02*
X85552438Y48789524D01*
X85552438Y48789524D02*
X85600057Y48837143D01*
X86504819Y49789524D02*
X86504819Y49218096D01*
X86504819Y49503810D02*
X85504819Y49503810D01*
X85504819Y49503810D02*
X85647676Y49408572D01*
X85647676Y49408572D02*
X85742914Y49313334D01*
X85742914Y49313334D02*
X85790533Y49218096D01*
X85504819Y50408572D02*
X85504819Y50503810D01*
X85504819Y50503810D02*
X85552438Y50599048D01*
X85552438Y50599048D02*
X85600057Y50646667D01*
X85600057Y50646667D02*
X85695295Y50694286D01*
X85695295Y50694286D02*
X85885771Y50741905D01*
X85885771Y50741905D02*
X86123866Y50741905D01*
X86123866Y50741905D02*
X86314342Y50694286D01*
X86314342Y50694286D02*
X86409580Y50646667D01*
X86409580Y50646667D02*
X86457200Y50599048D01*
X86457200Y50599048D02*
X86504819Y50503810D01*
X86504819Y50503810D02*
X86504819Y50408572D01*
X86504819Y50408572D02*
X86457200Y50313334D01*
X86457200Y50313334D02*
X86409580Y50265715D01*
X86409580Y50265715D02*
X86314342Y50218096D01*
X86314342Y50218096D02*
X86123866Y50170477D01*
X86123866Y50170477D02*
X85885771Y50170477D01*
X85885771Y50170477D02*
X85695295Y50218096D01*
X85695295Y50218096D02*
X85600057Y50265715D01*
X85600057Y50265715D02*
X85552438Y50313334D01*
X85552438Y50313334D02*
X85504819Y50408572D01*
X96759580Y30382143D02*
X96807200Y30334524D01*
X96807200Y30334524D02*
X96854819Y30191667D01*
X96854819Y30191667D02*
X96854819Y30096429D01*
X96854819Y30096429D02*
X96807200Y29953572D01*
X96807200Y29953572D02*
X96711961Y29858334D01*
X96711961Y29858334D02*
X96616723Y29810715D01*
X96616723Y29810715D02*
X96426247Y29763096D01*
X96426247Y29763096D02*
X96283390Y29763096D01*
X96283390Y29763096D02*
X96092914Y29810715D01*
X96092914Y29810715D02*
X95997676Y29858334D01*
X95997676Y29858334D02*
X95902438Y29953572D01*
X95902438Y29953572D02*
X95854819Y30096429D01*
X95854819Y30096429D02*
X95854819Y30191667D01*
X95854819Y30191667D02*
X95902438Y30334524D01*
X95902438Y30334524D02*
X95950057Y30382143D01*
X95950057Y30763096D02*
X95902438Y30810715D01*
X95902438Y30810715D02*
X95854819Y30905953D01*
X95854819Y30905953D02*
X95854819Y31144048D01*
X95854819Y31144048D02*
X95902438Y31239286D01*
X95902438Y31239286D02*
X95950057Y31286905D01*
X95950057Y31286905D02*
X96045295Y31334524D01*
X96045295Y31334524D02*
X96140533Y31334524D01*
X96140533Y31334524D02*
X96283390Y31286905D01*
X96283390Y31286905D02*
X96854819Y30715477D01*
X96854819Y30715477D02*
X96854819Y31334524D01*
X96283390Y31905953D02*
X96235771Y31810715D01*
X96235771Y31810715D02*
X96188152Y31763096D01*
X96188152Y31763096D02*
X96092914Y31715477D01*
X96092914Y31715477D02*
X96045295Y31715477D01*
X96045295Y31715477D02*
X95950057Y31763096D01*
X95950057Y31763096D02*
X95902438Y31810715D01*
X95902438Y31810715D02*
X95854819Y31905953D01*
X95854819Y31905953D02*
X95854819Y32096429D01*
X95854819Y32096429D02*
X95902438Y32191667D01*
X95902438Y32191667D02*
X95950057Y32239286D01*
X95950057Y32239286D02*
X96045295Y32286905D01*
X96045295Y32286905D02*
X96092914Y32286905D01*
X96092914Y32286905D02*
X96188152Y32239286D01*
X96188152Y32239286D02*
X96235771Y32191667D01*
X96235771Y32191667D02*
X96283390Y32096429D01*
X96283390Y32096429D02*
X96283390Y31905953D01*
X96283390Y31905953D02*
X96331009Y31810715D01*
X96331009Y31810715D02*
X96378628Y31763096D01*
X96378628Y31763096D02*
X96473866Y31715477D01*
X96473866Y31715477D02*
X96664342Y31715477D01*
X96664342Y31715477D02*
X96759580Y31763096D01*
X96759580Y31763096D02*
X96807200Y31810715D01*
X96807200Y31810715D02*
X96854819Y31905953D01*
X96854819Y31905953D02*
X96854819Y32096429D01*
X96854819Y32096429D02*
X96807200Y32191667D01*
X96807200Y32191667D02*
X96759580Y32239286D01*
X96759580Y32239286D02*
X96664342Y32286905D01*
X96664342Y32286905D02*
X96473866Y32286905D01*
X96473866Y32286905D02*
X96378628Y32239286D01*
X96378628Y32239286D02*
X96331009Y32191667D01*
X96331009Y32191667D02*
X96283390Y32096429D01*
X40758580Y27413143D02*
X40806200Y27365524D01*
X40806200Y27365524D02*
X40853819Y27222667D01*
X40853819Y27222667D02*
X40853819Y27127429D01*
X40853819Y27127429D02*
X40806200Y26984572D01*
X40806200Y26984572D02*
X40710961Y26889334D01*
X40710961Y26889334D02*
X40615723Y26841715D01*
X40615723Y26841715D02*
X40425247Y26794096D01*
X40425247Y26794096D02*
X40282390Y26794096D01*
X40282390Y26794096D02*
X40091914Y26841715D01*
X40091914Y26841715D02*
X39996676Y26889334D01*
X39996676Y26889334D02*
X39901438Y26984572D01*
X39901438Y26984572D02*
X39853819Y27127429D01*
X39853819Y27127429D02*
X39853819Y27222667D01*
X39853819Y27222667D02*
X39901438Y27365524D01*
X39901438Y27365524D02*
X39949057Y27413143D01*
X39949057Y27794096D02*
X39901438Y27841715D01*
X39901438Y27841715D02*
X39853819Y27936953D01*
X39853819Y27936953D02*
X39853819Y28175048D01*
X39853819Y28175048D02*
X39901438Y28270286D01*
X39901438Y28270286D02*
X39949057Y28317905D01*
X39949057Y28317905D02*
X40044295Y28365524D01*
X40044295Y28365524D02*
X40139533Y28365524D01*
X40139533Y28365524D02*
X40282390Y28317905D01*
X40282390Y28317905D02*
X40853819Y27746477D01*
X40853819Y27746477D02*
X40853819Y28365524D01*
X39949057Y28746477D02*
X39901438Y28794096D01*
X39901438Y28794096D02*
X39853819Y28889334D01*
X39853819Y28889334D02*
X39853819Y29127429D01*
X39853819Y29127429D02*
X39901438Y29222667D01*
X39901438Y29222667D02*
X39949057Y29270286D01*
X39949057Y29270286D02*
X40044295Y29317905D01*
X40044295Y29317905D02*
X40139533Y29317905D01*
X40139533Y29317905D02*
X40282390Y29270286D01*
X40282390Y29270286D02*
X40853819Y28698858D01*
X40853819Y28698858D02*
X40853819Y29317905D01*
X93767142Y17695181D02*
X93433809Y18171372D01*
X93195714Y17695181D02*
X93195714Y18695181D01*
X93195714Y18695181D02*
X93576666Y18695181D01*
X93576666Y18695181D02*
X93671904Y18647562D01*
X93671904Y18647562D02*
X93719523Y18599943D01*
X93719523Y18599943D02*
X93767142Y18504705D01*
X93767142Y18504705D02*
X93767142Y18361848D01*
X93767142Y18361848D02*
X93719523Y18266610D01*
X93719523Y18266610D02*
X93671904Y18218991D01*
X93671904Y18218991D02*
X93576666Y18171372D01*
X93576666Y18171372D02*
X93195714Y18171372D01*
X94719523Y17695181D02*
X94148095Y17695181D01*
X94433809Y17695181D02*
X94433809Y18695181D01*
X94433809Y18695181D02*
X94338571Y18552324D01*
X94338571Y18552324D02*
X94243333Y18457086D01*
X94243333Y18457086D02*
X94148095Y18409467D01*
X95576666Y18695181D02*
X95386190Y18695181D01*
X95386190Y18695181D02*
X95290952Y18647562D01*
X95290952Y18647562D02*
X95243333Y18599943D01*
X95243333Y18599943D02*
X95148095Y18457086D01*
X95148095Y18457086D02*
X95100476Y18266610D01*
X95100476Y18266610D02*
X95100476Y17885658D01*
X95100476Y17885658D02*
X95148095Y17790420D01*
X95148095Y17790420D02*
X95195714Y17742800D01*
X95195714Y17742800D02*
X95290952Y17695181D01*
X95290952Y17695181D02*
X95481428Y17695181D01*
X95481428Y17695181D02*
X95576666Y17742800D01*
X95576666Y17742800D02*
X95624285Y17790420D01*
X95624285Y17790420D02*
X95671904Y17885658D01*
X95671904Y17885658D02*
X95671904Y18123753D01*
X95671904Y18123753D02*
X95624285Y18218991D01*
X95624285Y18218991D02*
X95576666Y18266610D01*
X95576666Y18266610D02*
X95481428Y18314229D01*
X95481428Y18314229D02*
X95290952Y18314229D01*
X95290952Y18314229D02*
X95195714Y18266610D01*
X95195714Y18266610D02*
X95148095Y18218991D01*
X95148095Y18218991D02*
X95100476Y18123753D01*
X99709104Y29828334D02*
X99709104Y30304524D01*
X99994819Y29733096D02*
X98994819Y30066429D01*
X98994819Y30066429D02*
X99994819Y30399762D01*
X99471009Y30733096D02*
X99471009Y31066429D01*
X99994819Y31209286D02*
X99994819Y30733096D01*
X99994819Y30733096D02*
X98994819Y30733096D01*
X98994819Y30733096D02*
X98994819Y31209286D01*
X99994819Y32161667D02*
X99994819Y31590239D01*
X99994819Y31875953D02*
X98994819Y31875953D01*
X98994819Y31875953D02*
X99137676Y31780715D01*
X99137676Y31780715D02*
X99232914Y31685477D01*
X99232914Y31685477D02*
X99280533Y31590239D01*
X82399580Y40637143D02*
X82447200Y40589524D01*
X82447200Y40589524D02*
X82494819Y40446667D01*
X82494819Y40446667D02*
X82494819Y40351429D01*
X82494819Y40351429D02*
X82447200Y40208572D01*
X82447200Y40208572D02*
X82351961Y40113334D01*
X82351961Y40113334D02*
X82256723Y40065715D01*
X82256723Y40065715D02*
X82066247Y40018096D01*
X82066247Y40018096D02*
X81923390Y40018096D01*
X81923390Y40018096D02*
X81732914Y40065715D01*
X81732914Y40065715D02*
X81637676Y40113334D01*
X81637676Y40113334D02*
X81542438Y40208572D01*
X81542438Y40208572D02*
X81494819Y40351429D01*
X81494819Y40351429D02*
X81494819Y40446667D01*
X81494819Y40446667D02*
X81542438Y40589524D01*
X81542438Y40589524D02*
X81590057Y40637143D01*
X81590057Y41018096D02*
X81542438Y41065715D01*
X81542438Y41065715D02*
X81494819Y41160953D01*
X81494819Y41160953D02*
X81494819Y41399048D01*
X81494819Y41399048D02*
X81542438Y41494286D01*
X81542438Y41494286D02*
X81590057Y41541905D01*
X81590057Y41541905D02*
X81685295Y41589524D01*
X81685295Y41589524D02*
X81780533Y41589524D01*
X81780533Y41589524D02*
X81923390Y41541905D01*
X81923390Y41541905D02*
X82494819Y40970477D01*
X82494819Y40970477D02*
X82494819Y41589524D01*
X81494819Y42208572D02*
X81494819Y42303810D01*
X81494819Y42303810D02*
X81542438Y42399048D01*
X81542438Y42399048D02*
X81590057Y42446667D01*
X81590057Y42446667D02*
X81685295Y42494286D01*
X81685295Y42494286D02*
X81875771Y42541905D01*
X81875771Y42541905D02*
X82113866Y42541905D01*
X82113866Y42541905D02*
X82304342Y42494286D01*
X82304342Y42494286D02*
X82399580Y42446667D01*
X82399580Y42446667D02*
X82447200Y42399048D01*
X82447200Y42399048D02*
X82494819Y42303810D01*
X82494819Y42303810D02*
X82494819Y42208572D01*
X82494819Y42208572D02*
X82447200Y42113334D01*
X82447200Y42113334D02*
X82399580Y42065715D01*
X82399580Y42065715D02*
X82304342Y42018096D01*
X82304342Y42018096D02*
X82113866Y41970477D01*
X82113866Y41970477D02*
X81875771Y41970477D01*
X81875771Y41970477D02*
X81685295Y42018096D01*
X81685295Y42018096D02*
X81590057Y42065715D01*
X81590057Y42065715D02*
X81542438Y42113334D01*
X81542438Y42113334D02*
X81494819Y42208572D01*
X26706819Y60101143D02*
X26230628Y59767810D01*
X26706819Y59529715D02*
X25706819Y59529715D01*
X25706819Y59529715D02*
X25706819Y59910667D01*
X25706819Y59910667D02*
X25754438Y60005905D01*
X25754438Y60005905D02*
X25802057Y60053524D01*
X25802057Y60053524D02*
X25897295Y60101143D01*
X25897295Y60101143D02*
X26040152Y60101143D01*
X26040152Y60101143D02*
X26135390Y60053524D01*
X26135390Y60053524D02*
X26183009Y60005905D01*
X26183009Y60005905D02*
X26230628Y59910667D01*
X26230628Y59910667D02*
X26230628Y59529715D01*
X26706819Y61053524D02*
X26706819Y60482096D01*
X26706819Y60767810D02*
X25706819Y60767810D01*
X25706819Y60767810D02*
X25849676Y60672572D01*
X25849676Y60672572D02*
X25944914Y60577334D01*
X25944914Y60577334D02*
X25992533Y60482096D01*
X25706819Y61672572D02*
X25706819Y61767810D01*
X25706819Y61767810D02*
X25754438Y61863048D01*
X25754438Y61863048D02*
X25802057Y61910667D01*
X25802057Y61910667D02*
X25897295Y61958286D01*
X25897295Y61958286D02*
X26087771Y62005905D01*
X26087771Y62005905D02*
X26325866Y62005905D01*
X26325866Y62005905D02*
X26516342Y61958286D01*
X26516342Y61958286D02*
X26611580Y61910667D01*
X26611580Y61910667D02*
X26659200Y61863048D01*
X26659200Y61863048D02*
X26706819Y61767810D01*
X26706819Y61767810D02*
X26706819Y61672572D01*
X26706819Y61672572D02*
X26659200Y61577334D01*
X26659200Y61577334D02*
X26611580Y61529715D01*
X26611580Y61529715D02*
X26516342Y61482096D01*
X26516342Y61482096D02*
X26325866Y61434477D01*
X26325866Y61434477D02*
X26087771Y61434477D01*
X26087771Y61434477D02*
X25897295Y61482096D01*
X25897295Y61482096D02*
X25802057Y61529715D01*
X25802057Y61529715D02*
X25754438Y61577334D01*
X25754438Y61577334D02*
X25706819Y61672572D01*
X82990476Y60545181D02*
X82990476Y59830896D01*
X82990476Y59830896D02*
X82942857Y59688039D01*
X82942857Y59688039D02*
X82847619Y59592800D01*
X82847619Y59592800D02*
X82704762Y59545181D01*
X82704762Y59545181D02*
X82609524Y59545181D01*
X83990476Y59545181D02*
X83419048Y59545181D01*
X83704762Y59545181D02*
X83704762Y60545181D01*
X83704762Y60545181D02*
X83609524Y60402324D01*
X83609524Y60402324D02*
X83514286Y60307086D01*
X83514286Y60307086D02*
X83419048Y60259467D01*
X84609524Y60545181D02*
X84704762Y60545181D01*
X84704762Y60545181D02*
X84800000Y60497562D01*
X84800000Y60497562D02*
X84847619Y60449943D01*
X84847619Y60449943D02*
X84895238Y60354705D01*
X84895238Y60354705D02*
X84942857Y60164229D01*
X84942857Y60164229D02*
X84942857Y59926134D01*
X84942857Y59926134D02*
X84895238Y59735658D01*
X84895238Y59735658D02*
X84847619Y59640420D01*
X84847619Y59640420D02*
X84800000Y59592800D01*
X84800000Y59592800D02*
X84704762Y59545181D01*
X84704762Y59545181D02*
X84609524Y59545181D01*
X84609524Y59545181D02*
X84514286Y59592800D01*
X84514286Y59592800D02*
X84466667Y59640420D01*
X84466667Y59640420D02*
X84419048Y59735658D01*
X84419048Y59735658D02*
X84371429Y59926134D01*
X84371429Y59926134D02*
X84371429Y60164229D01*
X84371429Y60164229D02*
X84419048Y60354705D01*
X84419048Y60354705D02*
X84466667Y60449943D01*
X84466667Y60449943D02*
X84514286Y60497562D01*
X84514286Y60497562D02*
X84609524Y60545181D01*
X72228819Y14206667D02*
X72943104Y14206667D01*
X72943104Y14206667D02*
X73085961Y14159048D01*
X73085961Y14159048D02*
X73181200Y14063810D01*
X73181200Y14063810D02*
X73228819Y13920953D01*
X73228819Y13920953D02*
X73228819Y13825715D01*
X72324057Y14635239D02*
X72276438Y14682858D01*
X72276438Y14682858D02*
X72228819Y14778096D01*
X72228819Y14778096D02*
X72228819Y15016191D01*
X72228819Y15016191D02*
X72276438Y15111429D01*
X72276438Y15111429D02*
X72324057Y15159048D01*
X72324057Y15159048D02*
X72419295Y15206667D01*
X72419295Y15206667D02*
X72514533Y15206667D01*
X72514533Y15206667D02*
X72657390Y15159048D01*
X72657390Y15159048D02*
X73228819Y14587620D01*
X73228819Y14587620D02*
X73228819Y15206667D01*
X90224819Y12469406D02*
X89224819Y12469406D01*
X89224819Y12469406D02*
X89224819Y12707501D01*
X89224819Y12707501D02*
X89272438Y12850358D01*
X89272438Y12850358D02*
X89367676Y12945596D01*
X89367676Y12945596D02*
X89462914Y12993215D01*
X89462914Y12993215D02*
X89653390Y13040834D01*
X89653390Y13040834D02*
X89796247Y13040834D01*
X89796247Y13040834D02*
X89986723Y12993215D01*
X89986723Y12993215D02*
X90081961Y12945596D01*
X90081961Y12945596D02*
X90177200Y12850358D01*
X90177200Y12850358D02*
X90224819Y12707501D01*
X90224819Y12707501D02*
X90224819Y12469406D01*
X89320057Y13421787D02*
X89272438Y13469406D01*
X89272438Y13469406D02*
X89224819Y13564644D01*
X89224819Y13564644D02*
X89224819Y13802739D01*
X89224819Y13802739D02*
X89272438Y13897977D01*
X89272438Y13897977D02*
X89320057Y13945596D01*
X89320057Y13945596D02*
X89415295Y13993215D01*
X89415295Y13993215D02*
X89510533Y13993215D01*
X89510533Y13993215D02*
X89653390Y13945596D01*
X89653390Y13945596D02*
X90224819Y13374168D01*
X90224819Y13374168D02*
X90224819Y13993215D01*
X52254819Y47157144D02*
X51254819Y47157144D01*
X51254819Y47157144D02*
X52254819Y47728572D01*
X52254819Y47728572D02*
X51254819Y47728572D01*
X52254819Y48776191D02*
X51778628Y48442858D01*
X52254819Y48204763D02*
X51254819Y48204763D01*
X51254819Y48204763D02*
X51254819Y48585715D01*
X51254819Y48585715D02*
X51302438Y48680953D01*
X51302438Y48680953D02*
X51350057Y48728572D01*
X51350057Y48728572D02*
X51445295Y48776191D01*
X51445295Y48776191D02*
X51588152Y48776191D01*
X51588152Y48776191D02*
X51683390Y48728572D01*
X51683390Y48728572D02*
X51731009Y48680953D01*
X51731009Y48680953D02*
X51778628Y48585715D01*
X51778628Y48585715D02*
X51778628Y48204763D01*
X52207200Y49157144D02*
X52254819Y49300001D01*
X52254819Y49300001D02*
X52254819Y49538096D01*
X52254819Y49538096D02*
X52207200Y49633334D01*
X52207200Y49633334D02*
X52159580Y49680953D01*
X52159580Y49680953D02*
X52064342Y49728572D01*
X52064342Y49728572D02*
X51969104Y49728572D01*
X51969104Y49728572D02*
X51873866Y49680953D01*
X51873866Y49680953D02*
X51826247Y49633334D01*
X51826247Y49633334D02*
X51778628Y49538096D01*
X51778628Y49538096D02*
X51731009Y49347620D01*
X51731009Y49347620D02*
X51683390Y49252382D01*
X51683390Y49252382D02*
X51635771Y49204763D01*
X51635771Y49204763D02*
X51540533Y49157144D01*
X51540533Y49157144D02*
X51445295Y49157144D01*
X51445295Y49157144D02*
X51350057Y49204763D01*
X51350057Y49204763D02*
X51302438Y49252382D01*
X51302438Y49252382D02*
X51254819Y49347620D01*
X51254819Y49347620D02*
X51254819Y49585715D01*
X51254819Y49585715D02*
X51302438Y49728572D01*
X51254819Y50014287D02*
X51254819Y50585715D01*
X52254819Y50300001D02*
X51254819Y50300001D01*
X87184819Y15364643D02*
X86708628Y15031310D01*
X87184819Y14793215D02*
X86184819Y14793215D01*
X86184819Y14793215D02*
X86184819Y15174167D01*
X86184819Y15174167D02*
X86232438Y15269405D01*
X86232438Y15269405D02*
X86280057Y15317024D01*
X86280057Y15317024D02*
X86375295Y15364643D01*
X86375295Y15364643D02*
X86518152Y15364643D01*
X86518152Y15364643D02*
X86613390Y15317024D01*
X86613390Y15317024D02*
X86661009Y15269405D01*
X86661009Y15269405D02*
X86708628Y15174167D01*
X86708628Y15174167D02*
X86708628Y14793215D01*
X87184819Y16317024D02*
X87184819Y15745596D01*
X87184819Y16031310D02*
X86184819Y16031310D01*
X86184819Y16031310D02*
X86327676Y15936072D01*
X86327676Y15936072D02*
X86422914Y15840834D01*
X86422914Y15840834D02*
X86470533Y15745596D01*
X86184819Y17221786D02*
X86184819Y16745596D01*
X86184819Y16745596D02*
X86661009Y16697977D01*
X86661009Y16697977D02*
X86613390Y16745596D01*
X86613390Y16745596D02*
X86565771Y16840834D01*
X86565771Y16840834D02*
X86565771Y17078929D01*
X86565771Y17078929D02*
X86613390Y17174167D01*
X86613390Y17174167D02*
X86661009Y17221786D01*
X86661009Y17221786D02*
X86756247Y17269405D01*
X86756247Y17269405D02*
X86994342Y17269405D01*
X86994342Y17269405D02*
X87089580Y17221786D01*
X87089580Y17221786D02*
X87137200Y17174167D01*
X87137200Y17174167D02*
X87184819Y17078929D01*
X87184819Y17078929D02*
X87184819Y16840834D01*
X87184819Y16840834D02*
X87137200Y16745596D01*
X87137200Y16745596D02*
X87089580Y16697977D01*
X39287833Y39695181D02*
X38954500Y40171372D01*
X38716405Y39695181D02*
X38716405Y40695181D01*
X38716405Y40695181D02*
X39097357Y40695181D01*
X39097357Y40695181D02*
X39192595Y40647562D01*
X39192595Y40647562D02*
X39240214Y40599943D01*
X39240214Y40599943D02*
X39287833Y40504705D01*
X39287833Y40504705D02*
X39287833Y40361848D01*
X39287833Y40361848D02*
X39240214Y40266610D01*
X39240214Y40266610D02*
X39192595Y40218991D01*
X39192595Y40218991D02*
X39097357Y40171372D01*
X39097357Y40171372D02*
X38716405Y40171372D01*
X40144976Y40695181D02*
X39954500Y40695181D01*
X39954500Y40695181D02*
X39859262Y40647562D01*
X39859262Y40647562D02*
X39811643Y40599943D01*
X39811643Y40599943D02*
X39716405Y40457086D01*
X39716405Y40457086D02*
X39668786Y40266610D01*
X39668786Y40266610D02*
X39668786Y39885658D01*
X39668786Y39885658D02*
X39716405Y39790420D01*
X39716405Y39790420D02*
X39764024Y39742800D01*
X39764024Y39742800D02*
X39859262Y39695181D01*
X39859262Y39695181D02*
X40049738Y39695181D01*
X40049738Y39695181D02*
X40144976Y39742800D01*
X40144976Y39742800D02*
X40192595Y39790420D01*
X40192595Y39790420D02*
X40240214Y39885658D01*
X40240214Y39885658D02*
X40240214Y40123753D01*
X40240214Y40123753D02*
X40192595Y40218991D01*
X40192595Y40218991D02*
X40144976Y40266610D01*
X40144976Y40266610D02*
X40049738Y40314229D01*
X40049738Y40314229D02*
X39859262Y40314229D01*
X39859262Y40314229D02*
X39764024Y40266610D01*
X39764024Y40266610D02*
X39716405Y40218991D01*
X39716405Y40218991D02*
X39668786Y40123753D01*
D11*
X21333609Y11014286D02*
X21381228Y11157143D01*
X21381228Y11157143D02*
X21428847Y11204762D01*
X21428847Y11204762D02*
X21524085Y11252381D01*
X21524085Y11252381D02*
X21666942Y11252381D01*
X21666942Y11252381D02*
X21762180Y11204762D01*
X21762180Y11204762D02*
X21809800Y11157143D01*
X21809800Y11157143D02*
X21857419Y11061905D01*
X21857419Y11061905D02*
X21857419Y10680953D01*
X21857419Y10680953D02*
X20857419Y10680953D01*
X20857419Y10680953D02*
X20857419Y11014286D01*
X20857419Y11014286D02*
X20905038Y11109524D01*
X20905038Y11109524D02*
X20952657Y11157143D01*
X20952657Y11157143D02*
X21047895Y11204762D01*
X21047895Y11204762D02*
X21143133Y11204762D01*
X21143133Y11204762D02*
X21238371Y11157143D01*
X21238371Y11157143D02*
X21285990Y11109524D01*
X21285990Y11109524D02*
X21333609Y11014286D01*
X21333609Y11014286D02*
X21333609Y10680953D01*
X20857419Y11538096D02*
X20857419Y12109524D01*
X21857419Y11823810D02*
X20857419Y11823810D01*
X21857419Y12966667D02*
X21857419Y12395239D01*
X21857419Y12680953D02*
X20857419Y12680953D01*
X20857419Y12680953D02*
X21000276Y12585715D01*
X21000276Y12585715D02*
X21095514Y12490477D01*
X21095514Y12490477D02*
X21143133Y12395239D01*
D10*
X86924819Y12469406D02*
X85924819Y12469406D01*
X85924819Y12469406D02*
X85924819Y12707501D01*
X85924819Y12707501D02*
X85972438Y12850358D01*
X85972438Y12850358D02*
X86067676Y12945596D01*
X86067676Y12945596D02*
X86162914Y12993215D01*
X86162914Y12993215D02*
X86353390Y13040834D01*
X86353390Y13040834D02*
X86496247Y13040834D01*
X86496247Y13040834D02*
X86686723Y12993215D01*
X86686723Y12993215D02*
X86781961Y12945596D01*
X86781961Y12945596D02*
X86877200Y12850358D01*
X86877200Y12850358D02*
X86924819Y12707501D01*
X86924819Y12707501D02*
X86924819Y12469406D01*
X85924819Y13374168D02*
X85924819Y13993215D01*
X85924819Y13993215D02*
X86305771Y13659882D01*
X86305771Y13659882D02*
X86305771Y13802739D01*
X86305771Y13802739D02*
X86353390Y13897977D01*
X86353390Y13897977D02*
X86401009Y13945596D01*
X86401009Y13945596D02*
X86496247Y13993215D01*
X86496247Y13993215D02*
X86734342Y13993215D01*
X86734342Y13993215D02*
X86829580Y13945596D01*
X86829580Y13945596D02*
X86877200Y13897977D01*
X86877200Y13897977D02*
X86924819Y13802739D01*
X86924819Y13802739D02*
X86924819Y13517025D01*
X86924819Y13517025D02*
X86877200Y13421787D01*
X86877200Y13421787D02*
X86829580Y13374168D01*
X28349580Y33621143D02*
X28397200Y33573524D01*
X28397200Y33573524D02*
X28444819Y33430667D01*
X28444819Y33430667D02*
X28444819Y33335429D01*
X28444819Y33335429D02*
X28397200Y33192572D01*
X28397200Y33192572D02*
X28301961Y33097334D01*
X28301961Y33097334D02*
X28206723Y33049715D01*
X28206723Y33049715D02*
X28016247Y33002096D01*
X28016247Y33002096D02*
X27873390Y33002096D01*
X27873390Y33002096D02*
X27682914Y33049715D01*
X27682914Y33049715D02*
X27587676Y33097334D01*
X27587676Y33097334D02*
X27492438Y33192572D01*
X27492438Y33192572D02*
X27444819Y33335429D01*
X27444819Y33335429D02*
X27444819Y33430667D01*
X27444819Y33430667D02*
X27492438Y33573524D01*
X27492438Y33573524D02*
X27540057Y33621143D01*
X27540057Y34002096D02*
X27492438Y34049715D01*
X27492438Y34049715D02*
X27444819Y34144953D01*
X27444819Y34144953D02*
X27444819Y34383048D01*
X27444819Y34383048D02*
X27492438Y34478286D01*
X27492438Y34478286D02*
X27540057Y34525905D01*
X27540057Y34525905D02*
X27635295Y34573524D01*
X27635295Y34573524D02*
X27730533Y34573524D01*
X27730533Y34573524D02*
X27873390Y34525905D01*
X27873390Y34525905D02*
X28444819Y33954477D01*
X28444819Y33954477D02*
X28444819Y34573524D01*
X27444819Y35430667D02*
X27444819Y35240191D01*
X27444819Y35240191D02*
X27492438Y35144953D01*
X27492438Y35144953D02*
X27540057Y35097334D01*
X27540057Y35097334D02*
X27682914Y35002096D01*
X27682914Y35002096D02*
X27873390Y34954477D01*
X27873390Y34954477D02*
X28254342Y34954477D01*
X28254342Y34954477D02*
X28349580Y35002096D01*
X28349580Y35002096D02*
X28397200Y35049715D01*
X28397200Y35049715D02*
X28444819Y35144953D01*
X28444819Y35144953D02*
X28444819Y35335429D01*
X28444819Y35335429D02*
X28397200Y35430667D01*
X28397200Y35430667D02*
X28349580Y35478286D01*
X28349580Y35478286D02*
X28254342Y35525905D01*
X28254342Y35525905D02*
X28016247Y35525905D01*
X28016247Y35525905D02*
X27921009Y35478286D01*
X27921009Y35478286D02*
X27873390Y35430667D01*
X27873390Y35430667D02*
X27825771Y35335429D01*
X27825771Y35335429D02*
X27825771Y35144953D01*
X27825771Y35144953D02*
X27873390Y35049715D01*
X27873390Y35049715D02*
X27921009Y35002096D01*
X27921009Y35002096D02*
X28016247Y34954477D01*
X31102819Y24983334D02*
X30626628Y24650001D01*
X31102819Y24411906D02*
X30102819Y24411906D01*
X30102819Y24411906D02*
X30102819Y24792858D01*
X30102819Y24792858D02*
X30150438Y24888096D01*
X30150438Y24888096D02*
X30198057Y24935715D01*
X30198057Y24935715D02*
X30293295Y24983334D01*
X30293295Y24983334D02*
X30436152Y24983334D01*
X30436152Y24983334D02*
X30531390Y24935715D01*
X30531390Y24935715D02*
X30579009Y24888096D01*
X30579009Y24888096D02*
X30626628Y24792858D01*
X30626628Y24792858D02*
X30626628Y24411906D01*
X30102819Y25888096D02*
X30102819Y25411906D01*
X30102819Y25411906D02*
X30579009Y25364287D01*
X30579009Y25364287D02*
X30531390Y25411906D01*
X30531390Y25411906D02*
X30483771Y25507144D01*
X30483771Y25507144D02*
X30483771Y25745239D01*
X30483771Y25745239D02*
X30531390Y25840477D01*
X30531390Y25840477D02*
X30579009Y25888096D01*
X30579009Y25888096D02*
X30674247Y25935715D01*
X30674247Y25935715D02*
X30912342Y25935715D01*
X30912342Y25935715D02*
X31007580Y25888096D01*
X31007580Y25888096D02*
X31055200Y25840477D01*
X31055200Y25840477D02*
X31102819Y25745239D01*
X31102819Y25745239D02*
X31102819Y25507144D01*
X31102819Y25507144D02*
X31055200Y25411906D01*
X31055200Y25411906D02*
X31007580Y25364287D01*
X69909580Y36158334D02*
X69957200Y36110715D01*
X69957200Y36110715D02*
X70004819Y35967858D01*
X70004819Y35967858D02*
X70004819Y35872620D01*
X70004819Y35872620D02*
X69957200Y35729763D01*
X69957200Y35729763D02*
X69861961Y35634525D01*
X69861961Y35634525D02*
X69766723Y35586906D01*
X69766723Y35586906D02*
X69576247Y35539287D01*
X69576247Y35539287D02*
X69433390Y35539287D01*
X69433390Y35539287D02*
X69242914Y35586906D01*
X69242914Y35586906D02*
X69147676Y35634525D01*
X69147676Y35634525D02*
X69052438Y35729763D01*
X69052438Y35729763D02*
X69004819Y35872620D01*
X69004819Y35872620D02*
X69004819Y35967858D01*
X69004819Y35967858D02*
X69052438Y36110715D01*
X69052438Y36110715D02*
X69100057Y36158334D01*
X70004819Y37110715D02*
X70004819Y36539287D01*
X70004819Y36825001D02*
X69004819Y36825001D01*
X69004819Y36825001D02*
X69147676Y36729763D01*
X69147676Y36729763D02*
X69242914Y36634525D01*
X69242914Y36634525D02*
X69290533Y36539287D01*
X90484819Y15364643D02*
X90008628Y15031310D01*
X90484819Y14793215D02*
X89484819Y14793215D01*
X89484819Y14793215D02*
X89484819Y15174167D01*
X89484819Y15174167D02*
X89532438Y15269405D01*
X89532438Y15269405D02*
X89580057Y15317024D01*
X89580057Y15317024D02*
X89675295Y15364643D01*
X89675295Y15364643D02*
X89818152Y15364643D01*
X89818152Y15364643D02*
X89913390Y15317024D01*
X89913390Y15317024D02*
X89961009Y15269405D01*
X89961009Y15269405D02*
X90008628Y15174167D01*
X90008628Y15174167D02*
X90008628Y14793215D01*
X90484819Y16317024D02*
X90484819Y15745596D01*
X90484819Y16031310D02*
X89484819Y16031310D01*
X89484819Y16031310D02*
X89627676Y15936072D01*
X89627676Y15936072D02*
X89722914Y15840834D01*
X89722914Y15840834D02*
X89770533Y15745596D01*
X89818152Y17174167D02*
X90484819Y17174167D01*
X89437200Y16936072D02*
X90151485Y16697977D01*
X90151485Y16697977D02*
X90151485Y17317024D01*
X85288095Y25760181D02*
X85288095Y24950658D01*
X85288095Y24950658D02*
X85335714Y24855420D01*
X85335714Y24855420D02*
X85383333Y24807800D01*
X85383333Y24807800D02*
X85478571Y24760181D01*
X85478571Y24760181D02*
X85669047Y24760181D01*
X85669047Y24760181D02*
X85764285Y24807800D01*
X85764285Y24807800D02*
X85811904Y24855420D01*
X85811904Y24855420D02*
X85859523Y24950658D01*
X85859523Y24950658D02*
X85859523Y25760181D01*
X86859523Y24760181D02*
X86288095Y24760181D01*
X86573809Y24760181D02*
X86573809Y25760181D01*
X86573809Y25760181D02*
X86478571Y25617324D01*
X86478571Y25617324D02*
X86383333Y25522086D01*
X86383333Y25522086D02*
X86288095Y25474467D01*
X26933333Y24645181D02*
X26600000Y25121372D01*
X26361905Y24645181D02*
X26361905Y25645181D01*
X26361905Y25645181D02*
X26742857Y25645181D01*
X26742857Y25645181D02*
X26838095Y25597562D01*
X26838095Y25597562D02*
X26885714Y25549943D01*
X26885714Y25549943D02*
X26933333Y25454705D01*
X26933333Y25454705D02*
X26933333Y25311848D01*
X26933333Y25311848D02*
X26885714Y25216610D01*
X26885714Y25216610D02*
X26838095Y25168991D01*
X26838095Y25168991D02*
X26742857Y25121372D01*
X26742857Y25121372D02*
X26361905Y25121372D01*
X27504762Y25216610D02*
X27409524Y25264229D01*
X27409524Y25264229D02*
X27361905Y25311848D01*
X27361905Y25311848D02*
X27314286Y25407086D01*
X27314286Y25407086D02*
X27314286Y25454705D01*
X27314286Y25454705D02*
X27361905Y25549943D01*
X27361905Y25549943D02*
X27409524Y25597562D01*
X27409524Y25597562D02*
X27504762Y25645181D01*
X27504762Y25645181D02*
X27695238Y25645181D01*
X27695238Y25645181D02*
X27790476Y25597562D01*
X27790476Y25597562D02*
X27838095Y25549943D01*
X27838095Y25549943D02*
X27885714Y25454705D01*
X27885714Y25454705D02*
X27885714Y25407086D01*
X27885714Y25407086D02*
X27838095Y25311848D01*
X27838095Y25311848D02*
X27790476Y25264229D01*
X27790476Y25264229D02*
X27695238Y25216610D01*
X27695238Y25216610D02*
X27504762Y25216610D01*
X27504762Y25216610D02*
X27409524Y25168991D01*
X27409524Y25168991D02*
X27361905Y25121372D01*
X27361905Y25121372D02*
X27314286Y25026134D01*
X27314286Y25026134D02*
X27314286Y24835658D01*
X27314286Y24835658D02*
X27361905Y24740420D01*
X27361905Y24740420D02*
X27409524Y24692800D01*
X27409524Y24692800D02*
X27504762Y24645181D01*
X27504762Y24645181D02*
X27695238Y24645181D01*
X27695238Y24645181D02*
X27790476Y24692800D01*
X27790476Y24692800D02*
X27838095Y24740420D01*
X27838095Y24740420D02*
X27885714Y24835658D01*
X27885714Y24835658D02*
X27885714Y25026134D01*
X27885714Y25026134D02*
X27838095Y25121372D01*
X27838095Y25121372D02*
X27790476Y25168991D01*
X27790476Y25168991D02*
X27695238Y25216610D01*
X48254819Y17757143D02*
X47778628Y17423810D01*
X48254819Y17185715D02*
X47254819Y17185715D01*
X47254819Y17185715D02*
X47254819Y17566667D01*
X47254819Y17566667D02*
X47302438Y17661905D01*
X47302438Y17661905D02*
X47350057Y17709524D01*
X47350057Y17709524D02*
X47445295Y17757143D01*
X47445295Y17757143D02*
X47588152Y17757143D01*
X47588152Y17757143D02*
X47683390Y17709524D01*
X47683390Y17709524D02*
X47731009Y17661905D01*
X47731009Y17661905D02*
X47778628Y17566667D01*
X47778628Y17566667D02*
X47778628Y17185715D01*
X48254819Y18709524D02*
X48254819Y18138096D01*
X48254819Y18423810D02*
X47254819Y18423810D01*
X47254819Y18423810D02*
X47397676Y18328572D01*
X47397676Y18328572D02*
X47492914Y18233334D01*
X47492914Y18233334D02*
X47540533Y18138096D01*
X48254819Y19661905D02*
X48254819Y19090477D01*
X48254819Y19376191D02*
X47254819Y19376191D01*
X47254819Y19376191D02*
X47397676Y19280953D01*
X47397676Y19280953D02*
X47492914Y19185715D01*
X47492914Y19185715D02*
X47540533Y19090477D01*
X43532333Y16896420D02*
X43484714Y16848800D01*
X43484714Y16848800D02*
X43341857Y16801181D01*
X43341857Y16801181D02*
X43246619Y16801181D01*
X43246619Y16801181D02*
X43103762Y16848800D01*
X43103762Y16848800D02*
X43008524Y16944039D01*
X43008524Y16944039D02*
X42960905Y17039277D01*
X42960905Y17039277D02*
X42913286Y17229753D01*
X42913286Y17229753D02*
X42913286Y17372610D01*
X42913286Y17372610D02*
X42960905Y17563086D01*
X42960905Y17563086D02*
X43008524Y17658324D01*
X43008524Y17658324D02*
X43103762Y17753562D01*
X43103762Y17753562D02*
X43246619Y17801181D01*
X43246619Y17801181D02*
X43341857Y17801181D01*
X43341857Y17801181D02*
X43484714Y17753562D01*
X43484714Y17753562D02*
X43532333Y17705943D01*
X43913286Y17705943D02*
X43960905Y17753562D01*
X43960905Y17753562D02*
X44056143Y17801181D01*
X44056143Y17801181D02*
X44294238Y17801181D01*
X44294238Y17801181D02*
X44389476Y17753562D01*
X44389476Y17753562D02*
X44437095Y17705943D01*
X44437095Y17705943D02*
X44484714Y17610705D01*
X44484714Y17610705D02*
X44484714Y17515467D01*
X44484714Y17515467D02*
X44437095Y17372610D01*
X44437095Y17372610D02*
X43865667Y16801181D01*
X43865667Y16801181D02*
X44484714Y16801181D01*
X83324819Y12469406D02*
X82324819Y12469406D01*
X82324819Y12469406D02*
X82324819Y12707501D01*
X82324819Y12707501D02*
X82372438Y12850358D01*
X82372438Y12850358D02*
X82467676Y12945596D01*
X82467676Y12945596D02*
X82562914Y12993215D01*
X82562914Y12993215D02*
X82753390Y13040834D01*
X82753390Y13040834D02*
X82896247Y13040834D01*
X82896247Y13040834D02*
X83086723Y12993215D01*
X83086723Y12993215D02*
X83181961Y12945596D01*
X83181961Y12945596D02*
X83277200Y12850358D01*
X83277200Y12850358D02*
X83324819Y12707501D01*
X83324819Y12707501D02*
X83324819Y12469406D01*
X82658152Y13897977D02*
X83324819Y13897977D01*
X82277200Y13659882D02*
X82991485Y13421787D01*
X82991485Y13421787D02*
X82991485Y14040834D01*
X68366666Y19145181D02*
X68366666Y18430896D01*
X68366666Y18430896D02*
X68319047Y18288039D01*
X68319047Y18288039D02*
X68223809Y18192800D01*
X68223809Y18192800D02*
X68080952Y18145181D01*
X68080952Y18145181D02*
X67985714Y18145181D01*
X69271428Y18811848D02*
X69271428Y18145181D01*
X69033333Y19192800D02*
X68795238Y18478515D01*
X68795238Y18478515D02*
X69414285Y18478515D01*
X78866666Y60545181D02*
X78866666Y59830896D01*
X78866666Y59830896D02*
X78819047Y59688039D01*
X78819047Y59688039D02*
X78723809Y59592800D01*
X78723809Y59592800D02*
X78580952Y59545181D01*
X78580952Y59545181D02*
X78485714Y59545181D01*
X79390476Y59545181D02*
X79580952Y59545181D01*
X79580952Y59545181D02*
X79676190Y59592800D01*
X79676190Y59592800D02*
X79723809Y59640420D01*
X79723809Y59640420D02*
X79819047Y59783277D01*
X79819047Y59783277D02*
X79866666Y59973753D01*
X79866666Y59973753D02*
X79866666Y60354705D01*
X79866666Y60354705D02*
X79819047Y60449943D01*
X79819047Y60449943D02*
X79771428Y60497562D01*
X79771428Y60497562D02*
X79676190Y60545181D01*
X79676190Y60545181D02*
X79485714Y60545181D01*
X79485714Y60545181D02*
X79390476Y60497562D01*
X79390476Y60497562D02*
X79342857Y60449943D01*
X79342857Y60449943D02*
X79295238Y60354705D01*
X79295238Y60354705D02*
X79295238Y60116610D01*
X79295238Y60116610D02*
X79342857Y60021372D01*
X79342857Y60021372D02*
X79390476Y59973753D01*
X79390476Y59973753D02*
X79485714Y59926134D01*
X79485714Y59926134D02*
X79676190Y59926134D01*
X79676190Y59926134D02*
X79771428Y59973753D01*
X79771428Y59973753D02*
X79819047Y60021372D01*
X79819047Y60021372D02*
X79866666Y60116610D01*
X27450057Y63188762D02*
X27402438Y63093524D01*
X27402438Y63093524D02*
X27307200Y62998286D01*
X27307200Y62998286D02*
X27164342Y62855429D01*
X27164342Y62855429D02*
X27116723Y62760191D01*
X27116723Y62760191D02*
X27116723Y62664953D01*
X27354819Y62712572D02*
X27307200Y62617334D01*
X27307200Y62617334D02*
X27211961Y62522096D01*
X27211961Y62522096D02*
X27021485Y62474477D01*
X27021485Y62474477D02*
X26688152Y62474477D01*
X26688152Y62474477D02*
X26497676Y62522096D01*
X26497676Y62522096D02*
X26402438Y62617334D01*
X26402438Y62617334D02*
X26354819Y62712572D01*
X26354819Y62712572D02*
X26354819Y62903048D01*
X26354819Y62903048D02*
X26402438Y62998286D01*
X26402438Y62998286D02*
X26497676Y63093524D01*
X26497676Y63093524D02*
X26688152Y63141143D01*
X26688152Y63141143D02*
X27021485Y63141143D01*
X27021485Y63141143D02*
X27211961Y63093524D01*
X27211961Y63093524D02*
X27307200Y62998286D01*
X27307200Y62998286D02*
X27354819Y62903048D01*
X27354819Y62903048D02*
X27354819Y62712572D01*
X26450057Y63522096D02*
X26402438Y63569715D01*
X26402438Y63569715D02*
X26354819Y63664953D01*
X26354819Y63664953D02*
X26354819Y63903048D01*
X26354819Y63903048D02*
X26402438Y63998286D01*
X26402438Y63998286D02*
X26450057Y64045905D01*
X26450057Y64045905D02*
X26545295Y64093524D01*
X26545295Y64093524D02*
X26640533Y64093524D01*
X26640533Y64093524D02*
X26783390Y64045905D01*
X26783390Y64045905D02*
X27354819Y63474477D01*
X27354819Y63474477D02*
X27354819Y64093524D01*
X46824819Y11231310D02*
X45824819Y11231310D01*
X45824819Y11231310D02*
X45824819Y11612262D01*
X45824819Y11612262D02*
X45872438Y11707500D01*
X45872438Y11707500D02*
X45920057Y11755119D01*
X45920057Y11755119D02*
X46015295Y11802738D01*
X46015295Y11802738D02*
X46158152Y11802738D01*
X46158152Y11802738D02*
X46253390Y11755119D01*
X46253390Y11755119D02*
X46301009Y11707500D01*
X46301009Y11707500D02*
X46348628Y11612262D01*
X46348628Y11612262D02*
X46348628Y11231310D01*
X46824819Y12374167D02*
X46777200Y12278929D01*
X46777200Y12278929D02*
X46729580Y12231310D01*
X46729580Y12231310D02*
X46634342Y12183691D01*
X46634342Y12183691D02*
X46348628Y12183691D01*
X46348628Y12183691D02*
X46253390Y12231310D01*
X46253390Y12231310D02*
X46205771Y12278929D01*
X46205771Y12278929D02*
X46158152Y12374167D01*
X46158152Y12374167D02*
X46158152Y12517024D01*
X46158152Y12517024D02*
X46205771Y12612262D01*
X46205771Y12612262D02*
X46253390Y12659881D01*
X46253390Y12659881D02*
X46348628Y12707500D01*
X46348628Y12707500D02*
X46634342Y12707500D01*
X46634342Y12707500D02*
X46729580Y12659881D01*
X46729580Y12659881D02*
X46777200Y12612262D01*
X46777200Y12612262D02*
X46824819Y12517024D01*
X46824819Y12517024D02*
X46824819Y12374167D01*
X46158152Y13040834D02*
X46824819Y13231310D01*
X46824819Y13231310D02*
X46348628Y13421786D01*
X46348628Y13421786D02*
X46824819Y13612262D01*
X46824819Y13612262D02*
X46158152Y13802738D01*
X46777200Y14564643D02*
X46824819Y14469405D01*
X46824819Y14469405D02*
X46824819Y14278929D01*
X46824819Y14278929D02*
X46777200Y14183691D01*
X46777200Y14183691D02*
X46681961Y14136072D01*
X46681961Y14136072D02*
X46301009Y14136072D01*
X46301009Y14136072D02*
X46205771Y14183691D01*
X46205771Y14183691D02*
X46158152Y14278929D01*
X46158152Y14278929D02*
X46158152Y14469405D01*
X46158152Y14469405D02*
X46205771Y14564643D01*
X46205771Y14564643D02*
X46301009Y14612262D01*
X46301009Y14612262D02*
X46396247Y14612262D01*
X46396247Y14612262D02*
X46491485Y14136072D01*
X46824819Y15040834D02*
X46158152Y15040834D01*
X46348628Y15040834D02*
X46253390Y15088453D01*
X46253390Y15088453D02*
X46205771Y15136072D01*
X46205771Y15136072D02*
X46158152Y15231310D01*
X46158152Y15231310D02*
X46158152Y15326548D01*
X35889319Y34007143D02*
X35413128Y33673810D01*
X35889319Y33435715D02*
X34889319Y33435715D01*
X34889319Y33435715D02*
X34889319Y33816667D01*
X34889319Y33816667D02*
X34936938Y33911905D01*
X34936938Y33911905D02*
X34984557Y33959524D01*
X34984557Y33959524D02*
X35079795Y34007143D01*
X35079795Y34007143D02*
X35222652Y34007143D01*
X35222652Y34007143D02*
X35317890Y33959524D01*
X35317890Y33959524D02*
X35365509Y33911905D01*
X35365509Y33911905D02*
X35413128Y33816667D01*
X35413128Y33816667D02*
X35413128Y33435715D01*
X34984557Y34388096D02*
X34936938Y34435715D01*
X34936938Y34435715D02*
X34889319Y34530953D01*
X34889319Y34530953D02*
X34889319Y34769048D01*
X34889319Y34769048D02*
X34936938Y34864286D01*
X34936938Y34864286D02*
X34984557Y34911905D01*
X34984557Y34911905D02*
X35079795Y34959524D01*
X35079795Y34959524D02*
X35175033Y34959524D01*
X35175033Y34959524D02*
X35317890Y34911905D01*
X35317890Y34911905D02*
X35889319Y34340477D01*
X35889319Y34340477D02*
X35889319Y34959524D01*
X35889319Y35911905D02*
X35889319Y35340477D01*
X35889319Y35626191D02*
X34889319Y35626191D01*
X34889319Y35626191D02*
X35032176Y35530953D01*
X35032176Y35530953D02*
X35127414Y35435715D01*
X35127414Y35435715D02*
X35175033Y35340477D01*
X51731009Y27182858D02*
X51778628Y27325715D01*
X51778628Y27325715D02*
X51826247Y27373334D01*
X51826247Y27373334D02*
X51921485Y27420953D01*
X51921485Y27420953D02*
X52064342Y27420953D01*
X52064342Y27420953D02*
X52159580Y27373334D01*
X52159580Y27373334D02*
X52207200Y27325715D01*
X52207200Y27325715D02*
X52254819Y27230477D01*
X52254819Y27230477D02*
X52254819Y26849525D01*
X52254819Y26849525D02*
X51254819Y26849525D01*
X51254819Y26849525D02*
X51254819Y27182858D01*
X51254819Y27182858D02*
X51302438Y27278096D01*
X51302438Y27278096D02*
X51350057Y27325715D01*
X51350057Y27325715D02*
X51445295Y27373334D01*
X51445295Y27373334D02*
X51540533Y27373334D01*
X51540533Y27373334D02*
X51635771Y27325715D01*
X51635771Y27325715D02*
X51683390Y27278096D01*
X51683390Y27278096D02*
X51731009Y27182858D01*
X51731009Y27182858D02*
X51731009Y26849525D01*
X51254819Y28040001D02*
X51254819Y28230477D01*
X51254819Y28230477D02*
X51302438Y28325715D01*
X51302438Y28325715D02*
X51397676Y28420953D01*
X51397676Y28420953D02*
X51588152Y28468572D01*
X51588152Y28468572D02*
X51921485Y28468572D01*
X51921485Y28468572D02*
X52111961Y28420953D01*
X52111961Y28420953D02*
X52207200Y28325715D01*
X52207200Y28325715D02*
X52254819Y28230477D01*
X52254819Y28230477D02*
X52254819Y28040001D01*
X52254819Y28040001D02*
X52207200Y27944763D01*
X52207200Y27944763D02*
X52111961Y27849525D01*
X52111961Y27849525D02*
X51921485Y27801906D01*
X51921485Y27801906D02*
X51588152Y27801906D01*
X51588152Y27801906D02*
X51397676Y27849525D01*
X51397676Y27849525D02*
X51302438Y27944763D01*
X51302438Y27944763D02*
X51254819Y28040001D01*
X51254819Y29087620D02*
X51254819Y29278096D01*
X51254819Y29278096D02*
X51302438Y29373334D01*
X51302438Y29373334D02*
X51397676Y29468572D01*
X51397676Y29468572D02*
X51588152Y29516191D01*
X51588152Y29516191D02*
X51921485Y29516191D01*
X51921485Y29516191D02*
X52111961Y29468572D01*
X52111961Y29468572D02*
X52207200Y29373334D01*
X52207200Y29373334D02*
X52254819Y29278096D01*
X52254819Y29278096D02*
X52254819Y29087620D01*
X52254819Y29087620D02*
X52207200Y28992382D01*
X52207200Y28992382D02*
X52111961Y28897144D01*
X52111961Y28897144D02*
X51921485Y28849525D01*
X51921485Y28849525D02*
X51588152Y28849525D01*
X51588152Y28849525D02*
X51397676Y28897144D01*
X51397676Y28897144D02*
X51302438Y28992382D01*
X51302438Y28992382D02*
X51254819Y29087620D01*
X51254819Y29801906D02*
X51254819Y30373334D01*
X52254819Y30087620D02*
X51254819Y30087620D01*
X93607142Y59990420D02*
X93559523Y59942800D01*
X93559523Y59942800D02*
X93416666Y59895181D01*
X93416666Y59895181D02*
X93321428Y59895181D01*
X93321428Y59895181D02*
X93178571Y59942800D01*
X93178571Y59942800D02*
X93083333Y60038039D01*
X93083333Y60038039D02*
X93035714Y60133277D01*
X93035714Y60133277D02*
X92988095Y60323753D01*
X92988095Y60323753D02*
X92988095Y60466610D01*
X92988095Y60466610D02*
X93035714Y60657086D01*
X93035714Y60657086D02*
X93083333Y60752324D01*
X93083333Y60752324D02*
X93178571Y60847562D01*
X93178571Y60847562D02*
X93321428Y60895181D01*
X93321428Y60895181D02*
X93416666Y60895181D01*
X93416666Y60895181D02*
X93559523Y60847562D01*
X93559523Y60847562D02*
X93607142Y60799943D01*
X94559523Y59895181D02*
X93988095Y59895181D01*
X94273809Y59895181D02*
X94273809Y60895181D01*
X94273809Y60895181D02*
X94178571Y60752324D01*
X94178571Y60752324D02*
X94083333Y60657086D01*
X94083333Y60657086D02*
X93988095Y60609467D01*
X95416666Y60561848D02*
X95416666Y59895181D01*
X95178571Y60942800D02*
X94940476Y60228515D01*
X94940476Y60228515D02*
X95559523Y60228515D01*
X29346333Y21793181D02*
X29013000Y22269372D01*
X28774905Y21793181D02*
X28774905Y22793181D01*
X28774905Y22793181D02*
X29155857Y22793181D01*
X29155857Y22793181D02*
X29251095Y22745562D01*
X29251095Y22745562D02*
X29298714Y22697943D01*
X29298714Y22697943D02*
X29346333Y22602705D01*
X29346333Y22602705D02*
X29346333Y22459848D01*
X29346333Y22459848D02*
X29298714Y22364610D01*
X29298714Y22364610D02*
X29251095Y22316991D01*
X29251095Y22316991D02*
X29155857Y22269372D01*
X29155857Y22269372D02*
X28774905Y22269372D01*
X29822524Y21793181D02*
X30013000Y21793181D01*
X30013000Y21793181D02*
X30108238Y21840800D01*
X30108238Y21840800D02*
X30155857Y21888420D01*
X30155857Y21888420D02*
X30251095Y22031277D01*
X30251095Y22031277D02*
X30298714Y22221753D01*
X30298714Y22221753D02*
X30298714Y22602705D01*
X30298714Y22602705D02*
X30251095Y22697943D01*
X30251095Y22697943D02*
X30203476Y22745562D01*
X30203476Y22745562D02*
X30108238Y22793181D01*
X30108238Y22793181D02*
X29917762Y22793181D01*
X29917762Y22793181D02*
X29822524Y22745562D01*
X29822524Y22745562D02*
X29774905Y22697943D01*
X29774905Y22697943D02*
X29727286Y22602705D01*
X29727286Y22602705D02*
X29727286Y22364610D01*
X29727286Y22364610D02*
X29774905Y22269372D01*
X29774905Y22269372D02*
X29822524Y22221753D01*
X29822524Y22221753D02*
X29917762Y22174134D01*
X29917762Y22174134D02*
X30108238Y22174134D01*
X30108238Y22174134D02*
X30203476Y22221753D01*
X30203476Y22221753D02*
X30251095Y22269372D01*
X30251095Y22269372D02*
X30298714Y22364610D01*
X93757142Y16590420D02*
X93709523Y16542800D01*
X93709523Y16542800D02*
X93566666Y16495181D01*
X93566666Y16495181D02*
X93471428Y16495181D01*
X93471428Y16495181D02*
X93328571Y16542800D01*
X93328571Y16542800D02*
X93233333Y16638039D01*
X93233333Y16638039D02*
X93185714Y16733277D01*
X93185714Y16733277D02*
X93138095Y16923753D01*
X93138095Y16923753D02*
X93138095Y17066610D01*
X93138095Y17066610D02*
X93185714Y17257086D01*
X93185714Y17257086D02*
X93233333Y17352324D01*
X93233333Y17352324D02*
X93328571Y17447562D01*
X93328571Y17447562D02*
X93471428Y17495181D01*
X93471428Y17495181D02*
X93566666Y17495181D01*
X93566666Y17495181D02*
X93709523Y17447562D01*
X93709523Y17447562D02*
X93757142Y17399943D01*
X94138095Y17399943D02*
X94185714Y17447562D01*
X94185714Y17447562D02*
X94280952Y17495181D01*
X94280952Y17495181D02*
X94519047Y17495181D01*
X94519047Y17495181D02*
X94614285Y17447562D01*
X94614285Y17447562D02*
X94661904Y17399943D01*
X94661904Y17399943D02*
X94709523Y17304705D01*
X94709523Y17304705D02*
X94709523Y17209467D01*
X94709523Y17209467D02*
X94661904Y17066610D01*
X94661904Y17066610D02*
X94090476Y16495181D01*
X94090476Y16495181D02*
X94709523Y16495181D01*
X95042857Y17495181D02*
X95661904Y17495181D01*
X95661904Y17495181D02*
X95328571Y17114229D01*
X95328571Y17114229D02*
X95471428Y17114229D01*
X95471428Y17114229D02*
X95566666Y17066610D01*
X95566666Y17066610D02*
X95614285Y17018991D01*
X95614285Y17018991D02*
X95661904Y16923753D01*
X95661904Y16923753D02*
X95661904Y16685658D01*
X95661904Y16685658D02*
X95614285Y16590420D01*
X95614285Y16590420D02*
X95566666Y16542800D01*
X95566666Y16542800D02*
X95471428Y16495181D01*
X95471428Y16495181D02*
X95185714Y16495181D01*
X95185714Y16495181D02*
X95090476Y16542800D01*
X95090476Y16542800D02*
X95042857Y16590420D01*
X74266666Y60545181D02*
X74266666Y59830896D01*
X74266666Y59830896D02*
X74219047Y59688039D01*
X74219047Y59688039D02*
X74123809Y59592800D01*
X74123809Y59592800D02*
X73980952Y59545181D01*
X73980952Y59545181D02*
X73885714Y59545181D01*
X74885714Y60116610D02*
X74790476Y60164229D01*
X74790476Y60164229D02*
X74742857Y60211848D01*
X74742857Y60211848D02*
X74695238Y60307086D01*
X74695238Y60307086D02*
X74695238Y60354705D01*
X74695238Y60354705D02*
X74742857Y60449943D01*
X74742857Y60449943D02*
X74790476Y60497562D01*
X74790476Y60497562D02*
X74885714Y60545181D01*
X74885714Y60545181D02*
X75076190Y60545181D01*
X75076190Y60545181D02*
X75171428Y60497562D01*
X75171428Y60497562D02*
X75219047Y60449943D01*
X75219047Y60449943D02*
X75266666Y60354705D01*
X75266666Y60354705D02*
X75266666Y60307086D01*
X75266666Y60307086D02*
X75219047Y60211848D01*
X75219047Y60211848D02*
X75171428Y60164229D01*
X75171428Y60164229D02*
X75076190Y60116610D01*
X75076190Y60116610D02*
X74885714Y60116610D01*
X74885714Y60116610D02*
X74790476Y60068991D01*
X74790476Y60068991D02*
X74742857Y60021372D01*
X74742857Y60021372D02*
X74695238Y59926134D01*
X74695238Y59926134D02*
X74695238Y59735658D01*
X74695238Y59735658D02*
X74742857Y59640420D01*
X74742857Y59640420D02*
X74790476Y59592800D01*
X74790476Y59592800D02*
X74885714Y59545181D01*
X74885714Y59545181D02*
X75076190Y59545181D01*
X75076190Y59545181D02*
X75171428Y59592800D01*
X75171428Y59592800D02*
X75219047Y59640420D01*
X75219047Y59640420D02*
X75266666Y59735658D01*
X75266666Y59735658D02*
X75266666Y59926134D01*
X75266666Y59926134D02*
X75219047Y60021372D01*
X75219047Y60021372D02*
X75171428Y60068991D01*
X75171428Y60068991D02*
X75076190Y60116610D01*
X36331380Y28146274D02*
X36331380Y27118179D01*
X36331380Y27118179D02*
X36391857Y26997227D01*
X36391857Y26997227D02*
X36452333Y26936750D01*
X36452333Y26936750D02*
X36573285Y26876274D01*
X36573285Y26876274D02*
X36815190Y26876274D01*
X36815190Y26876274D02*
X36936142Y26936750D01*
X36936142Y26936750D02*
X36996619Y26997227D01*
X36996619Y26997227D02*
X37057095Y27118179D01*
X37057095Y27118179D02*
X37057095Y28146274D01*
X37601380Y28025322D02*
X37661856Y28085798D01*
X37661856Y28085798D02*
X37782809Y28146274D01*
X37782809Y28146274D02*
X38085190Y28146274D01*
X38085190Y28146274D02*
X38206142Y28085798D01*
X38206142Y28085798D02*
X38266618Y28025322D01*
X38266618Y28025322D02*
X38327095Y27904370D01*
X38327095Y27904370D02*
X38327095Y27783417D01*
X38327095Y27783417D02*
X38266618Y27601989D01*
X38266618Y27601989D02*
X37540904Y26876274D01*
X37540904Y26876274D02*
X38327095Y26876274D01*
X40284819Y19808334D02*
X39808628Y19475001D01*
X40284819Y19236906D02*
X39284819Y19236906D01*
X39284819Y19236906D02*
X39284819Y19617858D01*
X39284819Y19617858D02*
X39332438Y19713096D01*
X39332438Y19713096D02*
X39380057Y19760715D01*
X39380057Y19760715D02*
X39475295Y19808334D01*
X39475295Y19808334D02*
X39618152Y19808334D01*
X39618152Y19808334D02*
X39713390Y19760715D01*
X39713390Y19760715D02*
X39761009Y19713096D01*
X39761009Y19713096D02*
X39808628Y19617858D01*
X39808628Y19617858D02*
X39808628Y19236906D01*
X39618152Y20665477D02*
X40284819Y20665477D01*
X39237200Y20427382D02*
X39951485Y20189287D01*
X39951485Y20189287D02*
X39951485Y20808334D01*
X84814819Y43758096D02*
X85624342Y43758096D01*
X85624342Y43758096D02*
X85719580Y43805715D01*
X85719580Y43805715D02*
X85767200Y43853334D01*
X85767200Y43853334D02*
X85814819Y43948572D01*
X85814819Y43948572D02*
X85814819Y44139048D01*
X85814819Y44139048D02*
X85767200Y44234286D01*
X85767200Y44234286D02*
X85719580Y44281905D01*
X85719580Y44281905D02*
X85624342Y44329524D01*
X85624342Y44329524D02*
X84814819Y44329524D01*
X84814819Y44710477D02*
X84814819Y45329524D01*
X84814819Y45329524D02*
X85195771Y44996191D01*
X85195771Y44996191D02*
X85195771Y45139048D01*
X85195771Y45139048D02*
X85243390Y45234286D01*
X85243390Y45234286D02*
X85291009Y45281905D01*
X85291009Y45281905D02*
X85386247Y45329524D01*
X85386247Y45329524D02*
X85624342Y45329524D01*
X85624342Y45329524D02*
X85719580Y45281905D01*
X85719580Y45281905D02*
X85767200Y45234286D01*
X85767200Y45234286D02*
X85814819Y45139048D01*
X85814819Y45139048D02*
X85814819Y44853334D01*
X85814819Y44853334D02*
X85767200Y44758096D01*
X85767200Y44758096D02*
X85719580Y44710477D01*
X46647142Y33440420D02*
X46599523Y33392800D01*
X46599523Y33392800D02*
X46456666Y33345181D01*
X46456666Y33345181D02*
X46361428Y33345181D01*
X46361428Y33345181D02*
X46218571Y33392800D01*
X46218571Y33392800D02*
X46123333Y33488039D01*
X46123333Y33488039D02*
X46075714Y33583277D01*
X46075714Y33583277D02*
X46028095Y33773753D01*
X46028095Y33773753D02*
X46028095Y33916610D01*
X46028095Y33916610D02*
X46075714Y34107086D01*
X46075714Y34107086D02*
X46123333Y34202324D01*
X46123333Y34202324D02*
X46218571Y34297562D01*
X46218571Y34297562D02*
X46361428Y34345181D01*
X46361428Y34345181D02*
X46456666Y34345181D01*
X46456666Y34345181D02*
X46599523Y34297562D01*
X46599523Y34297562D02*
X46647142Y34249943D01*
X47028095Y34249943D02*
X47075714Y34297562D01*
X47075714Y34297562D02*
X47170952Y34345181D01*
X47170952Y34345181D02*
X47409047Y34345181D01*
X47409047Y34345181D02*
X47504285Y34297562D01*
X47504285Y34297562D02*
X47551904Y34249943D01*
X47551904Y34249943D02*
X47599523Y34154705D01*
X47599523Y34154705D02*
X47599523Y34059467D01*
X47599523Y34059467D02*
X47551904Y33916610D01*
X47551904Y33916610D02*
X46980476Y33345181D01*
X46980476Y33345181D02*
X47599523Y33345181D01*
X48456666Y34011848D02*
X48456666Y33345181D01*
X48218571Y34392800D02*
X47980476Y33678515D01*
X47980476Y33678515D02*
X48599523Y33678515D01*
X26763319Y42682334D02*
X26763319Y42206144D01*
X26763319Y42206144D02*
X25763319Y42206144D01*
X26763319Y43539477D02*
X26763319Y42968049D01*
X26763319Y43253763D02*
X25763319Y43253763D01*
X25763319Y43253763D02*
X25906176Y43158525D01*
X25906176Y43158525D02*
X26001414Y43063287D01*
X26001414Y43063287D02*
X26049033Y42968049D01*
X98466667Y59892800D02*
X98609524Y59845181D01*
X98609524Y59845181D02*
X98847619Y59845181D01*
X98847619Y59845181D02*
X98942857Y59892800D01*
X98942857Y59892800D02*
X98990476Y59940420D01*
X98990476Y59940420D02*
X99038095Y60035658D01*
X99038095Y60035658D02*
X99038095Y60130896D01*
X99038095Y60130896D02*
X98990476Y60226134D01*
X98990476Y60226134D02*
X98942857Y60273753D01*
X98942857Y60273753D02*
X98847619Y60321372D01*
X98847619Y60321372D02*
X98657143Y60368991D01*
X98657143Y60368991D02*
X98561905Y60416610D01*
X98561905Y60416610D02*
X98514286Y60464229D01*
X98514286Y60464229D02*
X98466667Y60559467D01*
X98466667Y60559467D02*
X98466667Y60654705D01*
X98466667Y60654705D02*
X98514286Y60749943D01*
X98514286Y60749943D02*
X98561905Y60797562D01*
X98561905Y60797562D02*
X98657143Y60845181D01*
X98657143Y60845181D02*
X98895238Y60845181D01*
X98895238Y60845181D02*
X99038095Y60797562D01*
X99371429Y60845181D02*
X99609524Y59845181D01*
X99609524Y59845181D02*
X99800000Y60559467D01*
X99800000Y60559467D02*
X99990476Y59845181D01*
X99990476Y59845181D02*
X100228572Y60845181D01*
X101133333Y59845181D02*
X100561905Y59845181D01*
X100847619Y59845181D02*
X100847619Y60845181D01*
X100847619Y60845181D02*
X100752381Y60702324D01*
X100752381Y60702324D02*
X100657143Y60607086D01*
X100657143Y60607086D02*
X100561905Y60559467D01*
X29579761Y18649943D02*
X29484523Y18697562D01*
X29484523Y18697562D02*
X29389285Y18792800D01*
X29389285Y18792800D02*
X29246428Y18935658D01*
X29246428Y18935658D02*
X29151190Y18983277D01*
X29151190Y18983277D02*
X29055952Y18983277D01*
X29103571Y18745181D02*
X29008333Y18792800D01*
X29008333Y18792800D02*
X28913095Y18888039D01*
X28913095Y18888039D02*
X28865476Y19078515D01*
X28865476Y19078515D02*
X28865476Y19411848D01*
X28865476Y19411848D02*
X28913095Y19602324D01*
X28913095Y19602324D02*
X29008333Y19697562D01*
X29008333Y19697562D02*
X29103571Y19745181D01*
X29103571Y19745181D02*
X29294047Y19745181D01*
X29294047Y19745181D02*
X29389285Y19697562D01*
X29389285Y19697562D02*
X29484523Y19602324D01*
X29484523Y19602324D02*
X29532142Y19411848D01*
X29532142Y19411848D02*
X29532142Y19078515D01*
X29532142Y19078515D02*
X29484523Y18888039D01*
X29484523Y18888039D02*
X29389285Y18792800D01*
X29389285Y18792800D02*
X29294047Y18745181D01*
X29294047Y18745181D02*
X29103571Y18745181D01*
X30484523Y18745181D02*
X29913095Y18745181D01*
X30198809Y18745181D02*
X30198809Y19745181D01*
X30198809Y19745181D02*
X30103571Y19602324D01*
X30103571Y19602324D02*
X30008333Y19507086D01*
X30008333Y19507086D02*
X29913095Y19459467D01*
X88459580Y47493334D02*
X88507200Y47445715D01*
X88507200Y47445715D02*
X88554819Y47302858D01*
X88554819Y47302858D02*
X88554819Y47207620D01*
X88554819Y47207620D02*
X88507200Y47064763D01*
X88507200Y47064763D02*
X88411961Y46969525D01*
X88411961Y46969525D02*
X88316723Y46921906D01*
X88316723Y46921906D02*
X88126247Y46874287D01*
X88126247Y46874287D02*
X87983390Y46874287D01*
X87983390Y46874287D02*
X87792914Y46921906D01*
X87792914Y46921906D02*
X87697676Y46969525D01*
X87697676Y46969525D02*
X87602438Y47064763D01*
X87602438Y47064763D02*
X87554819Y47207620D01*
X87554819Y47207620D02*
X87554819Y47302858D01*
X87554819Y47302858D02*
X87602438Y47445715D01*
X87602438Y47445715D02*
X87650057Y47493334D01*
X88554819Y47969525D02*
X88554819Y48160001D01*
X88554819Y48160001D02*
X88507200Y48255239D01*
X88507200Y48255239D02*
X88459580Y48302858D01*
X88459580Y48302858D02*
X88316723Y48398096D01*
X88316723Y48398096D02*
X88126247Y48445715D01*
X88126247Y48445715D02*
X87745295Y48445715D01*
X87745295Y48445715D02*
X87650057Y48398096D01*
X87650057Y48398096D02*
X87602438Y48350477D01*
X87602438Y48350477D02*
X87554819Y48255239D01*
X87554819Y48255239D02*
X87554819Y48064763D01*
X87554819Y48064763D02*
X87602438Y47969525D01*
X87602438Y47969525D02*
X87650057Y47921906D01*
X87650057Y47921906D02*
X87745295Y47874287D01*
X87745295Y47874287D02*
X87983390Y47874287D01*
X87983390Y47874287D02*
X88078628Y47921906D01*
X88078628Y47921906D02*
X88126247Y47969525D01*
X88126247Y47969525D02*
X88173866Y48064763D01*
X88173866Y48064763D02*
X88173866Y48255239D01*
X88173866Y48255239D02*
X88126247Y48350477D01*
X88126247Y48350477D02*
X88078628Y48398096D01*
X88078628Y48398096D02*
X87983390Y48445715D01*
X25749580Y32477643D02*
X25797200Y32430024D01*
X25797200Y32430024D02*
X25844819Y32287167D01*
X25844819Y32287167D02*
X25844819Y32191929D01*
X25844819Y32191929D02*
X25797200Y32049072D01*
X25797200Y32049072D02*
X25701961Y31953834D01*
X25701961Y31953834D02*
X25606723Y31906215D01*
X25606723Y31906215D02*
X25416247Y31858596D01*
X25416247Y31858596D02*
X25273390Y31858596D01*
X25273390Y31858596D02*
X25082914Y31906215D01*
X25082914Y31906215D02*
X24987676Y31953834D01*
X24987676Y31953834D02*
X24892438Y32049072D01*
X24892438Y32049072D02*
X24844819Y32191929D01*
X24844819Y32191929D02*
X24844819Y32287167D01*
X24844819Y32287167D02*
X24892438Y32430024D01*
X24892438Y32430024D02*
X24940057Y32477643D01*
X24940057Y32858596D02*
X24892438Y32906215D01*
X24892438Y32906215D02*
X24844819Y33001453D01*
X24844819Y33001453D02*
X24844819Y33239548D01*
X24844819Y33239548D02*
X24892438Y33334786D01*
X24892438Y33334786D02*
X24940057Y33382405D01*
X24940057Y33382405D02*
X25035295Y33430024D01*
X25035295Y33430024D02*
X25130533Y33430024D01*
X25130533Y33430024D02*
X25273390Y33382405D01*
X25273390Y33382405D02*
X25844819Y32810977D01*
X25844819Y32810977D02*
X25844819Y33430024D01*
X24844819Y34334786D02*
X24844819Y33858596D01*
X24844819Y33858596D02*
X25321009Y33810977D01*
X25321009Y33810977D02*
X25273390Y33858596D01*
X25273390Y33858596D02*
X25225771Y33953834D01*
X25225771Y33953834D02*
X25225771Y34191929D01*
X25225771Y34191929D02*
X25273390Y34287167D01*
X25273390Y34287167D02*
X25321009Y34334786D01*
X25321009Y34334786D02*
X25416247Y34382405D01*
X25416247Y34382405D02*
X25654342Y34382405D01*
X25654342Y34382405D02*
X25749580Y34334786D01*
X25749580Y34334786D02*
X25797200Y34287167D01*
X25797200Y34287167D02*
X25844819Y34191929D01*
X25844819Y34191929D02*
X25844819Y33953834D01*
X25844819Y33953834D02*
X25797200Y33858596D01*
X25797200Y33858596D02*
X25749580Y33810977D01*
X34944819Y19808334D02*
X34468628Y19475001D01*
X34944819Y19236906D02*
X33944819Y19236906D01*
X33944819Y19236906D02*
X33944819Y19617858D01*
X33944819Y19617858D02*
X33992438Y19713096D01*
X33992438Y19713096D02*
X34040057Y19760715D01*
X34040057Y19760715D02*
X34135295Y19808334D01*
X34135295Y19808334D02*
X34278152Y19808334D01*
X34278152Y19808334D02*
X34373390Y19760715D01*
X34373390Y19760715D02*
X34421009Y19713096D01*
X34421009Y19713096D02*
X34468628Y19617858D01*
X34468628Y19617858D02*
X34468628Y19236906D01*
X33944819Y20141668D02*
X33944819Y20760715D01*
X33944819Y20760715D02*
X34325771Y20427382D01*
X34325771Y20427382D02*
X34325771Y20570239D01*
X34325771Y20570239D02*
X34373390Y20665477D01*
X34373390Y20665477D02*
X34421009Y20713096D01*
X34421009Y20713096D02*
X34516247Y20760715D01*
X34516247Y20760715D02*
X34754342Y20760715D01*
X34754342Y20760715D02*
X34849580Y20713096D01*
X34849580Y20713096D02*
X34897200Y20665477D01*
X34897200Y20665477D02*
X34944819Y20570239D01*
X34944819Y20570239D02*
X34944819Y20284525D01*
X34944819Y20284525D02*
X34897200Y20189287D01*
X34897200Y20189287D02*
X34849580Y20141668D01*
X93759580Y30382143D02*
X93807200Y30334524D01*
X93807200Y30334524D02*
X93854819Y30191667D01*
X93854819Y30191667D02*
X93854819Y30096429D01*
X93854819Y30096429D02*
X93807200Y29953572D01*
X93807200Y29953572D02*
X93711961Y29858334D01*
X93711961Y29858334D02*
X93616723Y29810715D01*
X93616723Y29810715D02*
X93426247Y29763096D01*
X93426247Y29763096D02*
X93283390Y29763096D01*
X93283390Y29763096D02*
X93092914Y29810715D01*
X93092914Y29810715D02*
X92997676Y29858334D01*
X92997676Y29858334D02*
X92902438Y29953572D01*
X92902438Y29953572D02*
X92854819Y30096429D01*
X92854819Y30096429D02*
X92854819Y30191667D01*
X92854819Y30191667D02*
X92902438Y30334524D01*
X92902438Y30334524D02*
X92950057Y30382143D01*
X92950057Y30763096D02*
X92902438Y30810715D01*
X92902438Y30810715D02*
X92854819Y30905953D01*
X92854819Y30905953D02*
X92854819Y31144048D01*
X92854819Y31144048D02*
X92902438Y31239286D01*
X92902438Y31239286D02*
X92950057Y31286905D01*
X92950057Y31286905D02*
X93045295Y31334524D01*
X93045295Y31334524D02*
X93140533Y31334524D01*
X93140533Y31334524D02*
X93283390Y31286905D01*
X93283390Y31286905D02*
X93854819Y30715477D01*
X93854819Y30715477D02*
X93854819Y31334524D01*
X92854819Y31667858D02*
X92854819Y32334524D01*
X92854819Y32334524D02*
X93854819Y31905953D01*
X35044819Y17638334D02*
X34568628Y17305001D01*
X35044819Y17066906D02*
X34044819Y17066906D01*
X34044819Y17066906D02*
X34044819Y17447858D01*
X34044819Y17447858D02*
X34092438Y17543096D01*
X34092438Y17543096D02*
X34140057Y17590715D01*
X34140057Y17590715D02*
X34235295Y17638334D01*
X34235295Y17638334D02*
X34378152Y17638334D01*
X34378152Y17638334D02*
X34473390Y17590715D01*
X34473390Y17590715D02*
X34521009Y17543096D01*
X34521009Y17543096D02*
X34568628Y17447858D01*
X34568628Y17447858D02*
X34568628Y17066906D01*
X34140057Y18019287D02*
X34092438Y18066906D01*
X34092438Y18066906D02*
X34044819Y18162144D01*
X34044819Y18162144D02*
X34044819Y18400239D01*
X34044819Y18400239D02*
X34092438Y18495477D01*
X34092438Y18495477D02*
X34140057Y18543096D01*
X34140057Y18543096D02*
X34235295Y18590715D01*
X34235295Y18590715D02*
X34330533Y18590715D01*
X34330533Y18590715D02*
X34473390Y18543096D01*
X34473390Y18543096D02*
X35044819Y17971668D01*
X35044819Y17971668D02*
X35044819Y18590715D01*
X35434819Y39877143D02*
X34958628Y39543810D01*
X35434819Y39305715D02*
X34434819Y39305715D01*
X34434819Y39305715D02*
X34434819Y39686667D01*
X34434819Y39686667D02*
X34482438Y39781905D01*
X34482438Y39781905D02*
X34530057Y39829524D01*
X34530057Y39829524D02*
X34625295Y39877143D01*
X34625295Y39877143D02*
X34768152Y39877143D01*
X34768152Y39877143D02*
X34863390Y39829524D01*
X34863390Y39829524D02*
X34911009Y39781905D01*
X34911009Y39781905D02*
X34958628Y39686667D01*
X34958628Y39686667D02*
X34958628Y39305715D01*
X34530057Y40258096D02*
X34482438Y40305715D01*
X34482438Y40305715D02*
X34434819Y40400953D01*
X34434819Y40400953D02*
X34434819Y40639048D01*
X34434819Y40639048D02*
X34482438Y40734286D01*
X34482438Y40734286D02*
X34530057Y40781905D01*
X34530057Y40781905D02*
X34625295Y40829524D01*
X34625295Y40829524D02*
X34720533Y40829524D01*
X34720533Y40829524D02*
X34863390Y40781905D01*
X34863390Y40781905D02*
X35434819Y40210477D01*
X35434819Y40210477D02*
X35434819Y40829524D01*
X34434819Y41448572D02*
X34434819Y41543810D01*
X34434819Y41543810D02*
X34482438Y41639048D01*
X34482438Y41639048D02*
X34530057Y41686667D01*
X34530057Y41686667D02*
X34625295Y41734286D01*
X34625295Y41734286D02*
X34815771Y41781905D01*
X34815771Y41781905D02*
X35053866Y41781905D01*
X35053866Y41781905D02*
X35244342Y41734286D01*
X35244342Y41734286D02*
X35339580Y41686667D01*
X35339580Y41686667D02*
X35387200Y41639048D01*
X35387200Y41639048D02*
X35434819Y41543810D01*
X35434819Y41543810D02*
X35434819Y41448572D01*
X35434819Y41448572D02*
X35387200Y41353334D01*
X35387200Y41353334D02*
X35339580Y41305715D01*
X35339580Y41305715D02*
X35244342Y41258096D01*
X35244342Y41258096D02*
X35053866Y41210477D01*
X35053866Y41210477D02*
X34815771Y41210477D01*
X34815771Y41210477D02*
X34625295Y41258096D01*
X34625295Y41258096D02*
X34530057Y41305715D01*
X34530057Y41305715D02*
X34482438Y41353334D01*
X34482438Y41353334D02*
X34434819Y41448572D01*
X33081319Y34934143D02*
X32605128Y34600810D01*
X33081319Y34362715D02*
X32081319Y34362715D01*
X32081319Y34362715D02*
X32081319Y34743667D01*
X32081319Y34743667D02*
X32128938Y34838905D01*
X32128938Y34838905D02*
X32176557Y34886524D01*
X32176557Y34886524D02*
X32271795Y34934143D01*
X32271795Y34934143D02*
X32414652Y34934143D01*
X32414652Y34934143D02*
X32509890Y34886524D01*
X32509890Y34886524D02*
X32557509Y34838905D01*
X32557509Y34838905D02*
X32605128Y34743667D01*
X32605128Y34743667D02*
X32605128Y34362715D01*
X33081319Y35886524D02*
X33081319Y35315096D01*
X33081319Y35600810D02*
X32081319Y35600810D01*
X32081319Y35600810D02*
X32224176Y35505572D01*
X32224176Y35505572D02*
X32319414Y35410334D01*
X32319414Y35410334D02*
X32367033Y35315096D01*
X33081319Y36362715D02*
X33081319Y36553191D01*
X33081319Y36553191D02*
X33033700Y36648429D01*
X33033700Y36648429D02*
X32986080Y36696048D01*
X32986080Y36696048D02*
X32843223Y36791286D01*
X32843223Y36791286D02*
X32652747Y36838905D01*
X32652747Y36838905D02*
X32271795Y36838905D01*
X32271795Y36838905D02*
X32176557Y36791286D01*
X32176557Y36791286D02*
X32128938Y36743667D01*
X32128938Y36743667D02*
X32081319Y36648429D01*
X32081319Y36648429D02*
X32081319Y36457953D01*
X32081319Y36457953D02*
X32128938Y36362715D01*
X32128938Y36362715D02*
X32176557Y36315096D01*
X32176557Y36315096D02*
X32271795Y36267477D01*
X32271795Y36267477D02*
X32509890Y36267477D01*
X32509890Y36267477D02*
X32605128Y36315096D01*
X32605128Y36315096D02*
X32652747Y36362715D01*
X32652747Y36362715D02*
X32700366Y36457953D01*
X32700366Y36457953D02*
X32700366Y36648429D01*
X32700366Y36648429D02*
X32652747Y36743667D01*
X32652747Y36743667D02*
X32605128Y36791286D01*
X32605128Y36791286D02*
X32509890Y36838905D01*
X36598080Y39987143D02*
X36645700Y39939524D01*
X36645700Y39939524D02*
X36693319Y39796667D01*
X36693319Y39796667D02*
X36693319Y39701429D01*
X36693319Y39701429D02*
X36645700Y39558572D01*
X36645700Y39558572D02*
X36550461Y39463334D01*
X36550461Y39463334D02*
X36455223Y39415715D01*
X36455223Y39415715D02*
X36264747Y39368096D01*
X36264747Y39368096D02*
X36121890Y39368096D01*
X36121890Y39368096D02*
X35931414Y39415715D01*
X35931414Y39415715D02*
X35836176Y39463334D01*
X35836176Y39463334D02*
X35740938Y39558572D01*
X35740938Y39558572D02*
X35693319Y39701429D01*
X35693319Y39701429D02*
X35693319Y39796667D01*
X35693319Y39796667D02*
X35740938Y39939524D01*
X35740938Y39939524D02*
X35788557Y39987143D01*
X35788557Y40368096D02*
X35740938Y40415715D01*
X35740938Y40415715D02*
X35693319Y40510953D01*
X35693319Y40510953D02*
X35693319Y40749048D01*
X35693319Y40749048D02*
X35740938Y40844286D01*
X35740938Y40844286D02*
X35788557Y40891905D01*
X35788557Y40891905D02*
X35883795Y40939524D01*
X35883795Y40939524D02*
X35979033Y40939524D01*
X35979033Y40939524D02*
X36121890Y40891905D01*
X36121890Y40891905D02*
X36693319Y40320477D01*
X36693319Y40320477D02*
X36693319Y40939524D01*
X36693319Y41415715D02*
X36693319Y41606191D01*
X36693319Y41606191D02*
X36645700Y41701429D01*
X36645700Y41701429D02*
X36598080Y41749048D01*
X36598080Y41749048D02*
X36455223Y41844286D01*
X36455223Y41844286D02*
X36264747Y41891905D01*
X36264747Y41891905D02*
X35883795Y41891905D01*
X35883795Y41891905D02*
X35788557Y41844286D01*
X35788557Y41844286D02*
X35740938Y41796667D01*
X35740938Y41796667D02*
X35693319Y41701429D01*
X35693319Y41701429D02*
X35693319Y41510953D01*
X35693319Y41510953D02*
X35740938Y41415715D01*
X35740938Y41415715D02*
X35788557Y41368096D01*
X35788557Y41368096D02*
X35883795Y41320477D01*
X35883795Y41320477D02*
X36121890Y41320477D01*
X36121890Y41320477D02*
X36217128Y41368096D01*
X36217128Y41368096D02*
X36264747Y41415715D01*
X36264747Y41415715D02*
X36312366Y41510953D01*
X36312366Y41510953D02*
X36312366Y41701429D01*
X36312366Y41701429D02*
X36264747Y41796667D01*
X36264747Y41796667D02*
X36217128Y41844286D01*
X36217128Y41844286D02*
X36121890Y41891905D01*
X93657142Y58695181D02*
X93323809Y59171372D01*
X93085714Y58695181D02*
X93085714Y59695181D01*
X93085714Y59695181D02*
X93466666Y59695181D01*
X93466666Y59695181D02*
X93561904Y59647562D01*
X93561904Y59647562D02*
X93609523Y59599943D01*
X93609523Y59599943D02*
X93657142Y59504705D01*
X93657142Y59504705D02*
X93657142Y59361848D01*
X93657142Y59361848D02*
X93609523Y59266610D01*
X93609523Y59266610D02*
X93561904Y59218991D01*
X93561904Y59218991D02*
X93466666Y59171372D01*
X93466666Y59171372D02*
X93085714Y59171372D01*
X94609523Y58695181D02*
X94038095Y58695181D01*
X94323809Y58695181D02*
X94323809Y59695181D01*
X94323809Y59695181D02*
X94228571Y59552324D01*
X94228571Y59552324D02*
X94133333Y59457086D01*
X94133333Y59457086D02*
X94038095Y59409467D01*
X94990476Y59599943D02*
X95038095Y59647562D01*
X95038095Y59647562D02*
X95133333Y59695181D01*
X95133333Y59695181D02*
X95371428Y59695181D01*
X95371428Y59695181D02*
X95466666Y59647562D01*
X95466666Y59647562D02*
X95514285Y59599943D01*
X95514285Y59599943D02*
X95561904Y59504705D01*
X95561904Y59504705D02*
X95561904Y59409467D01*
X95561904Y59409467D02*
X95514285Y59266610D01*
X95514285Y59266610D02*
X94942857Y58695181D01*
X94942857Y58695181D02*
X95561904Y58695181D01*
X31009523Y15640420D02*
X30961904Y15592800D01*
X30961904Y15592800D02*
X30819047Y15545181D01*
X30819047Y15545181D02*
X30723809Y15545181D01*
X30723809Y15545181D02*
X30580952Y15592800D01*
X30580952Y15592800D02*
X30485714Y15688039D01*
X30485714Y15688039D02*
X30438095Y15783277D01*
X30438095Y15783277D02*
X30390476Y15973753D01*
X30390476Y15973753D02*
X30390476Y16116610D01*
X30390476Y16116610D02*
X30438095Y16307086D01*
X30438095Y16307086D02*
X30485714Y16402324D01*
X30485714Y16402324D02*
X30580952Y16497562D01*
X30580952Y16497562D02*
X30723809Y16545181D01*
X30723809Y16545181D02*
X30819047Y16545181D01*
X30819047Y16545181D02*
X30961904Y16497562D01*
X30961904Y16497562D02*
X31009523Y16449943D01*
X31438095Y15545181D02*
X31438095Y16545181D01*
X31438095Y16545181D02*
X32009523Y15545181D01*
X32009523Y15545181D02*
X32009523Y16545181D01*
X33009523Y15545181D02*
X32438095Y15545181D01*
X32723809Y15545181D02*
X32723809Y16545181D01*
X32723809Y16545181D02*
X32628571Y16402324D01*
X32628571Y16402324D02*
X32533333Y16307086D01*
X32533333Y16307086D02*
X32438095Y16259467D01*
X65066666Y60545181D02*
X65066666Y59830896D01*
X65066666Y59830896D02*
X65019047Y59688039D01*
X65019047Y59688039D02*
X64923809Y59592800D01*
X64923809Y59592800D02*
X64780952Y59545181D01*
X64780952Y59545181D02*
X64685714Y59545181D01*
X65971428Y60545181D02*
X65780952Y60545181D01*
X65780952Y60545181D02*
X65685714Y60497562D01*
X65685714Y60497562D02*
X65638095Y60449943D01*
X65638095Y60449943D02*
X65542857Y60307086D01*
X65542857Y60307086D02*
X65495238Y60116610D01*
X65495238Y60116610D02*
X65495238Y59735658D01*
X65495238Y59735658D02*
X65542857Y59640420D01*
X65542857Y59640420D02*
X65590476Y59592800D01*
X65590476Y59592800D02*
X65685714Y59545181D01*
X65685714Y59545181D02*
X65876190Y59545181D01*
X65876190Y59545181D02*
X65971428Y59592800D01*
X65971428Y59592800D02*
X66019047Y59640420D01*
X66019047Y59640420D02*
X66066666Y59735658D01*
X66066666Y59735658D02*
X66066666Y59973753D01*
X66066666Y59973753D02*
X66019047Y60068991D01*
X66019047Y60068991D02*
X65971428Y60116610D01*
X65971428Y60116610D02*
X65876190Y60164229D01*
X65876190Y60164229D02*
X65685714Y60164229D01*
X65685714Y60164229D02*
X65590476Y60116610D01*
X65590476Y60116610D02*
X65542857Y60068991D01*
X65542857Y60068991D02*
X65495238Y59973753D01*
X42265666Y18824991D02*
X41932333Y18824991D01*
X41932333Y18301181D02*
X41932333Y19301181D01*
X41932333Y19301181D02*
X42408523Y19301181D01*
X43122809Y18824991D02*
X43265666Y18777372D01*
X43265666Y18777372D02*
X43313285Y18729753D01*
X43313285Y18729753D02*
X43360904Y18634515D01*
X43360904Y18634515D02*
X43360904Y18491658D01*
X43360904Y18491658D02*
X43313285Y18396420D01*
X43313285Y18396420D02*
X43265666Y18348800D01*
X43265666Y18348800D02*
X43170428Y18301181D01*
X43170428Y18301181D02*
X42789476Y18301181D01*
X42789476Y18301181D02*
X42789476Y19301181D01*
X42789476Y19301181D02*
X43122809Y19301181D01*
X43122809Y19301181D02*
X43218047Y19253562D01*
X43218047Y19253562D02*
X43265666Y19205943D01*
X43265666Y19205943D02*
X43313285Y19110705D01*
X43313285Y19110705D02*
X43313285Y19015467D01*
X43313285Y19015467D02*
X43265666Y18920229D01*
X43265666Y18920229D02*
X43218047Y18872610D01*
X43218047Y18872610D02*
X43122809Y18824991D01*
X43122809Y18824991D02*
X42789476Y18824991D01*
X44313285Y18301181D02*
X43741857Y18301181D01*
X44027571Y18301181D02*
X44027571Y19301181D01*
X44027571Y19301181D02*
X43932333Y19158324D01*
X43932333Y19158324D02*
X43837095Y19063086D01*
X43837095Y19063086D02*
X43741857Y19015467D01*
X38324819Y17638334D02*
X37848628Y17305001D01*
X38324819Y17066906D02*
X37324819Y17066906D01*
X37324819Y17066906D02*
X37324819Y17447858D01*
X37324819Y17447858D02*
X37372438Y17543096D01*
X37372438Y17543096D02*
X37420057Y17590715D01*
X37420057Y17590715D02*
X37515295Y17638334D01*
X37515295Y17638334D02*
X37658152Y17638334D01*
X37658152Y17638334D02*
X37753390Y17590715D01*
X37753390Y17590715D02*
X37801009Y17543096D01*
X37801009Y17543096D02*
X37848628Y17447858D01*
X37848628Y17447858D02*
X37848628Y17066906D01*
X38324819Y18590715D02*
X38324819Y18019287D01*
X38324819Y18305001D02*
X37324819Y18305001D01*
X37324819Y18305001D02*
X37467676Y18209763D01*
X37467676Y18209763D02*
X37562914Y18114525D01*
X37562914Y18114525D02*
X37610533Y18019287D01*
X40932333Y21396420D02*
X40884714Y21348800D01*
X40884714Y21348800D02*
X40741857Y21301181D01*
X40741857Y21301181D02*
X40646619Y21301181D01*
X40646619Y21301181D02*
X40503762Y21348800D01*
X40503762Y21348800D02*
X40408524Y21444039D01*
X40408524Y21444039D02*
X40360905Y21539277D01*
X40360905Y21539277D02*
X40313286Y21729753D01*
X40313286Y21729753D02*
X40313286Y21872610D01*
X40313286Y21872610D02*
X40360905Y22063086D01*
X40360905Y22063086D02*
X40408524Y22158324D01*
X40408524Y22158324D02*
X40503762Y22253562D01*
X40503762Y22253562D02*
X40646619Y22301181D01*
X40646619Y22301181D02*
X40741857Y22301181D01*
X40741857Y22301181D02*
X40884714Y22253562D01*
X40884714Y22253562D02*
X40932333Y22205943D01*
X41265667Y22301181D02*
X41932333Y22301181D01*
X41932333Y22301181D02*
X41503762Y21301181D01*
X40673333Y22796420D02*
X40625714Y22748800D01*
X40625714Y22748800D02*
X40482857Y22701181D01*
X40482857Y22701181D02*
X40387619Y22701181D01*
X40387619Y22701181D02*
X40244762Y22748800D01*
X40244762Y22748800D02*
X40149524Y22844039D01*
X40149524Y22844039D02*
X40101905Y22939277D01*
X40101905Y22939277D02*
X40054286Y23129753D01*
X40054286Y23129753D02*
X40054286Y23272610D01*
X40054286Y23272610D02*
X40101905Y23463086D01*
X40101905Y23463086D02*
X40149524Y23558324D01*
X40149524Y23558324D02*
X40244762Y23653562D01*
X40244762Y23653562D02*
X40387619Y23701181D01*
X40387619Y23701181D02*
X40482857Y23701181D01*
X40482857Y23701181D02*
X40625714Y23653562D01*
X40625714Y23653562D02*
X40673333Y23605943D01*
X41530476Y23701181D02*
X41340000Y23701181D01*
X41340000Y23701181D02*
X41244762Y23653562D01*
X41244762Y23653562D02*
X41197143Y23605943D01*
X41197143Y23605943D02*
X41101905Y23463086D01*
X41101905Y23463086D02*
X41054286Y23272610D01*
X41054286Y23272610D02*
X41054286Y22891658D01*
X41054286Y22891658D02*
X41101905Y22796420D01*
X41101905Y22796420D02*
X41149524Y22748800D01*
X41149524Y22748800D02*
X41244762Y22701181D01*
X41244762Y22701181D02*
X41435238Y22701181D01*
X41435238Y22701181D02*
X41530476Y22748800D01*
X41530476Y22748800D02*
X41578095Y22796420D01*
X41578095Y22796420D02*
X41625714Y22891658D01*
X41625714Y22891658D02*
X41625714Y23129753D01*
X41625714Y23129753D02*
X41578095Y23224991D01*
X41578095Y23224991D02*
X41530476Y23272610D01*
X41530476Y23272610D02*
X41435238Y23320229D01*
X41435238Y23320229D02*
X41244762Y23320229D01*
X41244762Y23320229D02*
X41149524Y23272610D01*
X41149524Y23272610D02*
X41101905Y23224991D01*
X41101905Y23224991D02*
X41054286Y23129753D01*
X84854819Y62466667D02*
X85569104Y62466667D01*
X85569104Y62466667D02*
X85711961Y62419048D01*
X85711961Y62419048D02*
X85807200Y62323810D01*
X85807200Y62323810D02*
X85854819Y62180953D01*
X85854819Y62180953D02*
X85854819Y62085715D01*
X84854819Y62847620D02*
X84854819Y63466667D01*
X84854819Y63466667D02*
X85235771Y63133334D01*
X85235771Y63133334D02*
X85235771Y63276191D01*
X85235771Y63276191D02*
X85283390Y63371429D01*
X85283390Y63371429D02*
X85331009Y63419048D01*
X85331009Y63419048D02*
X85426247Y63466667D01*
X85426247Y63466667D02*
X85664342Y63466667D01*
X85664342Y63466667D02*
X85759580Y63419048D01*
X85759580Y63419048D02*
X85807200Y63371429D01*
X85807200Y63371429D02*
X85854819Y63276191D01*
X85854819Y63276191D02*
X85854819Y62990477D01*
X85854819Y62990477D02*
X85807200Y62895239D01*
X85807200Y62895239D02*
X85759580Y62847620D01*
X30081319Y35610096D02*
X30890842Y35610096D01*
X30890842Y35610096D02*
X30986080Y35657715D01*
X30986080Y35657715D02*
X31033700Y35705334D01*
X31033700Y35705334D02*
X31081319Y35800572D01*
X31081319Y35800572D02*
X31081319Y35991048D01*
X31081319Y35991048D02*
X31033700Y36086286D01*
X31033700Y36086286D02*
X30986080Y36133905D01*
X30986080Y36133905D02*
X30890842Y36181524D01*
X30890842Y36181524D02*
X30081319Y36181524D01*
X30414652Y37086286D02*
X31081319Y37086286D01*
X30033700Y36848191D02*
X30747985Y36610096D01*
X30747985Y36610096D02*
X30747985Y37229143D01*
X68759580Y36158334D02*
X68807200Y36110715D01*
X68807200Y36110715D02*
X68854819Y35967858D01*
X68854819Y35967858D02*
X68854819Y35872620D01*
X68854819Y35872620D02*
X68807200Y35729763D01*
X68807200Y35729763D02*
X68711961Y35634525D01*
X68711961Y35634525D02*
X68616723Y35586906D01*
X68616723Y35586906D02*
X68426247Y35539287D01*
X68426247Y35539287D02*
X68283390Y35539287D01*
X68283390Y35539287D02*
X68092914Y35586906D01*
X68092914Y35586906D02*
X67997676Y35634525D01*
X67997676Y35634525D02*
X67902438Y35729763D01*
X67902438Y35729763D02*
X67854819Y35872620D01*
X67854819Y35872620D02*
X67854819Y35967858D01*
X67854819Y35967858D02*
X67902438Y36110715D01*
X67902438Y36110715D02*
X67950057Y36158334D01*
X68188152Y37015477D02*
X68854819Y37015477D01*
X67807200Y36777382D02*
X68521485Y36539287D01*
X68521485Y36539287D02*
X68521485Y37158334D01*
X65209580Y36132143D02*
X65257200Y36084524D01*
X65257200Y36084524D02*
X65304819Y35941667D01*
X65304819Y35941667D02*
X65304819Y35846429D01*
X65304819Y35846429D02*
X65257200Y35703572D01*
X65257200Y35703572D02*
X65161961Y35608334D01*
X65161961Y35608334D02*
X65066723Y35560715D01*
X65066723Y35560715D02*
X64876247Y35513096D01*
X64876247Y35513096D02*
X64733390Y35513096D01*
X64733390Y35513096D02*
X64542914Y35560715D01*
X64542914Y35560715D02*
X64447676Y35608334D01*
X64447676Y35608334D02*
X64352438Y35703572D01*
X64352438Y35703572D02*
X64304819Y35846429D01*
X64304819Y35846429D02*
X64304819Y35941667D01*
X64304819Y35941667D02*
X64352438Y36084524D01*
X64352438Y36084524D02*
X64400057Y36132143D01*
X65304819Y37084524D02*
X65304819Y36513096D01*
X65304819Y36798810D02*
X64304819Y36798810D01*
X64304819Y36798810D02*
X64447676Y36703572D01*
X64447676Y36703572D02*
X64542914Y36608334D01*
X64542914Y36608334D02*
X64590533Y36513096D01*
X65304819Y37560715D02*
X65304819Y37751191D01*
X65304819Y37751191D02*
X65257200Y37846429D01*
X65257200Y37846429D02*
X65209580Y37894048D01*
X65209580Y37894048D02*
X65066723Y37989286D01*
X65066723Y37989286D02*
X64876247Y38036905D01*
X64876247Y38036905D02*
X64495295Y38036905D01*
X64495295Y38036905D02*
X64400057Y37989286D01*
X64400057Y37989286D02*
X64352438Y37941667D01*
X64352438Y37941667D02*
X64304819Y37846429D01*
X64304819Y37846429D02*
X64304819Y37655953D01*
X64304819Y37655953D02*
X64352438Y37560715D01*
X64352438Y37560715D02*
X64400057Y37513096D01*
X64400057Y37513096D02*
X64495295Y37465477D01*
X64495295Y37465477D02*
X64733390Y37465477D01*
X64733390Y37465477D02*
X64828628Y37513096D01*
X64828628Y37513096D02*
X64876247Y37560715D01*
X64876247Y37560715D02*
X64923866Y37655953D01*
X64923866Y37655953D02*
X64923866Y37846429D01*
X64923866Y37846429D02*
X64876247Y37941667D01*
X64876247Y37941667D02*
X64828628Y37989286D01*
X64828628Y37989286D02*
X64733390Y38036905D01*
D12*
X41770000Y61470000D02*
X41770000Y62800000D01*
X43100000Y61470000D02*
X41770000Y61470000D01*
X44370000Y61470000D02*
X67290000Y61470000D01*
X44370000Y61470000D02*
X44370000Y64130000D01*
X67290000Y61470000D02*
X67290000Y64130000D01*
X44370000Y64130000D02*
X67290000Y64130000D01*
D13*
X104720000Y52570000D02*
X104720000Y39920000D01*
X95700000Y52570000D02*
X101700000Y52570000D01*
X89270000Y52570000D02*
X90970000Y52570000D01*
X89270000Y52570000D02*
X89270000Y51325000D01*
X89270000Y43245000D02*
X89270000Y39920000D01*
X95200000Y39920000D02*
X102200000Y39920000D01*
X89270000Y39920000D02*
X90970000Y39920000D01*
D14*
X88245000Y51255000D02*
G75*
G03*
X88245000Y51255000I-100000J0D01*
G01*
D12*
X34996359Y22165000D02*
X35303641Y22165000D01*
X34996359Y21405000D02*
X35303641Y21405000D01*
X49743641Y41820000D02*
X49436359Y41820000D01*
X49743641Y42580000D02*
X49436359Y42580000D01*
X49743641Y34620000D02*
X49436359Y34620000D01*
X49743641Y35380000D02*
X49436359Y35380000D01*
X34160000Y55673000D02*
X34160000Y59973000D01*
X34160000Y55673000D02*
X28350000Y55673000D01*
X34160000Y59973000D02*
X28350000Y59973000D01*
X50914000Y13210000D02*
X50914000Y14540000D01*
X52244000Y13210000D02*
X50914000Y13210000D01*
X53514000Y13210000D02*
X71354000Y13210000D01*
X53514000Y13210000D02*
X53514000Y15870000D01*
X71354000Y13210000D02*
X71354000Y15870000D01*
X53514000Y15870000D02*
X71354000Y15870000D01*
X58440000Y34649420D02*
X58440000Y34930580D01*
X59460000Y34649420D02*
X59460000Y34930580D01*
X68670000Y58955000D02*
X70000000Y58955000D01*
X68670000Y57625000D02*
X68670000Y58955000D01*
X68670000Y56355000D02*
X68670000Y51215000D01*
X68670000Y56355000D02*
X71330000Y56355000D01*
X68670000Y51215000D02*
X71330000Y51215000D01*
X71330000Y56355000D02*
X71330000Y51215000D01*
X54140580Y16790000D02*
X53859420Y16790000D01*
X54140580Y17810000D02*
X53859420Y17810000D01*
X49727836Y43040000D02*
X49512164Y43040000D01*
X49727836Y43760000D02*
X49512164Y43760000D01*
X54140580Y18290000D02*
X53859420Y18290000D01*
X54140580Y19310000D02*
X53859420Y19310000D01*
X70790000Y27903641D02*
X70790000Y27596359D01*
X70030000Y27903641D02*
X70030000Y27596359D01*
X95038641Y27885000D02*
X94731359Y27885000D01*
X95038641Y28645000D02*
X94731359Y28645000D01*
X33020000Y25287836D02*
X33020000Y25072164D01*
X32300000Y25287836D02*
X32300000Y25072164D01*
X97430000Y16220000D02*
X97430000Y15820000D01*
X97430000Y16220000D02*
X102170000Y16220000D01*
X97430000Y12820000D02*
X97430000Y14880000D01*
X97430000Y11480000D02*
X97430000Y11880000D01*
X97430000Y11480000D02*
X102170000Y11480000D01*
X102170000Y16220000D02*
X102170000Y15820000D01*
X102170000Y12820000D02*
X102170000Y14880000D01*
X102170000Y11480000D02*
X102170000Y11880000D01*
X83920000Y15853859D02*
X83920000Y16161141D01*
X84680000Y15853859D02*
X84680000Y16161141D01*
X41850000Y25587164D02*
X41850000Y25802836D01*
X42570000Y25587164D02*
X42570000Y25802836D01*
X66820000Y34387164D02*
X66820000Y34602836D01*
X67540000Y34387164D02*
X67540000Y34602836D01*
X65670000Y34387164D02*
X65670000Y34602836D01*
X66390000Y34387164D02*
X66390000Y34602836D01*
X86770000Y49372164D02*
X86770000Y49587836D01*
X87490000Y49372164D02*
X87490000Y49587836D01*
X96035000Y28637164D02*
X96035000Y28852836D01*
X96755000Y28637164D02*
X96755000Y28852836D01*
X40030000Y25587164D02*
X40030000Y25802836D01*
X40750000Y25587164D02*
X40750000Y25802836D01*
X96556359Y18530000D02*
X96863641Y18530000D01*
X96556359Y17770000D02*
X96863641Y17770000D01*
X100990000Y26315000D02*
X100990000Y27425000D01*
X104700000Y26315000D02*
X104700000Y27425000D01*
X99940000Y28015000D02*
X100440000Y28265000D01*
X100440000Y28265000D02*
X99940000Y28515000D01*
X99940000Y28515000D02*
X99940000Y28015000D01*
X100990000Y29105000D02*
X100990000Y30215000D01*
X104700000Y29105000D02*
X104700000Y30215000D01*
X27686359Y61124000D02*
X27993641Y61124000D01*
X27686359Y60364000D02*
X27993641Y60364000D01*
X82470000Y58955000D02*
X83800000Y58955000D01*
X82470000Y57625000D02*
X82470000Y58955000D01*
X82470000Y56355000D02*
X82470000Y51215000D01*
X82470000Y56355000D02*
X85130000Y56355000D01*
X82470000Y51215000D02*
X85130000Y51215000D01*
X85130000Y56355000D02*
X85130000Y51215000D01*
X73774000Y13210000D02*
X73774000Y14540000D01*
X75104000Y13210000D02*
X73774000Y13210000D01*
X76374000Y13210000D02*
X78974000Y13210000D01*
X76374000Y13210000D02*
X76374000Y15870000D01*
X78974000Y13210000D02*
X78974000Y15870000D01*
X76374000Y15870000D02*
X78974000Y15870000D01*
X90465000Y11722500D02*
X91935000Y11722500D01*
X91935000Y11722500D02*
X91935000Y14007500D01*
X90465000Y14007500D02*
X90465000Y11722500D01*
X50970000Y51170000D02*
X50570000Y51170000D01*
X50970000Y51170000D02*
X50970000Y46430000D01*
X47570000Y51170000D02*
X49630000Y51170000D01*
X46230000Y51170000D02*
X46630000Y51170000D01*
X46230000Y51170000D02*
X46230000Y46430000D01*
X50970000Y46430000D02*
X50570000Y46430000D01*
X47570000Y46430000D02*
X49630000Y46430000D01*
X46230000Y46430000D02*
X46630000Y46430000D01*
X87520000Y15853859D02*
X87520000Y16161141D01*
X88280000Y15853859D02*
X88280000Y16161141D01*
X39227436Y39235000D02*
X39681564Y39235000D01*
X39227436Y37765000D02*
X39681564Y37765000D01*
X450000Y200000D02*
X450000Y77200000D01*
X20550000Y200000D02*
X450000Y200000D01*
D11*
X10500000Y7200000D02*
X10500000Y10200000D01*
X9000000Y68700000D02*
X12000000Y68700000D01*
X10500000Y70200000D02*
X10500000Y67200000D01*
D12*
X450000Y77200000D02*
X20550000Y77200000D01*
X20550000Y77200000D02*
X20550000Y200000D01*
X87165000Y11722500D02*
X88635000Y11722500D01*
X88635000Y11722500D02*
X88635000Y14007500D01*
X87165000Y14007500D02*
X87165000Y11722500D01*
X28725000Y37611252D02*
X28725000Y37088748D01*
X27255000Y37611252D02*
X27255000Y37088748D01*
X32109000Y25303641D02*
X32109000Y24996359D01*
X31349000Y25303641D02*
X31349000Y24996359D01*
X69120000Y34387164D02*
X69120000Y34602836D01*
X69840000Y34387164D02*
X69840000Y34602836D01*
X90820000Y15853859D02*
X90820000Y16161141D01*
X91580000Y15853859D02*
X91580000Y16161141D01*
X85200000Y36840000D02*
X85200000Y38790000D01*
X83250000Y25790000D02*
X85200000Y27740000D01*
X83250000Y38790000D02*
X85200000Y38790000D01*
X74150000Y25790000D02*
X72200000Y25790000D01*
X72200000Y27740000D02*
X72200000Y25790000D01*
X72200000Y38790000D02*
X74150000Y38790000D01*
X72200000Y38790000D02*
X72200000Y36840000D01*
X26862742Y24294500D02*
X27337258Y24294500D01*
X26862742Y23249500D02*
X27337258Y23249500D01*
X47420000Y15853859D02*
X47420000Y16161141D01*
X48180000Y15853859D02*
X48180000Y16161141D01*
X41923641Y16885000D02*
X41616359Y16885000D01*
X41923641Y17645000D02*
X41616359Y17645000D01*
X83565000Y11722500D02*
X85035000Y11722500D01*
X85035000Y11722500D02*
X85035000Y14007500D01*
X83565000Y14007500D02*
X83565000Y11722500D01*
X66120000Y19770000D02*
X66120000Y21100000D01*
X67450000Y19770000D02*
X66120000Y19770000D01*
X68720000Y19770000D02*
X71320000Y19770000D01*
X68720000Y19770000D02*
X68720000Y22430000D01*
X71320000Y19770000D02*
X71320000Y22430000D01*
X68720000Y22430000D02*
X71320000Y22430000D01*
X77870000Y58955000D02*
X79200000Y58955000D01*
X77870000Y57625000D02*
X77870000Y58955000D01*
X77870000Y56355000D02*
X77870000Y51215000D01*
X77870000Y56355000D02*
X80530000Y56355000D01*
X77870000Y51215000D02*
X80530000Y51215000D01*
X80530000Y56355000D02*
X80530000Y51215000D01*
X27740000Y63284000D02*
X27740000Y61609000D01*
X27740000Y63284000D02*
X27740000Y63934000D01*
X30860000Y63284000D02*
X30860000Y62634000D01*
X30860000Y63284000D02*
X30860000Y63934000D01*
X47065000Y11722500D02*
X48535000Y11722500D01*
X48535000Y11722500D02*
X48535000Y14007500D01*
X47065000Y14007500D02*
X47065000Y11722500D01*
X33515000Y34412742D02*
X33515000Y34887258D01*
X34560000Y34412742D02*
X34560000Y34887258D01*
X50970000Y30910000D02*
X50570000Y30910000D01*
X50970000Y30910000D02*
X50970000Y26170000D01*
X47570000Y30910000D02*
X49630000Y30910000D01*
X46230000Y30910000D02*
X46630000Y30910000D01*
X46230000Y30910000D02*
X46230000Y26170000D01*
X50970000Y26170000D02*
X50570000Y26170000D01*
X47570000Y26170000D02*
X49630000Y26170000D01*
X46230000Y26170000D02*
X46630000Y26170000D01*
X96572164Y60710000D02*
X96787836Y60710000D01*
X96572164Y59990000D02*
X96787836Y59990000D01*
X27337258Y21725500D02*
X26862742Y21725500D01*
X27337258Y22770500D02*
X26862742Y22770500D01*
X96572164Y17310000D02*
X96787836Y17310000D01*
X96572164Y16590000D02*
X96787836Y16590000D01*
X73270000Y58955000D02*
X74600000Y58955000D01*
X73270000Y57625000D02*
X73270000Y58955000D01*
X73270000Y56355000D02*
X73270000Y51215000D01*
X73270000Y56355000D02*
X75930000Y56355000D01*
X73270000Y51215000D02*
X75930000Y51215000D01*
X75930000Y56355000D02*
X75930000Y51215000D01*
D15*
X39260000Y23235000D02*
G75*
G03*
X39260000Y23235000I-125000J0D01*
G01*
D12*
X39040000Y20128641D02*
X39040000Y19821359D01*
X38280000Y20128641D02*
X38280000Y19821359D01*
X86050000Y43410000D02*
X84650000Y43410000D01*
X84650000Y41090000D02*
X86550000Y41090000D01*
X49727836Y33440000D02*
X49512164Y33440000D01*
X49727836Y34160000D02*
X49512164Y34160000D01*
X27986500Y45489000D02*
X33266500Y45489000D01*
X27986500Y44544000D02*
X27986500Y45489000D01*
X27986500Y41154000D02*
X27986500Y40209000D01*
X27986500Y40209000D02*
X33266500Y40209000D01*
X33266500Y45489000D02*
X33266500Y44544000D01*
X33266500Y40209000D02*
X33266500Y41154000D01*
X102170000Y61130000D02*
X102170000Y61530000D01*
X102170000Y61130000D02*
X97430000Y61130000D01*
X102170000Y64530000D02*
X102170000Y62470000D01*
X102170000Y65870000D02*
X102170000Y65470000D01*
X102170000Y65870000D02*
X97430000Y65870000D01*
X97430000Y61130000D02*
X97430000Y61530000D01*
X97430000Y64530000D02*
X97430000Y62470000D01*
X97430000Y65870000D02*
X97430000Y65470000D01*
X28535000Y19200000D02*
X28535000Y20875000D01*
X28535000Y19200000D02*
X28535000Y18550000D01*
X25415000Y19200000D02*
X25415000Y19850000D01*
X25415000Y19200000D02*
X25415000Y18550000D01*
X87740000Y49372164D02*
X87740000Y49587836D01*
X88460000Y49372164D02*
X88460000Y49587836D01*
X26745000Y37561237D02*
X26745000Y36113763D01*
X24035000Y37561237D02*
X24035000Y36113763D01*
X35280000Y19821359D02*
X35280000Y20128641D01*
X36040000Y19821359D02*
X36040000Y20128641D01*
X93035000Y28637164D02*
X93035000Y28852836D01*
X93755000Y28637164D02*
X93755000Y28852836D01*
X35380000Y17651359D02*
X35380000Y17958641D01*
X36140000Y17651359D02*
X36140000Y17958641D01*
X33515000Y37437742D02*
X33515000Y37912258D01*
X34560000Y37437742D02*
X34560000Y37912258D01*
X32246500Y37836359D02*
X32246500Y38143641D01*
X33006500Y37836359D02*
X33006500Y38143641D01*
X36760000Y37865580D02*
X36760000Y37584420D01*
X35740000Y37865580D02*
X35740000Y37584420D01*
X96556359Y59530000D02*
X96863641Y59530000D01*
X96556359Y58770000D02*
X96863641Y58770000D01*
D11*
X32790000Y12327000D02*
X32790000Y11577000D01*
X32790000Y11577000D02*
X32820000Y11577000D01*
X32820000Y12327000D02*
X32790000Y12327000D01*
X32820000Y11577000D02*
X32820000Y12327000D01*
X32820000Y8327000D02*
X32820000Y8327000D01*
X32820000Y8327000D02*
X32820000Y7150000D01*
X32820000Y7150000D02*
X32820000Y8327000D01*
X32820000Y7150000D02*
X32820000Y7150000D01*
X32820000Y7150000D02*
X32820000Y7150000D01*
X32820000Y7150000D02*
X41760000Y7150000D01*
X41760000Y12577000D02*
X41760000Y12577000D01*
X41760000Y12577000D02*
X41760000Y11577000D01*
X41760000Y11577000D02*
X41760000Y12577000D01*
X41760000Y11577000D02*
X41760000Y11577000D01*
X41760000Y8577000D02*
X41760000Y8577000D01*
X41760000Y8577000D02*
X41760000Y7150000D01*
X41760000Y7150000D02*
X32820000Y7150000D01*
X41760000Y7150000D02*
X41760000Y8577000D01*
X41760000Y7150000D02*
X41760000Y7150000D01*
X41760000Y7150000D02*
X41760000Y7150000D01*
D12*
X64070000Y58955000D02*
X65400000Y58955000D01*
X64070000Y57625000D02*
X64070000Y58955000D01*
X64070000Y56355000D02*
X64070000Y51215000D01*
X64070000Y56355000D02*
X66730000Y56355000D01*
X64070000Y51215000D02*
X66730000Y51215000D01*
X66730000Y56355000D02*
X66730000Y51215000D01*
X41640000Y18928641D02*
X41640000Y18621359D01*
X40880000Y18928641D02*
X40880000Y18621359D01*
X38660000Y17651359D02*
X38660000Y17958641D01*
X39420000Y17651359D02*
X39420000Y17958641D01*
X39323641Y21405000D02*
X39016359Y21405000D01*
X39323641Y22165000D02*
X39016359Y22165000D01*
X40732164Y24665000D02*
X40947836Y24665000D01*
X40732164Y23945000D02*
X40947836Y23945000D01*
X86474000Y61470000D02*
X86474000Y62800000D01*
X87804000Y61470000D02*
X86474000Y61470000D01*
X89074000Y61470000D02*
X91674000Y61470000D01*
X89074000Y61470000D02*
X89074000Y64130000D01*
X91674000Y61470000D02*
X91674000Y64130000D01*
X89074000Y64130000D02*
X91674000Y64130000D01*
D10*
X29226500Y37400000D02*
X32026500Y37400000D01*
X32026500Y37400000D02*
X32026500Y39200000D01*
X32026500Y39200000D02*
X29226500Y39200000D01*
X29226500Y39200000D02*
X29226500Y37400000D01*
D14*
X29426500Y36900000D02*
G75*
G03*
X29426500Y36900000I-100000J0D01*
G01*
D12*
X67970000Y34387164D02*
X67970000Y34602836D01*
X68690000Y34387164D02*
X68690000Y34602836D01*
X64520000Y34387164D02*
X64520000Y34602836D01*
X65240000Y34387164D02*
X65240000Y34602836D01*
%LPC*%
D16*
X43100000Y62800000D03*
D17*
X45640000Y62800000D03*
X48180000Y62800000D03*
X50720000Y62800000D03*
X53260000Y62800000D03*
X55800000Y62800000D03*
X58340000Y62800000D03*
X60880000Y62800000D03*
X63420000Y62800000D03*
X65960000Y62800000D03*
D18*
X89700000Y49000000D03*
X89700000Y46460000D03*
X89700000Y43920000D03*
X89700000Y50270000D03*
X89700000Y47730000D03*
X89700000Y45190000D03*
D19*
X93870000Y52515000D03*
X91870000Y52515000D03*
D20*
X103430000Y52350000D03*
X103430000Y40140000D03*
D19*
X93870000Y39975000D03*
X91870000Y39975000D03*
D21*
X102850000Y48785000D03*
X102850000Y43705000D03*
D22*
X34640000Y21785000D03*
X35660000Y21785000D03*
D23*
X50100000Y42200000D03*
X49080000Y42200000D03*
X50100000Y35000000D03*
X49080000Y35000000D03*
D24*
X32650000Y57823000D03*
X28350000Y57823000D03*
D16*
X52244000Y14540000D03*
D17*
X54784000Y14540000D03*
X57324000Y14540000D03*
X59864000Y14540000D03*
X62404000Y14540000D03*
X64944000Y14540000D03*
X67484000Y14540000D03*
X70024000Y14540000D03*
D25*
X58950000Y34015000D03*
X58950000Y35565000D03*
D16*
X70000000Y57625000D03*
D17*
X70000000Y55085000D03*
X70000000Y52545000D03*
D26*
X54775000Y17300000D03*
X53225000Y17300000D03*
D27*
X50100000Y43400000D03*
X49140000Y43400000D03*
D26*
X54775000Y18800000D03*
X53225000Y18800000D03*
D28*
X80450000Y44130000D03*
X80450000Y44770000D03*
D29*
X70410000Y28260000D03*
X70410000Y27240000D03*
D23*
X95395000Y28265000D03*
X94375000Y28265000D03*
D30*
X32660000Y25660000D03*
X32660000Y24700000D03*
D28*
X83000000Y42900000D03*
X83000000Y43540000D03*
D31*
X96200000Y15350000D03*
X103400000Y15350000D03*
X96200000Y12350000D03*
X103400000Y12350000D03*
D32*
X84300000Y15497500D03*
X84300000Y16517500D03*
D33*
X42210000Y25215000D03*
X42210000Y26175000D03*
X67180000Y34015000D03*
X67180000Y34975000D03*
X66030000Y34015000D03*
X66030000Y34975000D03*
X87130000Y49000000D03*
X87130000Y49960000D03*
X96395000Y28265000D03*
X96395000Y29225000D03*
X40390000Y25215000D03*
X40390000Y26175000D03*
D22*
X96200000Y18150000D03*
X97220000Y18150000D03*
D34*
X102900000Y28265000D03*
D35*
X102700000Y25440000D03*
X102700000Y31090000D03*
D28*
X83000000Y40960000D03*
X83000000Y41600000D03*
D22*
X27330000Y60744000D03*
X28350000Y60744000D03*
D16*
X83800000Y57625000D03*
D17*
X83800000Y55085000D03*
X83800000Y52545000D03*
D16*
X75104000Y14540000D03*
D17*
X77644000Y14540000D03*
D36*
X91200000Y12420000D03*
X91200000Y13995000D03*
D37*
X50100000Y52400000D03*
X50100000Y45200000D03*
X47100000Y52400000D03*
X47100000Y45200000D03*
D32*
X87900000Y15497500D03*
X87900000Y16517500D03*
D38*
X38542000Y38500000D03*
X40367000Y38500000D03*
D39*
X18500000Y11080000D03*
X2500000Y66320000D03*
D40*
X18500000Y74700000D03*
D41*
X10500000Y74490000D03*
X10500000Y2910000D03*
D36*
X87900000Y12420000D03*
X87900000Y13995000D03*
D42*
X27990000Y38300000D03*
X27990000Y36400000D03*
D29*
X31729000Y25660000D03*
X31729000Y24640000D03*
D33*
X69480000Y34015000D03*
X69480000Y34975000D03*
D32*
X91200000Y15497500D03*
X91200000Y16517500D03*
D43*
X84900000Y28265000D03*
X84900000Y29415000D03*
X84900000Y30565000D03*
X84900000Y31715000D03*
X84900000Y32865000D03*
X84900000Y34015000D03*
X84900000Y35165000D03*
X84900000Y36315000D03*
D44*
X82725000Y38490000D03*
X81575000Y38490000D03*
X80425000Y38490000D03*
X79275000Y38490000D03*
X78125000Y38490000D03*
X76975000Y38490000D03*
X75825000Y38490000D03*
X74675000Y38490000D03*
D43*
X72500000Y36315000D03*
X72500000Y35165000D03*
X72500000Y34015000D03*
X72500000Y32865000D03*
X72500000Y31715000D03*
X72500000Y30565000D03*
X72500000Y29415000D03*
X72500000Y28265000D03*
D44*
X74675000Y26090000D03*
X75825000Y26090000D03*
X76975000Y26090000D03*
X78125000Y26090000D03*
X79275000Y26090000D03*
X80425000Y26090000D03*
X81575000Y26090000D03*
X82725000Y26090000D03*
D45*
X81700000Y29290000D03*
D46*
X81700000Y32290000D03*
X81700000Y35290000D03*
X78700000Y29290000D03*
X78700000Y32290000D03*
X78700000Y35290000D03*
X75700000Y29290000D03*
X75700000Y32290000D03*
X75700000Y35290000D03*
D47*
X26275000Y23772000D03*
X27925000Y23772000D03*
D32*
X47800000Y15497500D03*
X47800000Y16517500D03*
D23*
X42280000Y17265000D03*
X41260000Y17265000D03*
D36*
X84300000Y12420000D03*
X84300000Y13995000D03*
D16*
X67450000Y21100000D03*
D17*
X69990000Y21100000D03*
D16*
X79200000Y57625000D03*
D17*
X79200000Y55085000D03*
X79200000Y52545000D03*
D48*
X28350000Y62346500D03*
X30250000Y62346500D03*
X29300000Y64221500D03*
D36*
X47800000Y12420000D03*
X47800000Y13995000D03*
D49*
X34037500Y33825000D03*
X34037500Y35475000D03*
D37*
X50100000Y32140000D03*
X50100000Y24940000D03*
X47100000Y32140000D03*
X47100000Y24940000D03*
D50*
X96200000Y60350000D03*
X97160000Y60350000D03*
D51*
X27925000Y22248000D03*
X26275000Y22248000D03*
D50*
X96200000Y16950000D03*
X97160000Y16950000D03*
D16*
X74600000Y57625000D03*
D17*
X74600000Y55085000D03*
X74600000Y52545000D03*
D52*
X38710000Y23860000D03*
X38710000Y24310000D03*
X38710000Y24760000D03*
X38710000Y25210000D03*
X38710000Y25660000D03*
X38710000Y26110000D03*
X35810000Y26110000D03*
X35810000Y25660000D03*
X35810000Y25210000D03*
X35810000Y24760000D03*
X35810000Y24310000D03*
X35810000Y23860000D03*
D53*
X37260000Y24985000D03*
D29*
X38660000Y20485000D03*
X38660000Y19465000D03*
D54*
X86300000Y41600000D03*
X86300000Y42250000D03*
X86300000Y42900000D03*
X84400000Y42900000D03*
X84400000Y42250000D03*
X84400000Y41600000D03*
D27*
X50100000Y33800000D03*
X49140000Y33800000D03*
D55*
X28200000Y42849000D03*
X33053000Y42849000D03*
D31*
X103400000Y62000000D03*
X96200000Y62000000D03*
X103400000Y65000000D03*
X96200000Y65000000D03*
D56*
X27925000Y20137500D03*
X26025000Y20137500D03*
X26975000Y18262500D03*
D33*
X88100000Y49000000D03*
X88100000Y49960000D03*
D57*
X25390000Y38300000D03*
X25390000Y35375000D03*
D32*
X35660000Y19465000D03*
X35660000Y20485000D03*
D33*
X93395000Y28265000D03*
X93395000Y29225000D03*
D32*
X35760000Y17295000D03*
X35760000Y18315000D03*
D49*
X34037500Y36850000D03*
X34037500Y38500000D03*
D32*
X32626500Y37480000D03*
X32626500Y38500000D03*
D58*
X36250000Y38500000D03*
X36250000Y36950000D03*
D22*
X96200000Y59150000D03*
X97220000Y59150000D03*
D59*
X34400000Y13430000D03*
X40180000Y13430000D03*
D60*
X33940000Y14505000D03*
X34740000Y14505000D03*
X36040000Y14505000D03*
X37040000Y14505000D03*
X37540000Y14505000D03*
X38540000Y14505000D03*
X39840000Y14505000D03*
X40640000Y14505000D03*
X40340000Y14505000D03*
X39540000Y14505000D03*
X39040000Y14505000D03*
X38040000Y14505000D03*
X36540000Y14505000D03*
X35540000Y14505000D03*
X35040000Y14505000D03*
X34240000Y14505000D03*
D61*
X32180000Y10000000D03*
X42400000Y10000000D03*
X32180000Y13930000D03*
X42400000Y13930000D03*
D16*
X65400000Y57625000D03*
D17*
X65400000Y55085000D03*
X65400000Y52545000D03*
D29*
X41260000Y19285000D03*
X41260000Y18265000D03*
D32*
X39040000Y17295000D03*
X39040000Y18315000D03*
D23*
X39680000Y21785000D03*
X38660000Y21785000D03*
D50*
X40360000Y24305000D03*
X41320000Y24305000D03*
D16*
X87804000Y62800000D03*
D17*
X90344000Y62800000D03*
D62*
X29826500Y37900000D03*
X29826500Y38300000D03*
X29826500Y38700000D03*
X30226500Y37900000D03*
X30226500Y38300000D03*
X30226500Y38700000D03*
X30626500Y37900000D03*
X30626500Y38300000D03*
X30626500Y38700000D03*
X31026500Y37900000D03*
X31026500Y38300000D03*
X31026500Y38700000D03*
X31426500Y37900000D03*
X31426500Y38300000D03*
X31426500Y38700000D03*
D33*
X68330000Y34015000D03*
X68330000Y34975000D03*
X64880000Y34015000D03*
X64880000Y34975000D03*
%LPD*%
M02*
