G04 #@! TF.GenerationSoftware,KiCad,Pcbnew,7.0.8*
G04 #@! TF.CreationDate,2024-03-21T14:37:43-03:00*
G04 #@! TF.ProjectId,Demo PPI NB V2,44656d6f-2050-4504-9920-4e422056322e,rev?*
G04 #@! TF.SameCoordinates,PX25ab8e0PY6dc4960*
G04 #@! TF.FileFunction,Soldermask,Top*
G04 #@! TF.FilePolarity,Negative*
%FSLAX46Y46*%
G04 Gerber Fmt 4.6, Leading zero omitted, Abs format (unit mm)*
G04 Created by KiCad (PCBNEW 7.0.8) date 2024-03-21 14:37:43*
%MOMM*%
%LPD*%
G01*
G04 APERTURE LIST*
G04 Aperture macros list*
%AMRoundRect*
0 Rectangle with rounded corners*
0 $1 Rounding radius*
0 $2 $3 $4 $5 $6 $7 $8 $9 X,Y pos of 4 corners*
0 Add a 4 corners polygon primitive as box body*
4,1,4,$2,$3,$4,$5,$6,$7,$8,$9,$2,$3,0*
0 Add four circle primitives for the rounded corners*
1,1,$1+$1,$2,$3*
1,1,$1+$1,$4,$5*
1,1,$1+$1,$6,$7*
1,1,$1+$1,$8,$9*
0 Add four rect primitives between the rounded corners*
20,1,$1+$1,$2,$3,$4,$5,0*
20,1,$1+$1,$4,$5,$6,$7,0*
20,1,$1+$1,$6,$7,$8,$9,0*
20,1,$1+$1,$8,$9,$2,$3,0*%
%AMFreePoly0*
4,1,6,1.250000,-1.250000,-1.250000,-1.250000,-1.250000,0.500000,-0.500000,1.250000,1.250000,1.250000,1.250000,-1.250000,1.250000,-1.250000,$1*%
G04 Aperture macros list end*
%ADD10R,1.700000X1.700000*%
%ADD11O,1.700000X1.700000*%
%ADD12R,1.150000X0.650000*%
%ADD13R,1.300000X0.450000*%
%ADD14R,1.700000X1.400000*%
%ADD15R,0.800000X0.540000*%
%ADD16RoundRect,0.135000X-0.135000X-0.185000X0.135000X-0.185000X0.135000X0.185000X-0.135000X0.185000X0*%
%ADD17RoundRect,0.135000X0.135000X0.185000X-0.135000X0.185000X-0.135000X-0.185000X0.135000X-0.185000X0*%
%ADD18RoundRect,0.250000X1.000000X0.900000X-1.000000X0.900000X-1.000000X-0.900000X1.000000X-0.900000X0*%
%ADD19RoundRect,0.225000X0.250000X-0.225000X0.250000X0.225000X-0.250000X0.225000X-0.250000X-0.225000X0*%
%ADD20RoundRect,0.225000X0.225000X0.250000X-0.225000X0.250000X-0.225000X-0.250000X0.225000X-0.250000X0*%
%ADD21RoundRect,0.140000X0.140000X0.170000X-0.140000X0.170000X-0.140000X-0.170000X0.140000X-0.170000X0*%
%ADD22RoundRect,0.100000X0.100000X-0.130000X0.100000X0.130000X-0.100000X0.130000X-0.100000X-0.130000X0*%
%ADD23RoundRect,0.135000X-0.185000X0.135000X-0.185000X-0.135000X0.185000X-0.135000X0.185000X0.135000X0*%
%ADD24RoundRect,0.140000X-0.170000X0.140000X-0.170000X-0.140000X0.170000X-0.140000X0.170000X0.140000X0*%
%ADD25R,1.600000X1.400000*%
%ADD26RoundRect,0.135000X0.185000X-0.135000X0.185000X0.135000X-0.185000X0.135000X-0.185000X-0.135000X0*%
%ADD27RoundRect,0.140000X0.170000X-0.140000X0.170000X0.140000X-0.170000X0.140000X-0.170000X-0.140000X0*%
%ADD28R,3.600000X1.270000*%
%ADD29R,4.200000X1.750000*%
%ADD30RoundRect,0.218750X0.256250X-0.218750X0.256250X0.218750X-0.256250X0.218750X-0.256250X-0.218750X0*%
%ADD31R,1.400000X1.600000*%
%ADD32RoundRect,0.250000X-0.262500X-0.450000X0.262500X-0.450000X0.262500X0.450000X-0.262500X0.450000X0*%
%ADD33C,3.300000*%
%ADD34C,2.500000*%
%ADD35C,3.500000*%
%ADD36RoundRect,0.250000X-0.475000X0.250000X-0.475000X-0.250000X0.475000X-0.250000X0.475000X0.250000X0*%
%ADD37R,2.400000X0.750000*%
%ADD38R,0.750000X2.400000*%
%ADD39FreePoly0,180.000000*%
%ADD40R,2.500000X2.500000*%
%ADD41RoundRect,0.200000X-0.200000X-0.275000X0.200000X-0.275000X0.200000X0.275000X-0.200000X0.275000X0*%
%ADD42RoundRect,0.150000X0.150000X-0.587500X0.150000X0.587500X-0.150000X0.587500X-0.150000X-0.587500X0*%
%ADD43RoundRect,0.200000X0.275000X-0.200000X0.275000X0.200000X-0.275000X0.200000X-0.275000X-0.200000X0*%
%ADD44RoundRect,0.140000X-0.140000X-0.170000X0.140000X-0.170000X0.140000X0.170000X-0.140000X0.170000X0*%
%ADD45RoundRect,0.200000X0.200000X0.275000X-0.200000X0.275000X-0.200000X-0.275000X0.200000X-0.275000X0*%
%ADD46R,0.850000X0.250000*%
%ADD47R,1.650000X2.550000*%
%ADD48R,0.650000X0.400000*%
%ADD49R,1.903000X2.790000*%
%ADD50RoundRect,0.150000X-0.150000X0.587500X-0.150000X-0.587500X0.150000X-0.587500X0.150000X0.587500X0*%
%ADD51RoundRect,0.250000X-1.075000X0.312500X-1.075000X-0.312500X1.075000X-0.312500X1.075000X0.312500X0*%
%ADD52RoundRect,0.225000X-0.250000X0.225000X-0.250000X-0.225000X0.250000X-0.225000X0.250000X0.225000X0*%
%ADD53C,0.001000*%
%ADD54R,0.300000X1.150000*%
%ADD55R,2.180000X2.000000*%
%ADD56C,0.230000*%
G04 APERTURE END LIST*
D10*
X43100000Y62800000D03*
D11*
X45640000Y62800000D03*
X48180000Y62800000D03*
X50720000Y62800000D03*
X53260000Y62800000D03*
X55800000Y62800000D03*
X58340000Y62800000D03*
X60880000Y62800000D03*
X63420000Y62800000D03*
X65960000Y62800000D03*
D12*
X89700000Y49000000D03*
X89700000Y46460000D03*
X89700000Y43920000D03*
X89700000Y50270000D03*
X89700000Y47730000D03*
X89700000Y45190000D03*
D13*
X93870000Y52515000D03*
X91870000Y52515000D03*
D14*
X103430000Y52350000D03*
X103430000Y40140000D03*
D13*
X93870000Y39975000D03*
X91870000Y39975000D03*
D15*
X102850000Y48785000D03*
X102850000Y43705000D03*
D16*
X34640000Y21785000D03*
X35660000Y21785000D03*
D17*
X50100000Y42200000D03*
X49080000Y42200000D03*
X50100000Y35000000D03*
X49080000Y35000000D03*
D18*
X32650000Y57823000D03*
X28350000Y57823000D03*
D10*
X52244000Y14540000D03*
D11*
X54784000Y14540000D03*
X57324000Y14540000D03*
X59864000Y14540000D03*
X62404000Y14540000D03*
X64944000Y14540000D03*
X67484000Y14540000D03*
X70024000Y14540000D03*
D19*
X58950000Y34015000D03*
X58950000Y35565000D03*
D10*
X70000000Y57625000D03*
D11*
X70000000Y55085000D03*
X70000000Y52545000D03*
D20*
X54775000Y17300000D03*
X53225000Y17300000D03*
D21*
X50100000Y43400000D03*
X49140000Y43400000D03*
D20*
X54775000Y18800000D03*
X53225000Y18800000D03*
D22*
X80450000Y44130000D03*
X80450000Y44770000D03*
D23*
X70410000Y28260000D03*
X70410000Y27240000D03*
D17*
X95395000Y28265000D03*
X94375000Y28265000D03*
D24*
X32660000Y25660000D03*
X32660000Y24700000D03*
D22*
X83000000Y42900000D03*
X83000000Y43540000D03*
D25*
X96200000Y15350000D03*
X103400000Y15350000D03*
X96200000Y12350000D03*
X103400000Y12350000D03*
D26*
X84300000Y15497500D03*
X84300000Y16517500D03*
D27*
X42210000Y25215000D03*
X42210000Y26175000D03*
X67180000Y34015000D03*
X67180000Y34975000D03*
X66030000Y34015000D03*
X66030000Y34975000D03*
X87130000Y49000000D03*
X87130000Y49960000D03*
X96395000Y28265000D03*
X96395000Y29225000D03*
X40390000Y25215000D03*
X40390000Y26175000D03*
D16*
X96200000Y18150000D03*
X97220000Y18150000D03*
D28*
X102900000Y28265000D03*
D29*
X102700000Y25440000D03*
X102700000Y31090000D03*
D22*
X83000000Y40960000D03*
X83000000Y41600000D03*
D16*
X27330000Y60744000D03*
X28350000Y60744000D03*
D10*
X83800000Y57625000D03*
D11*
X83800000Y55085000D03*
X83800000Y52545000D03*
D10*
X75104000Y14540000D03*
D11*
X77644000Y14540000D03*
D30*
X91200000Y12420000D03*
X91200000Y13995000D03*
D31*
X50100000Y52400000D03*
X50100000Y45200000D03*
X47100000Y52400000D03*
X47100000Y45200000D03*
D26*
X87900000Y15497500D03*
X87900000Y16517500D03*
D32*
X38542000Y38500000D03*
X40367000Y38500000D03*
D33*
X18500000Y11080000D03*
X2500000Y66320000D03*
D34*
X18500000Y74700000D03*
D35*
X10500000Y74490000D03*
X10500000Y2910000D03*
D30*
X87900000Y12420000D03*
X87900000Y13995000D03*
D36*
X27990000Y38300000D03*
X27990000Y36400000D03*
D23*
X31729000Y25660000D03*
X31729000Y24640000D03*
D27*
X69480000Y34015000D03*
X69480000Y34975000D03*
D26*
X91200000Y15497500D03*
X91200000Y16517500D03*
D37*
X84900000Y28265000D03*
X84900000Y29415000D03*
X84900000Y30565000D03*
X84900000Y31715000D03*
X84900000Y32865000D03*
X84900000Y34015000D03*
X84900000Y35165000D03*
X84900000Y36315000D03*
D38*
X82725000Y38490000D03*
X81575000Y38490000D03*
X80425000Y38490000D03*
X79275000Y38490000D03*
X78125000Y38490000D03*
X76975000Y38490000D03*
X75825000Y38490000D03*
X74675000Y38490000D03*
D37*
X72500000Y36315000D03*
X72500000Y35165000D03*
X72500000Y34015000D03*
X72500000Y32865000D03*
X72500000Y31715000D03*
X72500000Y30565000D03*
X72500000Y29415000D03*
X72500000Y28265000D03*
D38*
X74675000Y26090000D03*
X75825000Y26090000D03*
X76975000Y26090000D03*
X78125000Y26090000D03*
X79275000Y26090000D03*
X80425000Y26090000D03*
X81575000Y26090000D03*
X82725000Y26090000D03*
D39*
X81700000Y29290000D03*
D40*
X81700000Y32290000D03*
X81700000Y35290000D03*
X78700000Y29290000D03*
X78700000Y32290000D03*
X78700000Y35290000D03*
X75700000Y29290000D03*
X75700000Y32290000D03*
X75700000Y35290000D03*
D41*
X26275000Y23772000D03*
X27925000Y23772000D03*
D26*
X47800000Y15497500D03*
X47800000Y16517500D03*
D17*
X42280000Y17265000D03*
X41260000Y17265000D03*
D30*
X84300000Y12420000D03*
X84300000Y13995000D03*
D10*
X67450000Y21100000D03*
D11*
X69990000Y21100000D03*
D10*
X79200000Y57625000D03*
D11*
X79200000Y55085000D03*
X79200000Y52545000D03*
D42*
X28350000Y62346500D03*
X30250000Y62346500D03*
X29300000Y64221500D03*
D30*
X47800000Y12420000D03*
X47800000Y13995000D03*
D43*
X34037500Y33825000D03*
X34037500Y35475000D03*
D31*
X50100000Y32140000D03*
X50100000Y24940000D03*
X47100000Y32140000D03*
X47100000Y24940000D03*
D44*
X96200000Y60350000D03*
X97160000Y60350000D03*
D45*
X27925000Y22248000D03*
X26275000Y22248000D03*
D44*
X96200000Y16950000D03*
X97160000Y16950000D03*
D10*
X74600000Y57625000D03*
D11*
X74600000Y55085000D03*
X74600000Y52545000D03*
D46*
X38710000Y23860000D03*
X38710000Y24310000D03*
X38710000Y24760000D03*
X38710000Y25210000D03*
X38710000Y25660000D03*
X38710000Y26110000D03*
X35810000Y26110000D03*
X35810000Y25660000D03*
X35810000Y25210000D03*
X35810000Y24760000D03*
X35810000Y24310000D03*
X35810000Y23860000D03*
D47*
X37260000Y24985000D03*
D23*
X38660000Y20485000D03*
X38660000Y19465000D03*
D48*
X86300000Y41600000D03*
X86300000Y42250000D03*
X86300000Y42900000D03*
X84400000Y42900000D03*
X84400000Y42250000D03*
X84400000Y41600000D03*
D21*
X50100000Y33800000D03*
X49140000Y33800000D03*
D49*
X28200000Y42849000D03*
X33053000Y42849000D03*
D25*
X103400000Y62000000D03*
X96200000Y62000000D03*
X103400000Y65000000D03*
X96200000Y65000000D03*
D50*
X27925000Y20137500D03*
X26025000Y20137500D03*
X26975000Y18262500D03*
D27*
X88100000Y49000000D03*
X88100000Y49960000D03*
D51*
X25390000Y38300000D03*
X25390000Y35375000D03*
D26*
X35660000Y19465000D03*
X35660000Y20485000D03*
D27*
X93395000Y28265000D03*
X93395000Y29225000D03*
D26*
X35760000Y17295000D03*
X35760000Y18315000D03*
D43*
X34037500Y36850000D03*
X34037500Y38500000D03*
D26*
X32626500Y37480000D03*
X32626500Y38500000D03*
D52*
X36250000Y38500000D03*
X36250000Y36950000D03*
D16*
X96200000Y59150000D03*
X97220000Y59150000D03*
D53*
X34400000Y13430000D03*
X40180000Y13430000D03*
D54*
X33940000Y14505000D03*
X34740000Y14505000D03*
X36040000Y14505000D03*
X37040000Y14505000D03*
X37540000Y14505000D03*
X38540000Y14505000D03*
X39840000Y14505000D03*
X40640000Y14505000D03*
X40340000Y14505000D03*
X39540000Y14505000D03*
X39040000Y14505000D03*
X38040000Y14505000D03*
X36540000Y14505000D03*
X35540000Y14505000D03*
X35040000Y14505000D03*
X34240000Y14505000D03*
D55*
X32180000Y10000000D03*
X42400000Y10000000D03*
X32180000Y13930000D03*
X42400000Y13930000D03*
D10*
X65400000Y57625000D03*
D11*
X65400000Y55085000D03*
X65400000Y52545000D03*
D23*
X41260000Y19285000D03*
X41260000Y18265000D03*
D26*
X39040000Y17295000D03*
X39040000Y18315000D03*
D17*
X39680000Y21785000D03*
X38660000Y21785000D03*
D44*
X40360000Y24305000D03*
X41320000Y24305000D03*
D10*
X87804000Y62800000D03*
D11*
X90344000Y62800000D03*
D56*
X29826500Y37900000D03*
X29826500Y38300000D03*
X29826500Y38700000D03*
X30226500Y37900000D03*
X30226500Y38300000D03*
X30226500Y38700000D03*
X30626500Y37900000D03*
X30626500Y38300000D03*
X30626500Y38700000D03*
X31026500Y37900000D03*
X31026500Y38300000D03*
X31026500Y38700000D03*
X31426500Y37900000D03*
X31426500Y38300000D03*
X31426500Y38700000D03*
D27*
X68330000Y34015000D03*
X68330000Y34975000D03*
X64880000Y34015000D03*
X64880000Y34975000D03*
M02*
