G04 #@! TF.GenerationSoftware,KiCad,Pcbnew,7.0.8*
G04 #@! TF.CreationDate,2024-03-21T14:37:43-03:00*
G04 #@! TF.ProjectId,Demo PPI NB V2,44656d6f-2050-4504-9920-4e422056322e,rev?*
G04 #@! TF.SameCoordinates,PX25ab8e0PY6dc4960*
G04 #@! TF.FileFunction,Copper,L2,Inr*
G04 #@! TF.FilePolarity,Positive*
%FSLAX46Y46*%
G04 Gerber Fmt 4.6, Leading zero omitted, Abs format (unit mm)*
G04 Created by KiCad (PCBNEW 7.0.8) date 2024-03-21 14:37:43*
%MOMM*%
%LPD*%
G01*
G04 APERTURE LIST*
G04 #@! TA.AperFunction,ComponentPad*
%ADD10R,1.700000X1.700000*%
G04 #@! TD*
G04 #@! TA.AperFunction,ComponentPad*
%ADD11O,1.700000X1.700000*%
G04 #@! TD*
G04 #@! TA.AperFunction,ComponentPad*
%ADD12C,3.500000*%
G04 #@! TD*
G04 #@! TA.AperFunction,ViaPad*
%ADD13C,6.000000*%
G04 #@! TD*
G04 #@! TA.AperFunction,ViaPad*
%ADD14C,0.500000*%
G04 #@! TD*
G04 #@! TA.AperFunction,ViaPad*
%ADD15C,0.350000*%
G04 #@! TD*
G04 #@! TA.AperFunction,ViaPad*
%ADD16C,0.600000*%
G04 #@! TD*
G04 #@! TA.AperFunction,ViaPad*
%ADD17C,1.000000*%
G04 #@! TD*
G04 #@! TA.AperFunction,ViaPad*
%ADD18C,1.500000*%
G04 #@! TD*
G04 #@! TA.AperFunction,Conductor*
%ADD19C,0.350000*%
G04 #@! TD*
G04 #@! TA.AperFunction,Conductor*
%ADD20C,0.250000*%
G04 #@! TD*
G04 APERTURE END LIST*
D10*
X43100000Y62800000D03*
D11*
X45640000Y62800000D03*
X48180000Y62800000D03*
X50720000Y62800000D03*
X53260000Y62800000D03*
X55800000Y62800000D03*
X58340000Y62800000D03*
X60880000Y62800000D03*
X63420000Y62800000D03*
X65960000Y62800000D03*
D10*
X52244000Y14540000D03*
D11*
X54784000Y14540000D03*
X57324000Y14540000D03*
X59864000Y14540000D03*
X62404000Y14540000D03*
X64944000Y14540000D03*
X67484000Y14540000D03*
X70024000Y14540000D03*
D10*
X70000000Y57625000D03*
D11*
X70000000Y55085000D03*
X70000000Y52545000D03*
D10*
X83800000Y57625000D03*
D11*
X83800000Y55085000D03*
X83800000Y52545000D03*
D10*
X75104000Y14540000D03*
D11*
X77644000Y14540000D03*
D12*
X10500000Y74490000D03*
X10500000Y2910000D03*
D10*
X67450000Y21100000D03*
D11*
X69990000Y21100000D03*
D10*
X79200000Y57625000D03*
D11*
X79200000Y55085000D03*
X79200000Y52545000D03*
D10*
X74600000Y57625000D03*
D11*
X74600000Y55085000D03*
X74600000Y52545000D03*
D10*
X65400000Y57625000D03*
D11*
X65400000Y55085000D03*
X65400000Y52545000D03*
D10*
X87804000Y62800000D03*
D11*
X90344000Y62800000D03*
D13*
X59450000Y53350000D03*
X101750000Y20200000D03*
X101750000Y57150000D03*
X39000000Y31700000D03*
X35450000Y64350000D03*
X24950000Y10850000D03*
D14*
X94550000Y39300000D03*
X103450000Y53500000D03*
X61436136Y58890026D03*
X43000000Y17250000D03*
X75300000Y45900000D03*
X91850000Y53250000D03*
X39750000Y35350000D03*
X85350000Y57550000D03*
X86600000Y29500000D03*
X82400000Y49400000D03*
X74750000Y36250000D03*
X83850000Y50450000D03*
X90650000Y27650000D03*
D15*
X30400000Y37100000D03*
D14*
X77550000Y18450000D03*
X101850000Y65050000D03*
X68850000Y23250000D03*
X42400000Y21450000D03*
X81650000Y63000000D03*
X97900000Y16950000D03*
X39600000Y23500000D03*
X70609782Y45899291D03*
X86650000Y27650000D03*
X30650000Y10000000D03*
X34050000Y32900000D03*
X34450000Y26450000D03*
X100225000Y28900000D03*
X40390377Y26897565D03*
X86350000Y48200000D03*
X58100000Y24250000D03*
X91200000Y11450000D03*
X87400000Y32250000D03*
X88800000Y29900000D03*
X95400000Y19100000D03*
X25000000Y20150000D03*
X43950000Y10750000D03*
X88100000Y50750000D03*
X35050000Y30650000D03*
X34150000Y15500000D03*
X41700000Y60250000D03*
X84300000Y11450000D03*
X43650000Y23300000D03*
X102000000Y12350000D03*
X47100000Y50800000D03*
X81650000Y29350000D03*
X94800000Y29200000D03*
X82300000Y43550000D03*
X92675000Y27500000D03*
X40400000Y21800000D03*
X93650000Y27500000D03*
X47100000Y46750000D03*
X88000000Y42250000D03*
X80650000Y16700000D03*
X103450000Y39000000D03*
X82800000Y16700000D03*
X87750000Y28900000D03*
X80700000Y13300000D03*
X76100000Y57550000D03*
X97250000Y27600000D03*
X39500000Y64150000D03*
X35000000Y18300000D03*
X62250000Y41800000D03*
X89675000Y27650000D03*
X74500000Y20900000D03*
X78350000Y23600000D03*
X73250000Y15200000D03*
X74500000Y17200000D03*
X67350000Y35850000D03*
X88650000Y19350000D03*
X66600000Y32900000D03*
X52250000Y19600000D03*
X58900000Y32800000D03*
X88600000Y47250000D03*
X71650000Y57550000D03*
X31700000Y64100000D03*
X36250000Y35950000D03*
X85050000Y17850000D03*
X89650000Y28900000D03*
X80800000Y33200000D03*
X87150000Y50700000D03*
X97900000Y60350000D03*
X99425000Y27650000D03*
X69450000Y35750000D03*
X78100000Y43350000D03*
X93800000Y53200000D03*
X87700000Y45550000D03*
X25400000Y34300000D03*
X83600000Y40900000D03*
X61450000Y56600000D03*
X97095000Y29855000D03*
X52250000Y17850000D03*
X87900000Y11450000D03*
X80450000Y23600000D03*
X67850000Y63850000D03*
X89100000Y64950000D03*
X92650000Y29200000D03*
X99550000Y23400000D03*
X87775000Y27650000D03*
X30650000Y14300000D03*
X80300000Y48400000D03*
X95550000Y29200000D03*
X91900000Y20700000D03*
X56250000Y17850000D03*
X69650000Y27250000D03*
X60050000Y17300000D03*
X78100000Y48400000D03*
X51050000Y10950000D03*
X75900000Y50050000D03*
X64850000Y35750000D03*
X90625000Y28900000D03*
X23750000Y39500000D03*
X98750000Y18150000D03*
X73800000Y24850000D03*
X76550000Y28450000D03*
X48400000Y41400000D03*
X21750000Y8500000D03*
X67750000Y57550000D03*
X80900000Y42150000D03*
X47800000Y11400000D03*
X37350000Y16150000D03*
X95550000Y27500000D03*
X98600000Y28900000D03*
X69150000Y50750000D03*
X68350000Y35750000D03*
X39800000Y18300000D03*
X86625000Y28900000D03*
X47850000Y17900000D03*
X91150000Y39300000D03*
X70850000Y66100000D03*
X82600000Y36200000D03*
X94150000Y29200000D03*
X61200000Y23500000D03*
X25350000Y22250000D03*
X47100000Y26600000D03*
X97900000Y65000000D03*
X24800000Y14750000D03*
X56550000Y31750000D03*
X91625000Y28900000D03*
X62400000Y23500000D03*
X90200000Y36050000D03*
X59900000Y35600000D03*
X33400000Y24700000D03*
X80950000Y45500000D03*
X77550000Y19700000D03*
X96950000Y55000000D03*
X80400000Y51450000D03*
X63850000Y24350000D03*
X80650000Y57550000D03*
X62200000Y18150000D03*
X88675000Y27650000D03*
X44100000Y25950000D03*
X93425000Y29975000D03*
X73329923Y48489392D03*
X53100000Y33900000D03*
X100225000Y27650000D03*
X82700000Y24450000D03*
X90900000Y50500000D03*
X68800000Y30600000D03*
X44400000Y60250000D03*
X56550000Y51300000D03*
X89200000Y58350000D03*
X89100000Y37150000D03*
X77850000Y17050000D03*
X48400000Y35800000D03*
X42250000Y26900000D03*
X94650000Y27500000D03*
X25600000Y24900000D03*
X65250000Y39000000D03*
X28000000Y35350000D03*
X97750000Y12350000D03*
X99425000Y28900000D03*
X40500000Y15500000D03*
X49150000Y12950000D03*
X88650000Y28900000D03*
X77600000Y61950000D03*
X37250000Y27050000D03*
X87400000Y33400000D03*
X78100000Y49800000D03*
X63900000Y50750000D03*
X91200000Y35000000D03*
X58600000Y26400000D03*
X51950000Y45700000D03*
X53300000Y39750000D03*
X26550000Y60750000D03*
X78100000Y45900000D03*
X48350000Y33800000D03*
X34550000Y24000000D03*
X91650000Y27650000D03*
X34650000Y21000000D03*
X48400000Y43400000D03*
X98600000Y27650000D03*
X62100000Y61000000D03*
X30950000Y23800000D03*
X47150000Y30500000D03*
X85200000Y40800000D03*
X97245000Y28900000D03*
X92850000Y44550000D03*
X43950000Y13900000D03*
X71250000Y49650000D03*
X74500000Y18450000D03*
X104250000Y60250000D03*
X78100000Y40850000D03*
X59800000Y24350000D03*
X82250000Y40900000D03*
X66400000Y44400000D03*
X74500000Y19700000D03*
D16*
X86730000Y31715000D03*
X58500000Y25450000D03*
X25250000Y23772000D03*
D14*
X49080000Y35750000D03*
D16*
X72550000Y14600000D03*
X97970000Y18150000D03*
D14*
X47800000Y17220000D03*
D16*
X97970000Y59150000D03*
D14*
X49080000Y41450000D03*
D16*
X35660000Y22586000D03*
X38710000Y22906000D03*
X31729000Y23886000D03*
X40360000Y22906000D03*
D15*
X33299000Y25660000D03*
X39569000Y24760000D03*
D16*
X88540000Y42900000D03*
X88590000Y46460000D03*
X57324000Y31715000D03*
X57324000Y24264000D03*
X51450000Y45040000D03*
X88590000Y45190000D03*
X84400000Y41000000D03*
D17*
X43199000Y25215000D03*
X26300000Y57823000D03*
D16*
X96200000Y18950000D03*
X96200000Y54600000D03*
D18*
X22560000Y38300000D03*
D16*
X69600000Y30600000D03*
X89380000Y36315000D03*
X90380000Y35165000D03*
X67450000Y32865000D03*
X78125000Y24420000D03*
X74675000Y24420000D03*
X80200000Y47520000D03*
X86730000Y32865000D03*
X73800000Y17800000D03*
X84300000Y17800000D03*
X60550000Y24350000D03*
X60550000Y37950000D03*
X62900000Y41150000D03*
X81600000Y49120000D03*
X86730000Y34015000D03*
X87900000Y19050000D03*
X63742893Y40307107D03*
X61800000Y37950000D03*
X73800000Y19050000D03*
X61800000Y24350000D03*
X83000000Y50420000D03*
X88380000Y30565000D03*
X73850000Y20300000D03*
X91200000Y20300000D03*
X63050000Y24350000D03*
X63050000Y37950000D03*
X64600000Y39500000D03*
X69950000Y45100000D03*
X74600000Y45100000D03*
X74675000Y40600000D03*
X80425000Y24420000D03*
X87130000Y48240000D03*
X87280000Y41600000D03*
D15*
X34959000Y24535000D03*
D16*
X49050000Y12100000D03*
X51900000Y11100000D03*
D15*
X34959000Y26110000D03*
D19*
X58500000Y25450000D02*
X71850000Y25450000D01*
X71850000Y25450000D02*
X78115000Y31715000D01*
X78115000Y31715000D02*
X86730000Y31715000D01*
D20*
X10500000Y38522000D02*
X10500000Y74490000D01*
X25250000Y23772000D02*
X10500000Y38522000D01*
D19*
X71800000Y16550000D02*
X72550000Y15800000D01*
X61874000Y16550000D02*
X71800000Y16550000D01*
X72550000Y14600000D02*
X72550000Y15800000D01*
X59864000Y14540000D02*
X61874000Y16550000D01*
G04 #@! TA.AperFunction,Conductor*
G36*
X20883691Y77305593D02*
G01*
X20919655Y77256093D01*
X20924500Y77225500D01*
X20924500Y70143168D01*
X20922996Y70125980D01*
X20920875Y70113954D01*
X20922996Y70101930D01*
X20924161Y70088606D01*
X20924836Y70084776D01*
X20928296Y70071861D01*
X20930417Y70059830D01*
X20933936Y70053736D01*
X20938450Y70048357D01*
X20938451Y70048357D01*
X20938452Y70048355D01*
X20949029Y70042249D01*
X20963158Y70032356D01*
X20972520Y70024500D01*
X20972521Y70024500D01*
X20979123Y70022097D01*
X20986047Y70020876D01*
X20986047Y70020877D01*
X20986048Y70020876D01*
X20998072Y70022996D01*
X21015262Y70024500D01*
X104875500Y70024500D01*
X104933691Y70005593D01*
X104969655Y69956093D01*
X104974500Y69925500D01*
X104974500Y58039168D01*
X104955593Y57980977D01*
X104906093Y57945013D01*
X104844907Y57945013D01*
X104795407Y57980977D01*
X104780369Y58011761D01*
X104728390Y58192183D01*
X104592973Y58519110D01*
X104421806Y58828811D01*
X104217043Y59117397D01*
X104217041Y59117400D01*
X103981250Y59381250D01*
X103717400Y59617041D01*
X103717396Y59617044D01*
X103428810Y59821807D01*
X103119108Y59992974D01*
X103119109Y59992974D01*
X102792182Y60128391D01*
X102452155Y60226351D01*
X102103310Y60285622D01*
X102103290Y60285625D01*
X101750005Y60305464D01*
X101749995Y60305464D01*
X101396709Y60285625D01*
X101396689Y60285622D01*
X101047844Y60226351D01*
X100707817Y60128391D01*
X100380890Y59992974D01*
X100071189Y59821807D01*
X99782603Y59617044D01*
X99518757Y59381257D01*
X99518743Y59381243D01*
X99282956Y59117397D01*
X99078193Y58828811D01*
X98907026Y58519110D01*
X98771609Y58192183D01*
X98673649Y57852156D01*
X98614378Y57503311D01*
X98614375Y57503291D01*
X98594536Y57150005D01*
X98594536Y57149996D01*
X98614375Y56796710D01*
X98614378Y56796690D01*
X98673649Y56447845D01*
X98771609Y56107818D01*
X98907026Y55780891D01*
X99078193Y55471190D01*
X99079231Y55469727D01*
X99282959Y55182600D01*
X99518750Y54918750D01*
X99782600Y54682959D01*
X100071192Y54478192D01*
X100380891Y54307027D01*
X100380890Y54307027D01*
X100380895Y54307025D01*
X100707816Y54171610D01*
X101047843Y54073650D01*
X101396700Y54014377D01*
X101396703Y54014377D01*
X101396709Y54014376D01*
X101749995Y53994536D01*
X101750000Y53994536D01*
X101750005Y53994536D01*
X102103290Y54014376D01*
X102103294Y54014377D01*
X102103300Y54014377D01*
X102452157Y54073650D01*
X102792184Y54171610D01*
X103119105Y54307025D01*
X103428808Y54478192D01*
X103717400Y54682959D01*
X103981250Y54918750D01*
X104217041Y55182600D01*
X104421808Y55471192D01*
X104592975Y55780895D01*
X104728390Y56107816D01*
X104780369Y56288241D01*
X104814647Y56338922D01*
X104872168Y56359777D01*
X104930962Y56342839D01*
X104968572Y56294577D01*
X104974500Y56260833D01*
X104974500Y21089168D01*
X104955593Y21030977D01*
X104906093Y20995013D01*
X104844907Y20995013D01*
X104795407Y21030977D01*
X104780369Y21061761D01*
X104728390Y21242183D01*
X104592973Y21569110D01*
X104421806Y21878811D01*
X104239675Y22135500D01*
X104217041Y22167400D01*
X103981250Y22431250D01*
X103717400Y22667041D01*
X103650899Y22714226D01*
X103428810Y22871807D01*
X103119108Y23042974D01*
X103119109Y23042974D01*
X102792182Y23178391D01*
X102452155Y23276351D01*
X102103310Y23335622D01*
X102103290Y23335625D01*
X101750005Y23355464D01*
X101749995Y23355464D01*
X101396709Y23335625D01*
X101396689Y23335622D01*
X101047844Y23276351D01*
X100707817Y23178391D01*
X100380890Y23042974D01*
X100071189Y22871807D01*
X99782603Y22667044D01*
X99518757Y22431257D01*
X99518743Y22431243D01*
X99282956Y22167397D01*
X99078193Y21878811D01*
X98907026Y21569110D01*
X98771609Y21242183D01*
X98673649Y20902156D01*
X98614378Y20553311D01*
X98614375Y20553291D01*
X98594536Y20200005D01*
X98594536Y20199996D01*
X98614375Y19846710D01*
X98614378Y19846690D01*
X98673649Y19497845D01*
X98771609Y19157818D01*
X98907026Y18830891D01*
X99078193Y18521190D01*
X99270258Y18250500D01*
X99282959Y18232600D01*
X99518750Y17968750D01*
X99782600Y17732959D01*
X100071192Y17528192D01*
X100197576Y17458342D01*
X100328470Y17385999D01*
X100380891Y17357027D01*
X100380890Y17357027D01*
X100399062Y17349500D01*
X100707816Y17221610D01*
X101047843Y17123650D01*
X101396700Y17064377D01*
X101396703Y17064377D01*
X101396709Y17064376D01*
X101749995Y17044536D01*
X101750000Y17044536D01*
X101750005Y17044536D01*
X102103290Y17064376D01*
X102103294Y17064377D01*
X102103300Y17064377D01*
X102452157Y17123650D01*
X102792184Y17221610D01*
X103119105Y17357025D01*
X103428808Y17528192D01*
X103717400Y17732959D01*
X103981250Y17968750D01*
X104217041Y18232600D01*
X104421808Y18521192D01*
X104592975Y18830895D01*
X104728390Y19157816D01*
X104780369Y19338241D01*
X104814647Y19388922D01*
X104872168Y19409777D01*
X104930962Y19392839D01*
X104968572Y19344577D01*
X104974500Y19310833D01*
X104974500Y7424500D01*
X104955593Y7366309D01*
X104906093Y7330345D01*
X104875500Y7325500D01*
X21043167Y7325500D01*
X21025977Y7327004D01*
X21013952Y7329125D01*
X21001928Y7327004D01*
X20988607Y7325839D01*
X20984779Y7325164D01*
X20971857Y7321703D01*
X20959828Y7319582D01*
X20953733Y7316063D01*
X20948355Y7311550D01*
X20942245Y7300967D01*
X20932354Y7286841D01*
X20924499Y7277480D01*
X20922096Y7270877D01*
X20920875Y7263954D01*
X20922996Y7251930D01*
X20924500Y7234738D01*
X20924500Y174500D01*
X20905593Y116309D01*
X20856093Y80345D01*
X20825500Y75500D01*
X174500Y75500D01*
X116309Y94407D01*
X80345Y143907D01*
X75500Y174500D01*
X75500Y2910000D01*
X8594645Y2910000D01*
X8614038Y2638846D01*
X8671826Y2373195D01*
X8766828Y2118486D01*
X8766832Y2118478D01*
X8897106Y1879898D01*
X8897109Y1879894D01*
X8897113Y1879887D01*
X9060029Y1662258D01*
X9252258Y1470029D01*
X9469887Y1307113D01*
X9469894Y1307109D01*
X9469897Y1307107D01*
X9708477Y1176833D01*
X9708485Y1176829D01*
X9708487Y1176828D01*
X9963199Y1081825D01*
X10228840Y1024039D01*
X10500000Y1004645D01*
X10771160Y1024039D01*
X11036801Y1081825D01*
X11291513Y1176828D01*
X11530113Y1307113D01*
X11747742Y1470029D01*
X11939971Y1662258D01*
X12102887Y1879887D01*
X12233172Y2118487D01*
X12328175Y2373199D01*
X12385961Y2638840D01*
X12405355Y2910000D01*
X12385961Y3181160D01*
X12328175Y3446801D01*
X12233172Y3701513D01*
X12233167Y3701523D01*
X12102893Y3940103D01*
X12102891Y3940106D01*
X12102887Y3940113D01*
X11939971Y4157742D01*
X11747742Y4349971D01*
X11530113Y4512887D01*
X11530106Y4512891D01*
X11530102Y4512894D01*
X11291522Y4643168D01*
X11291514Y4643172D01*
X11036805Y4738174D01*
X11036801Y4738175D01*
X10771160Y4795961D01*
X10771157Y4795962D01*
X10771154Y4795962D01*
X10500000Y4815355D01*
X10228845Y4795962D01*
X9963194Y4738174D01*
X9708485Y4643172D01*
X9708477Y4643168D01*
X9469897Y4512894D01*
X9469889Y4512889D01*
X9469887Y4512887D01*
X9362933Y4432823D01*
X9252260Y4349973D01*
X9060027Y4157740D01*
X8897106Y3940103D01*
X8766832Y3701523D01*
X8766828Y3701515D01*
X8671826Y3446806D01*
X8614038Y3181155D01*
X8594645Y2910000D01*
X75500Y2910000D01*
X75500Y11012235D01*
X16645788Y11012235D01*
X16675414Y10742980D01*
X16690311Y10685999D01*
X16743928Y10480912D01*
X16849870Y10231610D01*
X16921999Y10113423D01*
X16990983Y10000388D01*
X17164253Y9792182D01*
X17164255Y9792180D01*
X17365998Y9611418D01*
X17563284Y9480895D01*
X17591913Y9461954D01*
X17724100Y9399988D01*
X17837176Y9346980D01*
X17982628Y9303220D01*
X18096555Y9268944D01*
X18096559Y9268943D01*
X18096569Y9268940D01*
X18263840Y9244323D01*
X18364560Y9229500D01*
X18364561Y9229500D01*
X18567633Y9229500D01*
X18625495Y9233736D01*
X18770156Y9244323D01*
X19034553Y9303220D01*
X19287558Y9399986D01*
X19523777Y9532559D01*
X19738177Y9698112D01*
X19926186Y9893119D01*
X20083799Y10113421D01*
X20207656Y10354325D01*
X20295118Y10610695D01*
X20339319Y10849996D01*
X21794536Y10849996D01*
X21814375Y10496710D01*
X21814378Y10496690D01*
X21873649Y10147845D01*
X21971609Y9807818D01*
X22107026Y9480891D01*
X22237774Y9244323D01*
X22278192Y9171192D01*
X22482959Y8882600D01*
X22718750Y8618750D01*
X22982600Y8382959D01*
X23271192Y8178192D01*
X23580891Y8007027D01*
X23580890Y8007027D01*
X23580895Y8007025D01*
X23907816Y7871610D01*
X24247843Y7773650D01*
X24596700Y7714377D01*
X24596703Y7714377D01*
X24596709Y7714376D01*
X24949995Y7694536D01*
X24950000Y7694536D01*
X24950005Y7694536D01*
X25303290Y7714376D01*
X25303294Y7714377D01*
X25303300Y7714377D01*
X25652157Y7773650D01*
X25992184Y7871610D01*
X26319105Y8007025D01*
X26628808Y8178192D01*
X26917400Y8382959D01*
X27181250Y8618750D01*
X27417041Y8882600D01*
X27621808Y9171192D01*
X27792975Y9480895D01*
X27928390Y9807816D01*
X28026350Y10147843D01*
X28085623Y10496700D01*
X28092025Y10610688D01*
X28105464Y10849996D01*
X28105464Y10850005D01*
X28091425Y11099998D01*
X51444867Y11099998D01*
X51463302Y10971775D01*
X51506553Y10877070D01*
X51517118Y10853937D01*
X51601951Y10756033D01*
X51601952Y10756032D01*
X51710926Y10685999D01*
X51710931Y10685996D01*
X51835228Y10649500D01*
X51835230Y10649500D01*
X51964770Y10649500D01*
X51964772Y10649500D01*
X52089069Y10685996D01*
X52198049Y10756033D01*
X52282882Y10853937D01*
X52336697Y10971774D01*
X52355133Y11100000D01*
X52348265Y11147765D01*
X52336697Y11228226D01*
X52282882Y11346062D01*
X52282882Y11346063D01*
X52198049Y11443967D01*
X52198048Y11443968D01*
X52198047Y11443969D01*
X52089073Y11514002D01*
X52089070Y11514004D01*
X52089069Y11514004D01*
X52089066Y11514005D01*
X51964774Y11550500D01*
X51964772Y11550500D01*
X51835228Y11550500D01*
X51835225Y11550500D01*
X51710933Y11514005D01*
X51710926Y11514002D01*
X51601952Y11443969D01*
X51517117Y11346062D01*
X51463302Y11228226D01*
X51444867Y11100003D01*
X51444867Y11099998D01*
X28091425Y11099998D01*
X28085624Y11203291D01*
X28085621Y11203311D01*
X28026835Y11549302D01*
X28026350Y11552157D01*
X27928390Y11892184D01*
X27842311Y12099998D01*
X48594867Y12099998D01*
X48613302Y11971775D01*
X48649651Y11892184D01*
X48667118Y11853937D01*
X48751951Y11756033D01*
X48751952Y11756032D01*
X48860926Y11685999D01*
X48860931Y11685996D01*
X48985228Y11649500D01*
X48985230Y11649500D01*
X49114770Y11649500D01*
X49114772Y11649500D01*
X49239069Y11685996D01*
X49348049Y11756033D01*
X49432882Y11853937D01*
X49486697Y11971774D01*
X49505133Y12100000D01*
X49496562Y12159610D01*
X49486697Y12228226D01*
X49432882Y12346063D01*
X49348049Y12443967D01*
X49348048Y12443968D01*
X49348047Y12443969D01*
X49239073Y12514002D01*
X49239070Y12514004D01*
X49239069Y12514004D01*
X49239066Y12514005D01*
X49114774Y12550500D01*
X49114772Y12550500D01*
X48985228Y12550500D01*
X48985225Y12550500D01*
X48860933Y12514005D01*
X48860926Y12514002D01*
X48751952Y12443969D01*
X48667117Y12346062D01*
X48613302Y12228226D01*
X48594867Y12100003D01*
X48594867Y12099998D01*
X27842311Y12099998D01*
X27792975Y12219105D01*
X27792973Y12219110D01*
X27621806Y12528811D01*
X27457759Y12760013D01*
X27417041Y12817400D01*
X27181250Y13081250D01*
X26917400Y13317041D01*
X26809217Y13393801D01*
X33870796Y13393801D01*
X33900184Y13252372D01*
X33900186Y13252364D01*
X33966644Y13124108D01*
X33966646Y13124105D01*
X34065245Y13018531D01*
X34188672Y12943474D01*
X34327772Y12904500D01*
X34327773Y12904500D01*
X34435943Y12904500D01*
X34435949Y12904500D01*
X34543111Y12919229D01*
X34675609Y12976781D01*
X34787665Y13067946D01*
X34870971Y13185963D01*
X34919346Y13322079D01*
X34924252Y13393801D01*
X39650796Y13393801D01*
X39680184Y13252372D01*
X39680186Y13252364D01*
X39746644Y13124108D01*
X39746646Y13124105D01*
X39845245Y13018531D01*
X39968672Y12943474D01*
X40107772Y12904500D01*
X40107773Y12904500D01*
X40215943Y12904500D01*
X40215949Y12904500D01*
X40323111Y12919229D01*
X40455609Y12976781D01*
X40567665Y13067946D01*
X40650971Y13185963D01*
X40699346Y13322079D01*
X40709204Y13466199D01*
X40692157Y13548233D01*
X40679815Y13607629D01*
X40679813Y13607637D01*
X40644818Y13675173D01*
X51243500Y13675173D01*
X51252232Y13631280D01*
X51252234Y13631276D01*
X51285052Y13582160D01*
X51285496Y13581496D01*
X51335278Y13548233D01*
X51346327Y13546036D01*
X51379172Y13539501D01*
X51379178Y13539501D01*
X51379180Y13539500D01*
X51379181Y13539500D01*
X53108819Y13539500D01*
X53108820Y13539500D01*
X53108821Y13539501D01*
X53108827Y13539501D01*
X53130623Y13543838D01*
X53152722Y13548233D01*
X53202504Y13581496D01*
X53235767Y13631278D01*
X53244500Y13675180D01*
X53244500Y14539997D01*
X53778659Y14539997D01*
X53797974Y14343874D01*
X53797975Y14343871D01*
X53797976Y14343868D01*
X53852028Y14165682D01*
X53855187Y14155270D01*
X53855188Y14155268D01*
X53926218Y14022382D01*
X53948090Y13981462D01*
X53948092Y13981460D01*
X53948093Y13981458D01*
X54073112Y13829122D01*
X54073121Y13829113D01*
X54186710Y13735893D01*
X54225462Y13704090D01*
X54399273Y13611186D01*
X54587868Y13553976D01*
X54587870Y13553976D01*
X54587873Y13553975D01*
X54783997Y13534659D01*
X54784000Y13534659D01*
X54784003Y13534659D01*
X54980126Y13553975D01*
X54980127Y13553976D01*
X54980132Y13553976D01*
X55168727Y13611186D01*
X55342538Y13704090D01*
X55494883Y13829117D01*
X55619910Y13981462D01*
X55712814Y14155273D01*
X55770024Y14343868D01*
X55782622Y14471774D01*
X55789341Y14539997D01*
X56318659Y14539997D01*
X56337974Y14343874D01*
X56337975Y14343871D01*
X56337976Y14343868D01*
X56392028Y14165682D01*
X56395187Y14155270D01*
X56395188Y14155268D01*
X56466218Y14022382D01*
X56488090Y13981462D01*
X56488092Y13981460D01*
X56488093Y13981458D01*
X56613112Y13829122D01*
X56613121Y13829113D01*
X56726710Y13735893D01*
X56765462Y13704090D01*
X56939273Y13611186D01*
X57127868Y13553976D01*
X57127870Y13553976D01*
X57127873Y13553975D01*
X57323997Y13534659D01*
X57324000Y13534659D01*
X57324003Y13534659D01*
X57520126Y13553975D01*
X57520127Y13553976D01*
X57520132Y13553976D01*
X57708727Y13611186D01*
X57882538Y13704090D01*
X58034883Y13829117D01*
X58159910Y13981462D01*
X58252814Y14155273D01*
X58310024Y14343868D01*
X58322622Y14471774D01*
X58329341Y14539997D01*
X58858659Y14539997D01*
X58877974Y14343874D01*
X58877975Y14343871D01*
X58877976Y14343868D01*
X58932028Y14165682D01*
X58935187Y14155270D01*
X58935188Y14155268D01*
X59006218Y14022382D01*
X59028090Y13981462D01*
X59028092Y13981460D01*
X59028093Y13981458D01*
X59153112Y13829122D01*
X59153121Y13829113D01*
X59266710Y13735893D01*
X59305462Y13704090D01*
X59479273Y13611186D01*
X59667868Y13553976D01*
X59667870Y13553976D01*
X59667873Y13553975D01*
X59863997Y13534659D01*
X59864000Y13534659D01*
X59864003Y13534659D01*
X60060126Y13553975D01*
X60060127Y13553976D01*
X60060132Y13553976D01*
X60248727Y13611186D01*
X60422538Y13704090D01*
X60574883Y13829117D01*
X60699910Y13981462D01*
X60792814Y14155273D01*
X60792816Y14155282D01*
X60794351Y14158984D01*
X60797504Y14166876D01*
X60798713Y14170018D01*
X60798716Y14170021D01*
X60941192Y14539997D01*
X61398659Y14539997D01*
X61417974Y14343874D01*
X61417975Y14343871D01*
X61417976Y14343868D01*
X61472028Y14165682D01*
X61475187Y14155270D01*
X61475188Y14155268D01*
X61546218Y14022382D01*
X61568090Y13981462D01*
X61568092Y13981460D01*
X61568093Y13981458D01*
X61693112Y13829122D01*
X61693121Y13829113D01*
X61806710Y13735893D01*
X61845462Y13704090D01*
X62019273Y13611186D01*
X62207868Y13553976D01*
X62207870Y13553976D01*
X62207873Y13553975D01*
X62403997Y13534659D01*
X62404000Y13534659D01*
X62404003Y13534659D01*
X62600126Y13553975D01*
X62600127Y13553976D01*
X62600132Y13553976D01*
X62788727Y13611186D01*
X62962538Y13704090D01*
X63114883Y13829117D01*
X63239910Y13981462D01*
X63332814Y14155273D01*
X63390024Y14343868D01*
X63402622Y14471774D01*
X63409341Y14539997D01*
X69018659Y14539997D01*
X69037974Y14343874D01*
X69037975Y14343871D01*
X69037976Y14343868D01*
X69092028Y14165682D01*
X69095187Y14155270D01*
X69095188Y14155268D01*
X69166218Y14022382D01*
X69188090Y13981462D01*
X69188092Y13981460D01*
X69188093Y13981458D01*
X69313112Y13829122D01*
X69313121Y13829113D01*
X69426710Y13735893D01*
X69465462Y13704090D01*
X69639273Y13611186D01*
X69827868Y13553976D01*
X69827870Y13553976D01*
X69827873Y13553975D01*
X70023997Y13534659D01*
X70024000Y13534659D01*
X70024003Y13534659D01*
X70220126Y13553975D01*
X70220127Y13553976D01*
X70220132Y13553976D01*
X70408727Y13611186D01*
X70528438Y13675173D01*
X74103500Y13675173D01*
X74112232Y13631280D01*
X74112234Y13631276D01*
X74145052Y13582160D01*
X74145496Y13581496D01*
X74195278Y13548233D01*
X74206327Y13546036D01*
X74239172Y13539501D01*
X74239178Y13539501D01*
X74239180Y13539500D01*
X74239181Y13539500D01*
X75968819Y13539500D01*
X75968820Y13539500D01*
X75968821Y13539501D01*
X75968827Y13539501D01*
X75990623Y13543838D01*
X76012722Y13548233D01*
X76062504Y13581496D01*
X76095767Y13631278D01*
X76104500Y13675180D01*
X76104500Y14539997D01*
X76638659Y14539997D01*
X76657974Y14343874D01*
X76657975Y14343871D01*
X76657976Y14343868D01*
X76712028Y14165682D01*
X76715187Y14155270D01*
X76715188Y14155268D01*
X76786218Y14022382D01*
X76808090Y13981462D01*
X76808092Y13981460D01*
X76808093Y13981458D01*
X76933112Y13829122D01*
X76933121Y13829113D01*
X77046710Y13735893D01*
X77085462Y13704090D01*
X77259273Y13611186D01*
X77447868Y13553976D01*
X77447870Y13553976D01*
X77447873Y13553975D01*
X77643997Y13534659D01*
X77644000Y13534659D01*
X77644003Y13534659D01*
X77840126Y13553975D01*
X77840127Y13553976D01*
X77840132Y13553976D01*
X78028727Y13611186D01*
X78202538Y13704090D01*
X78354883Y13829117D01*
X78479910Y13981462D01*
X78572814Y14155273D01*
X78630024Y14343868D01*
X78642622Y14471774D01*
X78649341Y14539997D01*
X78649341Y14540004D01*
X78630025Y14736127D01*
X78630024Y14736130D01*
X78630024Y14736132D01*
X78572814Y14924727D01*
X78479910Y15098538D01*
X78479906Y15098543D01*
X78354887Y15250879D01*
X78354878Y15250888D01*
X78202542Y15375907D01*
X78202540Y15375908D01*
X78202538Y15375910D01*
X78148436Y15404828D01*
X78028732Y15468812D01*
X78028730Y15468813D01*
X78010503Y15474342D01*
X77840132Y15526024D01*
X77840129Y15526025D01*
X77840126Y15526026D01*
X77644003Y15545341D01*
X77643997Y15545341D01*
X77447873Y15526026D01*
X77447870Y15526025D01*
X77259269Y15468813D01*
X77259267Y15468812D01*
X77085467Y15375913D01*
X77085457Y15375907D01*
X76933121Y15250888D01*
X76933112Y15250879D01*
X76808093Y15098543D01*
X76808087Y15098533D01*
X76715188Y14924733D01*
X76715187Y14924731D01*
X76657975Y14736130D01*
X76657974Y14736127D01*
X76638659Y14540004D01*
X76638659Y14539997D01*
X76104500Y14539997D01*
X76104500Y15404820D01*
X76104499Y15404822D01*
X76104499Y15404828D01*
X76095767Y15448721D01*
X76095765Y15448725D01*
X76080998Y15470826D01*
X76062504Y15498504D01*
X76021314Y15526026D01*
X76012724Y15531766D01*
X76012720Y15531768D01*
X75968827Y15540500D01*
X75968820Y15540500D01*
X74239180Y15540500D01*
X74239172Y15540500D01*
X74195279Y15531768D01*
X74195275Y15531766D01*
X74145498Y15498506D01*
X74145494Y15498502D01*
X74112234Y15448725D01*
X74112232Y15448721D01*
X74103500Y15404828D01*
X74103500Y13675173D01*
X70528438Y13675173D01*
X70582538Y13704090D01*
X70734883Y13829117D01*
X70859910Y13981462D01*
X70952814Y14155273D01*
X71010024Y14343868D01*
X71022622Y14471774D01*
X71029341Y14539997D01*
X71029341Y14540004D01*
X71010025Y14736127D01*
X71010024Y14736130D01*
X71010024Y14736132D01*
X70952814Y14924727D01*
X70859910Y15098538D01*
X70859906Y15098543D01*
X70734887Y15250879D01*
X70734878Y15250888D01*
X70582542Y15375907D01*
X70582540Y15375908D01*
X70582538Y15375910D01*
X70528436Y15404828D01*
X70408732Y15468812D01*
X70408730Y15468813D01*
X70390503Y15474342D01*
X70220132Y15526024D01*
X70220129Y15526025D01*
X70220126Y15526026D01*
X70024003Y15545341D01*
X70023997Y15545341D01*
X69827873Y15526026D01*
X69827870Y15526025D01*
X69639269Y15468813D01*
X69639267Y15468812D01*
X69465467Y15375913D01*
X69465457Y15375907D01*
X69313121Y15250888D01*
X69313112Y15250879D01*
X69188093Y15098543D01*
X69188087Y15098533D01*
X69095188Y14924733D01*
X69095187Y14924731D01*
X69037975Y14736130D01*
X69037974Y14736127D01*
X69018659Y14540004D01*
X69018659Y14539997D01*
X63409341Y14539997D01*
X63409341Y14540004D01*
X63390025Y14736127D01*
X63390024Y14736130D01*
X63390024Y14736132D01*
X63332814Y14924727D01*
X63239910Y15098538D01*
X63239906Y15098543D01*
X63114887Y15250879D01*
X63114878Y15250888D01*
X62962542Y15375907D01*
X62962540Y15375908D01*
X62962538Y15375910D01*
X62908436Y15404828D01*
X62788732Y15468812D01*
X62788730Y15468813D01*
X62770503Y15474342D01*
X62600132Y15526024D01*
X62600129Y15526025D01*
X62600126Y15526026D01*
X62404003Y15545341D01*
X62403997Y15545341D01*
X62207873Y15526026D01*
X62207870Y15526025D01*
X62019269Y15468813D01*
X62019267Y15468812D01*
X61845467Y15375913D01*
X61845457Y15375907D01*
X61693121Y15250888D01*
X61693112Y15250879D01*
X61568093Y15098543D01*
X61568087Y15098533D01*
X61475188Y14924733D01*
X61475187Y14924731D01*
X61417975Y14736130D01*
X61417974Y14736127D01*
X61398659Y14540004D01*
X61398659Y14539997D01*
X60941192Y14539997D01*
X61319976Y15523608D01*
X61342358Y15558032D01*
X61979832Y16195504D01*
X62034348Y16223281D01*
X62049835Y16224500D01*
X71624166Y16224500D01*
X71682357Y16205593D01*
X71694170Y16195504D01*
X72195504Y15694170D01*
X72223281Y15639653D01*
X72224500Y15624166D01*
X72224500Y15249471D01*
X72221143Y15227668D01*
X72221884Y15227512D01*
X72220882Y15222756D01*
X72220881Y15222752D01*
X72158129Y14924733D01*
X72121965Y14752983D01*
X72115147Y14732266D01*
X72113304Y14728231D01*
X72113301Y14728220D01*
X72094867Y14600003D01*
X72094867Y14599998D01*
X72113302Y14471775D01*
X72167117Y14353939D01*
X72167118Y14353937D01*
X72175843Y14343868D01*
X72251952Y14256032D01*
X72360926Y14185999D01*
X72360931Y14185996D01*
X72485228Y14149500D01*
X72485230Y14149500D01*
X72614770Y14149500D01*
X72614772Y14149500D01*
X72739069Y14185996D01*
X72848049Y14256033D01*
X72932882Y14353937D01*
X72986697Y14471774D01*
X73005133Y14600000D01*
X72986698Y14728220D01*
X72986698Y14728223D01*
X72986694Y14728231D01*
X72984856Y14732257D01*
X72978033Y14752986D01*
X72977332Y14756317D01*
X72977332Y14756320D01*
X72879119Y15222751D01*
X72879119Y15222752D01*
X72878382Y15226252D01*
X72878733Y15226327D01*
X72875500Y15249288D01*
X72875500Y15783636D01*
X72875687Y15787933D01*
X72879263Y15828807D01*
X72868638Y15868456D01*
X72867713Y15872635D01*
X72860588Y15913045D01*
X72860588Y15913046D01*
X72859840Y15914341D01*
X72849942Y15938233D01*
X72849554Y15939684D01*
X72826022Y15973291D01*
X72823707Y15976926D01*
X72812707Y15995978D01*
X72803194Y16012455D01*
X72771771Y16038822D01*
X72768594Y16041734D01*
X72041741Y16768586D01*
X72038822Y16771771D01*
X72012456Y16803194D01*
X71989818Y16816264D01*
X71976918Y16823712D01*
X71973288Y16826025D01*
X71939684Y16849554D01*
X71939679Y16849557D01*
X71938224Y16849946D01*
X71914348Y16859836D01*
X71913045Y16860589D01*
X71872652Y16867711D01*
X71868436Y16868646D01*
X71842153Y16875688D01*
X71828807Y16879264D01*
X71828806Y16879264D01*
X71824381Y16878877D01*
X71787926Y16875688D01*
X71783626Y16875500D01*
X61890366Y16875500D01*
X61886065Y16875688D01*
X61849726Y16878867D01*
X61845194Y16879263D01*
X61845189Y16879263D01*
X61805570Y16868647D01*
X61801354Y16867712D01*
X61760956Y16860589D01*
X61760948Y16860586D01*
X61759640Y16859830D01*
X61735786Y16849949D01*
X61734324Y16849558D01*
X61734314Y16849553D01*
X61700716Y16826029D01*
X61697075Y16823710D01*
X61661545Y16803196D01*
X61635186Y16771782D01*
X61632268Y16768597D01*
X60882031Y16018360D01*
X60847605Y15995978D01*
X59493049Y15474343D01*
X59487257Y15472025D01*
X59487170Y15472242D01*
X59483706Y15470826D01*
X59483769Y15470676D01*
X59479267Y15468812D01*
X59305467Y15375913D01*
X59305457Y15375907D01*
X59153121Y15250888D01*
X59153112Y15250879D01*
X59028093Y15098543D01*
X59028087Y15098533D01*
X58935188Y14924733D01*
X58935187Y14924731D01*
X58877975Y14736130D01*
X58877974Y14736127D01*
X58858659Y14540004D01*
X58858659Y14539997D01*
X58329341Y14539997D01*
X58329341Y14540004D01*
X58310025Y14736127D01*
X58310024Y14736130D01*
X58310024Y14736132D01*
X58252814Y14924727D01*
X58159910Y15098538D01*
X58159906Y15098543D01*
X58034887Y15250879D01*
X58034878Y15250888D01*
X57882542Y15375907D01*
X57882540Y15375908D01*
X57882538Y15375910D01*
X57828436Y15404828D01*
X57708732Y15468812D01*
X57708730Y15468813D01*
X57690503Y15474342D01*
X57520132Y15526024D01*
X57520129Y15526025D01*
X57520126Y15526026D01*
X57324003Y15545341D01*
X57323997Y15545341D01*
X57127873Y15526026D01*
X57127870Y15526025D01*
X56939269Y15468813D01*
X56939267Y15468812D01*
X56765467Y15375913D01*
X56765457Y15375907D01*
X56613121Y15250888D01*
X56613112Y15250879D01*
X56488093Y15098543D01*
X56488087Y15098533D01*
X56395188Y14924733D01*
X56395187Y14924731D01*
X56337975Y14736130D01*
X56337974Y14736127D01*
X56318659Y14540004D01*
X56318659Y14539997D01*
X55789341Y14539997D01*
X55789341Y14540004D01*
X55770025Y14736127D01*
X55770024Y14736130D01*
X55770024Y14736132D01*
X55712814Y14924727D01*
X55619910Y15098538D01*
X55619906Y15098543D01*
X55494887Y15250879D01*
X55494878Y15250888D01*
X55342542Y15375907D01*
X55342540Y15375908D01*
X55342538Y15375910D01*
X55288436Y15404828D01*
X55168732Y15468812D01*
X55168730Y15468813D01*
X55150503Y15474342D01*
X54980132Y15526024D01*
X54980129Y15526025D01*
X54980126Y15526026D01*
X54784003Y15545341D01*
X54783997Y15545341D01*
X54587873Y15526026D01*
X54587870Y15526025D01*
X54399269Y15468813D01*
X54399267Y15468812D01*
X54225467Y15375913D01*
X54225457Y15375907D01*
X54073121Y15250888D01*
X54073112Y15250879D01*
X53948093Y15098543D01*
X53948087Y15098533D01*
X53855188Y14924733D01*
X53855187Y14924731D01*
X53797975Y14736130D01*
X53797974Y14736127D01*
X53778659Y14540004D01*
X53778659Y14539997D01*
X53244500Y14539997D01*
X53244500Y15404820D01*
X53244499Y15404822D01*
X53244499Y15404828D01*
X53235767Y15448721D01*
X53235765Y15448725D01*
X53220998Y15470826D01*
X53202504Y15498504D01*
X53161314Y15526026D01*
X53152724Y15531766D01*
X53152720Y15531768D01*
X53108827Y15540500D01*
X53108820Y15540500D01*
X51379180Y15540500D01*
X51379172Y15540500D01*
X51335279Y15531768D01*
X51335275Y15531766D01*
X51285498Y15498506D01*
X51285494Y15498502D01*
X51252234Y15448725D01*
X51252232Y15448721D01*
X51243500Y15404828D01*
X51243500Y13675173D01*
X40644818Y13675173D01*
X40613355Y13735893D01*
X40613353Y13735896D01*
X40514754Y13841470D01*
X40391328Y13916526D01*
X40252228Y13955500D01*
X40144051Y13955500D01*
X40036888Y13940772D01*
X39904389Y13883219D01*
X39792334Y13792055D01*
X39709029Y13674038D01*
X39660653Y13537922D01*
X39650796Y13393801D01*
X34924252Y13393801D01*
X34929204Y13466199D01*
X34912157Y13548233D01*
X34899815Y13607629D01*
X34899813Y13607637D01*
X34833355Y13735893D01*
X34833353Y13735896D01*
X34734754Y13841470D01*
X34611328Y13916526D01*
X34472228Y13955500D01*
X34364051Y13955500D01*
X34256888Y13940772D01*
X34124389Y13883219D01*
X34012334Y13792055D01*
X33929029Y13674038D01*
X33880653Y13537922D01*
X33870796Y13393801D01*
X26809217Y13393801D01*
X26707179Y13466201D01*
X26628810Y13521807D01*
X26319108Y13692974D01*
X26319109Y13692974D01*
X25992182Y13828391D01*
X25652155Y13926351D01*
X25303310Y13985622D01*
X25303290Y13985625D01*
X24950005Y14005464D01*
X24949995Y14005464D01*
X24596709Y13985625D01*
X24596689Y13985622D01*
X24247844Y13926351D01*
X23907817Y13828391D01*
X23580890Y13692974D01*
X23271189Y13521807D01*
X22982603Y13317044D01*
X22718757Y13081257D01*
X22718743Y13081243D01*
X22482956Y12817397D01*
X22278193Y12528811D01*
X22107026Y12219110D01*
X21971609Y11892183D01*
X21873649Y11552156D01*
X21814378Y11203311D01*
X21814375Y11203291D01*
X21794536Y10850005D01*
X21794536Y10849996D01*
X20339319Y10849996D01*
X20344319Y10877067D01*
X20354212Y11147765D01*
X20324586Y11417018D01*
X20256072Y11679088D01*
X20150130Y11928390D01*
X20009018Y12159610D01*
X19835745Y12367820D01*
X19750760Y12443967D01*
X19634007Y12548578D01*
X19634004Y12548580D01*
X19634002Y12548582D01*
X19484489Y12647499D01*
X19408086Y12698047D01*
X19162822Y12813021D01*
X18903444Y12891057D01*
X18903428Y12891061D01*
X18635440Y12930500D01*
X18635439Y12930500D01*
X18432369Y12930500D01*
X18432367Y12930500D01*
X18229848Y12915678D01*
X17965450Y12856781D01*
X17712439Y12760013D01*
X17476219Y12627439D01*
X17261826Y12461892D01*
X17073814Y12266881D01*
X16916199Y12046578D01*
X16792342Y11805672D01*
X16704884Y11549313D01*
X16704881Y11549302D01*
X16655680Y11282931D01*
X16645788Y11012235D01*
X75500Y11012235D01*
X75500Y17220000D01*
X47394508Y17220000D01*
X47414354Y17094697D01*
X47414355Y17094693D01*
X47429801Y17064379D01*
X47471950Y16981658D01*
X47561658Y16891950D01*
X47674696Y16834354D01*
X47800000Y16814508D01*
X47925304Y16834354D01*
X48038342Y16891950D01*
X48128050Y16981658D01*
X48185646Y17094696D01*
X48205492Y17220000D01*
X48185646Y17345304D01*
X48128050Y17458342D01*
X48038342Y17548050D01*
X48026784Y17553939D01*
X47925307Y17605645D01*
X47925304Y17605646D01*
X47800000Y17625492D01*
X47674696Y17605646D01*
X47674692Y17605645D01*
X47561659Y17548051D01*
X47471949Y17458341D01*
X47414355Y17345308D01*
X47414354Y17345304D01*
X47394508Y17220001D01*
X47394508Y17220000D01*
X75500Y17220000D01*
X75500Y17799998D01*
X73344867Y17799998D01*
X73363302Y17671775D01*
X73393503Y17605646D01*
X73417118Y17553937D01*
X73439426Y17528192D01*
X73501952Y17456032D01*
X73610926Y17385999D01*
X73610931Y17385996D01*
X73735228Y17349500D01*
X73735230Y17349500D01*
X73864770Y17349500D01*
X73864772Y17349500D01*
X73989069Y17385996D01*
X74098049Y17456033D01*
X74182882Y17553937D01*
X74236697Y17671774D01*
X74255133Y17799998D01*
X83844867Y17799998D01*
X83863302Y17671775D01*
X83893503Y17605646D01*
X83917118Y17553937D01*
X83939426Y17528192D01*
X84001952Y17456032D01*
X84110926Y17385999D01*
X84110931Y17385996D01*
X84235228Y17349500D01*
X84235230Y17349500D01*
X84364770Y17349500D01*
X84364772Y17349500D01*
X84489069Y17385996D01*
X84598049Y17456033D01*
X84682882Y17553937D01*
X84736697Y17671774D01*
X84755133Y17800000D01*
X84736697Y17928226D01*
X84682882Y18046063D01*
X84598049Y18143967D01*
X84598048Y18143968D01*
X84598047Y18143969D01*
X84588666Y18149998D01*
X97514867Y18149998D01*
X97533302Y18021775D01*
X97557521Y17968744D01*
X97587118Y17903937D01*
X97671951Y17806033D01*
X97671952Y17806032D01*
X97780926Y17735999D01*
X97780931Y17735996D01*
X97905228Y17699500D01*
X97905230Y17699500D01*
X98034770Y17699500D01*
X98034772Y17699500D01*
X98159069Y17735996D01*
X98268049Y17806033D01*
X98352882Y17903937D01*
X98406697Y18021774D01*
X98425133Y18150000D01*
X98413256Y18232604D01*
X98406697Y18278226D01*
X98352882Y18396062D01*
X98352882Y18396063D01*
X98268049Y18493967D01*
X98268048Y18493968D01*
X98268047Y18493969D01*
X98159073Y18564002D01*
X98159070Y18564004D01*
X98159069Y18564004D01*
X98159066Y18564005D01*
X98034774Y18600500D01*
X98034772Y18600500D01*
X97905228Y18600500D01*
X97905225Y18600500D01*
X97780933Y18564005D01*
X97780926Y18564002D01*
X97671952Y18493969D01*
X97587117Y18396062D01*
X97533302Y18278226D01*
X97514867Y18150003D01*
X97514867Y18149998D01*
X84588666Y18149998D01*
X84489073Y18214002D01*
X84489070Y18214004D01*
X84489069Y18214004D01*
X84489066Y18214005D01*
X84364774Y18250500D01*
X84364772Y18250500D01*
X84235228Y18250500D01*
X84235225Y18250500D01*
X84110933Y18214005D01*
X84110926Y18214002D01*
X84001952Y18143969D01*
X83917117Y18046062D01*
X83863302Y17928226D01*
X83844867Y17800003D01*
X83844867Y17799998D01*
X74255133Y17799998D01*
X74255133Y17800000D01*
X74236697Y17928226D01*
X74182882Y18046063D01*
X74098049Y18143967D01*
X74098048Y18143968D01*
X74098047Y18143969D01*
X73989073Y18214002D01*
X73989070Y18214004D01*
X73989069Y18214004D01*
X73989066Y18214005D01*
X73864774Y18250500D01*
X73864772Y18250500D01*
X73735228Y18250500D01*
X73735225Y18250500D01*
X73610933Y18214005D01*
X73610926Y18214002D01*
X73501952Y18143969D01*
X73417117Y18046062D01*
X73363302Y17928226D01*
X73344867Y17800003D01*
X73344867Y17799998D01*
X75500Y17799998D01*
X75500Y19049998D01*
X73344867Y19049998D01*
X73363302Y18921775D01*
X73408972Y18821774D01*
X73417118Y18803937D01*
X73501951Y18706033D01*
X73501952Y18706032D01*
X73505209Y18703939D01*
X73610931Y18635996D01*
X73735228Y18599500D01*
X73735230Y18599500D01*
X73864770Y18599500D01*
X73864772Y18599500D01*
X73989069Y18635996D01*
X74098049Y18706033D01*
X74182882Y18803937D01*
X74236697Y18921774D01*
X74255133Y19049998D01*
X87444867Y19049998D01*
X87463302Y18921775D01*
X87508972Y18821774D01*
X87517118Y18803937D01*
X87601951Y18706033D01*
X87601952Y18706032D01*
X87605209Y18703939D01*
X87710931Y18635996D01*
X87835228Y18599500D01*
X87835230Y18599500D01*
X87964770Y18599500D01*
X87964772Y18599500D01*
X88089069Y18635996D01*
X88198049Y18706033D01*
X88282882Y18803937D01*
X88336697Y18921774D01*
X88340755Y18949998D01*
X95744867Y18949998D01*
X95763302Y18821775D01*
X95771448Y18803939D01*
X95817118Y18703937D01*
X95901951Y18606033D01*
X95901952Y18606032D01*
X96010926Y18535999D01*
X96010931Y18535996D01*
X96135228Y18499500D01*
X96135230Y18499500D01*
X96264770Y18499500D01*
X96264772Y18499500D01*
X96389069Y18535996D01*
X96498049Y18606033D01*
X96582882Y18703937D01*
X96636697Y18821774D01*
X96655133Y18950000D01*
X96636697Y19078226D01*
X96582882Y19196063D01*
X96498049Y19293967D01*
X96498048Y19293968D01*
X96498047Y19293969D01*
X96389073Y19364002D01*
X96389070Y19364004D01*
X96389069Y19364004D01*
X96389066Y19364005D01*
X96264774Y19400500D01*
X96264772Y19400500D01*
X96135228Y19400500D01*
X96135225Y19400500D01*
X96010933Y19364005D01*
X96010926Y19364002D01*
X95901952Y19293969D01*
X95817117Y19196062D01*
X95763302Y19078226D01*
X95744867Y18950003D01*
X95744867Y18949998D01*
X88340755Y18949998D01*
X88355133Y19050000D01*
X88339631Y19157816D01*
X88336697Y19178226D01*
X88282882Y19296062D01*
X88282882Y19296063D01*
X88198049Y19393967D01*
X88198048Y19393968D01*
X88198047Y19393969D01*
X88089073Y19464002D01*
X88089070Y19464004D01*
X88089069Y19464004D01*
X88089066Y19464005D01*
X87964774Y19500500D01*
X87964772Y19500500D01*
X87835228Y19500500D01*
X87835225Y19500500D01*
X87710933Y19464005D01*
X87710926Y19464002D01*
X87601952Y19393969D01*
X87517117Y19296062D01*
X87463302Y19178226D01*
X87444867Y19050003D01*
X87444867Y19049998D01*
X74255133Y19049998D01*
X74255133Y19050000D01*
X74239631Y19157816D01*
X74236697Y19178226D01*
X74182882Y19296062D01*
X74182882Y19296063D01*
X74098049Y19393967D01*
X74098048Y19393968D01*
X74098047Y19393969D01*
X73989073Y19464002D01*
X73989070Y19464004D01*
X73989069Y19464004D01*
X73989066Y19464005D01*
X73864774Y19500500D01*
X73864772Y19500500D01*
X73735228Y19500500D01*
X73735225Y19500500D01*
X73610933Y19464005D01*
X73610926Y19464002D01*
X73501952Y19393969D01*
X73417117Y19296062D01*
X73363302Y19178226D01*
X73344867Y19050003D01*
X73344867Y19049998D01*
X75500Y19049998D01*
X75500Y20235173D01*
X66449500Y20235173D01*
X66458232Y20191280D01*
X66458234Y20191276D01*
X66471658Y20171186D01*
X66491496Y20141496D01*
X66541278Y20108233D01*
X66552327Y20106036D01*
X66585172Y20099501D01*
X66585178Y20099501D01*
X66585180Y20099500D01*
X66585181Y20099500D01*
X68314819Y20099500D01*
X68314820Y20099500D01*
X68314821Y20099501D01*
X68314827Y20099501D01*
X68336623Y20103838D01*
X68358722Y20108233D01*
X68408504Y20141496D01*
X68441767Y20191278D01*
X68450500Y20235180D01*
X68450500Y21099997D01*
X68984659Y21099997D01*
X69003974Y20903874D01*
X69003975Y20903871D01*
X69061187Y20715270D01*
X69061188Y20715268D01*
X69061864Y20714004D01*
X69154090Y20541462D01*
X69154092Y20541460D01*
X69154093Y20541458D01*
X69279112Y20389122D01*
X69279121Y20389113D01*
X69387708Y20299998D01*
X69431462Y20264090D01*
X69605273Y20171186D01*
X69793868Y20113976D01*
X69793870Y20113976D01*
X69793873Y20113975D01*
X69989997Y20094659D01*
X69990000Y20094659D01*
X69990003Y20094659D01*
X70186126Y20113975D01*
X70186127Y20113976D01*
X70186132Y20113976D01*
X70374727Y20171186D01*
X70548538Y20264090D01*
X70592292Y20299998D01*
X73394867Y20299998D01*
X73413302Y20171775D01*
X73467117Y20053939D01*
X73467118Y20053937D01*
X73551951Y19956033D01*
X73551952Y19956032D01*
X73660926Y19885999D01*
X73660931Y19885996D01*
X73785228Y19849500D01*
X73785230Y19849500D01*
X73914770Y19849500D01*
X73914772Y19849500D01*
X74039069Y19885996D01*
X74148049Y19956033D01*
X74232882Y20053937D01*
X74286697Y20171774D01*
X74305133Y20299998D01*
X90744867Y20299998D01*
X90763302Y20171775D01*
X90817117Y20053939D01*
X90817118Y20053937D01*
X90901951Y19956033D01*
X90901952Y19956032D01*
X91010926Y19885999D01*
X91010931Y19885996D01*
X91135228Y19849500D01*
X91135230Y19849500D01*
X91264770Y19849500D01*
X91264772Y19849500D01*
X91389069Y19885996D01*
X91498049Y19956033D01*
X91582882Y20053937D01*
X91636697Y20171774D01*
X91655133Y20300000D01*
X91636697Y20428226D01*
X91582882Y20546063D01*
X91498049Y20643967D01*
X91498048Y20643968D01*
X91498047Y20643969D01*
X91389073Y20714002D01*
X91389070Y20714004D01*
X91389069Y20714004D01*
X91389066Y20714005D01*
X91264774Y20750500D01*
X91264772Y20750500D01*
X91135228Y20750500D01*
X91135225Y20750500D01*
X91010933Y20714005D01*
X91010926Y20714002D01*
X90901952Y20643969D01*
X90817117Y20546062D01*
X90763302Y20428226D01*
X90744867Y20300003D01*
X90744867Y20299998D01*
X74305133Y20299998D01*
X74305133Y20300000D01*
X74286697Y20428226D01*
X74232882Y20546063D01*
X74148049Y20643967D01*
X74148048Y20643968D01*
X74148047Y20643969D01*
X74039073Y20714002D01*
X74039070Y20714004D01*
X74039069Y20714004D01*
X74039066Y20714005D01*
X73914774Y20750500D01*
X73914772Y20750500D01*
X73785228Y20750500D01*
X73785225Y20750500D01*
X73660933Y20714005D01*
X73660926Y20714002D01*
X73551952Y20643969D01*
X73467117Y20546062D01*
X73413302Y20428226D01*
X73394867Y20300003D01*
X73394867Y20299998D01*
X70592292Y20299998D01*
X70700883Y20389117D01*
X70825910Y20541462D01*
X70918814Y20715273D01*
X70976024Y20903868D01*
X70995341Y21100000D01*
X70995341Y21100004D01*
X70976025Y21296127D01*
X70976024Y21296130D01*
X70976024Y21296132D01*
X70918814Y21484727D01*
X70825910Y21658538D01*
X70825906Y21658543D01*
X70700887Y21810879D01*
X70700878Y21810888D01*
X70548542Y21935907D01*
X70548540Y21935908D01*
X70548538Y21935910D01*
X70494436Y21964828D01*
X70374732Y22028812D01*
X70374730Y22028813D01*
X70186129Y22086025D01*
X70186126Y22086026D01*
X69990003Y22105341D01*
X69989997Y22105341D01*
X69793873Y22086026D01*
X69793870Y22086025D01*
X69605269Y22028813D01*
X69605267Y22028812D01*
X69431467Y21935913D01*
X69431457Y21935907D01*
X69279121Y21810888D01*
X69279112Y21810879D01*
X69154093Y21658543D01*
X69154087Y21658533D01*
X69061188Y21484733D01*
X69061187Y21484731D01*
X69003975Y21296130D01*
X69003974Y21296127D01*
X68984659Y21100004D01*
X68984659Y21099997D01*
X68450500Y21099997D01*
X68450500Y21964820D01*
X68450499Y21964822D01*
X68450499Y21964828D01*
X68441767Y22008721D01*
X68441765Y22008725D01*
X68408505Y22058502D01*
X68408504Y22058504D01*
X68367314Y22086026D01*
X68358724Y22091766D01*
X68358720Y22091768D01*
X68314827Y22100500D01*
X68314820Y22100500D01*
X66585180Y22100500D01*
X66585172Y22100500D01*
X66541279Y22091768D01*
X66541275Y22091766D01*
X66491498Y22058506D01*
X66491494Y22058502D01*
X66458234Y22008725D01*
X66458232Y22008721D01*
X66449500Y21964828D01*
X66449500Y20235173D01*
X75500Y20235173D01*
X75500Y22585998D01*
X35204867Y22585998D01*
X35223302Y22457775D01*
X35235413Y22431257D01*
X35277118Y22339937D01*
X35361951Y22242033D01*
X35361952Y22242032D01*
X35470926Y22171999D01*
X35470931Y22171996D01*
X35595228Y22135500D01*
X35595230Y22135500D01*
X35724770Y22135500D01*
X35724772Y22135500D01*
X35849069Y22171996D01*
X35958049Y22242033D01*
X36042882Y22339937D01*
X36096697Y22457774D01*
X36115133Y22586000D01*
X36096697Y22714226D01*
X36042882Y22832063D01*
X35978818Y22905998D01*
X38254867Y22905998D01*
X38273302Y22777775D01*
X38323872Y22667044D01*
X38327118Y22659937D01*
X38391181Y22586003D01*
X38411952Y22562032D01*
X38520926Y22491999D01*
X38520931Y22491996D01*
X38645228Y22455500D01*
X38645230Y22455500D01*
X38774770Y22455500D01*
X38774772Y22455500D01*
X38899069Y22491996D01*
X39008049Y22562033D01*
X39092882Y22659937D01*
X39146697Y22777774D01*
X39165133Y22905998D01*
X39904867Y22905998D01*
X39923302Y22777775D01*
X39973872Y22667044D01*
X39977118Y22659937D01*
X40041181Y22586003D01*
X40061952Y22562032D01*
X40170926Y22491999D01*
X40170931Y22491996D01*
X40295228Y22455500D01*
X40295230Y22455500D01*
X40424770Y22455500D01*
X40424772Y22455500D01*
X40549069Y22491996D01*
X40658049Y22562033D01*
X40742882Y22659937D01*
X40796697Y22777774D01*
X40815133Y22906000D01*
X40796697Y23034226D01*
X40742882Y23152063D01*
X40658049Y23249967D01*
X40658048Y23249968D01*
X40658047Y23249969D01*
X40549073Y23320002D01*
X40549070Y23320004D01*
X40549069Y23320004D01*
X40543971Y23321501D01*
X40424774Y23356500D01*
X40424772Y23356500D01*
X40295228Y23356500D01*
X40295225Y23356500D01*
X40170933Y23320005D01*
X40170926Y23320002D01*
X40061952Y23249969D01*
X39977117Y23152062D01*
X39923302Y23034226D01*
X39904867Y22906003D01*
X39904867Y22905998D01*
X39165133Y22905998D01*
X39165133Y22906000D01*
X39146697Y23034226D01*
X39092882Y23152063D01*
X39008049Y23249967D01*
X39008048Y23249968D01*
X39008047Y23249969D01*
X38899073Y23320002D01*
X38899070Y23320004D01*
X38899069Y23320004D01*
X38893971Y23321501D01*
X38774774Y23356500D01*
X38774772Y23356500D01*
X38645228Y23356500D01*
X38645225Y23356500D01*
X38520933Y23320005D01*
X38520926Y23320002D01*
X38411952Y23249969D01*
X38327117Y23152062D01*
X38273302Y23034226D01*
X38254867Y22906003D01*
X38254867Y22905998D01*
X35978818Y22905998D01*
X35958049Y22929967D01*
X35958048Y22929968D01*
X35958047Y22929969D01*
X35849073Y23000002D01*
X35849070Y23000004D01*
X35849069Y23000004D01*
X35849066Y23000005D01*
X35724774Y23036500D01*
X35724772Y23036500D01*
X35595228Y23036500D01*
X35595225Y23036500D01*
X35470933Y23000005D01*
X35470926Y23000002D01*
X35361952Y22929969D01*
X35277117Y22832062D01*
X35223302Y22714226D01*
X35204867Y22586003D01*
X35204867Y22585998D01*
X75500Y22585998D01*
X75500Y66252235D01*
X645788Y66252235D01*
X675414Y65982980D01*
X709997Y65850699D01*
X743928Y65720912D01*
X849870Y65471610D01*
X898343Y65392184D01*
X990983Y65240388D01*
X1080252Y65133120D01*
X1164255Y65032180D01*
X1365998Y64851418D01*
X1588624Y64704130D01*
X1591913Y64701954D01*
X1724100Y64639988D01*
X1837176Y64586980D01*
X1982628Y64543220D01*
X2096555Y64508944D01*
X2096559Y64508943D01*
X2096569Y64508940D01*
X2263840Y64484323D01*
X2364560Y64469500D01*
X2364561Y64469500D01*
X2567633Y64469500D01*
X2625495Y64473736D01*
X2770156Y64484323D01*
X3034553Y64543220D01*
X3287558Y64639986D01*
X3523777Y64772559D01*
X3738177Y64938112D01*
X3926186Y65133119D01*
X4083799Y65353421D01*
X4207656Y65594325D01*
X4295118Y65850695D01*
X4344319Y66117067D01*
X4354212Y66387765D01*
X4324586Y66657018D01*
X4256072Y66919088D01*
X4150130Y67168390D01*
X4009018Y67399610D01*
X3986764Y67426351D01*
X3835746Y67607819D01*
X3634007Y67788578D01*
X3634004Y67788580D01*
X3634002Y67788582D01*
X3484489Y67887499D01*
X3408086Y67938047D01*
X3162822Y68053021D01*
X2903444Y68131057D01*
X2903428Y68131061D01*
X2635440Y68170500D01*
X2635439Y68170500D01*
X2432369Y68170500D01*
X2432367Y68170500D01*
X2229848Y68155678D01*
X1965450Y68096781D01*
X1712439Y68000013D01*
X1476219Y67867439D01*
X1261826Y67701892D01*
X1073814Y67506881D01*
X916199Y67286578D01*
X792342Y67045672D01*
X704884Y66789313D01*
X704881Y66789302D01*
X655680Y66522931D01*
X645788Y66252235D01*
X75500Y66252235D01*
X75500Y74490000D01*
X8594645Y74490000D01*
X8614038Y74218846D01*
X8671826Y73953195D01*
X8766828Y73698486D01*
X8766832Y73698478D01*
X8897106Y73459898D01*
X8897109Y73459894D01*
X8897113Y73459887D01*
X9060029Y73242258D01*
X9252258Y73050029D01*
X9391288Y72945952D01*
X9414392Y72921521D01*
X10207936Y71728219D01*
X10224500Y71673399D01*
X10224500Y38558885D01*
X10222598Y38539573D01*
X10219103Y38522001D01*
X10219103Y38521998D01*
X10223311Y38500838D01*
X10223316Y38500818D01*
X10224500Y38494868D01*
X10224500Y38494867D01*
X10240485Y38414505D01*
X10240486Y38414504D01*
X10240486Y38414502D01*
X10274230Y38364002D01*
X10301376Y38323376D01*
X10316267Y38313426D01*
X10331269Y38301115D01*
X24592097Y24040287D01*
X24609837Y24016131D01*
X24830073Y23594640D01*
X24830075Y23594637D01*
X24837205Y23585352D01*
X24848735Y23566188D01*
X24867116Y23525939D01*
X24951952Y23428032D01*
X25060926Y23357999D01*
X25060931Y23357996D01*
X25185228Y23321500D01*
X25185230Y23321500D01*
X25314770Y23321500D01*
X25314772Y23321500D01*
X25439069Y23357996D01*
X25548049Y23428033D01*
X25632882Y23525937D01*
X25686697Y23643774D01*
X25705133Y23772000D01*
X25699166Y23813500D01*
X25688743Y23885998D01*
X31273867Y23885998D01*
X31292302Y23757775D01*
X31344365Y23643775D01*
X31346118Y23639937D01*
X31401151Y23576425D01*
X31430952Y23542032D01*
X31539926Y23471999D01*
X31539931Y23471996D01*
X31664228Y23435500D01*
X31664230Y23435500D01*
X31793770Y23435500D01*
X31793772Y23435500D01*
X31918069Y23471996D01*
X32027049Y23542033D01*
X32111882Y23639937D01*
X32165697Y23757774D01*
X32173709Y23813501D01*
X32184133Y23885998D01*
X32184133Y23886003D01*
X32165697Y24014226D01*
X32124726Y24103939D01*
X32111882Y24132063D01*
X32027049Y24229967D01*
X32027048Y24229968D01*
X32027047Y24229969D01*
X31918073Y24300002D01*
X31918070Y24300004D01*
X31918069Y24300004D01*
X31918066Y24300005D01*
X31793774Y24336500D01*
X31793772Y24336500D01*
X31664228Y24336500D01*
X31664225Y24336500D01*
X31539933Y24300005D01*
X31539926Y24300002D01*
X31430952Y24229969D01*
X31346117Y24132062D01*
X31292302Y24014226D01*
X31273867Y23886003D01*
X31273867Y23885998D01*
X25688743Y23885998D01*
X25686697Y23900226D01*
X25655060Y23969501D01*
X25632882Y24018063D01*
X25548049Y24115967D01*
X25439069Y24186004D01*
X25439068Y24186005D01*
X25439067Y24186005D01*
X25437088Y24186909D01*
X25431761Y24189847D01*
X25431671Y24189674D01*
X25005871Y24412161D01*
X24981715Y24429901D01*
X24876616Y24535000D01*
X34628479Y24535000D01*
X34648411Y24421957D01*
X34648411Y24421956D01*
X34648412Y24421955D01*
X34697749Y24336500D01*
X34705807Y24322544D01*
X34775576Y24264000D01*
X34793739Y24248760D01*
X34901606Y24209500D01*
X34901607Y24209500D01*
X35016393Y24209500D01*
X35016394Y24209500D01*
X35124261Y24248760D01*
X35142421Y24263998D01*
X56868867Y24263998D01*
X56887302Y24135775D01*
X56930911Y24040287D01*
X56941118Y24017937D01*
X57012117Y23935999D01*
X57025952Y23920032D01*
X57134926Y23849999D01*
X57134931Y23849996D01*
X57259228Y23813500D01*
X57259230Y23813500D01*
X57388770Y23813500D01*
X57388772Y23813500D01*
X57513069Y23849996D01*
X57622049Y23920033D01*
X57706882Y24017937D01*
X57760697Y24135774D01*
X57768447Y24189674D01*
X57779133Y24263998D01*
X57779133Y24264003D01*
X57766769Y24349998D01*
X60094867Y24349998D01*
X60113302Y24221775D01*
X60161624Y24115967D01*
X60167118Y24103937D01*
X60231929Y24029140D01*
X60251952Y24006032D01*
X60360926Y23935999D01*
X60360931Y23935996D01*
X60485228Y23899500D01*
X60485230Y23899500D01*
X60614770Y23899500D01*
X60614772Y23899500D01*
X60739069Y23935996D01*
X60848049Y24006033D01*
X60932882Y24103937D01*
X60986697Y24221774D01*
X60992842Y24264516D01*
X61005133Y24349998D01*
X61344867Y24349998D01*
X61363302Y24221775D01*
X61411624Y24115967D01*
X61417118Y24103937D01*
X61481929Y24029140D01*
X61501952Y24006032D01*
X61610926Y23935999D01*
X61610931Y23935996D01*
X61735228Y23899500D01*
X61735230Y23899500D01*
X61864770Y23899500D01*
X61864772Y23899500D01*
X61989069Y23935996D01*
X62098049Y24006033D01*
X62182882Y24103937D01*
X62236697Y24221774D01*
X62242842Y24264516D01*
X62255133Y24349998D01*
X62594867Y24349998D01*
X62613302Y24221775D01*
X62661624Y24115967D01*
X62667118Y24103937D01*
X62731929Y24029140D01*
X62751952Y24006032D01*
X62860926Y23935999D01*
X62860931Y23935996D01*
X62985228Y23899500D01*
X62985230Y23899500D01*
X63114770Y23899500D01*
X63114772Y23899500D01*
X63239069Y23935996D01*
X63348049Y24006033D01*
X63432882Y24103937D01*
X63486697Y24221774D01*
X63492842Y24264516D01*
X63505133Y24349998D01*
X63505133Y24350003D01*
X63495069Y24419998D01*
X74219867Y24419998D01*
X74238302Y24291775D01*
X74270271Y24221775D01*
X74292118Y24173937D01*
X74376951Y24076033D01*
X74376952Y24076032D01*
X74485873Y24006033D01*
X74485931Y24005996D01*
X74610228Y23969500D01*
X74610230Y23969500D01*
X74739770Y23969500D01*
X74739772Y23969500D01*
X74864069Y24005996D01*
X74973049Y24076033D01*
X75057882Y24173937D01*
X75111697Y24291774D01*
X75130133Y24419998D01*
X77669867Y24419998D01*
X77688302Y24291775D01*
X77720271Y24221775D01*
X77742118Y24173937D01*
X77826951Y24076033D01*
X77826952Y24076032D01*
X77935873Y24006033D01*
X77935931Y24005996D01*
X78060228Y23969500D01*
X78060230Y23969500D01*
X78189770Y23969500D01*
X78189772Y23969500D01*
X78314069Y24005996D01*
X78423049Y24076033D01*
X78507882Y24173937D01*
X78561697Y24291774D01*
X78580133Y24419998D01*
X79969867Y24419998D01*
X79988302Y24291775D01*
X80020271Y24221775D01*
X80042118Y24173937D01*
X80126951Y24076033D01*
X80126952Y24076032D01*
X80235873Y24006033D01*
X80235931Y24005996D01*
X80360228Y23969500D01*
X80360230Y23969500D01*
X80489770Y23969500D01*
X80489772Y23969500D01*
X80614069Y24005996D01*
X80723049Y24076033D01*
X80807882Y24173937D01*
X80861697Y24291774D01*
X80880133Y24420000D01*
X80878709Y24429901D01*
X80861697Y24548226D01*
X80816608Y24646955D01*
X80807882Y24666063D01*
X80723049Y24763967D01*
X80723048Y24763968D01*
X80723047Y24763969D01*
X80614073Y24834002D01*
X80614070Y24834004D01*
X80614069Y24834004D01*
X80614066Y24834005D01*
X80489774Y24870500D01*
X80489772Y24870500D01*
X80360228Y24870500D01*
X80360225Y24870500D01*
X80235933Y24834005D01*
X80235926Y24834002D01*
X80126952Y24763969D01*
X80042117Y24666062D01*
X79988302Y24548226D01*
X79969867Y24420003D01*
X79969867Y24419998D01*
X78580133Y24419998D01*
X78580133Y24420000D01*
X78578709Y24429901D01*
X78561697Y24548226D01*
X78516608Y24646955D01*
X78507882Y24666063D01*
X78423049Y24763967D01*
X78423048Y24763968D01*
X78423047Y24763969D01*
X78314073Y24834002D01*
X78314070Y24834004D01*
X78314069Y24834004D01*
X78314066Y24834005D01*
X78189774Y24870500D01*
X78189772Y24870500D01*
X78060228Y24870500D01*
X78060225Y24870500D01*
X77935933Y24834005D01*
X77935926Y24834002D01*
X77826952Y24763969D01*
X77742117Y24666062D01*
X77688302Y24548226D01*
X77669867Y24420003D01*
X77669867Y24419998D01*
X75130133Y24419998D01*
X75130133Y24420000D01*
X75128709Y24429901D01*
X75111697Y24548226D01*
X75066608Y24646955D01*
X75057882Y24666063D01*
X74973049Y24763967D01*
X74973048Y24763968D01*
X74973047Y24763969D01*
X74864073Y24834002D01*
X74864070Y24834004D01*
X74864069Y24834004D01*
X74864066Y24834005D01*
X74739774Y24870500D01*
X74739772Y24870500D01*
X74610228Y24870500D01*
X74610225Y24870500D01*
X74485933Y24834005D01*
X74485926Y24834002D01*
X74376952Y24763969D01*
X74292117Y24666062D01*
X74238302Y24548226D01*
X74219867Y24420003D01*
X74219867Y24419998D01*
X63495069Y24419998D01*
X63486697Y24478226D01*
X63455040Y24547544D01*
X63432882Y24596063D01*
X63348049Y24693967D01*
X63348048Y24693968D01*
X63348047Y24693969D01*
X63239073Y24764002D01*
X63239070Y24764004D01*
X63239069Y24764004D01*
X63239066Y24764005D01*
X63114774Y24800500D01*
X63114772Y24800500D01*
X62985228Y24800500D01*
X62985225Y24800500D01*
X62860933Y24764005D01*
X62860926Y24764002D01*
X62751952Y24693969D01*
X62667117Y24596062D01*
X62613302Y24478226D01*
X62594867Y24350003D01*
X62594867Y24349998D01*
X62255133Y24349998D01*
X62255133Y24350003D01*
X62236697Y24478226D01*
X62205040Y24547544D01*
X62182882Y24596063D01*
X62098049Y24693967D01*
X62098048Y24693968D01*
X62098047Y24693969D01*
X61989073Y24764002D01*
X61989070Y24764004D01*
X61989069Y24764004D01*
X61989066Y24764005D01*
X61864774Y24800500D01*
X61864772Y24800500D01*
X61735228Y24800500D01*
X61735225Y24800500D01*
X61610933Y24764005D01*
X61610926Y24764002D01*
X61501952Y24693969D01*
X61417117Y24596062D01*
X61363302Y24478226D01*
X61344867Y24350003D01*
X61344867Y24349998D01*
X61005133Y24349998D01*
X61005133Y24350003D01*
X60986697Y24478226D01*
X60955040Y24547544D01*
X60932882Y24596063D01*
X60848049Y24693967D01*
X60848048Y24693968D01*
X60848047Y24693969D01*
X60739073Y24764002D01*
X60739070Y24764004D01*
X60739069Y24764004D01*
X60739066Y24764005D01*
X60614774Y24800500D01*
X60614772Y24800500D01*
X60485228Y24800500D01*
X60485225Y24800500D01*
X60360933Y24764005D01*
X60360926Y24764002D01*
X60251952Y24693969D01*
X60167117Y24596062D01*
X60113302Y24478226D01*
X60094867Y24350003D01*
X60094867Y24349998D01*
X57766769Y24349998D01*
X57760697Y24392226D01*
X57748013Y24420000D01*
X57706882Y24510063D01*
X57622049Y24607967D01*
X57622048Y24607968D01*
X57622047Y24607969D01*
X57513073Y24678002D01*
X57513070Y24678004D01*
X57513069Y24678004D01*
X57513066Y24678005D01*
X57388774Y24714500D01*
X57388772Y24714500D01*
X57259228Y24714500D01*
X57259225Y24714500D01*
X57134933Y24678005D01*
X57134926Y24678002D01*
X57025952Y24607969D01*
X56941117Y24510062D01*
X56887302Y24392226D01*
X56868867Y24264003D01*
X56868867Y24263998D01*
X35142421Y24263998D01*
X35212194Y24322545D01*
X35269588Y24421955D01*
X35289521Y24535000D01*
X35269588Y24648045D01*
X35212194Y24747455D01*
X35197244Y24760000D01*
X39238479Y24760000D01*
X39258411Y24646957D01*
X39258411Y24646956D01*
X39258412Y24646955D01*
X39287794Y24596063D01*
X39315807Y24547544D01*
X39398416Y24478226D01*
X39403739Y24473760D01*
X39511606Y24434500D01*
X39511607Y24434500D01*
X39626393Y24434500D01*
X39626394Y24434500D01*
X39734261Y24473760D01*
X39822194Y24547545D01*
X39879588Y24646955D01*
X39899521Y24760000D01*
X39879588Y24873045D01*
X39822194Y24972455D01*
X39822192Y24972457D01*
X39734264Y25046238D01*
X39734262Y25046239D01*
X39734261Y25046240D01*
X39626394Y25085500D01*
X39511606Y25085500D01*
X39403740Y25046240D01*
X39403739Y25046240D01*
X39403738Y25046239D01*
X39403736Y25046238D01*
X39315807Y24972457D01*
X39258411Y24873044D01*
X39238479Y24760000D01*
X35197244Y24760000D01*
X35192514Y24763969D01*
X35124264Y24821238D01*
X35124262Y24821239D01*
X35124261Y24821240D01*
X35016394Y24860500D01*
X34901606Y24860500D01*
X34793740Y24821240D01*
X34793739Y24821240D01*
X34793738Y24821239D01*
X34793736Y24821238D01*
X34705807Y24747457D01*
X34648411Y24648044D01*
X34628479Y24535000D01*
X24876616Y24535000D01*
X24196617Y25214999D01*
X42543722Y25214999D01*
X42562762Y25058184D01*
X42562763Y25058182D01*
X42576232Y25022668D01*
X42618780Y24910477D01*
X42708515Y24780472D01*
X42708516Y24780471D01*
X42708517Y24780470D01*
X42826760Y24675717D01*
X42966635Y24602304D01*
X43120015Y24564500D01*
X43120018Y24564500D01*
X43277982Y24564500D01*
X43277985Y24564500D01*
X43431365Y24602304D01*
X43571240Y24675717D01*
X43689483Y24780470D01*
X43779220Y24910477D01*
X43835237Y25058182D01*
X43854278Y25215000D01*
X43835237Y25371818D01*
X43805587Y25449998D01*
X58044867Y25449998D01*
X58063302Y25321775D01*
X58106025Y25228226D01*
X58117118Y25203937D01*
X58189210Y25120737D01*
X58201952Y25106032D01*
X58294994Y25046238D01*
X58310931Y25035996D01*
X58435228Y24999500D01*
X58435230Y24999500D01*
X58564771Y24999500D01*
X58564772Y24999500D01*
X58630058Y25018671D01*
X58651508Y25021876D01*
X58651480Y25022137D01*
X58656307Y25022668D01*
X58656319Y25022668D01*
X59122058Y25120736D01*
X59126252Y25121619D01*
X59126326Y25121268D01*
X59149285Y25124500D01*
X71833626Y25124500D01*
X71837926Y25124313D01*
X71878807Y25120736D01*
X71918452Y25131360D01*
X71922650Y25132290D01*
X71963045Y25139412D01*
X71964345Y25140162D01*
X71988236Y25150058D01*
X71988464Y25150120D01*
X71989684Y25150446D01*
X72023303Y25173988D01*
X72026911Y25176286D01*
X72062455Y25196806D01*
X72088827Y25228237D01*
X72091726Y25231402D01*
X77425324Y30564998D01*
X87924867Y30564998D01*
X87943302Y30436775D01*
X87981133Y30353939D01*
X87997118Y30318937D01*
X88051624Y30256033D01*
X88081952Y30221032D01*
X88190926Y30150999D01*
X88190931Y30150996D01*
X88315228Y30114500D01*
X88315230Y30114500D01*
X88444770Y30114500D01*
X88444772Y30114500D01*
X88569069Y30150996D01*
X88678049Y30221033D01*
X88762882Y30318937D01*
X88816697Y30436774D01*
X88835133Y30565000D01*
X88830100Y30600003D01*
X88816697Y30693226D01*
X88762882Y30811062D01*
X88762882Y30811063D01*
X88678049Y30908967D01*
X88678048Y30908968D01*
X88678047Y30908969D01*
X88569073Y30979002D01*
X88569070Y30979004D01*
X88569069Y30979004D01*
X88569066Y30979005D01*
X88444774Y31015500D01*
X88444772Y31015500D01*
X88315228Y31015500D01*
X88315225Y31015500D01*
X88190933Y30979005D01*
X88190926Y30979002D01*
X88081952Y30908969D01*
X87997117Y30811062D01*
X87943302Y30693226D01*
X87924867Y30565003D01*
X87924867Y30564998D01*
X77425324Y30564998D01*
X78220830Y31360504D01*
X78275347Y31388281D01*
X78290834Y31389500D01*
X86080535Y31389500D01*
X86102333Y31386143D01*
X86102490Y31386885D01*
X86107244Y31385884D01*
X86107249Y31385882D01*
X86573680Y31287668D01*
X86578169Y31287407D01*
X86600298Y31283566D01*
X86665228Y31264500D01*
X86665229Y31264500D01*
X86794770Y31264500D01*
X86794772Y31264500D01*
X86919069Y31300996D01*
X87028049Y31371033D01*
X87112882Y31468937D01*
X87166697Y31586774D01*
X87182976Y31699996D01*
X87185133Y31714998D01*
X87185133Y31715003D01*
X87166697Y31843226D01*
X87112882Y31961063D01*
X87028049Y32058967D01*
X87028048Y32058968D01*
X87028047Y32058969D01*
X86919073Y32129002D01*
X86919070Y32129004D01*
X86919069Y32129004D01*
X86919066Y32129005D01*
X86794774Y32165500D01*
X86794772Y32165500D01*
X86665228Y32165500D01*
X86665226Y32165500D01*
X86665222Y32165499D01*
X86599939Y32146331D01*
X86578482Y32143122D01*
X86578511Y32142863D01*
X86573683Y32142334D01*
X86103748Y32043382D01*
X86103673Y32043734D01*
X86080712Y32040500D01*
X78131374Y32040500D01*
X78127073Y32040688D01*
X78086193Y32044264D01*
X78086187Y32044264D01*
X78046564Y32033647D01*
X78042349Y32032713D01*
X78001960Y32025590D01*
X78001948Y32025586D01*
X78000640Y32024830D01*
X77976786Y32014949D01*
X77975324Y32014558D01*
X77975316Y32014554D01*
X77941716Y31991028D01*
X77938080Y31988712D01*
X77929875Y31983975D01*
X77902545Y31968195D01*
X77876181Y31936776D01*
X77873263Y31933592D01*
X71744170Y25804496D01*
X71689653Y25776719D01*
X71674166Y25775500D01*
X59149471Y25775500D01*
X59127667Y25778860D01*
X59127511Y25778117D01*
X58656313Y25877334D01*
X58651814Y25877596D01*
X58629697Y25881438D01*
X58564777Y25900499D01*
X58564773Y25900500D01*
X58564772Y25900500D01*
X58435228Y25900500D01*
X58435225Y25900500D01*
X58310933Y25864005D01*
X58310926Y25864002D01*
X58201952Y25793969D01*
X58117117Y25696062D01*
X58063302Y25578226D01*
X58044867Y25450003D01*
X58044867Y25449998D01*
X43805587Y25449998D01*
X43779220Y25519523D01*
X43689483Y25649530D01*
X43571240Y25754283D01*
X43495626Y25793969D01*
X43431364Y25827697D01*
X43277987Y25865500D01*
X43277985Y25865500D01*
X43120015Y25865500D01*
X43120012Y25865500D01*
X42966635Y25827697D01*
X42826758Y25754282D01*
X42708515Y25649529D01*
X42618780Y25519524D01*
X42562763Y25371818D01*
X42562762Y25371817D01*
X42543722Y25215002D01*
X42543722Y25214999D01*
X24196617Y25214999D01*
X23751616Y25660000D01*
X32968479Y25660000D01*
X32988411Y25546957D01*
X32988411Y25546956D01*
X32988412Y25546955D01*
X33045806Y25447545D01*
X33133739Y25373760D01*
X33241606Y25334500D01*
X33241607Y25334500D01*
X33356393Y25334500D01*
X33356394Y25334500D01*
X33464261Y25373760D01*
X33552194Y25447545D01*
X33609588Y25546955D01*
X33629521Y25660000D01*
X33609588Y25773045D01*
X33552194Y25872455D01*
X33546381Y25877333D01*
X33464264Y25946238D01*
X33464262Y25946239D01*
X33464261Y25946240D01*
X33356394Y25985500D01*
X33241606Y25985500D01*
X33133740Y25946240D01*
X33133739Y25946240D01*
X33133738Y25946239D01*
X33133736Y25946238D01*
X33045807Y25872457D01*
X32988411Y25773044D01*
X32968479Y25660000D01*
X23751616Y25660000D01*
X23301616Y26110000D01*
X34628479Y26110000D01*
X34648411Y25996957D01*
X34648411Y25996956D01*
X34648412Y25996955D01*
X34677693Y25946238D01*
X34705807Y25897544D01*
X34745780Y25864002D01*
X34793739Y25823760D01*
X34901606Y25784500D01*
X34901607Y25784500D01*
X35016393Y25784500D01*
X35016394Y25784500D01*
X35124261Y25823760D01*
X35212194Y25897545D01*
X35269588Y25996955D01*
X35289521Y26110000D01*
X35269588Y26223045D01*
X35212194Y26322455D01*
X35212192Y26322457D01*
X35124264Y26396238D01*
X35124262Y26396239D01*
X35124261Y26396240D01*
X35016394Y26435500D01*
X34901606Y26435500D01*
X34793740Y26396240D01*
X34793739Y26396240D01*
X34793738Y26396239D01*
X34793736Y26396238D01*
X34705807Y26322457D01*
X34648411Y26223044D01*
X34628479Y26110000D01*
X23301616Y26110000D01*
X17711620Y31699996D01*
X35844536Y31699996D01*
X35864375Y31346710D01*
X35864378Y31346690D01*
X35923649Y30997845D01*
X36021609Y30657818D01*
X36157026Y30330891D01*
X36276622Y30114500D01*
X36328192Y30021192D01*
X36532959Y29732600D01*
X36768750Y29468750D01*
X37032600Y29232959D01*
X37321192Y29028192D01*
X37630891Y28857027D01*
X37630890Y28857027D01*
X37630895Y28857025D01*
X37957816Y28721610D01*
X38297843Y28623650D01*
X38646700Y28564377D01*
X38646703Y28564377D01*
X38646709Y28564376D01*
X38999995Y28544536D01*
X39000000Y28544536D01*
X39000005Y28544536D01*
X39353290Y28564376D01*
X39353294Y28564377D01*
X39353300Y28564377D01*
X39702157Y28623650D01*
X40042184Y28721610D01*
X40369105Y28857025D01*
X40678808Y29028192D01*
X40967400Y29232959D01*
X41231250Y29468750D01*
X41467041Y29732600D01*
X41671808Y30021192D01*
X41842975Y30330895D01*
X41954441Y30599998D01*
X69144867Y30599998D01*
X69163302Y30471775D01*
X69179287Y30436774D01*
X69217118Y30353937D01*
X69301951Y30256033D01*
X69301952Y30256032D01*
X69410926Y30185999D01*
X69410931Y30185996D01*
X69535228Y30149500D01*
X69535230Y30149500D01*
X69664770Y30149500D01*
X69664772Y30149500D01*
X69789069Y30185996D01*
X69898049Y30256033D01*
X69982882Y30353937D01*
X70036697Y30471774D01*
X70055133Y30600000D01*
X70046820Y30657816D01*
X70036697Y30728226D01*
X69982882Y30846063D01*
X69898049Y30943967D01*
X69898048Y30943968D01*
X69898047Y30943969D01*
X69789073Y31014002D01*
X69789070Y31014004D01*
X69789069Y31014004D01*
X69783974Y31015500D01*
X69664774Y31050500D01*
X69664772Y31050500D01*
X69535228Y31050500D01*
X69535225Y31050500D01*
X69410933Y31014005D01*
X69410926Y31014002D01*
X69301952Y30943969D01*
X69217117Y30846062D01*
X69163302Y30728226D01*
X69144867Y30600003D01*
X69144867Y30599998D01*
X41954441Y30599998D01*
X41978390Y30657816D01*
X42076350Y30997843D01*
X42135623Y31346700D01*
X42136399Y31360504D01*
X42155464Y31699996D01*
X42155464Y31700005D01*
X42154622Y31714998D01*
X56868867Y31714998D01*
X56887302Y31586775D01*
X56941117Y31468939D01*
X56941118Y31468937D01*
X57025951Y31371033D01*
X57025952Y31371032D01*
X57134926Y31300999D01*
X57134931Y31300996D01*
X57259228Y31264500D01*
X57259230Y31264500D01*
X57388770Y31264500D01*
X57388772Y31264500D01*
X57513069Y31300996D01*
X57622049Y31371033D01*
X57706882Y31468937D01*
X57760697Y31586774D01*
X57776976Y31699996D01*
X57779133Y31714998D01*
X57779133Y31715003D01*
X57760697Y31843226D01*
X57706882Y31961063D01*
X57622049Y32058967D01*
X57622048Y32058968D01*
X57622047Y32058969D01*
X57513073Y32129002D01*
X57513070Y32129004D01*
X57513069Y32129004D01*
X57513066Y32129005D01*
X57388774Y32165500D01*
X57388772Y32165500D01*
X57259228Y32165500D01*
X57259225Y32165500D01*
X57134933Y32129005D01*
X57134926Y32129002D01*
X57025952Y32058969D01*
X56941117Y31961062D01*
X56887302Y31843226D01*
X56868867Y31715003D01*
X56868867Y31714998D01*
X42154622Y31714998D01*
X42135624Y32053291D01*
X42135621Y32053311D01*
X42120496Y32142333D01*
X42076350Y32402157D01*
X41978390Y32742184D01*
X41927519Y32864998D01*
X66994867Y32864998D01*
X67013302Y32736775D01*
X67067117Y32618939D01*
X67067118Y32618937D01*
X67151951Y32521033D01*
X67151952Y32521032D01*
X67260926Y32450999D01*
X67260931Y32450996D01*
X67385228Y32414500D01*
X67385230Y32414500D01*
X67514770Y32414500D01*
X67514772Y32414500D01*
X67639069Y32450996D01*
X67748049Y32521033D01*
X67832882Y32618937D01*
X67886697Y32736774D01*
X67905133Y32864998D01*
X86274867Y32864998D01*
X86293302Y32736775D01*
X86347117Y32618939D01*
X86347118Y32618937D01*
X86431951Y32521033D01*
X86431952Y32521032D01*
X86540926Y32450999D01*
X86540931Y32450996D01*
X86665228Y32414500D01*
X86665230Y32414500D01*
X86794770Y32414500D01*
X86794772Y32414500D01*
X86919069Y32450996D01*
X87028049Y32521033D01*
X87112882Y32618937D01*
X87166697Y32736774D01*
X87185133Y32865000D01*
X87166697Y32993226D01*
X87112882Y33111063D01*
X87028049Y33208967D01*
X87028048Y33208968D01*
X87028047Y33208969D01*
X86919073Y33279002D01*
X86919070Y33279004D01*
X86919069Y33279004D01*
X86919066Y33279005D01*
X86794774Y33315500D01*
X86794772Y33315500D01*
X86665228Y33315500D01*
X86665225Y33315500D01*
X86540933Y33279005D01*
X86540926Y33279002D01*
X86431952Y33208969D01*
X86347117Y33111062D01*
X86293302Y32993226D01*
X86274867Y32865003D01*
X86274867Y32864998D01*
X67905133Y32864998D01*
X67905133Y32865000D01*
X67886697Y32993226D01*
X67832882Y33111063D01*
X67748049Y33208967D01*
X67748048Y33208968D01*
X67748047Y33208969D01*
X67639073Y33279002D01*
X67639070Y33279004D01*
X67639069Y33279004D01*
X67639066Y33279005D01*
X67514774Y33315500D01*
X67514772Y33315500D01*
X67385228Y33315500D01*
X67385225Y33315500D01*
X67260933Y33279005D01*
X67260926Y33279002D01*
X67151952Y33208969D01*
X67067117Y33111062D01*
X67013302Y32993226D01*
X66994867Y32865003D01*
X66994867Y32864998D01*
X41927519Y32864998D01*
X41842975Y33069105D01*
X41842973Y33069110D01*
X41671806Y33378811D01*
X41467043Y33667397D01*
X41467041Y33667400D01*
X41231250Y33931250D01*
X41137536Y34014998D01*
X86274867Y34014998D01*
X86293302Y33886775D01*
X86347117Y33768939D01*
X86347118Y33768937D01*
X86431951Y33671033D01*
X86431952Y33671032D01*
X86540926Y33600999D01*
X86540931Y33600996D01*
X86665228Y33564500D01*
X86665230Y33564500D01*
X86794770Y33564500D01*
X86794772Y33564500D01*
X86919069Y33600996D01*
X87028049Y33671033D01*
X87112882Y33768937D01*
X87166697Y33886774D01*
X87185133Y34015000D01*
X87166697Y34143226D01*
X87112882Y34261063D01*
X87028049Y34358967D01*
X87028048Y34358968D01*
X87028047Y34358969D01*
X86919073Y34429002D01*
X86919070Y34429004D01*
X86919069Y34429004D01*
X86919066Y34429005D01*
X86794774Y34465500D01*
X86794772Y34465500D01*
X86665228Y34465500D01*
X86665225Y34465500D01*
X86540933Y34429005D01*
X86540926Y34429002D01*
X86431952Y34358969D01*
X86347117Y34261062D01*
X86293302Y34143226D01*
X86274867Y34015003D01*
X86274867Y34014998D01*
X41137536Y34014998D01*
X40967400Y34167041D01*
X40834890Y34261062D01*
X40678810Y34371807D01*
X40369108Y34542974D01*
X40369109Y34542974D01*
X40042182Y34678391D01*
X39702155Y34776351D01*
X39353310Y34835622D01*
X39353290Y34835625D01*
X39000005Y34855464D01*
X38999995Y34855464D01*
X38646709Y34835625D01*
X38646689Y34835622D01*
X38297844Y34776351D01*
X37957817Y34678391D01*
X37630890Y34542974D01*
X37321189Y34371807D01*
X37032603Y34167044D01*
X36768757Y33931257D01*
X36768743Y33931243D01*
X36532956Y33667397D01*
X36328193Y33378811D01*
X36157026Y33069110D01*
X36021609Y32742183D01*
X35923649Y32402156D01*
X35864378Y32053311D01*
X35864375Y32053291D01*
X35844536Y31700005D01*
X35844536Y31699996D01*
X17711620Y31699996D01*
X14246618Y35164998D01*
X89924867Y35164998D01*
X89943302Y35036775D01*
X89997117Y34918939D01*
X89997118Y34918937D01*
X90052117Y34855464D01*
X90081952Y34821032D01*
X90151479Y34776350D01*
X90190931Y34750996D01*
X90315228Y34714500D01*
X90315230Y34714500D01*
X90444770Y34714500D01*
X90444772Y34714500D01*
X90569069Y34750996D01*
X90678049Y34821033D01*
X90762882Y34918937D01*
X90816697Y35036774D01*
X90835133Y35165000D01*
X90816697Y35293226D01*
X90762882Y35411063D01*
X90678049Y35508967D01*
X90678048Y35508968D01*
X90678047Y35508969D01*
X90569073Y35579002D01*
X90569070Y35579004D01*
X90569069Y35579004D01*
X90569066Y35579005D01*
X90444774Y35615500D01*
X90444772Y35615500D01*
X90315228Y35615500D01*
X90315225Y35615500D01*
X90190933Y35579005D01*
X90190926Y35579002D01*
X90081952Y35508969D01*
X89997117Y35411062D01*
X89943302Y35293226D01*
X89924867Y35165003D01*
X89924867Y35164998D01*
X14246618Y35164998D01*
X13661616Y35750000D01*
X48674508Y35750000D01*
X48694354Y35624697D01*
X48694355Y35624693D01*
X48717635Y35579005D01*
X48751950Y35511658D01*
X48841658Y35421950D01*
X48954696Y35364354D01*
X49080000Y35344508D01*
X49205304Y35364354D01*
X49318342Y35421950D01*
X49408050Y35511658D01*
X49465646Y35624696D01*
X49485492Y35750000D01*
X49465646Y35875304D01*
X49408050Y35988342D01*
X49318342Y36078050D01*
X49314406Y36080056D01*
X49205307Y36135645D01*
X49205304Y36135646D01*
X49080000Y36155492D01*
X48954696Y36135646D01*
X48954692Y36135645D01*
X48841659Y36078051D01*
X48751949Y35988341D01*
X48694355Y35875308D01*
X48694354Y35875304D01*
X48674508Y35750001D01*
X48674508Y35750000D01*
X13661616Y35750000D01*
X13096618Y36314998D01*
X88924867Y36314998D01*
X88943302Y36186775D01*
X88966653Y36135645D01*
X88997118Y36068937D01*
X89066953Y35988342D01*
X89081952Y35971032D01*
X89190926Y35900999D01*
X89190931Y35900996D01*
X89315228Y35864500D01*
X89315230Y35864500D01*
X89444770Y35864500D01*
X89444772Y35864500D01*
X89569069Y35900996D01*
X89678049Y35971033D01*
X89762882Y36068937D01*
X89816697Y36186774D01*
X89835133Y36315000D01*
X89816697Y36443226D01*
X89762882Y36561063D01*
X89678049Y36658967D01*
X89678048Y36658968D01*
X89678047Y36658969D01*
X89569073Y36729002D01*
X89569070Y36729004D01*
X89569069Y36729004D01*
X89569066Y36729005D01*
X89444774Y36765500D01*
X89444772Y36765500D01*
X89315228Y36765500D01*
X89315225Y36765500D01*
X89190933Y36729005D01*
X89190926Y36729002D01*
X89081952Y36658969D01*
X88997117Y36561062D01*
X88943302Y36443226D01*
X88924867Y36315003D01*
X88924867Y36314998D01*
X13096618Y36314998D01*
X11111616Y38300000D01*
X21654540Y38300000D01*
X21674327Y38111739D01*
X21732819Y37931721D01*
X21732825Y37931707D01*
X21796295Y37821775D01*
X21827467Y37767784D01*
X21954129Y37627112D01*
X22107270Y37515849D01*
X22280197Y37438856D01*
X22465354Y37399500D01*
X22465357Y37399500D01*
X22654643Y37399500D01*
X22654646Y37399500D01*
X22839803Y37438856D01*
X23012730Y37515849D01*
X23165871Y37627112D01*
X23292533Y37767784D01*
X23387179Y37931716D01*
X23393119Y37949998D01*
X60094867Y37949998D01*
X60113302Y37821775D01*
X60167117Y37703939D01*
X60167118Y37703937D01*
X60233682Y37627117D01*
X60251952Y37606032D01*
X60360926Y37535999D01*
X60360931Y37535996D01*
X60485228Y37499500D01*
X60485230Y37499500D01*
X60614770Y37499500D01*
X60614772Y37499500D01*
X60739069Y37535996D01*
X60848049Y37606033D01*
X60932882Y37703937D01*
X60986697Y37821774D01*
X61005133Y37949998D01*
X61344867Y37949998D01*
X61363302Y37821775D01*
X61417117Y37703939D01*
X61417118Y37703937D01*
X61483682Y37627117D01*
X61501952Y37606032D01*
X61610926Y37535999D01*
X61610931Y37535996D01*
X61735228Y37499500D01*
X61735230Y37499500D01*
X61864770Y37499500D01*
X61864772Y37499500D01*
X61989069Y37535996D01*
X62098049Y37606033D01*
X62182882Y37703937D01*
X62236697Y37821774D01*
X62255133Y37949998D01*
X62594867Y37949998D01*
X62613302Y37821775D01*
X62667117Y37703939D01*
X62667118Y37703937D01*
X62733682Y37627117D01*
X62751952Y37606032D01*
X62860926Y37535999D01*
X62860931Y37535996D01*
X62985228Y37499500D01*
X62985230Y37499500D01*
X63114770Y37499500D01*
X63114772Y37499500D01*
X63239069Y37535996D01*
X63348049Y37606033D01*
X63432882Y37703937D01*
X63486697Y37821774D01*
X63505133Y37950000D01*
X63486697Y38078226D01*
X63432882Y38196063D01*
X63348049Y38293967D01*
X63348048Y38293968D01*
X63348047Y38293969D01*
X63239073Y38364002D01*
X63239070Y38364004D01*
X63239069Y38364004D01*
X63239066Y38364005D01*
X63114774Y38400500D01*
X63114772Y38400500D01*
X62985228Y38400500D01*
X62985225Y38400500D01*
X62860933Y38364005D01*
X62860926Y38364002D01*
X62751952Y38293969D01*
X62667117Y38196062D01*
X62613302Y38078226D01*
X62594867Y37950003D01*
X62594867Y37949998D01*
X62255133Y37949998D01*
X62255133Y37950000D01*
X62236697Y38078226D01*
X62182882Y38196063D01*
X62098049Y38293967D01*
X62098048Y38293968D01*
X62098047Y38293969D01*
X61989073Y38364002D01*
X61989070Y38364004D01*
X61989069Y38364004D01*
X61989066Y38364005D01*
X61864774Y38400500D01*
X61864772Y38400500D01*
X61735228Y38400500D01*
X61735225Y38400500D01*
X61610933Y38364005D01*
X61610926Y38364002D01*
X61501952Y38293969D01*
X61417117Y38196062D01*
X61363302Y38078226D01*
X61344867Y37950003D01*
X61344867Y37949998D01*
X61005133Y37949998D01*
X61005133Y37950000D01*
X60986697Y38078226D01*
X60932882Y38196063D01*
X60848049Y38293967D01*
X60848048Y38293968D01*
X60848047Y38293969D01*
X60739073Y38364002D01*
X60739070Y38364004D01*
X60739069Y38364004D01*
X60739066Y38364005D01*
X60614774Y38400500D01*
X60614772Y38400500D01*
X60485228Y38400500D01*
X60485225Y38400500D01*
X60360933Y38364005D01*
X60360926Y38364002D01*
X60251952Y38293969D01*
X60167117Y38196062D01*
X60113302Y38078226D01*
X60094867Y37950003D01*
X60094867Y37949998D01*
X23393119Y37949998D01*
X23445674Y38111744D01*
X23465460Y38300000D01*
X23445674Y38488256D01*
X23387179Y38668284D01*
X23387176Y38668289D01*
X23387174Y38668294D01*
X23338551Y38752510D01*
X23292533Y38832216D01*
X23165871Y38972888D01*
X23012730Y39084151D01*
X23012725Y39084153D01*
X23012722Y39084155D01*
X22874388Y39145746D01*
X22839803Y39161144D01*
X22839800Y39161145D01*
X22839799Y39161145D01*
X22804580Y39168631D01*
X22654646Y39200500D01*
X22465354Y39200500D01*
X22347289Y39175405D01*
X22280200Y39161145D01*
X22280194Y39161143D01*
X22107277Y39084155D01*
X22107268Y39084150D01*
X21954129Y38972889D01*
X21954124Y38972884D01*
X21827469Y38832219D01*
X21827465Y38832213D01*
X21732825Y38668294D01*
X21732819Y38668280D01*
X21674327Y38488262D01*
X21674326Y38488258D01*
X21674326Y38488256D01*
X21665103Y38400500D01*
X21654540Y38300000D01*
X11111616Y38300000D01*
X10804496Y38607120D01*
X10776719Y38661637D01*
X10775500Y38677124D01*
X10775500Y39499998D01*
X64144867Y39499998D01*
X64163302Y39371775D01*
X64217117Y39253939D01*
X64217118Y39253937D01*
X64297523Y39161143D01*
X64301952Y39156032D01*
X64410926Y39085999D01*
X64410931Y39085996D01*
X64535228Y39049500D01*
X64535230Y39049500D01*
X64664770Y39049500D01*
X64664772Y39049500D01*
X64789069Y39085996D01*
X64898049Y39156033D01*
X64982882Y39253937D01*
X65036697Y39371774D01*
X65055133Y39500000D01*
X65036697Y39628226D01*
X64982882Y39746063D01*
X64898049Y39843967D01*
X64898048Y39843968D01*
X64898047Y39843969D01*
X64789073Y39914002D01*
X64789070Y39914004D01*
X64789069Y39914004D01*
X64789066Y39914005D01*
X64664774Y39950500D01*
X64664772Y39950500D01*
X64535228Y39950500D01*
X64535225Y39950500D01*
X64410933Y39914005D01*
X64410926Y39914002D01*
X64301952Y39843969D01*
X64217117Y39746062D01*
X64163302Y39628226D01*
X64144867Y39500003D01*
X64144867Y39499998D01*
X10775500Y39499998D01*
X10775500Y40307105D01*
X63287760Y40307105D01*
X63306195Y40178882D01*
X63319614Y40149500D01*
X63360011Y40061044D01*
X63444844Y39963140D01*
X63444845Y39963139D01*
X63521301Y39914004D01*
X63553824Y39893103D01*
X63678121Y39856607D01*
X63678123Y39856607D01*
X63807663Y39856607D01*
X63807665Y39856607D01*
X63931962Y39893103D01*
X64040942Y39963140D01*
X64125775Y40061044D01*
X64179590Y40178881D01*
X64198026Y40307107D01*
X64179590Y40435333D01*
X64125775Y40553170D01*
X64085199Y40599998D01*
X74219867Y40599998D01*
X74238302Y40471775D01*
X74254945Y40435333D01*
X74292118Y40353937D01*
X74332696Y40307107D01*
X74376952Y40256032D01*
X74485926Y40185999D01*
X74485931Y40185996D01*
X74610228Y40149500D01*
X74610230Y40149500D01*
X74739770Y40149500D01*
X74739772Y40149500D01*
X74864069Y40185996D01*
X74973049Y40256033D01*
X75057882Y40353937D01*
X75111697Y40471774D01*
X75122872Y40549500D01*
X75130133Y40599998D01*
X75130133Y40600003D01*
X75111697Y40728226D01*
X75057882Y40846063D01*
X74973049Y40943967D01*
X74973048Y40943968D01*
X74973047Y40943969D01*
X74885864Y40999998D01*
X83944867Y40999998D01*
X83963302Y40871775D01*
X84015442Y40757607D01*
X84017118Y40753937D01*
X84101951Y40656033D01*
X84101952Y40656032D01*
X84189140Y40600000D01*
X84210931Y40585996D01*
X84335228Y40549500D01*
X84335230Y40549500D01*
X84464770Y40549500D01*
X84464772Y40549500D01*
X84589069Y40585996D01*
X84698049Y40656033D01*
X84782882Y40753937D01*
X84836697Y40871774D01*
X84855133Y41000000D01*
X84853119Y41014005D01*
X84836697Y41128226D01*
X84810314Y41185996D01*
X84782882Y41246063D01*
X84698049Y41343967D01*
X84698048Y41343968D01*
X84698047Y41343969D01*
X84589073Y41414002D01*
X84589070Y41414004D01*
X84589069Y41414004D01*
X84589066Y41414005D01*
X84464774Y41450500D01*
X84464772Y41450500D01*
X84335228Y41450500D01*
X84335225Y41450500D01*
X84210933Y41414005D01*
X84210926Y41414002D01*
X84101952Y41343969D01*
X84017117Y41246062D01*
X83963302Y41128226D01*
X83944867Y41000003D01*
X83944867Y40999998D01*
X74885864Y40999998D01*
X74864073Y41014002D01*
X74864070Y41014004D01*
X74864069Y41014004D01*
X74864066Y41014005D01*
X74739774Y41050500D01*
X74739772Y41050500D01*
X74610228Y41050500D01*
X74610225Y41050500D01*
X74485933Y41014005D01*
X74485926Y41014002D01*
X74376952Y40943969D01*
X74292117Y40846062D01*
X74238302Y40728226D01*
X74219867Y40600003D01*
X74219867Y40599998D01*
X64085199Y40599998D01*
X64040942Y40651074D01*
X64040941Y40651075D01*
X64040940Y40651076D01*
X63931966Y40721109D01*
X63931963Y40721111D01*
X63931962Y40721111D01*
X63931959Y40721112D01*
X63807667Y40757607D01*
X63807665Y40757607D01*
X63678121Y40757607D01*
X63678118Y40757607D01*
X63553826Y40721112D01*
X63553819Y40721109D01*
X63444845Y40651076D01*
X63360010Y40553169D01*
X63306195Y40435333D01*
X63287760Y40307110D01*
X63287760Y40307105D01*
X10775500Y40307105D01*
X10775500Y41450000D01*
X48674508Y41450000D01*
X48691301Y41343969D01*
X48694354Y41324697D01*
X48694355Y41324693D01*
X48729340Y41256033D01*
X48751950Y41211658D01*
X48841658Y41121950D01*
X48954696Y41064354D01*
X49080000Y41044508D01*
X49205304Y41064354D01*
X49318342Y41121950D01*
X49346390Y41149998D01*
X62444867Y41149998D01*
X62463302Y41021775D01*
X62517117Y40903939D01*
X62517118Y40903937D01*
X62601951Y40806033D01*
X62601952Y40806032D01*
X62683011Y40753939D01*
X62710931Y40735996D01*
X62835228Y40699500D01*
X62835230Y40699500D01*
X62964770Y40699500D01*
X62964772Y40699500D01*
X63089069Y40735996D01*
X63198049Y40806033D01*
X63282882Y40903937D01*
X63336697Y41021774D01*
X63351100Y41121950D01*
X63355133Y41149998D01*
X63355133Y41150003D01*
X63336697Y41278226D01*
X63315476Y41324693D01*
X63282882Y41396063D01*
X63198049Y41493967D01*
X63198048Y41493968D01*
X63198047Y41493969D01*
X63089073Y41564002D01*
X63089070Y41564004D01*
X63089069Y41564004D01*
X63089066Y41564005D01*
X62966484Y41599998D01*
X86824867Y41599998D01*
X86843302Y41471775D01*
X86869686Y41414004D01*
X86897118Y41353937D01*
X86922458Y41324693D01*
X86981952Y41256032D01*
X86997466Y41246062D01*
X87090931Y41185996D01*
X87215228Y41149500D01*
X87215230Y41149500D01*
X87344770Y41149500D01*
X87344772Y41149500D01*
X87469069Y41185996D01*
X87578049Y41256033D01*
X87662882Y41353937D01*
X87716697Y41471774D01*
X87735133Y41600000D01*
X87735061Y41600500D01*
X87716697Y41728226D01*
X87693942Y41778051D01*
X87662882Y41846063D01*
X87578049Y41943967D01*
X87578048Y41943968D01*
X87578047Y41943969D01*
X87469073Y42014002D01*
X87469070Y42014004D01*
X87469069Y42014004D01*
X87469066Y42014005D01*
X87344774Y42050500D01*
X87344772Y42050500D01*
X87215228Y42050500D01*
X87215225Y42050500D01*
X87090933Y42014005D01*
X87090926Y42014002D01*
X86981952Y41943969D01*
X86897117Y41846062D01*
X86843302Y41728226D01*
X86824867Y41600003D01*
X86824867Y41599998D01*
X62966484Y41599998D01*
X62964774Y41600500D01*
X62964772Y41600500D01*
X62835228Y41600500D01*
X62835225Y41600500D01*
X62710933Y41564005D01*
X62710926Y41564002D01*
X62601952Y41493969D01*
X62517117Y41396062D01*
X62463302Y41278226D01*
X62444867Y41150003D01*
X62444867Y41149998D01*
X49346390Y41149998D01*
X49408050Y41211658D01*
X49465646Y41324696D01*
X49485492Y41450000D01*
X49465646Y41575304D01*
X49408050Y41688342D01*
X49318342Y41778050D01*
X49314406Y41780056D01*
X49205307Y41835645D01*
X49205304Y41835646D01*
X49080000Y41855492D01*
X48954696Y41835646D01*
X48954692Y41835645D01*
X48841659Y41778051D01*
X48751949Y41688341D01*
X48694355Y41575308D01*
X48694354Y41575304D01*
X48677957Y41471774D01*
X48674508Y41450000D01*
X10775500Y41450000D01*
X10775500Y42899998D01*
X88084867Y42899998D01*
X88103302Y42771775D01*
X88157117Y42653939D01*
X88157118Y42653937D01*
X88241951Y42556033D01*
X88241952Y42556032D01*
X88350926Y42485999D01*
X88350931Y42485996D01*
X88475228Y42449500D01*
X88475230Y42449500D01*
X88604770Y42449500D01*
X88604772Y42449500D01*
X88729069Y42485996D01*
X88838049Y42556033D01*
X88922882Y42653937D01*
X88976697Y42771774D01*
X88995133Y42900000D01*
X88976697Y43028226D01*
X88922882Y43146063D01*
X88838049Y43243967D01*
X88838048Y43243968D01*
X88838047Y43243969D01*
X88729073Y43314002D01*
X88729070Y43314004D01*
X88729069Y43314004D01*
X88729066Y43314005D01*
X88604774Y43350500D01*
X88604772Y43350500D01*
X88475228Y43350500D01*
X88475225Y43350500D01*
X88350933Y43314005D01*
X88350926Y43314002D01*
X88241952Y43243969D01*
X88157117Y43146062D01*
X88103302Y43028226D01*
X88084867Y42900003D01*
X88084867Y42899998D01*
X10775500Y42899998D01*
X10775500Y45039998D01*
X50994867Y45039998D01*
X51013302Y44911775D01*
X51067117Y44793939D01*
X51067118Y44793937D01*
X51151951Y44696033D01*
X51151952Y44696032D01*
X51224356Y44649501D01*
X51260931Y44625996D01*
X51385228Y44589500D01*
X51385230Y44589500D01*
X51514770Y44589500D01*
X51514772Y44589500D01*
X51639069Y44625996D01*
X51748049Y44696033D01*
X51832882Y44793937D01*
X51886697Y44911774D01*
X51905133Y45040000D01*
X51902002Y45061774D01*
X51896506Y45099998D01*
X69494867Y45099998D01*
X69513302Y44971775D01*
X69540704Y44911775D01*
X69567118Y44853937D01*
X69634651Y44775999D01*
X69651952Y44756032D01*
X69760926Y44685999D01*
X69760931Y44685996D01*
X69885228Y44649500D01*
X69885230Y44649500D01*
X70014770Y44649500D01*
X70014772Y44649500D01*
X70139069Y44685996D01*
X70248049Y44756033D01*
X70332882Y44853937D01*
X70386697Y44971774D01*
X70405133Y45099998D01*
X74144867Y45099998D01*
X74163302Y44971775D01*
X74190704Y44911775D01*
X74217118Y44853937D01*
X74284651Y44775999D01*
X74301952Y44756032D01*
X74410926Y44685999D01*
X74410931Y44685996D01*
X74535228Y44649500D01*
X74535230Y44649500D01*
X74664770Y44649500D01*
X74664772Y44649500D01*
X74789069Y44685996D01*
X74898049Y44756033D01*
X74982882Y44853937D01*
X75036697Y44971774D01*
X75055133Y45100000D01*
X75042193Y45189998D01*
X88134867Y45189998D01*
X88153302Y45061775D01*
X88194405Y44971774D01*
X88207118Y44943937D01*
X88285101Y44853939D01*
X88291952Y44846032D01*
X88373011Y44793939D01*
X88400931Y44775996D01*
X88525228Y44739500D01*
X88525230Y44739500D01*
X88654770Y44739500D01*
X88654772Y44739500D01*
X88779069Y44775996D01*
X88888049Y44846033D01*
X88972882Y44943937D01*
X89026697Y45061774D01*
X89032842Y45104516D01*
X89045133Y45189998D01*
X89045133Y45190003D01*
X89026697Y45318226D01*
X88972882Y45436063D01*
X88888049Y45533967D01*
X88888048Y45533968D01*
X88888047Y45533969D01*
X88779073Y45604002D01*
X88779070Y45604004D01*
X88779069Y45604004D01*
X88779066Y45604005D01*
X88654774Y45640500D01*
X88654772Y45640500D01*
X88525228Y45640500D01*
X88525225Y45640500D01*
X88400933Y45604005D01*
X88400926Y45604002D01*
X88291952Y45533969D01*
X88207117Y45436062D01*
X88153302Y45318226D01*
X88134867Y45190003D01*
X88134867Y45189998D01*
X75042193Y45189998D01*
X75036697Y45228226D01*
X74982882Y45346063D01*
X74898049Y45443967D01*
X74898048Y45443968D01*
X74898047Y45443969D01*
X74789073Y45514002D01*
X74789070Y45514004D01*
X74789069Y45514004D01*
X74789066Y45514005D01*
X74664774Y45550500D01*
X74664772Y45550500D01*
X74535228Y45550500D01*
X74535225Y45550500D01*
X74410933Y45514005D01*
X74410926Y45514002D01*
X74301952Y45443969D01*
X74217117Y45346062D01*
X74163302Y45228226D01*
X74144867Y45100003D01*
X74144867Y45099998D01*
X70405133Y45099998D01*
X70405133Y45100000D01*
X70386697Y45228226D01*
X70332882Y45346063D01*
X70248049Y45443967D01*
X70248048Y45443968D01*
X70248047Y45443969D01*
X70139073Y45514002D01*
X70139070Y45514004D01*
X70139069Y45514004D01*
X70139066Y45514005D01*
X70014774Y45550500D01*
X70014772Y45550500D01*
X69885228Y45550500D01*
X69885225Y45550500D01*
X69760933Y45514005D01*
X69760926Y45514002D01*
X69651952Y45443969D01*
X69567117Y45346062D01*
X69513302Y45228226D01*
X69494867Y45100003D01*
X69494867Y45099998D01*
X51896506Y45099998D01*
X51886697Y45168226D01*
X51876752Y45190003D01*
X51832882Y45286063D01*
X51748049Y45383967D01*
X51748048Y45383968D01*
X51748047Y45383969D01*
X51639073Y45454002D01*
X51639070Y45454004D01*
X51639069Y45454004D01*
X51639066Y45454005D01*
X51514774Y45490500D01*
X51514772Y45490500D01*
X51385228Y45490500D01*
X51385225Y45490500D01*
X51260933Y45454005D01*
X51260926Y45454002D01*
X51151952Y45383969D01*
X51067117Y45286062D01*
X51013302Y45168226D01*
X50994867Y45040003D01*
X50994867Y45039998D01*
X10775500Y45039998D01*
X10775500Y46459998D01*
X88134867Y46459998D01*
X88153302Y46331775D01*
X88207117Y46213939D01*
X88207118Y46213937D01*
X88291951Y46116033D01*
X88291952Y46116032D01*
X88400926Y46045999D01*
X88400931Y46045996D01*
X88525228Y46009500D01*
X88525230Y46009500D01*
X88654770Y46009500D01*
X88654772Y46009500D01*
X88779069Y46045996D01*
X88888049Y46116033D01*
X88972882Y46213937D01*
X89026697Y46331774D01*
X89045133Y46460000D01*
X89026697Y46588226D01*
X88972882Y46706063D01*
X88888049Y46803967D01*
X88888048Y46803968D01*
X88888047Y46803969D01*
X88779073Y46874002D01*
X88779070Y46874004D01*
X88779069Y46874004D01*
X88779066Y46874005D01*
X88654774Y46910500D01*
X88654772Y46910500D01*
X88525228Y46910500D01*
X88525225Y46910500D01*
X88400933Y46874005D01*
X88400926Y46874002D01*
X88291952Y46803969D01*
X88207117Y46706062D01*
X88153302Y46588226D01*
X88134867Y46460003D01*
X88134867Y46459998D01*
X10775500Y46459998D01*
X10775500Y47519998D01*
X79744867Y47519998D01*
X79763302Y47391775D01*
X79817117Y47273939D01*
X79817118Y47273937D01*
X79901951Y47176033D01*
X79901952Y47176032D01*
X80010926Y47105999D01*
X80010931Y47105996D01*
X80135228Y47069500D01*
X80135230Y47069500D01*
X80264770Y47069500D01*
X80264772Y47069500D01*
X80389069Y47105996D01*
X80498049Y47176033D01*
X80582882Y47273937D01*
X80636697Y47391774D01*
X80655133Y47520000D01*
X80636697Y47648226D01*
X80582882Y47766063D01*
X80498049Y47863967D01*
X80498048Y47863968D01*
X80498047Y47863969D01*
X80389073Y47934002D01*
X80389070Y47934004D01*
X80389069Y47934004D01*
X80389066Y47934005D01*
X80264774Y47970500D01*
X80264772Y47970500D01*
X80135228Y47970500D01*
X80135225Y47970500D01*
X80010933Y47934005D01*
X80010926Y47934002D01*
X79901952Y47863969D01*
X79817117Y47766062D01*
X79763302Y47648226D01*
X79744867Y47520003D01*
X79744867Y47519998D01*
X10775500Y47519998D01*
X10775500Y48239998D01*
X86674867Y48239998D01*
X86693302Y48111775D01*
X86747117Y47993939D01*
X86747118Y47993937D01*
X86831951Y47896033D01*
X86831952Y47896032D01*
X86940926Y47825999D01*
X86940931Y47825996D01*
X87065228Y47789500D01*
X87065230Y47789500D01*
X87194770Y47789500D01*
X87194772Y47789500D01*
X87319069Y47825996D01*
X87428049Y47896033D01*
X87512882Y47993937D01*
X87566697Y48111774D01*
X87585133Y48240000D01*
X87566697Y48368226D01*
X87512882Y48486063D01*
X87428049Y48583967D01*
X87428048Y48583968D01*
X87428047Y48583969D01*
X87319073Y48654002D01*
X87319070Y48654004D01*
X87319069Y48654004D01*
X87319066Y48654005D01*
X87194774Y48690500D01*
X87194772Y48690500D01*
X87065228Y48690500D01*
X87065225Y48690500D01*
X86940933Y48654005D01*
X86940926Y48654002D01*
X86831952Y48583969D01*
X86747117Y48486062D01*
X86693302Y48368226D01*
X86674867Y48240003D01*
X86674867Y48239998D01*
X10775500Y48239998D01*
X10775500Y49119998D01*
X81144867Y49119998D01*
X81163302Y48991775D01*
X81217117Y48873939D01*
X81217118Y48873937D01*
X81301951Y48776033D01*
X81301952Y48776032D01*
X81410926Y48705999D01*
X81410931Y48705996D01*
X81535228Y48669500D01*
X81535230Y48669500D01*
X81664770Y48669500D01*
X81664772Y48669500D01*
X81789069Y48705996D01*
X81898049Y48776033D01*
X81982882Y48873937D01*
X82036697Y48991774D01*
X82055133Y49120000D01*
X82036697Y49248226D01*
X81982882Y49366063D01*
X81898049Y49463967D01*
X81898048Y49463968D01*
X81898047Y49463969D01*
X81789073Y49534002D01*
X81789070Y49534004D01*
X81789069Y49534004D01*
X81789066Y49534005D01*
X81664774Y49570500D01*
X81664772Y49570500D01*
X81535228Y49570500D01*
X81535225Y49570500D01*
X81410933Y49534005D01*
X81410926Y49534002D01*
X81301952Y49463969D01*
X81217117Y49366062D01*
X81163302Y49248226D01*
X81144867Y49120003D01*
X81144867Y49119998D01*
X10775500Y49119998D01*
X10775500Y53349996D01*
X56294536Y53349996D01*
X56314375Y52996710D01*
X56314378Y52996690D01*
X56373649Y52647845D01*
X56471609Y52307818D01*
X56607026Y51980891D01*
X56778193Y51671190D01*
X56982956Y51382604D01*
X56982959Y51382600D01*
X57218750Y51118750D01*
X57482600Y50882959D01*
X57771192Y50678192D01*
X58080891Y50507027D01*
X58080890Y50507027D01*
X58080895Y50507025D01*
X58407816Y50371610D01*
X58747843Y50273650D01*
X59096700Y50214377D01*
X59096703Y50214377D01*
X59096709Y50214376D01*
X59449995Y50194536D01*
X59450000Y50194536D01*
X59450005Y50194536D01*
X59803290Y50214376D01*
X59803294Y50214377D01*
X59803300Y50214377D01*
X60152157Y50273650D01*
X60492184Y50371610D01*
X60609003Y50419998D01*
X82544867Y50419998D01*
X82563302Y50291775D01*
X82617117Y50173939D01*
X82617118Y50173937D01*
X82701951Y50076033D01*
X82701952Y50076032D01*
X82810926Y50005999D01*
X82810931Y50005996D01*
X82935228Y49969500D01*
X82935230Y49969500D01*
X83064770Y49969500D01*
X83064772Y49969500D01*
X83189069Y50005996D01*
X83298049Y50076033D01*
X83382882Y50173937D01*
X83436697Y50291774D01*
X83455133Y50420000D01*
X83442620Y50507027D01*
X83436697Y50548226D01*
X83382882Y50666062D01*
X83382882Y50666063D01*
X83298049Y50763967D01*
X83298048Y50763968D01*
X83298047Y50763969D01*
X83189073Y50834002D01*
X83189070Y50834004D01*
X83189069Y50834004D01*
X83189066Y50834005D01*
X83064774Y50870500D01*
X83064772Y50870500D01*
X82935228Y50870500D01*
X82935225Y50870500D01*
X82810933Y50834005D01*
X82810926Y50834002D01*
X82701952Y50763969D01*
X82617117Y50666062D01*
X82563302Y50548226D01*
X82544867Y50420003D01*
X82544867Y50419998D01*
X60609003Y50419998D01*
X60819105Y50507025D01*
X61128808Y50678192D01*
X61417400Y50882959D01*
X61681250Y51118750D01*
X61917041Y51382600D01*
X62121808Y51671192D01*
X62292975Y51980895D01*
X62428390Y52307816D01*
X62496721Y52544997D01*
X64394659Y52544997D01*
X64413974Y52348874D01*
X64413975Y52348871D01*
X64471187Y52160270D01*
X64471188Y52160268D01*
X64542218Y52027382D01*
X64564090Y51986462D01*
X64564092Y51986460D01*
X64564093Y51986458D01*
X64689112Y51834122D01*
X64689121Y51834113D01*
X64841457Y51709094D01*
X64841462Y51709090D01*
X65015273Y51616186D01*
X65203868Y51558976D01*
X65203870Y51558976D01*
X65203873Y51558975D01*
X65399997Y51539659D01*
X65400000Y51539659D01*
X65400003Y51539659D01*
X65596126Y51558975D01*
X65596127Y51558976D01*
X65596132Y51558976D01*
X65784727Y51616186D01*
X65958538Y51709090D01*
X66110883Y51834117D01*
X66235910Y51986462D01*
X66328814Y52160273D01*
X66386024Y52348868D01*
X66405341Y52544997D01*
X68994659Y52544997D01*
X69013974Y52348874D01*
X69013975Y52348871D01*
X69071187Y52160270D01*
X69071188Y52160268D01*
X69142218Y52027382D01*
X69164090Y51986462D01*
X69164092Y51986460D01*
X69164093Y51986458D01*
X69289112Y51834122D01*
X69289121Y51834113D01*
X69441457Y51709094D01*
X69441462Y51709090D01*
X69615273Y51616186D01*
X69803868Y51558976D01*
X69803870Y51558976D01*
X69803873Y51558975D01*
X69999997Y51539659D01*
X70000000Y51539659D01*
X70000003Y51539659D01*
X70196126Y51558975D01*
X70196127Y51558976D01*
X70196132Y51558976D01*
X70384727Y51616186D01*
X70558538Y51709090D01*
X70710883Y51834117D01*
X70835910Y51986462D01*
X70928814Y52160273D01*
X70986024Y52348868D01*
X71005341Y52544997D01*
X73594659Y52544997D01*
X73613974Y52348874D01*
X73613975Y52348871D01*
X73671187Y52160270D01*
X73671188Y52160268D01*
X73742218Y52027382D01*
X73764090Y51986462D01*
X73764092Y51986460D01*
X73764093Y51986458D01*
X73889112Y51834122D01*
X73889121Y51834113D01*
X74041457Y51709094D01*
X74041462Y51709090D01*
X74215273Y51616186D01*
X74403868Y51558976D01*
X74403870Y51558976D01*
X74403873Y51558975D01*
X74599997Y51539659D01*
X74600000Y51539659D01*
X74600003Y51539659D01*
X74796126Y51558975D01*
X74796127Y51558976D01*
X74796132Y51558976D01*
X74984727Y51616186D01*
X75158538Y51709090D01*
X75310883Y51834117D01*
X75435910Y51986462D01*
X75528814Y52160273D01*
X75586024Y52348868D01*
X75605341Y52544997D01*
X78194659Y52544997D01*
X78213974Y52348874D01*
X78213975Y52348871D01*
X78271187Y52160270D01*
X78271188Y52160268D01*
X78342218Y52027382D01*
X78364090Y51986462D01*
X78364092Y51986460D01*
X78364093Y51986458D01*
X78489112Y51834122D01*
X78489121Y51834113D01*
X78641457Y51709094D01*
X78641462Y51709090D01*
X78815273Y51616186D01*
X79003868Y51558976D01*
X79003870Y51558976D01*
X79003873Y51558975D01*
X79199997Y51539659D01*
X79200000Y51539659D01*
X79200003Y51539659D01*
X79396126Y51558975D01*
X79396127Y51558976D01*
X79396132Y51558976D01*
X79584727Y51616186D01*
X79758538Y51709090D01*
X79910883Y51834117D01*
X80035910Y51986462D01*
X80128814Y52160273D01*
X80186024Y52348868D01*
X80205341Y52544997D01*
X82794659Y52544997D01*
X82813974Y52348874D01*
X82813975Y52348871D01*
X82871187Y52160270D01*
X82871188Y52160268D01*
X82942218Y52027382D01*
X82964090Y51986462D01*
X82964092Y51986460D01*
X82964093Y51986458D01*
X83089112Y51834122D01*
X83089121Y51834113D01*
X83241457Y51709094D01*
X83241462Y51709090D01*
X83415273Y51616186D01*
X83603868Y51558976D01*
X83603870Y51558976D01*
X83603873Y51558975D01*
X83799997Y51539659D01*
X83800000Y51539659D01*
X83800003Y51539659D01*
X83996126Y51558975D01*
X83996127Y51558976D01*
X83996132Y51558976D01*
X84184727Y51616186D01*
X84358538Y51709090D01*
X84510883Y51834117D01*
X84635910Y51986462D01*
X84728814Y52160273D01*
X84786024Y52348868D01*
X84805341Y52545000D01*
X84795212Y52647845D01*
X84786025Y52741127D01*
X84786024Y52741130D01*
X84786024Y52741132D01*
X84728814Y52929727D01*
X84635910Y53103538D01*
X84635906Y53103543D01*
X84510887Y53255879D01*
X84510878Y53255888D01*
X84358542Y53380907D01*
X84358540Y53380908D01*
X84358538Y53380910D01*
X84317618Y53402782D01*
X84184732Y53473812D01*
X84184730Y53473813D01*
X83996129Y53531025D01*
X83996126Y53531026D01*
X83800003Y53550341D01*
X83799997Y53550341D01*
X83603873Y53531026D01*
X83603870Y53531025D01*
X83415269Y53473813D01*
X83415267Y53473812D01*
X83241467Y53380913D01*
X83241457Y53380907D01*
X83089121Y53255888D01*
X83089112Y53255879D01*
X82964093Y53103543D01*
X82964087Y53103533D01*
X82871188Y52929733D01*
X82871187Y52929731D01*
X82813975Y52741130D01*
X82813974Y52741127D01*
X82794659Y52545004D01*
X82794659Y52544997D01*
X80205341Y52544997D01*
X80205341Y52545000D01*
X80195212Y52647845D01*
X80186025Y52741127D01*
X80186024Y52741130D01*
X80186024Y52741132D01*
X80128814Y52929727D01*
X80035910Y53103538D01*
X80035906Y53103543D01*
X79910887Y53255879D01*
X79910878Y53255888D01*
X79758542Y53380907D01*
X79758540Y53380908D01*
X79758538Y53380910D01*
X79717618Y53402782D01*
X79584732Y53473812D01*
X79584730Y53473813D01*
X79396129Y53531025D01*
X79396126Y53531026D01*
X79200003Y53550341D01*
X79199997Y53550341D01*
X79003873Y53531026D01*
X79003870Y53531025D01*
X78815269Y53473813D01*
X78815267Y53473812D01*
X78641467Y53380913D01*
X78641457Y53380907D01*
X78489121Y53255888D01*
X78489112Y53255879D01*
X78364093Y53103543D01*
X78364087Y53103533D01*
X78271188Y52929733D01*
X78271187Y52929731D01*
X78213975Y52741130D01*
X78213974Y52741127D01*
X78194659Y52545004D01*
X78194659Y52544997D01*
X75605341Y52544997D01*
X75605341Y52545000D01*
X75595212Y52647845D01*
X75586025Y52741127D01*
X75586024Y52741130D01*
X75586024Y52741132D01*
X75528814Y52929727D01*
X75435910Y53103538D01*
X75435906Y53103543D01*
X75310887Y53255879D01*
X75310878Y53255888D01*
X75158542Y53380907D01*
X75158540Y53380908D01*
X75158538Y53380910D01*
X75117618Y53402782D01*
X74984732Y53473812D01*
X74984730Y53473813D01*
X74796129Y53531025D01*
X74796126Y53531026D01*
X74600003Y53550341D01*
X74599997Y53550341D01*
X74403873Y53531026D01*
X74403870Y53531025D01*
X74215269Y53473813D01*
X74215267Y53473812D01*
X74041467Y53380913D01*
X74041457Y53380907D01*
X73889121Y53255888D01*
X73889112Y53255879D01*
X73764093Y53103543D01*
X73764087Y53103533D01*
X73671188Y52929733D01*
X73671187Y52929731D01*
X73613975Y52741130D01*
X73613974Y52741127D01*
X73594659Y52545004D01*
X73594659Y52544997D01*
X71005341Y52544997D01*
X71005341Y52545000D01*
X70995212Y52647845D01*
X70986025Y52741127D01*
X70986024Y52741130D01*
X70986024Y52741132D01*
X70928814Y52929727D01*
X70835910Y53103538D01*
X70835906Y53103543D01*
X70710887Y53255879D01*
X70710878Y53255888D01*
X70558542Y53380907D01*
X70558540Y53380908D01*
X70558538Y53380910D01*
X70517618Y53402782D01*
X70384732Y53473812D01*
X70384730Y53473813D01*
X70196129Y53531025D01*
X70196126Y53531026D01*
X70000003Y53550341D01*
X69999997Y53550341D01*
X69803873Y53531026D01*
X69803870Y53531025D01*
X69615269Y53473813D01*
X69615267Y53473812D01*
X69441467Y53380913D01*
X69441457Y53380907D01*
X69289121Y53255888D01*
X69289112Y53255879D01*
X69164093Y53103543D01*
X69164087Y53103533D01*
X69071188Y52929733D01*
X69071187Y52929731D01*
X69013975Y52741130D01*
X69013974Y52741127D01*
X68994659Y52545004D01*
X68994659Y52544997D01*
X66405341Y52544997D01*
X66405341Y52545000D01*
X66395212Y52647845D01*
X66386025Y52741127D01*
X66386024Y52741130D01*
X66386024Y52741132D01*
X66328814Y52929727D01*
X66235910Y53103538D01*
X66235906Y53103543D01*
X66110887Y53255879D01*
X66110878Y53255888D01*
X65958542Y53380907D01*
X65958540Y53380908D01*
X65958538Y53380910D01*
X65917618Y53402782D01*
X65784732Y53473812D01*
X65784730Y53473813D01*
X65596129Y53531025D01*
X65596126Y53531026D01*
X65400003Y53550341D01*
X65399997Y53550341D01*
X65203873Y53531026D01*
X65203870Y53531025D01*
X65015269Y53473813D01*
X65015267Y53473812D01*
X64841467Y53380913D01*
X64841457Y53380907D01*
X64689121Y53255888D01*
X64689112Y53255879D01*
X64564093Y53103543D01*
X64564087Y53103533D01*
X64471188Y52929733D01*
X64471187Y52929731D01*
X64413975Y52741130D01*
X64413974Y52741127D01*
X64394659Y52545004D01*
X64394659Y52544997D01*
X62496721Y52544997D01*
X62526350Y52647843D01*
X62585623Y52996700D01*
X62591624Y53103543D01*
X62605464Y53349996D01*
X62605464Y53350005D01*
X62585624Y53703291D01*
X62585621Y53703311D01*
X62526350Y54052156D01*
X62512862Y54098976D01*
X62428390Y54392184D01*
X62300777Y54700270D01*
X62292973Y54719110D01*
X62121806Y55028811D01*
X62081940Y55084997D01*
X64394659Y55084997D01*
X64413974Y54888874D01*
X64413975Y54888871D01*
X64471187Y54700270D01*
X64471188Y54700268D01*
X64524781Y54600003D01*
X64564090Y54526462D01*
X64564092Y54526460D01*
X64564093Y54526458D01*
X64689112Y54374122D01*
X64689121Y54374113D01*
X64770868Y54307025D01*
X64841462Y54249090D01*
X65015273Y54156186D01*
X65203868Y54098976D01*
X65203870Y54098976D01*
X65203873Y54098975D01*
X65399997Y54079659D01*
X65400000Y54079659D01*
X65400003Y54079659D01*
X65596126Y54098975D01*
X65596127Y54098976D01*
X65596132Y54098976D01*
X65784727Y54156186D01*
X65958538Y54249090D01*
X66110883Y54374117D01*
X66235910Y54526462D01*
X66328814Y54700273D01*
X66386024Y54888868D01*
X66388967Y54918744D01*
X66405341Y55084997D01*
X68994659Y55084997D01*
X69013974Y54888874D01*
X69013975Y54888871D01*
X69071187Y54700270D01*
X69071188Y54700268D01*
X69124781Y54600003D01*
X69164090Y54526462D01*
X69164092Y54526460D01*
X69164093Y54526458D01*
X69289112Y54374122D01*
X69289121Y54374113D01*
X69370868Y54307025D01*
X69441462Y54249090D01*
X69615273Y54156186D01*
X69803868Y54098976D01*
X69803870Y54098976D01*
X69803873Y54098975D01*
X69999997Y54079659D01*
X70000000Y54079659D01*
X70000003Y54079659D01*
X70196126Y54098975D01*
X70196127Y54098976D01*
X70196132Y54098976D01*
X70384727Y54156186D01*
X70558538Y54249090D01*
X70710883Y54374117D01*
X70835910Y54526462D01*
X70928814Y54700273D01*
X70986024Y54888868D01*
X70988967Y54918744D01*
X71005341Y55084997D01*
X73594659Y55084997D01*
X73613974Y54888874D01*
X73613975Y54888871D01*
X73671187Y54700270D01*
X73671188Y54700268D01*
X73724781Y54600003D01*
X73764090Y54526462D01*
X73764092Y54526460D01*
X73764093Y54526458D01*
X73889112Y54374122D01*
X73889121Y54374113D01*
X73970868Y54307025D01*
X74041462Y54249090D01*
X74215273Y54156186D01*
X74403868Y54098976D01*
X74403870Y54098976D01*
X74403873Y54098975D01*
X74599997Y54079659D01*
X74600000Y54079659D01*
X74600003Y54079659D01*
X74796126Y54098975D01*
X74796127Y54098976D01*
X74796132Y54098976D01*
X74984727Y54156186D01*
X75158538Y54249090D01*
X75310883Y54374117D01*
X75435910Y54526462D01*
X75528814Y54700273D01*
X75586024Y54888868D01*
X75588967Y54918744D01*
X75605341Y55084997D01*
X78194659Y55084997D01*
X78213974Y54888874D01*
X78213975Y54888871D01*
X78271187Y54700270D01*
X78271188Y54700268D01*
X78324781Y54600003D01*
X78364090Y54526462D01*
X78364092Y54526460D01*
X78364093Y54526458D01*
X78489112Y54374122D01*
X78489121Y54374113D01*
X78570868Y54307025D01*
X78641462Y54249090D01*
X78815273Y54156186D01*
X79003868Y54098976D01*
X79003870Y54098976D01*
X79003873Y54098975D01*
X79199997Y54079659D01*
X79200000Y54079659D01*
X79200003Y54079659D01*
X79396126Y54098975D01*
X79396127Y54098976D01*
X79396132Y54098976D01*
X79584727Y54156186D01*
X79758538Y54249090D01*
X79910883Y54374117D01*
X80035910Y54526462D01*
X80128814Y54700273D01*
X80186024Y54888868D01*
X80188967Y54918744D01*
X80205341Y55084997D01*
X82794659Y55084997D01*
X82813974Y54888874D01*
X82813975Y54888871D01*
X82871187Y54700270D01*
X82871188Y54700268D01*
X82924781Y54600003D01*
X82964090Y54526462D01*
X82964092Y54526460D01*
X82964093Y54526458D01*
X83089112Y54374122D01*
X83089121Y54374113D01*
X83170868Y54307025D01*
X83241462Y54249090D01*
X83415273Y54156186D01*
X83603868Y54098976D01*
X83603870Y54098976D01*
X83603873Y54098975D01*
X83799997Y54079659D01*
X83800000Y54079659D01*
X83800003Y54079659D01*
X83996126Y54098975D01*
X83996127Y54098976D01*
X83996132Y54098976D01*
X84184727Y54156186D01*
X84358538Y54249090D01*
X84510883Y54374117D01*
X84635910Y54526462D01*
X84675216Y54599998D01*
X95744867Y54599998D01*
X95763302Y54471775D01*
X95799651Y54392184D01*
X95817118Y54353937D01*
X95857767Y54307025D01*
X95901952Y54256032D01*
X96010926Y54185999D01*
X96010931Y54185996D01*
X96135228Y54149500D01*
X96135230Y54149500D01*
X96264770Y54149500D01*
X96264772Y54149500D01*
X96389069Y54185996D01*
X96498049Y54256033D01*
X96582882Y54353937D01*
X96636697Y54471774D01*
X96655133Y54600000D01*
X96643205Y54682959D01*
X96636697Y54728226D01*
X96582882Y54846062D01*
X96582882Y54846063D01*
X96498049Y54943967D01*
X96498048Y54943968D01*
X96498047Y54943969D01*
X96389073Y55014002D01*
X96389070Y55014004D01*
X96389069Y55014004D01*
X96389066Y55014005D01*
X96264774Y55050500D01*
X96264772Y55050500D01*
X96135228Y55050500D01*
X96135225Y55050500D01*
X96010933Y55014005D01*
X96010926Y55014002D01*
X95901952Y54943969D01*
X95817117Y54846062D01*
X95763302Y54728226D01*
X95744867Y54600003D01*
X95744867Y54599998D01*
X84675216Y54599998D01*
X84728814Y54700273D01*
X84786024Y54888868D01*
X84788967Y54918744D01*
X84805341Y55084997D01*
X84805341Y55085004D01*
X84786025Y55281127D01*
X84786024Y55281130D01*
X84786024Y55281132D01*
X84728814Y55469727D01*
X84635910Y55643538D01*
X84523187Y55780891D01*
X84510887Y55795879D01*
X84510878Y55795888D01*
X84358542Y55920907D01*
X84358540Y55920908D01*
X84358538Y55920910D01*
X84317618Y55942782D01*
X84184732Y56013812D01*
X84184730Y56013813D01*
X83996129Y56071025D01*
X83996126Y56071026D01*
X83800003Y56090341D01*
X83799997Y56090341D01*
X83603873Y56071026D01*
X83603870Y56071025D01*
X83415269Y56013813D01*
X83415267Y56013812D01*
X83241467Y55920913D01*
X83241457Y55920907D01*
X83089121Y55795888D01*
X83089112Y55795879D01*
X82964093Y55643543D01*
X82964087Y55643533D01*
X82871188Y55469733D01*
X82871187Y55469731D01*
X82813975Y55281130D01*
X82813974Y55281127D01*
X82794659Y55085004D01*
X82794659Y55084997D01*
X80205341Y55084997D01*
X80205341Y55085004D01*
X80186025Y55281127D01*
X80186024Y55281130D01*
X80186024Y55281132D01*
X80128814Y55469727D01*
X80035910Y55643538D01*
X79923187Y55780891D01*
X79910887Y55795879D01*
X79910878Y55795888D01*
X79758542Y55920907D01*
X79758540Y55920908D01*
X79758538Y55920910D01*
X79717618Y55942782D01*
X79584732Y56013812D01*
X79584730Y56013813D01*
X79396129Y56071025D01*
X79396126Y56071026D01*
X79200003Y56090341D01*
X79199997Y56090341D01*
X79003873Y56071026D01*
X79003870Y56071025D01*
X78815269Y56013813D01*
X78815267Y56013812D01*
X78641467Y55920913D01*
X78641457Y55920907D01*
X78489121Y55795888D01*
X78489112Y55795879D01*
X78364093Y55643543D01*
X78364087Y55643533D01*
X78271188Y55469733D01*
X78271187Y55469731D01*
X78213975Y55281130D01*
X78213974Y55281127D01*
X78194659Y55085004D01*
X78194659Y55084997D01*
X75605341Y55084997D01*
X75605341Y55085004D01*
X75586025Y55281127D01*
X75586024Y55281130D01*
X75586024Y55281132D01*
X75528814Y55469727D01*
X75435910Y55643538D01*
X75323187Y55780891D01*
X75310887Y55795879D01*
X75310878Y55795888D01*
X75158542Y55920907D01*
X75158540Y55920908D01*
X75158538Y55920910D01*
X75117618Y55942782D01*
X74984732Y56013812D01*
X74984730Y56013813D01*
X74796129Y56071025D01*
X74796126Y56071026D01*
X74600003Y56090341D01*
X74599997Y56090341D01*
X74403873Y56071026D01*
X74403870Y56071025D01*
X74215269Y56013813D01*
X74215267Y56013812D01*
X74041467Y55920913D01*
X74041457Y55920907D01*
X73889121Y55795888D01*
X73889112Y55795879D01*
X73764093Y55643543D01*
X73764087Y55643533D01*
X73671188Y55469733D01*
X73671187Y55469731D01*
X73613975Y55281130D01*
X73613974Y55281127D01*
X73594659Y55085004D01*
X73594659Y55084997D01*
X71005341Y55084997D01*
X71005341Y55085004D01*
X70986025Y55281127D01*
X70986024Y55281130D01*
X70986024Y55281132D01*
X70928814Y55469727D01*
X70835910Y55643538D01*
X70723187Y55780891D01*
X70710887Y55795879D01*
X70710878Y55795888D01*
X70558542Y55920907D01*
X70558540Y55920908D01*
X70558538Y55920910D01*
X70517618Y55942782D01*
X70384732Y56013812D01*
X70384730Y56013813D01*
X70196129Y56071025D01*
X70196126Y56071026D01*
X70000003Y56090341D01*
X69999997Y56090341D01*
X69803873Y56071026D01*
X69803870Y56071025D01*
X69615269Y56013813D01*
X69615267Y56013812D01*
X69441467Y55920913D01*
X69441457Y55920907D01*
X69289121Y55795888D01*
X69289112Y55795879D01*
X69164093Y55643543D01*
X69164087Y55643533D01*
X69071188Y55469733D01*
X69071187Y55469731D01*
X69013975Y55281130D01*
X69013974Y55281127D01*
X68994659Y55085004D01*
X68994659Y55084997D01*
X66405341Y55084997D01*
X66405341Y55085004D01*
X66386025Y55281127D01*
X66386024Y55281130D01*
X66386024Y55281132D01*
X66328814Y55469727D01*
X66235910Y55643538D01*
X66123187Y55780891D01*
X66110887Y55795879D01*
X66110878Y55795888D01*
X65958542Y55920907D01*
X65958540Y55920908D01*
X65958538Y55920910D01*
X65917618Y55942782D01*
X65784732Y56013812D01*
X65784730Y56013813D01*
X65596129Y56071025D01*
X65596126Y56071026D01*
X65400003Y56090341D01*
X65399997Y56090341D01*
X65203873Y56071026D01*
X65203870Y56071025D01*
X65015269Y56013813D01*
X65015267Y56013812D01*
X64841467Y55920913D01*
X64841457Y55920907D01*
X64689121Y55795888D01*
X64689112Y55795879D01*
X64564093Y55643543D01*
X64564087Y55643533D01*
X64471188Y55469733D01*
X64471187Y55469731D01*
X64413975Y55281130D01*
X64413974Y55281127D01*
X64394659Y55085004D01*
X64394659Y55084997D01*
X62081940Y55084997D01*
X61942776Y55281130D01*
X61917041Y55317400D01*
X61681250Y55581250D01*
X61417400Y55817041D01*
X61271015Y55920907D01*
X61128810Y56021807D01*
X60819108Y56192974D01*
X60819109Y56192974D01*
X60492182Y56328391D01*
X60152155Y56426351D01*
X59803310Y56485622D01*
X59803290Y56485625D01*
X59450005Y56505464D01*
X59449995Y56505464D01*
X59096709Y56485625D01*
X59096689Y56485622D01*
X58747844Y56426351D01*
X58407817Y56328391D01*
X58080890Y56192974D01*
X57771189Y56021807D01*
X57482603Y55817044D01*
X57218757Y55581257D01*
X57218743Y55581243D01*
X56982956Y55317397D01*
X56778193Y55028811D01*
X56607026Y54719110D01*
X56471609Y54392183D01*
X56373649Y54052156D01*
X56314378Y53703311D01*
X56314375Y53703291D01*
X56294536Y53350005D01*
X56294536Y53349996D01*
X10775500Y53349996D01*
X10775500Y56760173D01*
X64399500Y56760173D01*
X64408232Y56716280D01*
X64408233Y56716278D01*
X64441496Y56666496D01*
X64491278Y56633233D01*
X64502327Y56631036D01*
X64535172Y56624501D01*
X64535178Y56624501D01*
X64535180Y56624500D01*
X64535181Y56624500D01*
X66264819Y56624500D01*
X66264820Y56624500D01*
X66264821Y56624501D01*
X66264827Y56624501D01*
X66286623Y56628838D01*
X66308722Y56633233D01*
X66358504Y56666496D01*
X66391767Y56716278D01*
X66400499Y56760173D01*
X68999500Y56760173D01*
X69008232Y56716280D01*
X69008233Y56716278D01*
X69041496Y56666496D01*
X69091278Y56633233D01*
X69102327Y56631036D01*
X69135172Y56624501D01*
X69135178Y56624501D01*
X69135180Y56624500D01*
X69135181Y56624500D01*
X70864819Y56624500D01*
X70864820Y56624500D01*
X70864821Y56624501D01*
X70864827Y56624501D01*
X70886623Y56628838D01*
X70908722Y56633233D01*
X70958504Y56666496D01*
X70991767Y56716278D01*
X71000499Y56760173D01*
X73599500Y56760173D01*
X73608232Y56716280D01*
X73608233Y56716278D01*
X73641496Y56666496D01*
X73691278Y56633233D01*
X73702327Y56631036D01*
X73735172Y56624501D01*
X73735178Y56624501D01*
X73735180Y56624500D01*
X73735181Y56624500D01*
X75464819Y56624500D01*
X75464820Y56624500D01*
X75464821Y56624501D01*
X75464827Y56624501D01*
X75486623Y56628838D01*
X75508722Y56633233D01*
X75558504Y56666496D01*
X75591767Y56716278D01*
X75600499Y56760173D01*
X78199500Y56760173D01*
X78208232Y56716280D01*
X78208233Y56716278D01*
X78241496Y56666496D01*
X78291278Y56633233D01*
X78302327Y56631036D01*
X78335172Y56624501D01*
X78335178Y56624501D01*
X78335180Y56624500D01*
X78335181Y56624500D01*
X80064819Y56624500D01*
X80064820Y56624500D01*
X80064821Y56624501D01*
X80064827Y56624501D01*
X80086623Y56628838D01*
X80108722Y56633233D01*
X80158504Y56666496D01*
X80191767Y56716278D01*
X80200499Y56760173D01*
X82799500Y56760173D01*
X82808232Y56716280D01*
X82808233Y56716278D01*
X82841496Y56666496D01*
X82891278Y56633233D01*
X82902327Y56631036D01*
X82935172Y56624501D01*
X82935178Y56624501D01*
X82935180Y56624500D01*
X82935181Y56624500D01*
X84664819Y56624500D01*
X84664820Y56624500D01*
X84664821Y56624501D01*
X84664827Y56624501D01*
X84686623Y56628838D01*
X84708722Y56633233D01*
X84758504Y56666496D01*
X84791767Y56716278D01*
X84800500Y56760180D01*
X84800500Y58489820D01*
X84800499Y58489822D01*
X84800499Y58489828D01*
X84791767Y58533721D01*
X84791765Y58533725D01*
X84758505Y58583502D01*
X84758504Y58583504D01*
X84757840Y58583948D01*
X84708724Y58616766D01*
X84708720Y58616768D01*
X84664827Y58625500D01*
X84664820Y58625500D01*
X82935180Y58625500D01*
X82935172Y58625500D01*
X82891279Y58616768D01*
X82891275Y58616766D01*
X82841498Y58583506D01*
X82841494Y58583502D01*
X82808234Y58533725D01*
X82808232Y58533721D01*
X82799500Y58489828D01*
X82799500Y56760173D01*
X80200499Y56760173D01*
X80200500Y56760180D01*
X80200500Y58489820D01*
X80200499Y58489822D01*
X80200499Y58489828D01*
X80191767Y58533721D01*
X80191765Y58533725D01*
X80158505Y58583502D01*
X80158504Y58583504D01*
X80157840Y58583948D01*
X80108724Y58616766D01*
X80108720Y58616768D01*
X80064827Y58625500D01*
X80064820Y58625500D01*
X78335180Y58625500D01*
X78335172Y58625500D01*
X78291279Y58616768D01*
X78291275Y58616766D01*
X78241498Y58583506D01*
X78241494Y58583502D01*
X78208234Y58533725D01*
X78208232Y58533721D01*
X78199500Y58489828D01*
X78199500Y56760173D01*
X75600499Y56760173D01*
X75600500Y56760180D01*
X75600500Y58489820D01*
X75600499Y58489822D01*
X75600499Y58489828D01*
X75591767Y58533721D01*
X75591765Y58533725D01*
X75558505Y58583502D01*
X75558504Y58583504D01*
X75557840Y58583948D01*
X75508724Y58616766D01*
X75508720Y58616768D01*
X75464827Y58625500D01*
X75464820Y58625500D01*
X73735180Y58625500D01*
X73735172Y58625500D01*
X73691279Y58616768D01*
X73691275Y58616766D01*
X73641498Y58583506D01*
X73641494Y58583502D01*
X73608234Y58533725D01*
X73608232Y58533721D01*
X73599500Y58489828D01*
X73599500Y56760173D01*
X71000499Y56760173D01*
X71000500Y56760180D01*
X71000500Y58489820D01*
X71000499Y58489822D01*
X71000499Y58489828D01*
X70991767Y58533721D01*
X70991765Y58533725D01*
X70958505Y58583502D01*
X70958504Y58583504D01*
X70957840Y58583948D01*
X70908724Y58616766D01*
X70908720Y58616768D01*
X70864827Y58625500D01*
X70864820Y58625500D01*
X69135180Y58625500D01*
X69135172Y58625500D01*
X69091279Y58616768D01*
X69091275Y58616766D01*
X69041498Y58583506D01*
X69041494Y58583502D01*
X69008234Y58533725D01*
X69008232Y58533721D01*
X68999500Y58489828D01*
X68999500Y56760173D01*
X66400499Y56760173D01*
X66400500Y56760180D01*
X66400500Y58489820D01*
X66400499Y58489822D01*
X66400499Y58489828D01*
X66391767Y58533721D01*
X66391765Y58533725D01*
X66358505Y58583502D01*
X66358504Y58583504D01*
X66357840Y58583948D01*
X66308724Y58616766D01*
X66308720Y58616768D01*
X66264827Y58625500D01*
X66264820Y58625500D01*
X64535180Y58625500D01*
X64535172Y58625500D01*
X64491279Y58616768D01*
X64491275Y58616766D01*
X64441498Y58583506D01*
X64441494Y58583502D01*
X64408234Y58533725D01*
X64408232Y58533721D01*
X64399500Y58489828D01*
X64399500Y56760173D01*
X10775500Y56760173D01*
X10775500Y57822999D01*
X25644722Y57822999D01*
X25663762Y57666184D01*
X25663763Y57666183D01*
X25719780Y57518477D01*
X25809515Y57388472D01*
X25809516Y57388471D01*
X25809517Y57388470D01*
X25927760Y57283717D01*
X26067635Y57210304D01*
X26221015Y57172500D01*
X26221018Y57172500D01*
X26378982Y57172500D01*
X26378985Y57172500D01*
X26532365Y57210304D01*
X26672240Y57283717D01*
X26790483Y57388470D01*
X26880220Y57518477D01*
X26936237Y57666182D01*
X26955278Y57823000D01*
X26936237Y57979818D01*
X26880220Y58127523D01*
X26790483Y58257530D01*
X26672240Y58362283D01*
X26602302Y58398990D01*
X26532364Y58435697D01*
X26378987Y58473500D01*
X26378985Y58473500D01*
X26221015Y58473500D01*
X26221012Y58473500D01*
X26067635Y58435697D01*
X25927758Y58362282D01*
X25809515Y58257529D01*
X25719780Y58127524D01*
X25663763Y57979818D01*
X25663762Y57979817D01*
X25644722Y57823002D01*
X25644722Y57822999D01*
X10775500Y57822999D01*
X10775500Y59149998D01*
X97514867Y59149998D01*
X97533302Y59021775D01*
X97587117Y58903939D01*
X97587118Y58903937D01*
X97652214Y58828811D01*
X97671952Y58806032D01*
X97780926Y58735999D01*
X97780931Y58735996D01*
X97905228Y58699500D01*
X97905230Y58699500D01*
X98034770Y58699500D01*
X98034772Y58699500D01*
X98159069Y58735996D01*
X98268049Y58806033D01*
X98352882Y58903937D01*
X98406697Y59021774D01*
X98412842Y59064516D01*
X98425133Y59149998D01*
X98425133Y59150003D01*
X98406697Y59278226D01*
X98359647Y59381250D01*
X98352882Y59396063D01*
X98268049Y59493967D01*
X98268048Y59493968D01*
X98268047Y59493969D01*
X98159073Y59564002D01*
X98159070Y59564004D01*
X98159069Y59564004D01*
X98159066Y59564005D01*
X98034774Y59600500D01*
X98034772Y59600500D01*
X97905228Y59600500D01*
X97905225Y59600500D01*
X97780933Y59564005D01*
X97780926Y59564002D01*
X97671952Y59493969D01*
X97587117Y59396062D01*
X97533302Y59278226D01*
X97514867Y59150003D01*
X97514867Y59149998D01*
X10775500Y59149998D01*
X10775500Y64349996D01*
X32294536Y64349996D01*
X32314375Y63996710D01*
X32314378Y63996690D01*
X32373649Y63647845D01*
X32471609Y63307818D01*
X32607026Y62980891D01*
X32778193Y62671190D01*
X32825961Y62603868D01*
X32982959Y62382600D01*
X33218750Y62118750D01*
X33482600Y61882959D01*
X33771192Y61678192D01*
X34080891Y61507027D01*
X34080890Y61507027D01*
X34080895Y61507025D01*
X34407816Y61371610D01*
X34747843Y61273650D01*
X35096700Y61214377D01*
X35096703Y61214377D01*
X35096709Y61214376D01*
X35449995Y61194536D01*
X35450000Y61194536D01*
X35450005Y61194536D01*
X35803290Y61214376D01*
X35803294Y61214377D01*
X35803300Y61214377D01*
X36152157Y61273650D01*
X36492184Y61371610D01*
X36819105Y61507025D01*
X37128808Y61678192D01*
X37417400Y61882959D01*
X37475827Y61935173D01*
X42099500Y61935173D01*
X42108232Y61891280D01*
X42108234Y61891276D01*
X42121658Y61871186D01*
X42141496Y61841496D01*
X42191278Y61808233D01*
X42202327Y61806036D01*
X42235172Y61799501D01*
X42235178Y61799501D01*
X42235180Y61799500D01*
X42235181Y61799500D01*
X43964819Y61799500D01*
X43964820Y61799500D01*
X43964821Y61799501D01*
X43964827Y61799501D01*
X43986623Y61803838D01*
X44008722Y61808233D01*
X44058504Y61841496D01*
X44091767Y61891278D01*
X44100500Y61935180D01*
X44100500Y62799997D01*
X44634659Y62799997D01*
X44653974Y62603874D01*
X44653975Y62603871D01*
X44711187Y62415270D01*
X44711188Y62415268D01*
X44728650Y62382600D01*
X44804090Y62241462D01*
X44804092Y62241460D01*
X44804093Y62241458D01*
X44929112Y62089122D01*
X44929121Y62089113D01*
X45081457Y61964094D01*
X45081462Y61964090D01*
X45255273Y61871186D01*
X45443868Y61813976D01*
X45443870Y61813976D01*
X45443873Y61813975D01*
X45639997Y61794659D01*
X45640000Y61794659D01*
X45640003Y61794659D01*
X45836126Y61813975D01*
X45836127Y61813976D01*
X45836132Y61813976D01*
X46024727Y61871186D01*
X46198538Y61964090D01*
X46350883Y62089117D01*
X46475910Y62241462D01*
X46568814Y62415273D01*
X46626024Y62603868D01*
X46645341Y62799997D01*
X47174659Y62799997D01*
X47193974Y62603874D01*
X47193975Y62603871D01*
X47251187Y62415270D01*
X47251188Y62415268D01*
X47268650Y62382600D01*
X47344090Y62241462D01*
X47344092Y62241460D01*
X47344093Y62241458D01*
X47469112Y62089122D01*
X47469121Y62089113D01*
X47621457Y61964094D01*
X47621462Y61964090D01*
X47795273Y61871186D01*
X47983868Y61813976D01*
X47983870Y61813976D01*
X47983873Y61813975D01*
X48179997Y61794659D01*
X48180000Y61794659D01*
X48180003Y61794659D01*
X48376126Y61813975D01*
X48376127Y61813976D01*
X48376132Y61813976D01*
X48564727Y61871186D01*
X48738538Y61964090D01*
X48890883Y62089117D01*
X49015910Y62241462D01*
X49108814Y62415273D01*
X49166024Y62603868D01*
X49185341Y62799997D01*
X52254659Y62799997D01*
X52273974Y62603874D01*
X52273975Y62603871D01*
X52331187Y62415270D01*
X52331188Y62415268D01*
X52348650Y62382600D01*
X52424090Y62241462D01*
X52424092Y62241460D01*
X52424093Y62241458D01*
X52549112Y62089122D01*
X52549121Y62089113D01*
X52701457Y61964094D01*
X52701462Y61964090D01*
X52875273Y61871186D01*
X53063868Y61813976D01*
X53063870Y61813976D01*
X53063873Y61813975D01*
X53259997Y61794659D01*
X53260000Y61794659D01*
X53260003Y61794659D01*
X53456126Y61813975D01*
X53456127Y61813976D01*
X53456132Y61813976D01*
X53644727Y61871186D01*
X53818538Y61964090D01*
X53970883Y62089117D01*
X54095910Y62241462D01*
X54188814Y62415273D01*
X54246024Y62603868D01*
X54265341Y62799997D01*
X54794659Y62799997D01*
X54813974Y62603874D01*
X54813975Y62603871D01*
X54871187Y62415270D01*
X54871188Y62415268D01*
X54888650Y62382600D01*
X54964090Y62241462D01*
X54964092Y62241460D01*
X54964093Y62241458D01*
X55089112Y62089122D01*
X55089121Y62089113D01*
X55241457Y61964094D01*
X55241462Y61964090D01*
X55415273Y61871186D01*
X55603868Y61813976D01*
X55603870Y61813976D01*
X55603873Y61813975D01*
X55799997Y61794659D01*
X55800000Y61794659D01*
X55800003Y61794659D01*
X55996126Y61813975D01*
X55996127Y61813976D01*
X55996132Y61813976D01*
X56184727Y61871186D01*
X56358538Y61964090D01*
X56510883Y62089117D01*
X56635910Y62241462D01*
X56728814Y62415273D01*
X56786024Y62603868D01*
X56805341Y62799997D01*
X57334659Y62799997D01*
X57353974Y62603874D01*
X57353975Y62603871D01*
X57411187Y62415270D01*
X57411188Y62415268D01*
X57428650Y62382600D01*
X57504090Y62241462D01*
X57504092Y62241460D01*
X57504093Y62241458D01*
X57629112Y62089122D01*
X57629121Y62089113D01*
X57781457Y61964094D01*
X57781462Y61964090D01*
X57955273Y61871186D01*
X58143868Y61813976D01*
X58143870Y61813976D01*
X58143873Y61813975D01*
X58339997Y61794659D01*
X58340000Y61794659D01*
X58340003Y61794659D01*
X58536126Y61813975D01*
X58536127Y61813976D01*
X58536132Y61813976D01*
X58724727Y61871186D01*
X58898538Y61964090D01*
X59050883Y62089117D01*
X59175910Y62241462D01*
X59268814Y62415273D01*
X59326024Y62603868D01*
X59345341Y62799997D01*
X59874659Y62799997D01*
X59893974Y62603874D01*
X59893975Y62603871D01*
X59951187Y62415270D01*
X59951188Y62415268D01*
X59968650Y62382600D01*
X60044090Y62241462D01*
X60044092Y62241460D01*
X60044093Y62241458D01*
X60169112Y62089122D01*
X60169121Y62089113D01*
X60321457Y61964094D01*
X60321462Y61964090D01*
X60495273Y61871186D01*
X60683868Y61813976D01*
X60683870Y61813976D01*
X60683873Y61813975D01*
X60879997Y61794659D01*
X60880000Y61794659D01*
X60880003Y61794659D01*
X61076126Y61813975D01*
X61076127Y61813976D01*
X61076132Y61813976D01*
X61264727Y61871186D01*
X61438538Y61964090D01*
X61590883Y62089117D01*
X61715910Y62241462D01*
X61808814Y62415273D01*
X61866024Y62603868D01*
X61885341Y62799997D01*
X62414659Y62799997D01*
X62433974Y62603874D01*
X62433975Y62603871D01*
X62491187Y62415270D01*
X62491188Y62415268D01*
X62508650Y62382600D01*
X62584090Y62241462D01*
X62584092Y62241460D01*
X62584093Y62241458D01*
X62709112Y62089122D01*
X62709121Y62089113D01*
X62861457Y61964094D01*
X62861462Y61964090D01*
X63035273Y61871186D01*
X63223868Y61813976D01*
X63223870Y61813976D01*
X63223873Y61813975D01*
X63419997Y61794659D01*
X63420000Y61794659D01*
X63420003Y61794659D01*
X63616126Y61813975D01*
X63616127Y61813976D01*
X63616132Y61813976D01*
X63804727Y61871186D01*
X63978538Y61964090D01*
X64130883Y62089117D01*
X64255910Y62241462D01*
X64348814Y62415273D01*
X64406024Y62603868D01*
X64425341Y62799997D01*
X64954659Y62799997D01*
X64973974Y62603874D01*
X64973975Y62603871D01*
X65031187Y62415270D01*
X65031188Y62415268D01*
X65048650Y62382600D01*
X65124090Y62241462D01*
X65124092Y62241460D01*
X65124093Y62241458D01*
X65249112Y62089122D01*
X65249121Y62089113D01*
X65401457Y61964094D01*
X65401462Y61964090D01*
X65575273Y61871186D01*
X65763868Y61813976D01*
X65763870Y61813976D01*
X65763873Y61813975D01*
X65959997Y61794659D01*
X65960000Y61794659D01*
X65960003Y61794659D01*
X66156126Y61813975D01*
X66156127Y61813976D01*
X66156132Y61813976D01*
X66344727Y61871186D01*
X66464438Y61935173D01*
X86803500Y61935173D01*
X86812232Y61891280D01*
X86812234Y61891276D01*
X86825658Y61871186D01*
X86845496Y61841496D01*
X86895278Y61808233D01*
X86906327Y61806036D01*
X86939172Y61799501D01*
X86939178Y61799501D01*
X86939180Y61799500D01*
X86939181Y61799500D01*
X88668819Y61799500D01*
X88668820Y61799500D01*
X88668821Y61799501D01*
X88668827Y61799501D01*
X88690623Y61803838D01*
X88712722Y61808233D01*
X88762504Y61841496D01*
X88795767Y61891278D01*
X88804500Y61935180D01*
X88804500Y62799997D01*
X89338659Y62799997D01*
X89357974Y62603874D01*
X89357975Y62603871D01*
X89415187Y62415270D01*
X89415188Y62415268D01*
X89432650Y62382600D01*
X89508090Y62241462D01*
X89508092Y62241460D01*
X89508093Y62241458D01*
X89633112Y62089122D01*
X89633121Y62089113D01*
X89785457Y61964094D01*
X89785462Y61964090D01*
X89959273Y61871186D01*
X90147868Y61813976D01*
X90147870Y61813976D01*
X90147873Y61813975D01*
X90343997Y61794659D01*
X90344000Y61794659D01*
X90344003Y61794659D01*
X90540126Y61813975D01*
X90540127Y61813976D01*
X90540132Y61813976D01*
X90728727Y61871186D01*
X90902538Y61964090D01*
X91054883Y62089117D01*
X91179910Y62241462D01*
X91272814Y62415273D01*
X91330024Y62603868D01*
X91349341Y62800000D01*
X91349341Y62800004D01*
X91330025Y62996127D01*
X91330024Y62996130D01*
X91330024Y62996132D01*
X91272814Y63184727D01*
X91179910Y63358538D01*
X91179906Y63358543D01*
X91054887Y63510879D01*
X91054878Y63510888D01*
X90902542Y63635907D01*
X90902540Y63635908D01*
X90902538Y63635910D01*
X90848436Y63664828D01*
X90728732Y63728812D01*
X90728730Y63728813D01*
X90540129Y63786025D01*
X90540126Y63786026D01*
X90344003Y63805341D01*
X90343997Y63805341D01*
X90147873Y63786026D01*
X90147870Y63786025D01*
X89959269Y63728813D01*
X89959267Y63728812D01*
X89785467Y63635913D01*
X89785457Y63635907D01*
X89633121Y63510888D01*
X89633112Y63510879D01*
X89508093Y63358543D01*
X89508087Y63358533D01*
X89415188Y63184733D01*
X89415187Y63184731D01*
X89357975Y62996130D01*
X89357974Y62996127D01*
X89338659Y62800004D01*
X89338659Y62799997D01*
X88804500Y62799997D01*
X88804500Y63664820D01*
X88804499Y63664822D01*
X88804499Y63664828D01*
X88795767Y63708721D01*
X88795765Y63708725D01*
X88762505Y63758502D01*
X88762504Y63758504D01*
X88721314Y63786026D01*
X88712724Y63791766D01*
X88712720Y63791768D01*
X88668827Y63800500D01*
X88668820Y63800500D01*
X86939180Y63800500D01*
X86939172Y63800500D01*
X86895279Y63791768D01*
X86895275Y63791766D01*
X86845498Y63758506D01*
X86845494Y63758502D01*
X86812234Y63708725D01*
X86812232Y63708721D01*
X86803500Y63664828D01*
X86803500Y61935173D01*
X66464438Y61935173D01*
X66518538Y61964090D01*
X66670883Y62089117D01*
X66795910Y62241462D01*
X66888814Y62415273D01*
X66946024Y62603868D01*
X66965341Y62800000D01*
X66965341Y62800004D01*
X66946025Y62996127D01*
X66946024Y62996130D01*
X66946024Y62996132D01*
X66888814Y63184727D01*
X66795910Y63358538D01*
X66795906Y63358543D01*
X66670887Y63510879D01*
X66670878Y63510888D01*
X66518542Y63635907D01*
X66518540Y63635908D01*
X66518538Y63635910D01*
X66464436Y63664828D01*
X66344732Y63728812D01*
X66344730Y63728813D01*
X66156129Y63786025D01*
X66156126Y63786026D01*
X65960003Y63805341D01*
X65959997Y63805341D01*
X65763873Y63786026D01*
X65763870Y63786025D01*
X65575269Y63728813D01*
X65575267Y63728812D01*
X65401467Y63635913D01*
X65401457Y63635907D01*
X65249121Y63510888D01*
X65249112Y63510879D01*
X65124093Y63358543D01*
X65124087Y63358533D01*
X65031188Y63184733D01*
X65031187Y63184731D01*
X64973975Y62996130D01*
X64973974Y62996127D01*
X64954659Y62800004D01*
X64954659Y62799997D01*
X64425341Y62799997D01*
X64425341Y62800000D01*
X64425341Y62800004D01*
X64406025Y62996127D01*
X64406024Y62996130D01*
X64406024Y62996132D01*
X64348814Y63184727D01*
X64255910Y63358538D01*
X64255906Y63358543D01*
X64130887Y63510879D01*
X64130878Y63510888D01*
X63978542Y63635907D01*
X63978540Y63635908D01*
X63978538Y63635910D01*
X63924436Y63664828D01*
X63804732Y63728812D01*
X63804730Y63728813D01*
X63616129Y63786025D01*
X63616126Y63786026D01*
X63420003Y63805341D01*
X63419997Y63805341D01*
X63223873Y63786026D01*
X63223870Y63786025D01*
X63035269Y63728813D01*
X63035267Y63728812D01*
X62861467Y63635913D01*
X62861457Y63635907D01*
X62709121Y63510888D01*
X62709112Y63510879D01*
X62584093Y63358543D01*
X62584087Y63358533D01*
X62491188Y63184733D01*
X62491187Y63184731D01*
X62433975Y62996130D01*
X62433974Y62996127D01*
X62414659Y62800004D01*
X62414659Y62799997D01*
X61885341Y62799997D01*
X61885341Y62800000D01*
X61885341Y62800004D01*
X61866025Y62996127D01*
X61866024Y62996130D01*
X61866024Y62996132D01*
X61808814Y63184727D01*
X61715910Y63358538D01*
X61715906Y63358543D01*
X61590887Y63510879D01*
X61590878Y63510888D01*
X61438542Y63635907D01*
X61438540Y63635908D01*
X61438538Y63635910D01*
X61384436Y63664828D01*
X61264732Y63728812D01*
X61264730Y63728813D01*
X61076129Y63786025D01*
X61076126Y63786026D01*
X60880003Y63805341D01*
X60879997Y63805341D01*
X60683873Y63786026D01*
X60683870Y63786025D01*
X60495269Y63728813D01*
X60495267Y63728812D01*
X60321467Y63635913D01*
X60321457Y63635907D01*
X60169121Y63510888D01*
X60169112Y63510879D01*
X60044093Y63358543D01*
X60044087Y63358533D01*
X59951188Y63184733D01*
X59951187Y63184731D01*
X59893975Y62996130D01*
X59893974Y62996127D01*
X59874659Y62800004D01*
X59874659Y62799997D01*
X59345341Y62799997D01*
X59345341Y62800000D01*
X59345341Y62800004D01*
X59326025Y62996127D01*
X59326024Y62996130D01*
X59326024Y62996132D01*
X59268814Y63184727D01*
X59175910Y63358538D01*
X59175906Y63358543D01*
X59050887Y63510879D01*
X59050878Y63510888D01*
X58898542Y63635907D01*
X58898540Y63635908D01*
X58898538Y63635910D01*
X58844436Y63664828D01*
X58724732Y63728812D01*
X58724730Y63728813D01*
X58536129Y63786025D01*
X58536126Y63786026D01*
X58340003Y63805341D01*
X58339997Y63805341D01*
X58143873Y63786026D01*
X58143870Y63786025D01*
X57955269Y63728813D01*
X57955267Y63728812D01*
X57781467Y63635913D01*
X57781457Y63635907D01*
X57629121Y63510888D01*
X57629112Y63510879D01*
X57504093Y63358543D01*
X57504087Y63358533D01*
X57411188Y63184733D01*
X57411187Y63184731D01*
X57353975Y62996130D01*
X57353974Y62996127D01*
X57334659Y62800004D01*
X57334659Y62799997D01*
X56805341Y62799997D01*
X56805341Y62800000D01*
X56805341Y62800004D01*
X56786025Y62996127D01*
X56786024Y62996130D01*
X56786024Y62996132D01*
X56728814Y63184727D01*
X56635910Y63358538D01*
X56635906Y63358543D01*
X56510887Y63510879D01*
X56510878Y63510888D01*
X56358542Y63635907D01*
X56358540Y63635908D01*
X56358538Y63635910D01*
X56304436Y63664828D01*
X56184732Y63728812D01*
X56184730Y63728813D01*
X55996129Y63786025D01*
X55996126Y63786026D01*
X55800003Y63805341D01*
X55799997Y63805341D01*
X55603873Y63786026D01*
X55603870Y63786025D01*
X55415269Y63728813D01*
X55415267Y63728812D01*
X55241467Y63635913D01*
X55241457Y63635907D01*
X55089121Y63510888D01*
X55089112Y63510879D01*
X54964093Y63358543D01*
X54964087Y63358533D01*
X54871188Y63184733D01*
X54871187Y63184731D01*
X54813975Y62996130D01*
X54813974Y62996127D01*
X54794659Y62800004D01*
X54794659Y62799997D01*
X54265341Y62799997D01*
X54265341Y62800000D01*
X54265341Y62800004D01*
X54246025Y62996127D01*
X54246024Y62996130D01*
X54246024Y62996132D01*
X54188814Y63184727D01*
X54095910Y63358538D01*
X54095906Y63358543D01*
X53970887Y63510879D01*
X53970878Y63510888D01*
X53818542Y63635907D01*
X53818540Y63635908D01*
X53818538Y63635910D01*
X53764436Y63664828D01*
X53644732Y63728812D01*
X53644730Y63728813D01*
X53456129Y63786025D01*
X53456126Y63786026D01*
X53260003Y63805341D01*
X53259997Y63805341D01*
X53063873Y63786026D01*
X53063870Y63786025D01*
X52875269Y63728813D01*
X52875267Y63728812D01*
X52701467Y63635913D01*
X52701457Y63635907D01*
X52549121Y63510888D01*
X52549112Y63510879D01*
X52424093Y63358543D01*
X52424087Y63358533D01*
X52331188Y63184733D01*
X52331187Y63184731D01*
X52273975Y62996130D01*
X52273974Y62996127D01*
X52254659Y62800004D01*
X52254659Y62799997D01*
X49185341Y62799997D01*
X49185341Y62800000D01*
X49185341Y62800004D01*
X49166025Y62996127D01*
X49166024Y62996130D01*
X49166024Y62996132D01*
X49108814Y63184727D01*
X49015910Y63358538D01*
X49015906Y63358543D01*
X48890887Y63510879D01*
X48890878Y63510888D01*
X48738542Y63635907D01*
X48738540Y63635908D01*
X48738538Y63635910D01*
X48684436Y63664828D01*
X48564732Y63728812D01*
X48564730Y63728813D01*
X48376129Y63786025D01*
X48376126Y63786026D01*
X48180003Y63805341D01*
X48179997Y63805341D01*
X47983873Y63786026D01*
X47983870Y63786025D01*
X47795269Y63728813D01*
X47795267Y63728812D01*
X47621467Y63635913D01*
X47621457Y63635907D01*
X47469121Y63510888D01*
X47469112Y63510879D01*
X47344093Y63358543D01*
X47344087Y63358533D01*
X47251188Y63184733D01*
X47251187Y63184731D01*
X47193975Y62996130D01*
X47193974Y62996127D01*
X47174659Y62800004D01*
X47174659Y62799997D01*
X46645341Y62799997D01*
X46645341Y62800000D01*
X46645341Y62800004D01*
X46626025Y62996127D01*
X46626024Y62996130D01*
X46626024Y62996132D01*
X46568814Y63184727D01*
X46475910Y63358538D01*
X46475906Y63358543D01*
X46350887Y63510879D01*
X46350878Y63510888D01*
X46198542Y63635907D01*
X46198540Y63635908D01*
X46198538Y63635910D01*
X46144436Y63664828D01*
X46024732Y63728812D01*
X46024730Y63728813D01*
X45836129Y63786025D01*
X45836126Y63786026D01*
X45640003Y63805341D01*
X45639997Y63805341D01*
X45443873Y63786026D01*
X45443870Y63786025D01*
X45255269Y63728813D01*
X45255267Y63728812D01*
X45081467Y63635913D01*
X45081457Y63635907D01*
X44929121Y63510888D01*
X44929112Y63510879D01*
X44804093Y63358543D01*
X44804087Y63358533D01*
X44711188Y63184733D01*
X44711187Y63184731D01*
X44653975Y62996130D01*
X44653974Y62996127D01*
X44634659Y62800004D01*
X44634659Y62799997D01*
X44100500Y62799997D01*
X44100500Y63664820D01*
X44100499Y63664822D01*
X44100499Y63664828D01*
X44091767Y63708721D01*
X44091765Y63708725D01*
X44058505Y63758502D01*
X44058504Y63758504D01*
X44017314Y63786026D01*
X44008724Y63791766D01*
X44008720Y63791768D01*
X43964827Y63800500D01*
X43964820Y63800500D01*
X42235180Y63800500D01*
X42235172Y63800500D01*
X42191279Y63791768D01*
X42191275Y63791766D01*
X42141498Y63758506D01*
X42141494Y63758502D01*
X42108234Y63708725D01*
X42108232Y63708721D01*
X42099500Y63664828D01*
X42099500Y61935173D01*
X37475827Y61935173D01*
X37681250Y62118750D01*
X37917041Y62382600D01*
X38121808Y62671192D01*
X38292975Y62980895D01*
X38428390Y63307816D01*
X38526350Y63647843D01*
X38585623Y63996700D01*
X38605464Y64350000D01*
X38594613Y64543220D01*
X38585624Y64703291D01*
X38585621Y64703311D01*
X38526350Y65052156D01*
X38472122Y65240388D01*
X38428390Y65392184D01*
X38292975Y65719105D01*
X38292973Y65719110D01*
X38121806Y66028811D01*
X37917043Y66317397D01*
X37917041Y66317400D01*
X37681250Y66581250D01*
X37417400Y66817041D01*
X37273581Y66919086D01*
X37128810Y67021807D01*
X36819108Y67192974D01*
X36819109Y67192974D01*
X36492182Y67328391D01*
X36152155Y67426351D01*
X35803310Y67485622D01*
X35803290Y67485625D01*
X35450005Y67505464D01*
X35449995Y67505464D01*
X35096709Y67485625D01*
X35096689Y67485622D01*
X34747844Y67426351D01*
X34407817Y67328391D01*
X34080890Y67192974D01*
X33771189Y67021807D01*
X33482603Y66817044D01*
X33218757Y66581257D01*
X33218743Y66581243D01*
X32982956Y66317397D01*
X32778193Y66028811D01*
X32607026Y65719110D01*
X32471609Y65392183D01*
X32373649Y65052156D01*
X32314378Y64703311D01*
X32314375Y64703291D01*
X32294536Y64350005D01*
X32294536Y64349996D01*
X10775500Y64349996D01*
X10775500Y71673399D01*
X10792064Y71728219D01*
X11585608Y72921524D01*
X11608710Y72945952D01*
X11747742Y73050029D01*
X11939971Y73242258D01*
X12102887Y73459887D01*
X12233172Y73698487D01*
X12328175Y73953199D01*
X12385961Y74218840D01*
X12405355Y74490000D01*
X12398932Y74579808D01*
X17049500Y74579808D01*
X17089065Y74342707D01*
X17167119Y74115341D01*
X17254869Y73953195D01*
X17281528Y73903933D01*
X17429175Y73714236D01*
X17606031Y73551429D01*
X17606033Y73551428D01*
X17606035Y73551426D01*
X17807267Y73419954D01*
X17807272Y73419951D01*
X18027409Y73323390D01*
X18260437Y73264380D01*
X18320294Y73259420D01*
X18440008Y73249500D01*
X18440010Y73249500D01*
X18559992Y73249500D01*
X18649776Y73256940D01*
X18739563Y73264380D01*
X18972591Y73323390D01*
X19192728Y73419951D01*
X19393969Y73551429D01*
X19570825Y73714236D01*
X19718472Y73903933D01*
X19832882Y74115344D01*
X19910934Y74342703D01*
X19950500Y74579808D01*
X19950500Y74820192D01*
X19910934Y75057297D01*
X19832882Y75284656D01*
X19718472Y75496067D01*
X19570825Y75685764D01*
X19393969Y75848571D01*
X19393966Y75848573D01*
X19393964Y75848575D01*
X19192732Y75980047D01*
X19192727Y75980050D01*
X19089157Y76025480D01*
X18972591Y76076610D01*
X18972587Y76076611D01*
X18972585Y76076612D01*
X18739561Y76135621D01*
X18559992Y76150500D01*
X18559990Y76150500D01*
X18440010Y76150500D01*
X18440008Y76150500D01*
X18260438Y76135621D01*
X18260437Y76135621D01*
X18027414Y76076612D01*
X17807272Y75980050D01*
X17807267Y75980047D01*
X17606035Y75848575D01*
X17429172Y75685761D01*
X17281530Y75496071D01*
X17281528Y75496068D01*
X17167119Y75284660D01*
X17089065Y75057294D01*
X17049500Y74820193D01*
X17049500Y74579808D01*
X12398932Y74579808D01*
X12385961Y74761160D01*
X12328175Y75026801D01*
X12233172Y75281513D01*
X12231454Y75284660D01*
X12102893Y75520103D01*
X12102891Y75520106D01*
X12102887Y75520113D01*
X11939971Y75737742D01*
X11747742Y75929971D01*
X11530113Y76092887D01*
X11530106Y76092891D01*
X11530102Y76092894D01*
X11291522Y76223168D01*
X11291514Y76223172D01*
X11036805Y76318174D01*
X11036801Y76318175D01*
X10771160Y76375961D01*
X10771157Y76375962D01*
X10771154Y76375962D01*
X10500000Y76395355D01*
X10228845Y76375962D01*
X9963194Y76318174D01*
X9708485Y76223172D01*
X9708477Y76223168D01*
X9469897Y76092894D01*
X9469889Y76092889D01*
X9469887Y76092887D01*
X9448144Y76076610D01*
X9252260Y75929973D01*
X9060027Y75737740D01*
X8897106Y75520103D01*
X8766832Y75281523D01*
X8766828Y75281515D01*
X8671826Y75026806D01*
X8671825Y75026801D01*
X8626881Y74820192D01*
X8614038Y74761155D01*
X8594645Y74490000D01*
X75500Y74490000D01*
X75500Y77225500D01*
X94407Y77283691D01*
X143907Y77319655D01*
X174500Y77324500D01*
X20825500Y77324500D01*
X20883691Y77305593D01*
G37*
G04 #@! TD.AperFunction*
G04 #@! TA.AperFunction,Conductor*
G36*
X59090711Y25626956D02*
G01*
X59098100Y25621898D01*
X59100000Y25615507D01*
X59100000Y25284494D01*
X59096573Y25276221D01*
X59090711Y25273045D01*
X58624279Y25174831D01*
X58615477Y25176480D01*
X58611073Y25181768D01*
X58500883Y25445491D01*
X58500857Y25454444D01*
X58500862Y25454458D01*
X58611073Y25718234D01*
X58617424Y25724544D01*
X58624276Y25725170D01*
X59090711Y25626956D01*
G37*
G04 #@! TD.AperFunction*
G04 #@! TA.AperFunction,Conductor*
G36*
X86614522Y31988521D02*
G01*
X86618927Y31983232D01*
X86729115Y31719511D01*
X86729142Y31710556D01*
X86729115Y31710489D01*
X86618927Y31446769D01*
X86612575Y31440457D01*
X86605720Y31439831D01*
X86139289Y31538045D01*
X86131900Y31543103D01*
X86130000Y31549494D01*
X86130000Y31880507D01*
X86133427Y31888780D01*
X86139289Y31891956D01*
X86605722Y31990170D01*
X86614522Y31988521D01*
G37*
G04 #@! TD.AperFunction*
G04 #@! TA.AperFunction,Conductor*
G36*
X10506745Y74480265D02*
G01*
X10509560Y74477450D01*
X11495379Y73080156D01*
X11497348Y73071420D01*
X11495561Y73066932D01*
X10628472Y71763033D01*
X10621038Y71758042D01*
X10618730Y71757812D01*
X10381270Y71757812D01*
X10372997Y71761239D01*
X10371528Y71763033D01*
X9504438Y73066932D01*
X9502710Y73075719D01*
X9504618Y73080152D01*
X10490440Y74477451D01*
X10498009Y74482234D01*
X10506745Y74480265D01*
G37*
G04 #@! TD.AperFunction*
G04 #@! TA.AperFunction,Conductor*
G36*
X24921736Y24280675D02*
G01*
X25355346Y24054107D01*
X25361092Y24047238D01*
X25360751Y24039293D01*
X25252563Y23775816D01*
X25246251Y23769464D01*
X25246184Y23769437D01*
X24982707Y23661249D01*
X24973752Y23661276D01*
X24967893Y23666654D01*
X24741325Y24100263D01*
X24740532Y24109179D01*
X24743421Y24113949D01*
X24908050Y24278578D01*
X24916322Y24282004D01*
X24921736Y24280675D01*
G37*
G04 #@! TD.AperFunction*
G04 #@! TA.AperFunction,Conductor*
G36*
X72723780Y15196573D02*
G01*
X72726956Y15190711D01*
X72825169Y14724280D01*
X72823520Y14715478D01*
X72818231Y14711073D01*
X72554511Y14600885D01*
X72545556Y14600858D01*
X72545489Y14600885D01*
X72281768Y14711073D01*
X72275456Y14717425D01*
X72274830Y14724277D01*
X72373044Y15190712D01*
X72378102Y15198100D01*
X72384493Y15200000D01*
X72715507Y15200000D01*
X72723780Y15196573D01*
G37*
G04 #@! TD.AperFunction*
G04 #@! TA.AperFunction,Conductor*
G36*
X60944190Y15862868D02*
G01*
X60947716Y15860447D01*
X61184446Y15623717D01*
X61187873Y15615444D01*
X61187091Y15611239D01*
X60653604Y14225903D01*
X60647433Y14219414D01*
X60638481Y14219190D01*
X60638220Y14219294D01*
X59867785Y14537438D01*
X59861447Y14543762D01*
X59543293Y15314222D01*
X59543302Y15323176D01*
X59549641Y15329501D01*
X59549866Y15329591D01*
X60935240Y15863092D01*
X60944190Y15862868D01*
G37*
G04 #@! TD.AperFunction*
M02*
