G04 #@! TF.GenerationSoftware,KiCad,Pcbnew,7.0.8*
G04 #@! TF.CreationDate,2024-03-21T14:37:43-03:00*
G04 #@! TF.ProjectId,Demo PPI NB V2,44656d6f-2050-4504-9920-4e422056322e,rev?*
G04 #@! TF.SameCoordinates,PX25ab8e0PY6dc4960*
G04 #@! TF.FileFunction,Soldermask,Bot*
G04 #@! TF.FilePolarity,Negative*
%FSLAX46Y46*%
G04 Gerber Fmt 4.6, Leading zero omitted, Abs format (unit mm)*
G04 Created by KiCad (PCBNEW 7.0.8) date 2024-03-21 14:37:43*
%MOMM*%
%LPD*%
G01*
G04 APERTURE LIST*
%ADD10R,1.700000X1.700000*%
%ADD11O,1.700000X1.700000*%
%ADD12R,4.200000X1.750000*%
%ADD13C,3.300000*%
%ADD14C,2.500000*%
%ADD15C,3.500000*%
%ADD16C,0.001000*%
G04 APERTURE END LIST*
D10*
X43100000Y62800000D03*
D11*
X45640000Y62800000D03*
X48180000Y62800000D03*
X50720000Y62800000D03*
X53260000Y62800000D03*
X55800000Y62800000D03*
X58340000Y62800000D03*
X60880000Y62800000D03*
X63420000Y62800000D03*
X65960000Y62800000D03*
D10*
X52244000Y14540000D03*
D11*
X54784000Y14540000D03*
X57324000Y14540000D03*
X59864000Y14540000D03*
X62404000Y14540000D03*
X64944000Y14540000D03*
X67484000Y14540000D03*
X70024000Y14540000D03*
D10*
X70000000Y57625000D03*
D11*
X70000000Y55085000D03*
X70000000Y52545000D03*
D12*
X102700000Y25440000D03*
X102700000Y31090000D03*
D10*
X83800000Y57625000D03*
D11*
X83800000Y55085000D03*
X83800000Y52545000D03*
D10*
X75104000Y14540000D03*
D11*
X77644000Y14540000D03*
D13*
X18500000Y11080000D03*
X2500000Y66320000D03*
D14*
X18500000Y74700000D03*
D15*
X10500000Y74490000D03*
X10500000Y2910000D03*
D10*
X67450000Y21100000D03*
D11*
X69990000Y21100000D03*
D10*
X79200000Y57625000D03*
D11*
X79200000Y55085000D03*
X79200000Y52545000D03*
D10*
X74600000Y57625000D03*
D11*
X74600000Y55085000D03*
X74600000Y52545000D03*
D16*
X34400000Y13430000D03*
X40180000Y13430000D03*
D10*
X65400000Y57625000D03*
D11*
X65400000Y55085000D03*
X65400000Y52545000D03*
D10*
X87804000Y62800000D03*
D11*
X90344000Y62800000D03*
M02*
