%TF.GenerationSoftware,KiCad,Pcbnew,7.0.8*%
%TF.CreationDate,2024-03-21T14:38:22-03:00*%
%TF.ProjectId,Demo PPI NB V2,44656d6f-2050-4504-9920-4e422056322e,rev?*%
%TF.SameCoordinates,Original*%
%TF.FileFunction,Drillmap*%
%TF.FilePolarity,Positive*%
%FSLAX45Y45*%
G04 Gerber Fmt 4.5, Leading zero omitted, Abs format (unit mm)*
G04 Created by KiCad (PCBNEW 7.0.8) date 2024-03-21 14:38:22*
%MOMM*%
%LPD*%
G01*
G04 APERTURE LIST*
%ADD10C,0.200000*%
%ADD11C,0.065000*%
%ADD12C,0.250000*%
%ADD13C,0.330000*%
G04 APERTURE END LIST*
D10*
D11*
X7357500Y-10134500D02*
X7422500Y-10199500D01*
X7422500Y-10134500D02*
X7357500Y-10199500D01*
X7935500Y-10134500D02*
X8000500Y-10199500D01*
X8000500Y-10134500D02*
X7935500Y-10199500D01*
D12*
X5925000Y-4040000D02*
G75*
G03*
X5925000Y-4040000I-125000J0D01*
G01*
D13*
X4200000Y-4713000D02*
X4200000Y-5043000D01*
X4035000Y-4878000D02*
X4365000Y-4878000D01*
X5800000Y-10237000D02*
X5800000Y-10567000D01*
X5635000Y-10402000D02*
X5965000Y-10402000D01*
D10*
X260777Y-311484D02*
X260777Y-111484D01*
X260777Y-111484D02*
X308396Y-111484D01*
X308396Y-111484D02*
X336967Y-121008D01*
X336967Y-121008D02*
X356015Y-140055D01*
X356015Y-140055D02*
X365539Y-159103D01*
X365539Y-159103D02*
X375062Y-197198D01*
X375062Y-197198D02*
X375062Y-225769D01*
X375062Y-225769D02*
X365539Y-263865D01*
X365539Y-263865D02*
X356015Y-282912D01*
X356015Y-282912D02*
X336967Y-301960D01*
X336967Y-301960D02*
X308396Y-311484D01*
X308396Y-311484D02*
X260777Y-311484D01*
X460777Y-311484D02*
X460777Y-178150D01*
X460777Y-216246D02*
X470301Y-197198D01*
X470301Y-197198D02*
X479824Y-187674D01*
X479824Y-187674D02*
X498872Y-178150D01*
X498872Y-178150D02*
X517920Y-178150D01*
X584586Y-311484D02*
X584586Y-178150D01*
X584586Y-111484D02*
X575063Y-121008D01*
X575063Y-121008D02*
X584586Y-130531D01*
X584586Y-130531D02*
X594110Y-121008D01*
X594110Y-121008D02*
X584586Y-111484D01*
X584586Y-111484D02*
X584586Y-130531D01*
X708396Y-311484D02*
X689348Y-301960D01*
X689348Y-301960D02*
X679824Y-282912D01*
X679824Y-282912D02*
X679824Y-111484D01*
X813158Y-311484D02*
X794110Y-301960D01*
X794110Y-301960D02*
X784586Y-282912D01*
X784586Y-282912D02*
X784586Y-111484D01*
X1041729Y-311484D02*
X1041729Y-111484D01*
X1041729Y-111484D02*
X1108396Y-254341D01*
X1108396Y-254341D02*
X1175063Y-111484D01*
X1175063Y-111484D02*
X1175063Y-311484D01*
X1356015Y-311484D02*
X1356015Y-206722D01*
X1356015Y-206722D02*
X1346491Y-187674D01*
X1346491Y-187674D02*
X1327444Y-178150D01*
X1327444Y-178150D02*
X1289348Y-178150D01*
X1289348Y-178150D02*
X1270301Y-187674D01*
X1356015Y-301960D02*
X1336967Y-311484D01*
X1336967Y-311484D02*
X1289348Y-311484D01*
X1289348Y-311484D02*
X1270301Y-301960D01*
X1270301Y-301960D02*
X1260777Y-282912D01*
X1260777Y-282912D02*
X1260777Y-263865D01*
X1260777Y-263865D02*
X1270301Y-244817D01*
X1270301Y-244817D02*
X1289348Y-235293D01*
X1289348Y-235293D02*
X1336967Y-235293D01*
X1336967Y-235293D02*
X1356015Y-225769D01*
X1451253Y-178150D02*
X1451253Y-378150D01*
X1451253Y-187674D02*
X1470301Y-178150D01*
X1470301Y-178150D02*
X1508396Y-178150D01*
X1508396Y-178150D02*
X1527443Y-187674D01*
X1527443Y-187674D02*
X1536967Y-197198D01*
X1536967Y-197198D02*
X1546491Y-216246D01*
X1546491Y-216246D02*
X1546491Y-273389D01*
X1546491Y-273389D02*
X1536967Y-292436D01*
X1536967Y-292436D02*
X1527443Y-301960D01*
X1527443Y-301960D02*
X1508396Y-311484D01*
X1508396Y-311484D02*
X1470301Y-311484D01*
X1470301Y-311484D02*
X1451253Y-301960D01*
X1632205Y-292436D02*
X1641729Y-301960D01*
X1641729Y-301960D02*
X1632205Y-311484D01*
X1632205Y-311484D02*
X1622682Y-301960D01*
X1622682Y-301960D02*
X1632205Y-292436D01*
X1632205Y-292436D02*
X1632205Y-311484D01*
X1632205Y-187674D02*
X1641729Y-197198D01*
X1641729Y-197198D02*
X1632205Y-206722D01*
X1632205Y-206722D02*
X1622682Y-197198D01*
X1622682Y-197198D02*
X1632205Y-187674D01*
X1632205Y-187674D02*
X1632205Y-206722D01*
D11*
X-65000Y-607500D02*
X0Y-672500D01*
X0Y-607500D02*
X-65000Y-672500D01*
D10*
X298872Y-531484D02*
X317920Y-531484D01*
X317920Y-531484D02*
X336967Y-541008D01*
X336967Y-541008D02*
X346491Y-550531D01*
X346491Y-550531D02*
X356015Y-569579D01*
X356015Y-569579D02*
X365539Y-607674D01*
X365539Y-607674D02*
X365539Y-655293D01*
X365539Y-655293D02*
X356015Y-693389D01*
X356015Y-693389D02*
X346491Y-712436D01*
X346491Y-712436D02*
X336967Y-721960D01*
X336967Y-721960D02*
X317920Y-731484D01*
X317920Y-731484D02*
X298872Y-731484D01*
X298872Y-731484D02*
X279824Y-721960D01*
X279824Y-721960D02*
X270301Y-712436D01*
X270301Y-712436D02*
X260777Y-693389D01*
X260777Y-693389D02*
X251253Y-655293D01*
X251253Y-655293D02*
X251253Y-607674D01*
X251253Y-607674D02*
X260777Y-569579D01*
X260777Y-569579D02*
X270301Y-550531D01*
X270301Y-550531D02*
X279824Y-541008D01*
X279824Y-541008D02*
X298872Y-531484D01*
X451253Y-712436D02*
X460777Y-721960D01*
X460777Y-721960D02*
X451253Y-731484D01*
X451253Y-731484D02*
X441729Y-721960D01*
X441729Y-721960D02*
X451253Y-712436D01*
X451253Y-712436D02*
X451253Y-731484D01*
X632205Y-531484D02*
X594110Y-531484D01*
X594110Y-531484D02*
X575063Y-541008D01*
X575063Y-541008D02*
X565539Y-550531D01*
X565539Y-550531D02*
X546491Y-579103D01*
X546491Y-579103D02*
X536967Y-617198D01*
X536967Y-617198D02*
X536967Y-693389D01*
X536967Y-693389D02*
X546491Y-712436D01*
X546491Y-712436D02*
X556015Y-721960D01*
X556015Y-721960D02*
X575063Y-731484D01*
X575063Y-731484D02*
X613158Y-731484D01*
X613158Y-731484D02*
X632205Y-721960D01*
X632205Y-721960D02*
X641729Y-712436D01*
X641729Y-712436D02*
X651253Y-693389D01*
X651253Y-693389D02*
X651253Y-645770D01*
X651253Y-645770D02*
X641729Y-626722D01*
X641729Y-626722D02*
X632205Y-617198D01*
X632205Y-617198D02*
X613158Y-607674D01*
X613158Y-607674D02*
X575063Y-607674D01*
X575063Y-607674D02*
X556015Y-617198D01*
X556015Y-617198D02*
X546491Y-626722D01*
X546491Y-626722D02*
X536967Y-645770D01*
X832205Y-531484D02*
X736967Y-531484D01*
X736967Y-531484D02*
X727443Y-626722D01*
X727443Y-626722D02*
X736967Y-617198D01*
X736967Y-617198D02*
X756015Y-607674D01*
X756015Y-607674D02*
X803634Y-607674D01*
X803634Y-607674D02*
X822682Y-617198D01*
X822682Y-617198D02*
X832205Y-626722D01*
X832205Y-626722D02*
X841729Y-645770D01*
X841729Y-645770D02*
X841729Y-693389D01*
X841729Y-693389D02*
X832205Y-712436D01*
X832205Y-712436D02*
X822682Y-721960D01*
X822682Y-721960D02*
X803634Y-731484D01*
X803634Y-731484D02*
X756015Y-731484D01*
X756015Y-731484D02*
X736967Y-721960D01*
X736967Y-721960D02*
X727443Y-712436D01*
X965539Y-531484D02*
X984586Y-531484D01*
X984586Y-531484D02*
X1003634Y-541008D01*
X1003634Y-541008D02*
X1013158Y-550531D01*
X1013158Y-550531D02*
X1022682Y-569579D01*
X1022682Y-569579D02*
X1032205Y-607674D01*
X1032205Y-607674D02*
X1032205Y-655293D01*
X1032205Y-655293D02*
X1022682Y-693389D01*
X1022682Y-693389D02*
X1013158Y-712436D01*
X1013158Y-712436D02*
X1003634Y-721960D01*
X1003634Y-721960D02*
X984586Y-731484D01*
X984586Y-731484D02*
X965539Y-731484D01*
X965539Y-731484D02*
X946491Y-721960D01*
X946491Y-721960D02*
X936967Y-712436D01*
X936967Y-712436D02*
X927443Y-693389D01*
X927443Y-693389D02*
X917920Y-655293D01*
X917920Y-655293D02*
X917920Y-607674D01*
X917920Y-607674D02*
X927443Y-569579D01*
X927443Y-569579D02*
X936967Y-550531D01*
X936967Y-550531D02*
X946491Y-541008D01*
X946491Y-541008D02*
X965539Y-531484D01*
X1117920Y-731484D02*
X1117920Y-598150D01*
X1117920Y-617198D02*
X1127444Y-607674D01*
X1127444Y-607674D02*
X1146491Y-598150D01*
X1146491Y-598150D02*
X1175063Y-598150D01*
X1175063Y-598150D02*
X1194110Y-607674D01*
X1194110Y-607674D02*
X1203634Y-626722D01*
X1203634Y-626722D02*
X1203634Y-731484D01*
X1203634Y-626722D02*
X1213158Y-607674D01*
X1213158Y-607674D02*
X1232205Y-598150D01*
X1232205Y-598150D02*
X1260777Y-598150D01*
X1260777Y-598150D02*
X1279825Y-607674D01*
X1279825Y-607674D02*
X1289348Y-626722D01*
X1289348Y-626722D02*
X1289348Y-731484D01*
X1384586Y-731484D02*
X1384586Y-598150D01*
X1384586Y-617198D02*
X1394110Y-607674D01*
X1394110Y-607674D02*
X1413158Y-598150D01*
X1413158Y-598150D02*
X1441729Y-598150D01*
X1441729Y-598150D02*
X1460777Y-607674D01*
X1460777Y-607674D02*
X1470301Y-626722D01*
X1470301Y-626722D02*
X1470301Y-731484D01*
X1470301Y-626722D02*
X1479824Y-607674D01*
X1479824Y-607674D02*
X1498872Y-598150D01*
X1498872Y-598150D02*
X1527443Y-598150D01*
X1527443Y-598150D02*
X1546491Y-607674D01*
X1546491Y-607674D02*
X1556015Y-626722D01*
X1556015Y-626722D02*
X1556015Y-731484D01*
X1946491Y-521960D02*
X1775063Y-779103D01*
X2203634Y-531484D02*
X2222682Y-531484D01*
X2222682Y-531484D02*
X2241729Y-541008D01*
X2241729Y-541008D02*
X2251253Y-550531D01*
X2251253Y-550531D02*
X2260777Y-569579D01*
X2260777Y-569579D02*
X2270301Y-607674D01*
X2270301Y-607674D02*
X2270301Y-655293D01*
X2270301Y-655293D02*
X2260777Y-693389D01*
X2260777Y-693389D02*
X2251253Y-712436D01*
X2251253Y-712436D02*
X2241729Y-721960D01*
X2241729Y-721960D02*
X2222682Y-731484D01*
X2222682Y-731484D02*
X2203634Y-731484D01*
X2203634Y-731484D02*
X2184587Y-721960D01*
X2184587Y-721960D02*
X2175063Y-712436D01*
X2175063Y-712436D02*
X2165539Y-693389D01*
X2165539Y-693389D02*
X2156015Y-655293D01*
X2156015Y-655293D02*
X2156015Y-607674D01*
X2156015Y-607674D02*
X2165539Y-569579D01*
X2165539Y-569579D02*
X2175063Y-550531D01*
X2175063Y-550531D02*
X2184587Y-541008D01*
X2184587Y-541008D02*
X2203634Y-531484D01*
X2356015Y-712436D02*
X2365539Y-721960D01*
X2365539Y-721960D02*
X2356015Y-731484D01*
X2356015Y-731484D02*
X2346491Y-721960D01*
X2346491Y-721960D02*
X2356015Y-712436D01*
X2356015Y-712436D02*
X2356015Y-731484D01*
X2489348Y-531484D02*
X2508396Y-531484D01*
X2508396Y-531484D02*
X2527444Y-541008D01*
X2527444Y-541008D02*
X2536968Y-550531D01*
X2536968Y-550531D02*
X2546491Y-569579D01*
X2546491Y-569579D02*
X2556015Y-607674D01*
X2556015Y-607674D02*
X2556015Y-655293D01*
X2556015Y-655293D02*
X2546491Y-693389D01*
X2546491Y-693389D02*
X2536968Y-712436D01*
X2536968Y-712436D02*
X2527444Y-721960D01*
X2527444Y-721960D02*
X2508396Y-731484D01*
X2508396Y-731484D02*
X2489348Y-731484D01*
X2489348Y-731484D02*
X2470301Y-721960D01*
X2470301Y-721960D02*
X2460777Y-712436D01*
X2460777Y-712436D02*
X2451253Y-693389D01*
X2451253Y-693389D02*
X2441729Y-655293D01*
X2441729Y-655293D02*
X2441729Y-607674D01*
X2441729Y-607674D02*
X2451253Y-569579D01*
X2451253Y-569579D02*
X2460777Y-550531D01*
X2460777Y-550531D02*
X2470301Y-541008D01*
X2470301Y-541008D02*
X2489348Y-531484D01*
X2632206Y-550531D02*
X2641729Y-541008D01*
X2641729Y-541008D02*
X2660777Y-531484D01*
X2660777Y-531484D02*
X2708396Y-531484D01*
X2708396Y-531484D02*
X2727444Y-541008D01*
X2727444Y-541008D02*
X2736968Y-550531D01*
X2736968Y-550531D02*
X2746491Y-569579D01*
X2746491Y-569579D02*
X2746491Y-588627D01*
X2746491Y-588627D02*
X2736968Y-617198D01*
X2736968Y-617198D02*
X2622682Y-731484D01*
X2622682Y-731484D02*
X2746491Y-731484D01*
X2927444Y-531484D02*
X2832206Y-531484D01*
X2832206Y-531484D02*
X2822682Y-626722D01*
X2822682Y-626722D02*
X2832206Y-617198D01*
X2832206Y-617198D02*
X2851253Y-607674D01*
X2851253Y-607674D02*
X2898872Y-607674D01*
X2898872Y-607674D02*
X2917920Y-617198D01*
X2917920Y-617198D02*
X2927444Y-626722D01*
X2927444Y-626722D02*
X2936967Y-645770D01*
X2936967Y-645770D02*
X2936967Y-693389D01*
X2936967Y-693389D02*
X2927444Y-712436D01*
X2927444Y-712436D02*
X2917920Y-721960D01*
X2917920Y-721960D02*
X2898872Y-731484D01*
X2898872Y-731484D02*
X2851253Y-731484D01*
X2851253Y-731484D02*
X2832206Y-721960D01*
X2832206Y-721960D02*
X2822682Y-712436D01*
X3108396Y-531484D02*
X3070301Y-531484D01*
X3070301Y-531484D02*
X3051253Y-541008D01*
X3051253Y-541008D02*
X3041729Y-550531D01*
X3041729Y-550531D02*
X3022682Y-579103D01*
X3022682Y-579103D02*
X3013158Y-617198D01*
X3013158Y-617198D02*
X3013158Y-693389D01*
X3013158Y-693389D02*
X3022682Y-712436D01*
X3022682Y-712436D02*
X3032206Y-721960D01*
X3032206Y-721960D02*
X3051253Y-731484D01*
X3051253Y-731484D02*
X3089348Y-731484D01*
X3089348Y-731484D02*
X3108396Y-721960D01*
X3108396Y-721960D02*
X3117920Y-712436D01*
X3117920Y-712436D02*
X3127444Y-693389D01*
X3127444Y-693389D02*
X3127444Y-645770D01*
X3127444Y-645770D02*
X3117920Y-626722D01*
X3117920Y-626722D02*
X3108396Y-617198D01*
X3108396Y-617198D02*
X3089348Y-607674D01*
X3089348Y-607674D02*
X3051253Y-607674D01*
X3051253Y-607674D02*
X3032206Y-617198D01*
X3032206Y-617198D02*
X3022682Y-626722D01*
X3022682Y-626722D02*
X3013158Y-645770D01*
X3203634Y-531484D02*
X3203634Y-569579D01*
X3279825Y-531484D02*
X3279825Y-569579D01*
X3575063Y-807674D02*
X3565539Y-798150D01*
X3565539Y-798150D02*
X3546491Y-769579D01*
X3546491Y-769579D02*
X3536968Y-750531D01*
X3536968Y-750531D02*
X3527444Y-721960D01*
X3527444Y-721960D02*
X3517920Y-674341D01*
X3517920Y-674341D02*
X3517920Y-636246D01*
X3517920Y-636246D02*
X3527444Y-588627D01*
X3527444Y-588627D02*
X3536968Y-560055D01*
X3536968Y-560055D02*
X3546491Y-541008D01*
X3546491Y-541008D02*
X3565539Y-512436D01*
X3565539Y-512436D02*
X3575063Y-502912D01*
X3641729Y-550531D02*
X3651253Y-541008D01*
X3651253Y-541008D02*
X3670301Y-531484D01*
X3670301Y-531484D02*
X3717920Y-531484D01*
X3717920Y-531484D02*
X3736968Y-541008D01*
X3736968Y-541008D02*
X3746491Y-550531D01*
X3746491Y-550531D02*
X3756015Y-569579D01*
X3756015Y-569579D02*
X3756015Y-588627D01*
X3756015Y-588627D02*
X3746491Y-617198D01*
X3746491Y-617198D02*
X3632206Y-731484D01*
X3632206Y-731484D02*
X3756015Y-731484D01*
X3994110Y-731484D02*
X3994110Y-531484D01*
X4079825Y-731484D02*
X4079825Y-626722D01*
X4079825Y-626722D02*
X4070301Y-607674D01*
X4070301Y-607674D02*
X4051253Y-598150D01*
X4051253Y-598150D02*
X4022682Y-598150D01*
X4022682Y-598150D02*
X4003634Y-607674D01*
X4003634Y-607674D02*
X3994110Y-617198D01*
X4203634Y-731484D02*
X4184587Y-721960D01*
X4184587Y-721960D02*
X4175063Y-712436D01*
X4175063Y-712436D02*
X4165539Y-693389D01*
X4165539Y-693389D02*
X4165539Y-636246D01*
X4165539Y-636246D02*
X4175063Y-617198D01*
X4175063Y-617198D02*
X4184587Y-607674D01*
X4184587Y-607674D02*
X4203634Y-598150D01*
X4203634Y-598150D02*
X4232206Y-598150D01*
X4232206Y-598150D02*
X4251253Y-607674D01*
X4251253Y-607674D02*
X4260777Y-617198D01*
X4260777Y-617198D02*
X4270301Y-636246D01*
X4270301Y-636246D02*
X4270301Y-693389D01*
X4270301Y-693389D02*
X4260777Y-712436D01*
X4260777Y-712436D02*
X4251253Y-721960D01*
X4251253Y-721960D02*
X4232206Y-731484D01*
X4232206Y-731484D02*
X4203634Y-731484D01*
X4384587Y-731484D02*
X4365539Y-721960D01*
X4365539Y-721960D02*
X4356015Y-702912D01*
X4356015Y-702912D02*
X4356015Y-531484D01*
X4536968Y-721960D02*
X4517920Y-731484D01*
X4517920Y-731484D02*
X4479825Y-731484D01*
X4479825Y-731484D02*
X4460777Y-721960D01*
X4460777Y-721960D02*
X4451253Y-702912D01*
X4451253Y-702912D02*
X4451253Y-626722D01*
X4451253Y-626722D02*
X4460777Y-607674D01*
X4460777Y-607674D02*
X4479825Y-598150D01*
X4479825Y-598150D02*
X4517920Y-598150D01*
X4517920Y-598150D02*
X4536968Y-607674D01*
X4536968Y-607674D02*
X4546492Y-626722D01*
X4546492Y-626722D02*
X4546492Y-645770D01*
X4546492Y-645770D02*
X4451253Y-664817D01*
X4622682Y-721960D02*
X4641730Y-731484D01*
X4641730Y-731484D02*
X4679825Y-731484D01*
X4679825Y-731484D02*
X4698873Y-721960D01*
X4698873Y-721960D02*
X4708396Y-702912D01*
X4708396Y-702912D02*
X4708396Y-693389D01*
X4708396Y-693389D02*
X4698873Y-674341D01*
X4698873Y-674341D02*
X4679825Y-664817D01*
X4679825Y-664817D02*
X4651253Y-664817D01*
X4651253Y-664817D02*
X4632206Y-655293D01*
X4632206Y-655293D02*
X4622682Y-636246D01*
X4622682Y-636246D02*
X4622682Y-626722D01*
X4622682Y-626722D02*
X4632206Y-607674D01*
X4632206Y-607674D02*
X4651253Y-598150D01*
X4651253Y-598150D02*
X4679825Y-598150D01*
X4679825Y-598150D02*
X4698873Y-607674D01*
X4775063Y-807674D02*
X4784587Y-798150D01*
X4784587Y-798150D02*
X4803634Y-769579D01*
X4803634Y-769579D02*
X4813158Y-750531D01*
X4813158Y-750531D02*
X4822682Y-721960D01*
X4822682Y-721960D02*
X4832206Y-674341D01*
X4832206Y-674341D02*
X4832206Y-636246D01*
X4832206Y-636246D02*
X4822682Y-588627D01*
X4822682Y-588627D02*
X4813158Y-560055D01*
X4813158Y-560055D02*
X4803634Y-541008D01*
X4803634Y-541008D02*
X4784587Y-512436D01*
X4784587Y-512436D02*
X4775063Y-502912D01*
X5136968Y-807674D02*
X5127444Y-798150D01*
X5127444Y-798150D02*
X5108396Y-769579D01*
X5108396Y-769579D02*
X5098873Y-750531D01*
X5098873Y-750531D02*
X5089349Y-721960D01*
X5089349Y-721960D02*
X5079825Y-674341D01*
X5079825Y-674341D02*
X5079825Y-636246D01*
X5079825Y-636246D02*
X5089349Y-588627D01*
X5089349Y-588627D02*
X5098873Y-560055D01*
X5098873Y-560055D02*
X5108396Y-541008D01*
X5108396Y-541008D02*
X5127444Y-512436D01*
X5127444Y-512436D02*
X5136968Y-502912D01*
X5213158Y-598150D02*
X5213158Y-731484D01*
X5213158Y-617198D02*
X5222682Y-607674D01*
X5222682Y-607674D02*
X5241730Y-598150D01*
X5241730Y-598150D02*
X5270301Y-598150D01*
X5270301Y-598150D02*
X5289349Y-607674D01*
X5289349Y-607674D02*
X5298873Y-626722D01*
X5298873Y-626722D02*
X5298873Y-731484D01*
X5422682Y-731484D02*
X5403634Y-721960D01*
X5403634Y-721960D02*
X5394111Y-712436D01*
X5394111Y-712436D02*
X5384587Y-693389D01*
X5384587Y-693389D02*
X5384587Y-636246D01*
X5384587Y-636246D02*
X5394111Y-617198D01*
X5394111Y-617198D02*
X5403634Y-607674D01*
X5403634Y-607674D02*
X5422682Y-598150D01*
X5422682Y-598150D02*
X5451254Y-598150D01*
X5451254Y-598150D02*
X5470301Y-607674D01*
X5470301Y-607674D02*
X5479825Y-617198D01*
X5479825Y-617198D02*
X5489349Y-636246D01*
X5489349Y-636246D02*
X5489349Y-693389D01*
X5489349Y-693389D02*
X5479825Y-712436D01*
X5479825Y-712436D02*
X5470301Y-721960D01*
X5470301Y-721960D02*
X5451254Y-731484D01*
X5451254Y-731484D02*
X5422682Y-731484D01*
X5546492Y-598150D02*
X5622682Y-598150D01*
X5575063Y-531484D02*
X5575063Y-702912D01*
X5575063Y-702912D02*
X5584587Y-721960D01*
X5584587Y-721960D02*
X5603634Y-731484D01*
X5603634Y-731484D02*
X5622682Y-731484D01*
X5841730Y-598150D02*
X5841730Y-798150D01*
X5841730Y-607674D02*
X5860777Y-598150D01*
X5860777Y-598150D02*
X5898873Y-598150D01*
X5898873Y-598150D02*
X5917920Y-607674D01*
X5917920Y-607674D02*
X5927444Y-617198D01*
X5927444Y-617198D02*
X5936968Y-636246D01*
X5936968Y-636246D02*
X5936968Y-693389D01*
X5936968Y-693389D02*
X5927444Y-712436D01*
X5927444Y-712436D02*
X5917920Y-721960D01*
X5917920Y-721960D02*
X5898873Y-731484D01*
X5898873Y-731484D02*
X5860777Y-731484D01*
X5860777Y-731484D02*
X5841730Y-721960D01*
X6051253Y-731484D02*
X6032206Y-721960D01*
X6032206Y-721960D02*
X6022682Y-702912D01*
X6022682Y-702912D02*
X6022682Y-531484D01*
X6213158Y-731484D02*
X6213158Y-626722D01*
X6213158Y-626722D02*
X6203634Y-607674D01*
X6203634Y-607674D02*
X6184587Y-598150D01*
X6184587Y-598150D02*
X6146492Y-598150D01*
X6146492Y-598150D02*
X6127444Y-607674D01*
X6213158Y-721960D02*
X6194111Y-731484D01*
X6194111Y-731484D02*
X6146492Y-731484D01*
X6146492Y-731484D02*
X6127444Y-721960D01*
X6127444Y-721960D02*
X6117920Y-702912D01*
X6117920Y-702912D02*
X6117920Y-683865D01*
X6117920Y-683865D02*
X6127444Y-664817D01*
X6127444Y-664817D02*
X6146492Y-655293D01*
X6146492Y-655293D02*
X6194111Y-655293D01*
X6194111Y-655293D02*
X6213158Y-645770D01*
X6279825Y-598150D02*
X6356015Y-598150D01*
X6308396Y-531484D02*
X6308396Y-702912D01*
X6308396Y-702912D02*
X6317920Y-721960D01*
X6317920Y-721960D02*
X6336968Y-731484D01*
X6336968Y-731484D02*
X6356015Y-731484D01*
X6498873Y-721960D02*
X6479825Y-731484D01*
X6479825Y-731484D02*
X6441730Y-731484D01*
X6441730Y-731484D02*
X6422682Y-721960D01*
X6422682Y-721960D02*
X6413158Y-702912D01*
X6413158Y-702912D02*
X6413158Y-626722D01*
X6413158Y-626722D02*
X6422682Y-607674D01*
X6422682Y-607674D02*
X6441730Y-598150D01*
X6441730Y-598150D02*
X6479825Y-598150D01*
X6479825Y-598150D02*
X6498873Y-607674D01*
X6498873Y-607674D02*
X6508396Y-626722D01*
X6508396Y-626722D02*
X6508396Y-645770D01*
X6508396Y-645770D02*
X6413158Y-664817D01*
X6679825Y-731484D02*
X6679825Y-531484D01*
X6679825Y-721960D02*
X6660777Y-731484D01*
X6660777Y-731484D02*
X6622682Y-731484D01*
X6622682Y-731484D02*
X6603634Y-721960D01*
X6603634Y-721960D02*
X6594111Y-712436D01*
X6594111Y-712436D02*
X6584587Y-693389D01*
X6584587Y-693389D02*
X6584587Y-636246D01*
X6584587Y-636246D02*
X6594111Y-617198D01*
X6594111Y-617198D02*
X6603634Y-607674D01*
X6603634Y-607674D02*
X6622682Y-598150D01*
X6622682Y-598150D02*
X6660777Y-598150D01*
X6660777Y-598150D02*
X6679825Y-607674D01*
X6756015Y-807674D02*
X6765539Y-798150D01*
X6765539Y-798150D02*
X6784587Y-769579D01*
X6784587Y-769579D02*
X6794111Y-750531D01*
X6794111Y-750531D02*
X6803634Y-721960D01*
X6803634Y-721960D02*
X6813158Y-674341D01*
X6813158Y-674341D02*
X6813158Y-636246D01*
X6813158Y-636246D02*
X6803634Y-588627D01*
X6803634Y-588627D02*
X6794111Y-560055D01*
X6794111Y-560055D02*
X6784587Y-541008D01*
X6784587Y-541008D02*
X6765539Y-512436D01*
X6765539Y-512436D02*
X6756015Y-502912D01*
X0Y-904000D02*
G75*
G03*
X0Y-904000I-100000J0D01*
G01*
X251253Y-814531D02*
X260777Y-805008D01*
X260777Y-805008D02*
X279824Y-795484D01*
X279824Y-795484D02*
X327444Y-795484D01*
X327444Y-795484D02*
X346491Y-805008D01*
X346491Y-805008D02*
X356015Y-814531D01*
X356015Y-814531D02*
X365539Y-833579D01*
X365539Y-833579D02*
X365539Y-852627D01*
X365539Y-852627D02*
X356015Y-881198D01*
X356015Y-881198D02*
X241729Y-995484D01*
X241729Y-995484D02*
X365539Y-995484D01*
X451253Y-976436D02*
X460777Y-985960D01*
X460777Y-985960D02*
X451253Y-995484D01*
X451253Y-995484D02*
X441729Y-985960D01*
X441729Y-985960D02*
X451253Y-976436D01*
X451253Y-976436D02*
X451253Y-995484D01*
X641729Y-795484D02*
X546491Y-795484D01*
X546491Y-795484D02*
X536967Y-890722D01*
X536967Y-890722D02*
X546491Y-881198D01*
X546491Y-881198D02*
X565539Y-871674D01*
X565539Y-871674D02*
X613158Y-871674D01*
X613158Y-871674D02*
X632205Y-881198D01*
X632205Y-881198D02*
X641729Y-890722D01*
X641729Y-890722D02*
X651253Y-909769D01*
X651253Y-909769D02*
X651253Y-957388D01*
X651253Y-957388D02*
X641729Y-976436D01*
X641729Y-976436D02*
X632205Y-985960D01*
X632205Y-985960D02*
X613158Y-995484D01*
X613158Y-995484D02*
X565539Y-995484D01*
X565539Y-995484D02*
X546491Y-985960D01*
X546491Y-985960D02*
X536967Y-976436D01*
X775062Y-795484D02*
X794110Y-795484D01*
X794110Y-795484D02*
X813158Y-805008D01*
X813158Y-805008D02*
X822682Y-814531D01*
X822682Y-814531D02*
X832205Y-833579D01*
X832205Y-833579D02*
X841729Y-871674D01*
X841729Y-871674D02*
X841729Y-919293D01*
X841729Y-919293D02*
X832205Y-957388D01*
X832205Y-957388D02*
X822682Y-976436D01*
X822682Y-976436D02*
X813158Y-985960D01*
X813158Y-985960D02*
X794110Y-995484D01*
X794110Y-995484D02*
X775062Y-995484D01*
X775062Y-995484D02*
X756015Y-985960D01*
X756015Y-985960D02*
X746491Y-976436D01*
X746491Y-976436D02*
X736967Y-957388D01*
X736967Y-957388D02*
X727443Y-919293D01*
X727443Y-919293D02*
X727443Y-871674D01*
X727443Y-871674D02*
X736967Y-833579D01*
X736967Y-833579D02*
X746491Y-814531D01*
X746491Y-814531D02*
X756015Y-805008D01*
X756015Y-805008D02*
X775062Y-795484D01*
X965539Y-795484D02*
X984586Y-795484D01*
X984586Y-795484D02*
X1003634Y-805008D01*
X1003634Y-805008D02*
X1013158Y-814531D01*
X1013158Y-814531D02*
X1022682Y-833579D01*
X1022682Y-833579D02*
X1032205Y-871674D01*
X1032205Y-871674D02*
X1032205Y-919293D01*
X1032205Y-919293D02*
X1022682Y-957388D01*
X1022682Y-957388D02*
X1013158Y-976436D01*
X1013158Y-976436D02*
X1003634Y-985960D01*
X1003634Y-985960D02*
X984586Y-995484D01*
X984586Y-995484D02*
X965539Y-995484D01*
X965539Y-995484D02*
X946491Y-985960D01*
X946491Y-985960D02*
X936967Y-976436D01*
X936967Y-976436D02*
X927443Y-957388D01*
X927443Y-957388D02*
X917920Y-919293D01*
X917920Y-919293D02*
X917920Y-871674D01*
X917920Y-871674D02*
X927443Y-833579D01*
X927443Y-833579D02*
X936967Y-814531D01*
X936967Y-814531D02*
X946491Y-805008D01*
X946491Y-805008D02*
X965539Y-795484D01*
X1117920Y-995484D02*
X1117920Y-862150D01*
X1117920Y-881198D02*
X1127444Y-871674D01*
X1127444Y-871674D02*
X1146491Y-862150D01*
X1146491Y-862150D02*
X1175063Y-862150D01*
X1175063Y-862150D02*
X1194110Y-871674D01*
X1194110Y-871674D02*
X1203634Y-890722D01*
X1203634Y-890722D02*
X1203634Y-995484D01*
X1203634Y-890722D02*
X1213158Y-871674D01*
X1213158Y-871674D02*
X1232205Y-862150D01*
X1232205Y-862150D02*
X1260777Y-862150D01*
X1260777Y-862150D02*
X1279825Y-871674D01*
X1279825Y-871674D02*
X1289348Y-890722D01*
X1289348Y-890722D02*
X1289348Y-995484D01*
X1384586Y-995484D02*
X1384586Y-862150D01*
X1384586Y-881198D02*
X1394110Y-871674D01*
X1394110Y-871674D02*
X1413158Y-862150D01*
X1413158Y-862150D02*
X1441729Y-862150D01*
X1441729Y-862150D02*
X1460777Y-871674D01*
X1460777Y-871674D02*
X1470301Y-890722D01*
X1470301Y-890722D02*
X1470301Y-995484D01*
X1470301Y-890722D02*
X1479824Y-871674D01*
X1479824Y-871674D02*
X1498872Y-862150D01*
X1498872Y-862150D02*
X1527443Y-862150D01*
X1527443Y-862150D02*
X1546491Y-871674D01*
X1546491Y-871674D02*
X1556015Y-890722D01*
X1556015Y-890722D02*
X1556015Y-995484D01*
X1946491Y-785960D02*
X1775063Y-1043103D01*
X2203634Y-795484D02*
X2222682Y-795484D01*
X2222682Y-795484D02*
X2241729Y-805008D01*
X2241729Y-805008D02*
X2251253Y-814531D01*
X2251253Y-814531D02*
X2260777Y-833579D01*
X2260777Y-833579D02*
X2270301Y-871674D01*
X2270301Y-871674D02*
X2270301Y-919293D01*
X2270301Y-919293D02*
X2260777Y-957388D01*
X2260777Y-957388D02*
X2251253Y-976436D01*
X2251253Y-976436D02*
X2241729Y-985960D01*
X2241729Y-985960D02*
X2222682Y-995484D01*
X2222682Y-995484D02*
X2203634Y-995484D01*
X2203634Y-995484D02*
X2184587Y-985960D01*
X2184587Y-985960D02*
X2175063Y-976436D01*
X2175063Y-976436D02*
X2165539Y-957388D01*
X2165539Y-957388D02*
X2156015Y-919293D01*
X2156015Y-919293D02*
X2156015Y-871674D01*
X2156015Y-871674D02*
X2165539Y-833579D01*
X2165539Y-833579D02*
X2175063Y-814531D01*
X2175063Y-814531D02*
X2184587Y-805008D01*
X2184587Y-805008D02*
X2203634Y-795484D01*
X2356015Y-976436D02*
X2365539Y-985960D01*
X2365539Y-985960D02*
X2356015Y-995484D01*
X2356015Y-995484D02*
X2346491Y-985960D01*
X2346491Y-985960D02*
X2356015Y-976436D01*
X2356015Y-976436D02*
X2356015Y-995484D01*
X2489348Y-795484D02*
X2508396Y-795484D01*
X2508396Y-795484D02*
X2527444Y-805008D01*
X2527444Y-805008D02*
X2536968Y-814531D01*
X2536968Y-814531D02*
X2546491Y-833579D01*
X2546491Y-833579D02*
X2556015Y-871674D01*
X2556015Y-871674D02*
X2556015Y-919293D01*
X2556015Y-919293D02*
X2546491Y-957388D01*
X2546491Y-957388D02*
X2536968Y-976436D01*
X2536968Y-976436D02*
X2527444Y-985960D01*
X2527444Y-985960D02*
X2508396Y-995484D01*
X2508396Y-995484D02*
X2489348Y-995484D01*
X2489348Y-995484D02*
X2470301Y-985960D01*
X2470301Y-985960D02*
X2460777Y-976436D01*
X2460777Y-976436D02*
X2451253Y-957388D01*
X2451253Y-957388D02*
X2441729Y-919293D01*
X2441729Y-919293D02*
X2441729Y-871674D01*
X2441729Y-871674D02*
X2451253Y-833579D01*
X2451253Y-833579D02*
X2460777Y-814531D01*
X2460777Y-814531D02*
X2470301Y-805008D01*
X2470301Y-805008D02*
X2489348Y-795484D01*
X2651253Y-995484D02*
X2689348Y-995484D01*
X2689348Y-995484D02*
X2708396Y-985960D01*
X2708396Y-985960D02*
X2717920Y-976436D01*
X2717920Y-976436D02*
X2736968Y-947865D01*
X2736968Y-947865D02*
X2746491Y-909769D01*
X2746491Y-909769D02*
X2746491Y-833579D01*
X2746491Y-833579D02*
X2736968Y-814531D01*
X2736968Y-814531D02*
X2727444Y-805008D01*
X2727444Y-805008D02*
X2708396Y-795484D01*
X2708396Y-795484D02*
X2670301Y-795484D01*
X2670301Y-795484D02*
X2651253Y-805008D01*
X2651253Y-805008D02*
X2641729Y-814531D01*
X2641729Y-814531D02*
X2632206Y-833579D01*
X2632206Y-833579D02*
X2632206Y-881198D01*
X2632206Y-881198D02*
X2641729Y-900246D01*
X2641729Y-900246D02*
X2651253Y-909769D01*
X2651253Y-909769D02*
X2670301Y-919293D01*
X2670301Y-919293D02*
X2708396Y-919293D01*
X2708396Y-919293D02*
X2727444Y-909769D01*
X2727444Y-909769D02*
X2736968Y-900246D01*
X2736968Y-900246D02*
X2746491Y-881198D01*
X2860777Y-881198D02*
X2841729Y-871674D01*
X2841729Y-871674D02*
X2832206Y-862150D01*
X2832206Y-862150D02*
X2822682Y-843103D01*
X2822682Y-843103D02*
X2822682Y-833579D01*
X2822682Y-833579D02*
X2832206Y-814531D01*
X2832206Y-814531D02*
X2841729Y-805008D01*
X2841729Y-805008D02*
X2860777Y-795484D01*
X2860777Y-795484D02*
X2898872Y-795484D01*
X2898872Y-795484D02*
X2917920Y-805008D01*
X2917920Y-805008D02*
X2927444Y-814531D01*
X2927444Y-814531D02*
X2936967Y-833579D01*
X2936967Y-833579D02*
X2936967Y-843103D01*
X2936967Y-843103D02*
X2927444Y-862150D01*
X2927444Y-862150D02*
X2917920Y-871674D01*
X2917920Y-871674D02*
X2898872Y-881198D01*
X2898872Y-881198D02*
X2860777Y-881198D01*
X2860777Y-881198D02*
X2841729Y-890722D01*
X2841729Y-890722D02*
X2832206Y-900246D01*
X2832206Y-900246D02*
X2822682Y-919293D01*
X2822682Y-919293D02*
X2822682Y-957388D01*
X2822682Y-957388D02*
X2832206Y-976436D01*
X2832206Y-976436D02*
X2841729Y-985960D01*
X2841729Y-985960D02*
X2860777Y-995484D01*
X2860777Y-995484D02*
X2898872Y-995484D01*
X2898872Y-995484D02*
X2917920Y-985960D01*
X2917920Y-985960D02*
X2927444Y-976436D01*
X2927444Y-976436D02*
X2936967Y-957388D01*
X2936967Y-957388D02*
X2936967Y-919293D01*
X2936967Y-919293D02*
X2927444Y-900246D01*
X2927444Y-900246D02*
X2917920Y-890722D01*
X2917920Y-890722D02*
X2898872Y-881198D01*
X3108396Y-862150D02*
X3108396Y-995484D01*
X3060777Y-785960D02*
X3013158Y-928817D01*
X3013158Y-928817D02*
X3136967Y-928817D01*
X3203634Y-795484D02*
X3203634Y-833579D01*
X3279825Y-795484D02*
X3279825Y-833579D01*
X3575063Y-1071674D02*
X3565539Y-1062150D01*
X3565539Y-1062150D02*
X3546491Y-1033579D01*
X3546491Y-1033579D02*
X3536968Y-1014531D01*
X3536968Y-1014531D02*
X3527444Y-985960D01*
X3527444Y-985960D02*
X3517920Y-938341D01*
X3517920Y-938341D02*
X3517920Y-900246D01*
X3517920Y-900246D02*
X3527444Y-852627D01*
X3527444Y-852627D02*
X3536968Y-824055D01*
X3536968Y-824055D02*
X3546491Y-805008D01*
X3546491Y-805008D02*
X3565539Y-776436D01*
X3565539Y-776436D02*
X3575063Y-766912D01*
X3756015Y-995484D02*
X3641729Y-995484D01*
X3698872Y-995484D02*
X3698872Y-795484D01*
X3698872Y-795484D02*
X3679825Y-824055D01*
X3679825Y-824055D02*
X3660777Y-843103D01*
X3660777Y-843103D02*
X3641729Y-852627D01*
X3994110Y-995484D02*
X3994110Y-795484D01*
X4079825Y-995484D02*
X4079825Y-890722D01*
X4079825Y-890722D02*
X4070301Y-871674D01*
X4070301Y-871674D02*
X4051253Y-862150D01*
X4051253Y-862150D02*
X4022682Y-862150D01*
X4022682Y-862150D02*
X4003634Y-871674D01*
X4003634Y-871674D02*
X3994110Y-881198D01*
X4203634Y-995484D02*
X4184587Y-985960D01*
X4184587Y-985960D02*
X4175063Y-976436D01*
X4175063Y-976436D02*
X4165539Y-957388D01*
X4165539Y-957388D02*
X4165539Y-900246D01*
X4165539Y-900246D02*
X4175063Y-881198D01*
X4175063Y-881198D02*
X4184587Y-871674D01*
X4184587Y-871674D02*
X4203634Y-862150D01*
X4203634Y-862150D02*
X4232206Y-862150D01*
X4232206Y-862150D02*
X4251253Y-871674D01*
X4251253Y-871674D02*
X4260777Y-881198D01*
X4260777Y-881198D02*
X4270301Y-900246D01*
X4270301Y-900246D02*
X4270301Y-957388D01*
X4270301Y-957388D02*
X4260777Y-976436D01*
X4260777Y-976436D02*
X4251253Y-985960D01*
X4251253Y-985960D02*
X4232206Y-995484D01*
X4232206Y-995484D02*
X4203634Y-995484D01*
X4384587Y-995484D02*
X4365539Y-985960D01*
X4365539Y-985960D02*
X4356015Y-966912D01*
X4356015Y-966912D02*
X4356015Y-795484D01*
X4536968Y-985960D02*
X4517920Y-995484D01*
X4517920Y-995484D02*
X4479825Y-995484D01*
X4479825Y-995484D02*
X4460777Y-985960D01*
X4460777Y-985960D02*
X4451253Y-966912D01*
X4451253Y-966912D02*
X4451253Y-890722D01*
X4451253Y-890722D02*
X4460777Y-871674D01*
X4460777Y-871674D02*
X4479825Y-862150D01*
X4479825Y-862150D02*
X4517920Y-862150D01*
X4517920Y-862150D02*
X4536968Y-871674D01*
X4536968Y-871674D02*
X4546492Y-890722D01*
X4546492Y-890722D02*
X4546492Y-909769D01*
X4546492Y-909769D02*
X4451253Y-928817D01*
X4613158Y-1071674D02*
X4622682Y-1062150D01*
X4622682Y-1062150D02*
X4641730Y-1033579D01*
X4641730Y-1033579D02*
X4651253Y-1014531D01*
X4651253Y-1014531D02*
X4660777Y-985960D01*
X4660777Y-985960D02*
X4670301Y-938341D01*
X4670301Y-938341D02*
X4670301Y-900246D01*
X4670301Y-900246D02*
X4660777Y-852627D01*
X4660777Y-852627D02*
X4651253Y-824055D01*
X4651253Y-824055D02*
X4641730Y-805008D01*
X4641730Y-805008D02*
X4622682Y-776436D01*
X4622682Y-776436D02*
X4613158Y-766912D01*
X4975063Y-1071674D02*
X4965539Y-1062150D01*
X4965539Y-1062150D02*
X4946492Y-1033579D01*
X4946492Y-1033579D02*
X4936968Y-1014531D01*
X4936968Y-1014531D02*
X4927444Y-985960D01*
X4927444Y-985960D02*
X4917920Y-938341D01*
X4917920Y-938341D02*
X4917920Y-900246D01*
X4917920Y-900246D02*
X4927444Y-852627D01*
X4927444Y-852627D02*
X4936968Y-824055D01*
X4936968Y-824055D02*
X4946492Y-805008D01*
X4946492Y-805008D02*
X4965539Y-776436D01*
X4965539Y-776436D02*
X4975063Y-766912D01*
X5051253Y-862150D02*
X5051253Y-995484D01*
X5051253Y-881198D02*
X5060777Y-871674D01*
X5060777Y-871674D02*
X5079825Y-862150D01*
X5079825Y-862150D02*
X5108396Y-862150D01*
X5108396Y-862150D02*
X5127444Y-871674D01*
X5127444Y-871674D02*
X5136968Y-890722D01*
X5136968Y-890722D02*
X5136968Y-995484D01*
X5260777Y-995484D02*
X5241730Y-985960D01*
X5241730Y-985960D02*
X5232206Y-976436D01*
X5232206Y-976436D02*
X5222682Y-957388D01*
X5222682Y-957388D02*
X5222682Y-900246D01*
X5222682Y-900246D02*
X5232206Y-881198D01*
X5232206Y-881198D02*
X5241730Y-871674D01*
X5241730Y-871674D02*
X5260777Y-862150D01*
X5260777Y-862150D02*
X5289349Y-862150D01*
X5289349Y-862150D02*
X5308396Y-871674D01*
X5308396Y-871674D02*
X5317920Y-881198D01*
X5317920Y-881198D02*
X5327444Y-900246D01*
X5327444Y-900246D02*
X5327444Y-957388D01*
X5327444Y-957388D02*
X5317920Y-976436D01*
X5317920Y-976436D02*
X5308396Y-985960D01*
X5308396Y-985960D02*
X5289349Y-995484D01*
X5289349Y-995484D02*
X5260777Y-995484D01*
X5384587Y-862150D02*
X5460777Y-862150D01*
X5413158Y-795484D02*
X5413158Y-966912D01*
X5413158Y-966912D02*
X5422682Y-985960D01*
X5422682Y-985960D02*
X5441730Y-995484D01*
X5441730Y-995484D02*
X5460777Y-995484D01*
X5679825Y-862150D02*
X5679825Y-1062150D01*
X5679825Y-871674D02*
X5698872Y-862150D01*
X5698872Y-862150D02*
X5736968Y-862150D01*
X5736968Y-862150D02*
X5756015Y-871674D01*
X5756015Y-871674D02*
X5765539Y-881198D01*
X5765539Y-881198D02*
X5775063Y-900246D01*
X5775063Y-900246D02*
X5775063Y-957388D01*
X5775063Y-957388D02*
X5765539Y-976436D01*
X5765539Y-976436D02*
X5756015Y-985960D01*
X5756015Y-985960D02*
X5736968Y-995484D01*
X5736968Y-995484D02*
X5698872Y-995484D01*
X5698872Y-995484D02*
X5679825Y-985960D01*
X5889349Y-995484D02*
X5870301Y-985960D01*
X5870301Y-985960D02*
X5860777Y-966912D01*
X5860777Y-966912D02*
X5860777Y-795484D01*
X6051253Y-995484D02*
X6051253Y-890722D01*
X6051253Y-890722D02*
X6041730Y-871674D01*
X6041730Y-871674D02*
X6022682Y-862150D01*
X6022682Y-862150D02*
X5984587Y-862150D01*
X5984587Y-862150D02*
X5965539Y-871674D01*
X6051253Y-985960D02*
X6032206Y-995484D01*
X6032206Y-995484D02*
X5984587Y-995484D01*
X5984587Y-995484D02*
X5965539Y-985960D01*
X5965539Y-985960D02*
X5956015Y-966912D01*
X5956015Y-966912D02*
X5956015Y-947865D01*
X5956015Y-947865D02*
X5965539Y-928817D01*
X5965539Y-928817D02*
X5984587Y-919293D01*
X5984587Y-919293D02*
X6032206Y-919293D01*
X6032206Y-919293D02*
X6051253Y-909769D01*
X6117920Y-862150D02*
X6194111Y-862150D01*
X6146492Y-795484D02*
X6146492Y-966912D01*
X6146492Y-966912D02*
X6156015Y-985960D01*
X6156015Y-985960D02*
X6175063Y-995484D01*
X6175063Y-995484D02*
X6194111Y-995484D01*
X6336968Y-985960D02*
X6317920Y-995484D01*
X6317920Y-995484D02*
X6279825Y-995484D01*
X6279825Y-995484D02*
X6260777Y-985960D01*
X6260777Y-985960D02*
X6251253Y-966912D01*
X6251253Y-966912D02*
X6251253Y-890722D01*
X6251253Y-890722D02*
X6260777Y-871674D01*
X6260777Y-871674D02*
X6279825Y-862150D01*
X6279825Y-862150D02*
X6317920Y-862150D01*
X6317920Y-862150D02*
X6336968Y-871674D01*
X6336968Y-871674D02*
X6346492Y-890722D01*
X6346492Y-890722D02*
X6346492Y-909769D01*
X6346492Y-909769D02*
X6251253Y-928817D01*
X6517920Y-995484D02*
X6517920Y-795484D01*
X6517920Y-985960D02*
X6498873Y-995484D01*
X6498873Y-995484D02*
X6460777Y-995484D01*
X6460777Y-995484D02*
X6441730Y-985960D01*
X6441730Y-985960D02*
X6432206Y-976436D01*
X6432206Y-976436D02*
X6422682Y-957388D01*
X6422682Y-957388D02*
X6422682Y-900246D01*
X6422682Y-900246D02*
X6432206Y-881198D01*
X6432206Y-881198D02*
X6441730Y-871674D01*
X6441730Y-871674D02*
X6460777Y-862150D01*
X6460777Y-862150D02*
X6498873Y-862150D01*
X6498873Y-862150D02*
X6517920Y-871674D01*
X6594111Y-1071674D02*
X6603634Y-1062150D01*
X6603634Y-1062150D02*
X6622682Y-1033579D01*
X6622682Y-1033579D02*
X6632206Y-1014531D01*
X6632206Y-1014531D02*
X6641730Y-985960D01*
X6641730Y-985960D02*
X6651253Y-938341D01*
X6651253Y-938341D02*
X6651253Y-900246D01*
X6651253Y-900246D02*
X6641730Y-852627D01*
X6641730Y-852627D02*
X6632206Y-824055D01*
X6632206Y-824055D02*
X6622682Y-805008D01*
X6622682Y-805008D02*
X6603634Y-776436D01*
X6603634Y-776436D02*
X6594111Y-766912D01*
X-100000Y-1124000D02*
X-100000Y-1324000D01*
X-200000Y-1224000D02*
X0Y-1224000D01*
X241729Y-1115484D02*
X365539Y-1115484D01*
X365539Y-1115484D02*
X298872Y-1191674D01*
X298872Y-1191674D02*
X327444Y-1191674D01*
X327444Y-1191674D02*
X346491Y-1201198D01*
X346491Y-1201198D02*
X356015Y-1210722D01*
X356015Y-1210722D02*
X365539Y-1229770D01*
X365539Y-1229770D02*
X365539Y-1277389D01*
X365539Y-1277389D02*
X356015Y-1296436D01*
X356015Y-1296436D02*
X346491Y-1305960D01*
X346491Y-1305960D02*
X327444Y-1315484D01*
X327444Y-1315484D02*
X270301Y-1315484D01*
X270301Y-1315484D02*
X251253Y-1305960D01*
X251253Y-1305960D02*
X241729Y-1296436D01*
X451253Y-1296436D02*
X460777Y-1305960D01*
X460777Y-1305960D02*
X451253Y-1315484D01*
X451253Y-1315484D02*
X441729Y-1305960D01*
X441729Y-1305960D02*
X451253Y-1296436D01*
X451253Y-1296436D02*
X451253Y-1315484D01*
X527444Y-1115484D02*
X651253Y-1115484D01*
X651253Y-1115484D02*
X584586Y-1191674D01*
X584586Y-1191674D02*
X613158Y-1191674D01*
X613158Y-1191674D02*
X632205Y-1201198D01*
X632205Y-1201198D02*
X641729Y-1210722D01*
X641729Y-1210722D02*
X651253Y-1229770D01*
X651253Y-1229770D02*
X651253Y-1277389D01*
X651253Y-1277389D02*
X641729Y-1296436D01*
X641729Y-1296436D02*
X632205Y-1305960D01*
X632205Y-1305960D02*
X613158Y-1315484D01*
X613158Y-1315484D02*
X556015Y-1315484D01*
X556015Y-1315484D02*
X536967Y-1305960D01*
X536967Y-1305960D02*
X527444Y-1296436D01*
X775062Y-1115484D02*
X794110Y-1115484D01*
X794110Y-1115484D02*
X813158Y-1125008D01*
X813158Y-1125008D02*
X822682Y-1134531D01*
X822682Y-1134531D02*
X832205Y-1153579D01*
X832205Y-1153579D02*
X841729Y-1191674D01*
X841729Y-1191674D02*
X841729Y-1239293D01*
X841729Y-1239293D02*
X832205Y-1277389D01*
X832205Y-1277389D02*
X822682Y-1296436D01*
X822682Y-1296436D02*
X813158Y-1305960D01*
X813158Y-1305960D02*
X794110Y-1315484D01*
X794110Y-1315484D02*
X775062Y-1315484D01*
X775062Y-1315484D02*
X756015Y-1305960D01*
X756015Y-1305960D02*
X746491Y-1296436D01*
X746491Y-1296436D02*
X736967Y-1277389D01*
X736967Y-1277389D02*
X727443Y-1239293D01*
X727443Y-1239293D02*
X727443Y-1191674D01*
X727443Y-1191674D02*
X736967Y-1153579D01*
X736967Y-1153579D02*
X746491Y-1134531D01*
X746491Y-1134531D02*
X756015Y-1125008D01*
X756015Y-1125008D02*
X775062Y-1115484D01*
X965539Y-1115484D02*
X984586Y-1115484D01*
X984586Y-1115484D02*
X1003634Y-1125008D01*
X1003634Y-1125008D02*
X1013158Y-1134531D01*
X1013158Y-1134531D02*
X1022682Y-1153579D01*
X1022682Y-1153579D02*
X1032205Y-1191674D01*
X1032205Y-1191674D02*
X1032205Y-1239293D01*
X1032205Y-1239293D02*
X1022682Y-1277389D01*
X1022682Y-1277389D02*
X1013158Y-1296436D01*
X1013158Y-1296436D02*
X1003634Y-1305960D01*
X1003634Y-1305960D02*
X984586Y-1315484D01*
X984586Y-1315484D02*
X965539Y-1315484D01*
X965539Y-1315484D02*
X946491Y-1305960D01*
X946491Y-1305960D02*
X936967Y-1296436D01*
X936967Y-1296436D02*
X927443Y-1277389D01*
X927443Y-1277389D02*
X917920Y-1239293D01*
X917920Y-1239293D02*
X917920Y-1191674D01*
X917920Y-1191674D02*
X927443Y-1153579D01*
X927443Y-1153579D02*
X936967Y-1134531D01*
X936967Y-1134531D02*
X946491Y-1125008D01*
X946491Y-1125008D02*
X965539Y-1115484D01*
X1117920Y-1315484D02*
X1117920Y-1182150D01*
X1117920Y-1201198D02*
X1127444Y-1191674D01*
X1127444Y-1191674D02*
X1146491Y-1182150D01*
X1146491Y-1182150D02*
X1175063Y-1182150D01*
X1175063Y-1182150D02*
X1194110Y-1191674D01*
X1194110Y-1191674D02*
X1203634Y-1210722D01*
X1203634Y-1210722D02*
X1203634Y-1315484D01*
X1203634Y-1210722D02*
X1213158Y-1191674D01*
X1213158Y-1191674D02*
X1232205Y-1182150D01*
X1232205Y-1182150D02*
X1260777Y-1182150D01*
X1260777Y-1182150D02*
X1279825Y-1191674D01*
X1279825Y-1191674D02*
X1289348Y-1210722D01*
X1289348Y-1210722D02*
X1289348Y-1315484D01*
X1384586Y-1315484D02*
X1384586Y-1182150D01*
X1384586Y-1201198D02*
X1394110Y-1191674D01*
X1394110Y-1191674D02*
X1413158Y-1182150D01*
X1413158Y-1182150D02*
X1441729Y-1182150D01*
X1441729Y-1182150D02*
X1460777Y-1191674D01*
X1460777Y-1191674D02*
X1470301Y-1210722D01*
X1470301Y-1210722D02*
X1470301Y-1315484D01*
X1470301Y-1210722D02*
X1479824Y-1191674D01*
X1479824Y-1191674D02*
X1498872Y-1182150D01*
X1498872Y-1182150D02*
X1527443Y-1182150D01*
X1527443Y-1182150D02*
X1546491Y-1191674D01*
X1546491Y-1191674D02*
X1556015Y-1210722D01*
X1556015Y-1210722D02*
X1556015Y-1315484D01*
X1946491Y-1105960D02*
X1775063Y-1363103D01*
X2203634Y-1115484D02*
X2222682Y-1115484D01*
X2222682Y-1115484D02*
X2241729Y-1125008D01*
X2241729Y-1125008D02*
X2251253Y-1134531D01*
X2251253Y-1134531D02*
X2260777Y-1153579D01*
X2260777Y-1153579D02*
X2270301Y-1191674D01*
X2270301Y-1191674D02*
X2270301Y-1239293D01*
X2270301Y-1239293D02*
X2260777Y-1277389D01*
X2260777Y-1277389D02*
X2251253Y-1296436D01*
X2251253Y-1296436D02*
X2241729Y-1305960D01*
X2241729Y-1305960D02*
X2222682Y-1315484D01*
X2222682Y-1315484D02*
X2203634Y-1315484D01*
X2203634Y-1315484D02*
X2184587Y-1305960D01*
X2184587Y-1305960D02*
X2175063Y-1296436D01*
X2175063Y-1296436D02*
X2165539Y-1277389D01*
X2165539Y-1277389D02*
X2156015Y-1239293D01*
X2156015Y-1239293D02*
X2156015Y-1191674D01*
X2156015Y-1191674D02*
X2165539Y-1153579D01*
X2165539Y-1153579D02*
X2175063Y-1134531D01*
X2175063Y-1134531D02*
X2184587Y-1125008D01*
X2184587Y-1125008D02*
X2203634Y-1115484D01*
X2356015Y-1296436D02*
X2365539Y-1305960D01*
X2365539Y-1305960D02*
X2356015Y-1315484D01*
X2356015Y-1315484D02*
X2346491Y-1305960D01*
X2346491Y-1305960D02*
X2356015Y-1296436D01*
X2356015Y-1296436D02*
X2356015Y-1315484D01*
X2556015Y-1315484D02*
X2441729Y-1315484D01*
X2498872Y-1315484D02*
X2498872Y-1115484D01*
X2498872Y-1115484D02*
X2479825Y-1144055D01*
X2479825Y-1144055D02*
X2460777Y-1163103D01*
X2460777Y-1163103D02*
X2441729Y-1172627D01*
X2632206Y-1134531D02*
X2641729Y-1125008D01*
X2641729Y-1125008D02*
X2660777Y-1115484D01*
X2660777Y-1115484D02*
X2708396Y-1115484D01*
X2708396Y-1115484D02*
X2727444Y-1125008D01*
X2727444Y-1125008D02*
X2736968Y-1134531D01*
X2736968Y-1134531D02*
X2746491Y-1153579D01*
X2746491Y-1153579D02*
X2746491Y-1172627D01*
X2746491Y-1172627D02*
X2736968Y-1201198D01*
X2736968Y-1201198D02*
X2622682Y-1315484D01*
X2622682Y-1315484D02*
X2746491Y-1315484D01*
X2841729Y-1315484D02*
X2879825Y-1315484D01*
X2879825Y-1315484D02*
X2898872Y-1305960D01*
X2898872Y-1305960D02*
X2908396Y-1296436D01*
X2908396Y-1296436D02*
X2927444Y-1267865D01*
X2927444Y-1267865D02*
X2936967Y-1229770D01*
X2936967Y-1229770D02*
X2936967Y-1153579D01*
X2936967Y-1153579D02*
X2927444Y-1134531D01*
X2927444Y-1134531D02*
X2917920Y-1125008D01*
X2917920Y-1125008D02*
X2898872Y-1115484D01*
X2898872Y-1115484D02*
X2860777Y-1115484D01*
X2860777Y-1115484D02*
X2841729Y-1125008D01*
X2841729Y-1125008D02*
X2832206Y-1134531D01*
X2832206Y-1134531D02*
X2822682Y-1153579D01*
X2822682Y-1153579D02*
X2822682Y-1201198D01*
X2822682Y-1201198D02*
X2832206Y-1220246D01*
X2832206Y-1220246D02*
X2841729Y-1229770D01*
X2841729Y-1229770D02*
X2860777Y-1239293D01*
X2860777Y-1239293D02*
X2898872Y-1239293D01*
X2898872Y-1239293D02*
X2917920Y-1229770D01*
X2917920Y-1229770D02*
X2927444Y-1220246D01*
X2927444Y-1220246D02*
X2936967Y-1201198D01*
X3032206Y-1315484D02*
X3070301Y-1315484D01*
X3070301Y-1315484D02*
X3089348Y-1305960D01*
X3089348Y-1305960D02*
X3098872Y-1296436D01*
X3098872Y-1296436D02*
X3117920Y-1267865D01*
X3117920Y-1267865D02*
X3127444Y-1229770D01*
X3127444Y-1229770D02*
X3127444Y-1153579D01*
X3127444Y-1153579D02*
X3117920Y-1134531D01*
X3117920Y-1134531D02*
X3108396Y-1125008D01*
X3108396Y-1125008D02*
X3089348Y-1115484D01*
X3089348Y-1115484D02*
X3051253Y-1115484D01*
X3051253Y-1115484D02*
X3032206Y-1125008D01*
X3032206Y-1125008D02*
X3022682Y-1134531D01*
X3022682Y-1134531D02*
X3013158Y-1153579D01*
X3013158Y-1153579D02*
X3013158Y-1201198D01*
X3013158Y-1201198D02*
X3022682Y-1220246D01*
X3022682Y-1220246D02*
X3032206Y-1229770D01*
X3032206Y-1229770D02*
X3051253Y-1239293D01*
X3051253Y-1239293D02*
X3089348Y-1239293D01*
X3089348Y-1239293D02*
X3108396Y-1229770D01*
X3108396Y-1229770D02*
X3117920Y-1220246D01*
X3117920Y-1220246D02*
X3127444Y-1201198D01*
X3203634Y-1115484D02*
X3203634Y-1153579D01*
X3279825Y-1115484D02*
X3279825Y-1153579D01*
X3575063Y-1391674D02*
X3565539Y-1382150D01*
X3565539Y-1382150D02*
X3546491Y-1353579D01*
X3546491Y-1353579D02*
X3536968Y-1334531D01*
X3536968Y-1334531D02*
X3527444Y-1305960D01*
X3527444Y-1305960D02*
X3517920Y-1258341D01*
X3517920Y-1258341D02*
X3517920Y-1220246D01*
X3517920Y-1220246D02*
X3527444Y-1172627D01*
X3527444Y-1172627D02*
X3536968Y-1144055D01*
X3536968Y-1144055D02*
X3546491Y-1125008D01*
X3546491Y-1125008D02*
X3565539Y-1096436D01*
X3565539Y-1096436D02*
X3575063Y-1086912D01*
X3641729Y-1134531D02*
X3651253Y-1125008D01*
X3651253Y-1125008D02*
X3670301Y-1115484D01*
X3670301Y-1115484D02*
X3717920Y-1115484D01*
X3717920Y-1115484D02*
X3736968Y-1125008D01*
X3736968Y-1125008D02*
X3746491Y-1134531D01*
X3746491Y-1134531D02*
X3756015Y-1153579D01*
X3756015Y-1153579D02*
X3756015Y-1172627D01*
X3756015Y-1172627D02*
X3746491Y-1201198D01*
X3746491Y-1201198D02*
X3632206Y-1315484D01*
X3632206Y-1315484D02*
X3756015Y-1315484D01*
X3994110Y-1315484D02*
X3994110Y-1115484D01*
X4079825Y-1315484D02*
X4079825Y-1210722D01*
X4079825Y-1210722D02*
X4070301Y-1191674D01*
X4070301Y-1191674D02*
X4051253Y-1182150D01*
X4051253Y-1182150D02*
X4022682Y-1182150D01*
X4022682Y-1182150D02*
X4003634Y-1191674D01*
X4003634Y-1191674D02*
X3994110Y-1201198D01*
X4203634Y-1315484D02*
X4184587Y-1305960D01*
X4184587Y-1305960D02*
X4175063Y-1296436D01*
X4175063Y-1296436D02*
X4165539Y-1277389D01*
X4165539Y-1277389D02*
X4165539Y-1220246D01*
X4165539Y-1220246D02*
X4175063Y-1201198D01*
X4175063Y-1201198D02*
X4184587Y-1191674D01*
X4184587Y-1191674D02*
X4203634Y-1182150D01*
X4203634Y-1182150D02*
X4232206Y-1182150D01*
X4232206Y-1182150D02*
X4251253Y-1191674D01*
X4251253Y-1191674D02*
X4260777Y-1201198D01*
X4260777Y-1201198D02*
X4270301Y-1220246D01*
X4270301Y-1220246D02*
X4270301Y-1277389D01*
X4270301Y-1277389D02*
X4260777Y-1296436D01*
X4260777Y-1296436D02*
X4251253Y-1305960D01*
X4251253Y-1305960D02*
X4232206Y-1315484D01*
X4232206Y-1315484D02*
X4203634Y-1315484D01*
X4384587Y-1315484D02*
X4365539Y-1305960D01*
X4365539Y-1305960D02*
X4356015Y-1286912D01*
X4356015Y-1286912D02*
X4356015Y-1115484D01*
X4536968Y-1305960D02*
X4517920Y-1315484D01*
X4517920Y-1315484D02*
X4479825Y-1315484D01*
X4479825Y-1315484D02*
X4460777Y-1305960D01*
X4460777Y-1305960D02*
X4451253Y-1286912D01*
X4451253Y-1286912D02*
X4451253Y-1210722D01*
X4451253Y-1210722D02*
X4460777Y-1191674D01*
X4460777Y-1191674D02*
X4479825Y-1182150D01*
X4479825Y-1182150D02*
X4517920Y-1182150D01*
X4517920Y-1182150D02*
X4536968Y-1191674D01*
X4536968Y-1191674D02*
X4546492Y-1210722D01*
X4546492Y-1210722D02*
X4546492Y-1229770D01*
X4546492Y-1229770D02*
X4451253Y-1248817D01*
X4622682Y-1305960D02*
X4641730Y-1315484D01*
X4641730Y-1315484D02*
X4679825Y-1315484D01*
X4679825Y-1315484D02*
X4698873Y-1305960D01*
X4698873Y-1305960D02*
X4708396Y-1286912D01*
X4708396Y-1286912D02*
X4708396Y-1277389D01*
X4708396Y-1277389D02*
X4698873Y-1258341D01*
X4698873Y-1258341D02*
X4679825Y-1248817D01*
X4679825Y-1248817D02*
X4651253Y-1248817D01*
X4651253Y-1248817D02*
X4632206Y-1239293D01*
X4632206Y-1239293D02*
X4622682Y-1220246D01*
X4622682Y-1220246D02*
X4622682Y-1210722D01*
X4622682Y-1210722D02*
X4632206Y-1191674D01*
X4632206Y-1191674D02*
X4651253Y-1182150D01*
X4651253Y-1182150D02*
X4679825Y-1182150D01*
X4679825Y-1182150D02*
X4698873Y-1191674D01*
X4775063Y-1391674D02*
X4784587Y-1382150D01*
X4784587Y-1382150D02*
X4803634Y-1353579D01*
X4803634Y-1353579D02*
X4813158Y-1334531D01*
X4813158Y-1334531D02*
X4822682Y-1305960D01*
X4822682Y-1305960D02*
X4832206Y-1258341D01*
X4832206Y-1258341D02*
X4832206Y-1220246D01*
X4832206Y-1220246D02*
X4822682Y-1172627D01*
X4822682Y-1172627D02*
X4813158Y-1144055D01*
X4813158Y-1144055D02*
X4803634Y-1125008D01*
X4803634Y-1125008D02*
X4784587Y-1096436D01*
X4784587Y-1096436D02*
X4775063Y-1086912D01*
X5136968Y-1391674D02*
X5127444Y-1382150D01*
X5127444Y-1382150D02*
X5108396Y-1353579D01*
X5108396Y-1353579D02*
X5098873Y-1334531D01*
X5098873Y-1334531D02*
X5089349Y-1305960D01*
X5089349Y-1305960D02*
X5079825Y-1258341D01*
X5079825Y-1258341D02*
X5079825Y-1220246D01*
X5079825Y-1220246D02*
X5089349Y-1172627D01*
X5089349Y-1172627D02*
X5098873Y-1144055D01*
X5098873Y-1144055D02*
X5108396Y-1125008D01*
X5108396Y-1125008D02*
X5127444Y-1096436D01*
X5127444Y-1096436D02*
X5136968Y-1086912D01*
X5213158Y-1182150D02*
X5213158Y-1315484D01*
X5213158Y-1201198D02*
X5222682Y-1191674D01*
X5222682Y-1191674D02*
X5241730Y-1182150D01*
X5241730Y-1182150D02*
X5270301Y-1182150D01*
X5270301Y-1182150D02*
X5289349Y-1191674D01*
X5289349Y-1191674D02*
X5298873Y-1210722D01*
X5298873Y-1210722D02*
X5298873Y-1315484D01*
X5422682Y-1315484D02*
X5403634Y-1305960D01*
X5403634Y-1305960D02*
X5394111Y-1296436D01*
X5394111Y-1296436D02*
X5384587Y-1277389D01*
X5384587Y-1277389D02*
X5384587Y-1220246D01*
X5384587Y-1220246D02*
X5394111Y-1201198D01*
X5394111Y-1201198D02*
X5403634Y-1191674D01*
X5403634Y-1191674D02*
X5422682Y-1182150D01*
X5422682Y-1182150D02*
X5451254Y-1182150D01*
X5451254Y-1182150D02*
X5470301Y-1191674D01*
X5470301Y-1191674D02*
X5479825Y-1201198D01*
X5479825Y-1201198D02*
X5489349Y-1220246D01*
X5489349Y-1220246D02*
X5489349Y-1277389D01*
X5489349Y-1277389D02*
X5479825Y-1296436D01*
X5479825Y-1296436D02*
X5470301Y-1305960D01*
X5470301Y-1305960D02*
X5451254Y-1315484D01*
X5451254Y-1315484D02*
X5422682Y-1315484D01*
X5546492Y-1182150D02*
X5622682Y-1182150D01*
X5575063Y-1115484D02*
X5575063Y-1286912D01*
X5575063Y-1286912D02*
X5584587Y-1305960D01*
X5584587Y-1305960D02*
X5603634Y-1315484D01*
X5603634Y-1315484D02*
X5622682Y-1315484D01*
X5841730Y-1182150D02*
X5841730Y-1382150D01*
X5841730Y-1191674D02*
X5860777Y-1182150D01*
X5860777Y-1182150D02*
X5898873Y-1182150D01*
X5898873Y-1182150D02*
X5917920Y-1191674D01*
X5917920Y-1191674D02*
X5927444Y-1201198D01*
X5927444Y-1201198D02*
X5936968Y-1220246D01*
X5936968Y-1220246D02*
X5936968Y-1277389D01*
X5936968Y-1277389D02*
X5927444Y-1296436D01*
X5927444Y-1296436D02*
X5917920Y-1305960D01*
X5917920Y-1305960D02*
X5898873Y-1315484D01*
X5898873Y-1315484D02*
X5860777Y-1315484D01*
X5860777Y-1315484D02*
X5841730Y-1305960D01*
X6051253Y-1315484D02*
X6032206Y-1305960D01*
X6032206Y-1305960D02*
X6022682Y-1286912D01*
X6022682Y-1286912D02*
X6022682Y-1115484D01*
X6213158Y-1315484D02*
X6213158Y-1210722D01*
X6213158Y-1210722D02*
X6203634Y-1191674D01*
X6203634Y-1191674D02*
X6184587Y-1182150D01*
X6184587Y-1182150D02*
X6146492Y-1182150D01*
X6146492Y-1182150D02*
X6127444Y-1191674D01*
X6213158Y-1305960D02*
X6194111Y-1315484D01*
X6194111Y-1315484D02*
X6146492Y-1315484D01*
X6146492Y-1315484D02*
X6127444Y-1305960D01*
X6127444Y-1305960D02*
X6117920Y-1286912D01*
X6117920Y-1286912D02*
X6117920Y-1267865D01*
X6117920Y-1267865D02*
X6127444Y-1248817D01*
X6127444Y-1248817D02*
X6146492Y-1239293D01*
X6146492Y-1239293D02*
X6194111Y-1239293D01*
X6194111Y-1239293D02*
X6213158Y-1229770D01*
X6279825Y-1182150D02*
X6356015Y-1182150D01*
X6308396Y-1115484D02*
X6308396Y-1286912D01*
X6308396Y-1286912D02*
X6317920Y-1305960D01*
X6317920Y-1305960D02*
X6336968Y-1315484D01*
X6336968Y-1315484D02*
X6356015Y-1315484D01*
X6498873Y-1305960D02*
X6479825Y-1315484D01*
X6479825Y-1315484D02*
X6441730Y-1315484D01*
X6441730Y-1315484D02*
X6422682Y-1305960D01*
X6422682Y-1305960D02*
X6413158Y-1286912D01*
X6413158Y-1286912D02*
X6413158Y-1210722D01*
X6413158Y-1210722D02*
X6422682Y-1191674D01*
X6422682Y-1191674D02*
X6441730Y-1182150D01*
X6441730Y-1182150D02*
X6479825Y-1182150D01*
X6479825Y-1182150D02*
X6498873Y-1191674D01*
X6498873Y-1191674D02*
X6508396Y-1210722D01*
X6508396Y-1210722D02*
X6508396Y-1229770D01*
X6508396Y-1229770D02*
X6413158Y-1248817D01*
X6679825Y-1315484D02*
X6679825Y-1115484D01*
X6679825Y-1305960D02*
X6660777Y-1315484D01*
X6660777Y-1315484D02*
X6622682Y-1315484D01*
X6622682Y-1315484D02*
X6603634Y-1305960D01*
X6603634Y-1305960D02*
X6594111Y-1296436D01*
X6594111Y-1296436D02*
X6584587Y-1277389D01*
X6584587Y-1277389D02*
X6584587Y-1220246D01*
X6584587Y-1220246D02*
X6594111Y-1201198D01*
X6594111Y-1201198D02*
X6603634Y-1191674D01*
X6603634Y-1191674D02*
X6622682Y-1182150D01*
X6622682Y-1182150D02*
X6660777Y-1182150D01*
X6660777Y-1182150D02*
X6679825Y-1191674D01*
X6756015Y-1391674D02*
X6765539Y-1382150D01*
X6765539Y-1382150D02*
X6784587Y-1353579D01*
X6784587Y-1353579D02*
X6794111Y-1334531D01*
X6794111Y-1334531D02*
X6803634Y-1305960D01*
X6803634Y-1305960D02*
X6813158Y-1258341D01*
X6813158Y-1258341D02*
X6813158Y-1220246D01*
X6813158Y-1220246D02*
X6803634Y-1172627D01*
X6803634Y-1172627D02*
X6794111Y-1144055D01*
X6794111Y-1144055D02*
X6784587Y-1125008D01*
X6784587Y-1125008D02*
X6765539Y-1096436D01*
X6765539Y-1096436D02*
X6756015Y-1086912D01*
M02*
