M48
; DRILL file {KiCad 7.0.8} date Thu Mar 21 14:38:14 2024
; FORMAT={-:-/ absolute / metric / decimal}
; #@! TF.CreationDate,2024-03-21T14:38:14-03:00
; #@! TF.GenerationSoftware,Kicad,Pcbnew,7.0.8
; #@! TF.FileFunction,Plated,1,4,PTH
FMAT,2
METRIC
; #@! TA.AperFunction,Plated,PTH,ViaDrill
T1C0.200
; #@! TA.AperFunction,Plated,PTH,ViaDrill
T2C0.250
; #@! TA.AperFunction,Plated,PTH,ViaDrill
T3C0.300
; #@! TA.AperFunction,Plated,PTH,ViaDrill
T4C0.500
; #@! TA.AperFunction,Plated,PTH,ViaDrill
T5C0.750
; #@! TA.AperFunction,Plated,PTH,ComponentDrill
T6C1.000
; #@! TA.AperFunction,Plated,PTH,ComponentDrill
T7C2.000
; #@! TA.AperFunction,Plated,PTH,ViaDrill
T8C3.500
%
G90
G05
T1
X69.9Y-78.0
X72.799Y-89.44
X74.459Y-88.99
X74.459Y-90.565
X79.069Y-90.34
T2
X61.25Y-106.6
X63.25Y-75.6
X64.3Y-100.35
X64.5Y-94.95
X64.85Y-92.85
X64.9Y-80.8
X65.1Y-90.2
X66.05Y-54.35
X67.5Y-79.75
X70.15Y-100.8
X70.15Y-105.1
X70.45Y-91.3
X71.2Y-51.0
X72.9Y-90.4
X73.55Y-82.2
X73.65Y-99.6
X73.95Y-88.65
X74.05Y-91.1
X74.15Y-94.1
X74.5Y-96.8
X74.55Y-84.45
X75.75Y-79.15
X76.75Y-88.05
X76.85Y-98.95
X79.0Y-50.95
X79.1Y-91.6
X79.25Y-79.75
X79.3Y-96.8
X79.89Y-88.202
X79.9Y-93.3
X80.0Y-99.6
X81.2Y-54.85
X81.75Y-88.2
X81.9Y-93.65
X82.5Y-97.85
X83.15Y-91.8
X83.45Y-101.2
X83.45Y-104.35
X83.6Y-89.15
X83.9Y-54.85
X86.6Y-64.3
X86.6Y-68.35
X86.6Y-88.5
X86.65Y-84.6
X87.3Y-97.88
X87.3Y-103.7
X87.35Y-97.2
X87.85Y-81.3
X87.9Y-71.7
X87.9Y-73.7
X87.9Y-79.3
X88.58Y-73.65
X88.58Y-79.35
X88.65Y-102.15
X90.55Y-104.15
X91.45Y-69.4
X91.75Y-95.5
X91.75Y-97.25
X92.6Y-81.2
X92.8Y-75.35
X95.75Y-97.25
X96.05Y-63.8
X96.05Y-83.35
X97.6Y-90.85
X98.1Y-88.7
X98.4Y-82.3
X99.3Y-90.75
X99.4Y-79.5
X99.55Y-97.8
X100.7Y-91.6
X100.936Y-56.21
X100.95Y-58.5
X101.6Y-54.1
X101.7Y-96.95
X101.75Y-73.3
X101.9Y-91.6
X103.35Y-90.75
X103.4Y-64.35
X104.35Y-79.35
X104.75Y-76.1
X105.9Y-70.7
X106.1Y-82.2
X106.85Y-79.25
X107.25Y-57.55
X107.35Y-51.25
X107.85Y-79.35
X108.3Y-84.5
X108.35Y-91.85
X108.65Y-64.35
X108.95Y-79.35
X109.15Y-87.85
X110.11Y-69.201
X110.35Y-49.0
X110.75Y-65.45
X111.15Y-57.55
X112.75Y-99.9
X112.83Y-66.611
X113.3Y-90.25
X114.0Y-94.2
X114.0Y-95.4
X114.0Y-96.65
X114.0Y-97.9
X114.25Y-78.85
X114.8Y-69.2
X115.4Y-65.05
X115.6Y-57.55
X116.05Y-86.65
X117.05Y-95.4
X117.05Y-96.65
X117.1Y-53.15
X117.35Y-98.05
X117.6Y-65.3
X117.6Y-66.7
X117.6Y-69.2
X117.6Y-71.75
X117.6Y-74.25
X117.85Y-91.5
X119.8Y-66.7
X119.9Y-63.65
X119.95Y-91.5
X120.15Y-57.55
X120.15Y-98.4
X120.2Y-101.8
X120.3Y-81.9
X120.4Y-72.95
X120.45Y-69.6
X121.15Y-52.1
X121.15Y-85.75
X121.75Y-74.2
X121.8Y-71.55
X121.9Y-65.7
X122.1Y-78.9
X122.2Y-90.65
X122.3Y-98.4
X123.1Y-74.2
X123.35Y-64.65
X123.8Y-103.65
X124.55Y-97.25
X124.7Y-74.3
X124.85Y-57.55
X125.85Y-66.9
X126.1Y-85.6
X126.125Y-86.2
X126.15Y-87.45
X126.65Y-64.4
X126.9Y-81.7
X126.9Y-82.85
X127.2Y-69.55
X127.25Y-86.2
X127.275Y-87.45
X127.4Y-103.65
X127.5Y-72.85
X127.6Y-64.35
X128.1Y-67.85
X128.15Y-86.2
X128.15Y-95.75
X128.175Y-87.45
X128.3Y-85.2
X128.6Y-50.15
X128.6Y-77.95
X128.7Y-56.75
X129.15Y-86.2
X129.175Y-87.45
X129.7Y-79.05
X130.125Y-86.2
X130.15Y-87.45
X130.4Y-64.6
X130.65Y-75.8
X130.7Y-80.1
X130.7Y-103.65
X131.125Y-86.2
X131.15Y-87.45
X131.35Y-61.85
X131.4Y-94.4
X132.15Y-85.9
X132.175Y-87.6
X132.35Y-70.55
X132.925Y-85.125
X133.15Y-87.6
X133.3Y-61.9
X133.65Y-85.9
X134.05Y-75.8
X134.15Y-87.6
X134.3Y-85.9
X134.9Y-96.0
X135.05Y-85.9
X135.05Y-87.6
X136.45Y-60.1
X136.595Y-85.245
X136.745Y-86.2
X136.75Y-87.5
X137.25Y-102.75
X137.4Y-50.1
X137.4Y-54.75
X137.4Y-98.15
X138.1Y-86.2
X138.1Y-87.45
X138.25Y-96.95
X138.925Y-86.2
X138.925Y-87.45
X139.05Y-91.7
X139.725Y-86.2
X139.725Y-87.45
X141.35Y-50.05
X141.5Y-102.75
X142.95Y-61.6
X142.95Y-76.1
X143.75Y-54.85
T3
X64.75Y-91.328
X71.229Y-91.214
X75.16Y-92.514
X78.21Y-92.194
X79.86Y-92.194
X88.55Y-103.0
X90.95Y-70.06
X91.4Y-104.0
X96.824Y-83.385
X96.824Y-90.836
X98.0Y-89.65
X100.05Y-77.15
X100.05Y-90.75
X101.3Y-77.15
X101.3Y-90.75
X102.4Y-73.95
X102.55Y-77.15
X102.55Y-90.75
X103.243Y-74.793
X104.1Y-75.6
X106.95Y-82.235
X109.1Y-84.5
X109.45Y-70.0
X112.05Y-100.5
X113.3Y-96.05
X113.3Y-97.3
X113.35Y-94.8
X114.1Y-70.0
X114.175Y-74.5
X114.175Y-90.68
X117.625Y-90.68
X119.7Y-67.58
X119.925Y-90.68
X121.1Y-65.98
X122.5Y-64.68
X123.8Y-97.3
X123.9Y-74.1
X126.23Y-81.085
X126.23Y-82.235
X126.23Y-83.385
X126.63Y-66.86
X126.78Y-73.5
X127.4Y-96.05
X127.88Y-84.535
X128.04Y-72.2
X128.09Y-68.64
X128.09Y-69.91
X128.88Y-78.785
X129.88Y-79.935
X130.7Y-94.8
X135.7Y-60.5
X135.7Y-96.15
X137.47Y-55.95
X137.47Y-96.95
T4
X65.8Y-57.277
X82.699Y-89.885
T5
X62.06Y-76.8
T6
X82.6Y-52.3
X85.14Y-52.3
X87.68Y-52.3
X90.22Y-52.3
X91.744Y-100.56
X92.76Y-52.3
X94.284Y-100.56
X95.3Y-52.3
X96.824Y-100.56
X97.84Y-52.3
X99.364Y-100.56
X100.38Y-52.3
X101.904Y-100.56
X102.92Y-52.3
X104.444Y-100.56
X104.9Y-57.475
X104.9Y-60.015
X104.9Y-62.555
X105.46Y-52.3
X106.95Y-94.0
X106.984Y-100.56
X109.49Y-94.0
X109.5Y-57.475
X109.5Y-60.015
X109.5Y-62.555
X109.524Y-100.56
X114.1Y-57.475
X114.1Y-60.015
X114.1Y-62.555
X114.604Y-100.56
X117.144Y-100.56
X118.7Y-57.475
X118.7Y-60.015
X118.7Y-62.555
X123.3Y-57.475
X123.3Y-60.015
X123.3Y-62.555
X127.304Y-52.3
X129.844Y-52.3
T7
X50.0Y-40.61
X50.0Y-112.19
T8
X64.45Y-104.25
X74.95Y-50.75
X78.5Y-83.4
X98.95Y-61.75
X141.25Y-57.95
X141.25Y-94.9
T0
M30
